G04 #@! TF.GenerationSoftware,KiCad,Pcbnew,5.1.5+dfsg1-2build2*
G04 #@! TF.CreationDate,2020-09-05T16:32:43+02:00*
G04 #@! TF.ProjectId,onstep-ramps-shield,6f6e7374-6570-42d7-9261-6d70732d7368,1*
G04 #@! TF.SameCoordinates,Original*
G04 #@! TF.FileFunction,Copper,L1,Top*
G04 #@! TF.FilePolarity,Positive*
%FSLAX46Y46*%
G04 Gerber Fmt 4.6, Leading zero omitted, Abs format (unit mm)*
G04 Created by KiCad (PCBNEW 5.1.5+dfsg1-2build2) date 2020-09-05 16:32:43*
%MOMM*%
%LPD*%
G04 APERTURE LIST*
%ADD10O,1.700000X1.700000*%
%ADD11R,1.700000X1.700000*%
%ADD12C,0.152400*%
%ADD13R,1.520000X1.520000*%
%ADD14C,1.520000*%
%ADD15O,1.800000X2.800000*%
%ADD16C,2.000000*%
%ADD17R,2.000000X2.000000*%
%ADD18C,0.800000*%
%ADD19C,0.500000*%
%ADD20C,0.250000*%
%ADD21C,0.254000*%
G04 APERTURE END LIST*
D10*
X142240000Y-62230000D03*
X142240000Y-64770000D03*
X142240000Y-67310000D03*
D11*
X142240000Y-69850000D03*
G04 #@! TA.AperFunction,SMDPad,CuDef*
D12*
G36*
X92970779Y-113776144D02*
G01*
X92993834Y-113779563D01*
X93016443Y-113785227D01*
X93038387Y-113793079D01*
X93059457Y-113803044D01*
X93079448Y-113815026D01*
X93098168Y-113828910D01*
X93115438Y-113844562D01*
X93131090Y-113861832D01*
X93144974Y-113880552D01*
X93156956Y-113900543D01*
X93166921Y-113921613D01*
X93174773Y-113943557D01*
X93180437Y-113966166D01*
X93183856Y-113989221D01*
X93185000Y-114012500D01*
X93185000Y-114587500D01*
X93183856Y-114610779D01*
X93180437Y-114633834D01*
X93174773Y-114656443D01*
X93166921Y-114678387D01*
X93156956Y-114699457D01*
X93144974Y-114719448D01*
X93131090Y-114738168D01*
X93115438Y-114755438D01*
X93098168Y-114771090D01*
X93079448Y-114784974D01*
X93059457Y-114796956D01*
X93038387Y-114806921D01*
X93016443Y-114814773D01*
X92993834Y-114820437D01*
X92970779Y-114823856D01*
X92947500Y-114825000D01*
X92472500Y-114825000D01*
X92449221Y-114823856D01*
X92426166Y-114820437D01*
X92403557Y-114814773D01*
X92381613Y-114806921D01*
X92360543Y-114796956D01*
X92340552Y-114784974D01*
X92321832Y-114771090D01*
X92304562Y-114755438D01*
X92288910Y-114738168D01*
X92275026Y-114719448D01*
X92263044Y-114699457D01*
X92253079Y-114678387D01*
X92245227Y-114656443D01*
X92239563Y-114633834D01*
X92236144Y-114610779D01*
X92235000Y-114587500D01*
X92235000Y-114012500D01*
X92236144Y-113989221D01*
X92239563Y-113966166D01*
X92245227Y-113943557D01*
X92253079Y-113921613D01*
X92263044Y-113900543D01*
X92275026Y-113880552D01*
X92288910Y-113861832D01*
X92304562Y-113844562D01*
X92321832Y-113828910D01*
X92340552Y-113815026D01*
X92360543Y-113803044D01*
X92381613Y-113793079D01*
X92403557Y-113785227D01*
X92426166Y-113779563D01*
X92449221Y-113776144D01*
X92472500Y-113775000D01*
X92947500Y-113775000D01*
X92970779Y-113776144D01*
G37*
G04 #@! TD.AperFunction*
G04 #@! TA.AperFunction,SMDPad,CuDef*
G36*
X92970779Y-115526144D02*
G01*
X92993834Y-115529563D01*
X93016443Y-115535227D01*
X93038387Y-115543079D01*
X93059457Y-115553044D01*
X93079448Y-115565026D01*
X93098168Y-115578910D01*
X93115438Y-115594562D01*
X93131090Y-115611832D01*
X93144974Y-115630552D01*
X93156956Y-115650543D01*
X93166921Y-115671613D01*
X93174773Y-115693557D01*
X93180437Y-115716166D01*
X93183856Y-115739221D01*
X93185000Y-115762500D01*
X93185000Y-116337500D01*
X93183856Y-116360779D01*
X93180437Y-116383834D01*
X93174773Y-116406443D01*
X93166921Y-116428387D01*
X93156956Y-116449457D01*
X93144974Y-116469448D01*
X93131090Y-116488168D01*
X93115438Y-116505438D01*
X93098168Y-116521090D01*
X93079448Y-116534974D01*
X93059457Y-116546956D01*
X93038387Y-116556921D01*
X93016443Y-116564773D01*
X92993834Y-116570437D01*
X92970779Y-116573856D01*
X92947500Y-116575000D01*
X92472500Y-116575000D01*
X92449221Y-116573856D01*
X92426166Y-116570437D01*
X92403557Y-116564773D01*
X92381613Y-116556921D01*
X92360543Y-116546956D01*
X92340552Y-116534974D01*
X92321832Y-116521090D01*
X92304562Y-116505438D01*
X92288910Y-116488168D01*
X92275026Y-116469448D01*
X92263044Y-116449457D01*
X92253079Y-116428387D01*
X92245227Y-116406443D01*
X92239563Y-116383834D01*
X92236144Y-116360779D01*
X92235000Y-116337500D01*
X92235000Y-115762500D01*
X92236144Y-115739221D01*
X92239563Y-115716166D01*
X92245227Y-115693557D01*
X92253079Y-115671613D01*
X92263044Y-115650543D01*
X92275026Y-115630552D01*
X92288910Y-115611832D01*
X92304562Y-115594562D01*
X92321832Y-115578910D01*
X92340552Y-115565026D01*
X92360543Y-115553044D01*
X92381613Y-115543079D01*
X92403557Y-115535227D01*
X92426166Y-115529563D01*
X92449221Y-115526144D01*
X92472500Y-115525000D01*
X92947500Y-115525000D01*
X92970779Y-115526144D01*
G37*
G04 #@! TD.AperFunction*
G04 #@! TA.AperFunction,SMDPad,CuDef*
G36*
X90430779Y-113776144D02*
G01*
X90453834Y-113779563D01*
X90476443Y-113785227D01*
X90498387Y-113793079D01*
X90519457Y-113803044D01*
X90539448Y-113815026D01*
X90558168Y-113828910D01*
X90575438Y-113844562D01*
X90591090Y-113861832D01*
X90604974Y-113880552D01*
X90616956Y-113900543D01*
X90626921Y-113921613D01*
X90634773Y-113943557D01*
X90640437Y-113966166D01*
X90643856Y-113989221D01*
X90645000Y-114012500D01*
X90645000Y-114587500D01*
X90643856Y-114610779D01*
X90640437Y-114633834D01*
X90634773Y-114656443D01*
X90626921Y-114678387D01*
X90616956Y-114699457D01*
X90604974Y-114719448D01*
X90591090Y-114738168D01*
X90575438Y-114755438D01*
X90558168Y-114771090D01*
X90539448Y-114784974D01*
X90519457Y-114796956D01*
X90498387Y-114806921D01*
X90476443Y-114814773D01*
X90453834Y-114820437D01*
X90430779Y-114823856D01*
X90407500Y-114825000D01*
X89932500Y-114825000D01*
X89909221Y-114823856D01*
X89886166Y-114820437D01*
X89863557Y-114814773D01*
X89841613Y-114806921D01*
X89820543Y-114796956D01*
X89800552Y-114784974D01*
X89781832Y-114771090D01*
X89764562Y-114755438D01*
X89748910Y-114738168D01*
X89735026Y-114719448D01*
X89723044Y-114699457D01*
X89713079Y-114678387D01*
X89705227Y-114656443D01*
X89699563Y-114633834D01*
X89696144Y-114610779D01*
X89695000Y-114587500D01*
X89695000Y-114012500D01*
X89696144Y-113989221D01*
X89699563Y-113966166D01*
X89705227Y-113943557D01*
X89713079Y-113921613D01*
X89723044Y-113900543D01*
X89735026Y-113880552D01*
X89748910Y-113861832D01*
X89764562Y-113844562D01*
X89781832Y-113828910D01*
X89800552Y-113815026D01*
X89820543Y-113803044D01*
X89841613Y-113793079D01*
X89863557Y-113785227D01*
X89886166Y-113779563D01*
X89909221Y-113776144D01*
X89932500Y-113775000D01*
X90407500Y-113775000D01*
X90430779Y-113776144D01*
G37*
G04 #@! TD.AperFunction*
G04 #@! TA.AperFunction,SMDPad,CuDef*
G36*
X90430779Y-115526144D02*
G01*
X90453834Y-115529563D01*
X90476443Y-115535227D01*
X90498387Y-115543079D01*
X90519457Y-115553044D01*
X90539448Y-115565026D01*
X90558168Y-115578910D01*
X90575438Y-115594562D01*
X90591090Y-115611832D01*
X90604974Y-115630552D01*
X90616956Y-115650543D01*
X90626921Y-115671613D01*
X90634773Y-115693557D01*
X90640437Y-115716166D01*
X90643856Y-115739221D01*
X90645000Y-115762500D01*
X90645000Y-116337500D01*
X90643856Y-116360779D01*
X90640437Y-116383834D01*
X90634773Y-116406443D01*
X90626921Y-116428387D01*
X90616956Y-116449457D01*
X90604974Y-116469448D01*
X90591090Y-116488168D01*
X90575438Y-116505438D01*
X90558168Y-116521090D01*
X90539448Y-116534974D01*
X90519457Y-116546956D01*
X90498387Y-116556921D01*
X90476443Y-116564773D01*
X90453834Y-116570437D01*
X90430779Y-116573856D01*
X90407500Y-116575000D01*
X89932500Y-116575000D01*
X89909221Y-116573856D01*
X89886166Y-116570437D01*
X89863557Y-116564773D01*
X89841613Y-116556921D01*
X89820543Y-116546956D01*
X89800552Y-116534974D01*
X89781832Y-116521090D01*
X89764562Y-116505438D01*
X89748910Y-116488168D01*
X89735026Y-116469448D01*
X89723044Y-116449457D01*
X89713079Y-116428387D01*
X89705227Y-116406443D01*
X89699563Y-116383834D01*
X89696144Y-116360779D01*
X89695000Y-116337500D01*
X89695000Y-115762500D01*
X89696144Y-115739221D01*
X89699563Y-115716166D01*
X89705227Y-115693557D01*
X89713079Y-115671613D01*
X89723044Y-115650543D01*
X89735026Y-115630552D01*
X89748910Y-115611832D01*
X89764562Y-115594562D01*
X89781832Y-115578910D01*
X89800552Y-115565026D01*
X89820543Y-115553044D01*
X89841613Y-115543079D01*
X89863557Y-115535227D01*
X89886166Y-115529563D01*
X89909221Y-115526144D01*
X89932500Y-115525000D01*
X90407500Y-115525000D01*
X90430779Y-115526144D01*
G37*
G04 #@! TD.AperFunction*
G04 #@! TA.AperFunction,SMDPad,CuDef*
G36*
X106940779Y-113776144D02*
G01*
X106963834Y-113779563D01*
X106986443Y-113785227D01*
X107008387Y-113793079D01*
X107029457Y-113803044D01*
X107049448Y-113815026D01*
X107068168Y-113828910D01*
X107085438Y-113844562D01*
X107101090Y-113861832D01*
X107114974Y-113880552D01*
X107126956Y-113900543D01*
X107136921Y-113921613D01*
X107144773Y-113943557D01*
X107150437Y-113966166D01*
X107153856Y-113989221D01*
X107155000Y-114012500D01*
X107155000Y-114587500D01*
X107153856Y-114610779D01*
X107150437Y-114633834D01*
X107144773Y-114656443D01*
X107136921Y-114678387D01*
X107126956Y-114699457D01*
X107114974Y-114719448D01*
X107101090Y-114738168D01*
X107085438Y-114755438D01*
X107068168Y-114771090D01*
X107049448Y-114784974D01*
X107029457Y-114796956D01*
X107008387Y-114806921D01*
X106986443Y-114814773D01*
X106963834Y-114820437D01*
X106940779Y-114823856D01*
X106917500Y-114825000D01*
X106442500Y-114825000D01*
X106419221Y-114823856D01*
X106396166Y-114820437D01*
X106373557Y-114814773D01*
X106351613Y-114806921D01*
X106330543Y-114796956D01*
X106310552Y-114784974D01*
X106291832Y-114771090D01*
X106274562Y-114755438D01*
X106258910Y-114738168D01*
X106245026Y-114719448D01*
X106233044Y-114699457D01*
X106223079Y-114678387D01*
X106215227Y-114656443D01*
X106209563Y-114633834D01*
X106206144Y-114610779D01*
X106205000Y-114587500D01*
X106205000Y-114012500D01*
X106206144Y-113989221D01*
X106209563Y-113966166D01*
X106215227Y-113943557D01*
X106223079Y-113921613D01*
X106233044Y-113900543D01*
X106245026Y-113880552D01*
X106258910Y-113861832D01*
X106274562Y-113844562D01*
X106291832Y-113828910D01*
X106310552Y-113815026D01*
X106330543Y-113803044D01*
X106351613Y-113793079D01*
X106373557Y-113785227D01*
X106396166Y-113779563D01*
X106419221Y-113776144D01*
X106442500Y-113775000D01*
X106917500Y-113775000D01*
X106940779Y-113776144D01*
G37*
G04 #@! TD.AperFunction*
G04 #@! TA.AperFunction,SMDPad,CuDef*
G36*
X106940779Y-115526144D02*
G01*
X106963834Y-115529563D01*
X106986443Y-115535227D01*
X107008387Y-115543079D01*
X107029457Y-115553044D01*
X107049448Y-115565026D01*
X107068168Y-115578910D01*
X107085438Y-115594562D01*
X107101090Y-115611832D01*
X107114974Y-115630552D01*
X107126956Y-115650543D01*
X107136921Y-115671613D01*
X107144773Y-115693557D01*
X107150437Y-115716166D01*
X107153856Y-115739221D01*
X107155000Y-115762500D01*
X107155000Y-116337500D01*
X107153856Y-116360779D01*
X107150437Y-116383834D01*
X107144773Y-116406443D01*
X107136921Y-116428387D01*
X107126956Y-116449457D01*
X107114974Y-116469448D01*
X107101090Y-116488168D01*
X107085438Y-116505438D01*
X107068168Y-116521090D01*
X107049448Y-116534974D01*
X107029457Y-116546956D01*
X107008387Y-116556921D01*
X106986443Y-116564773D01*
X106963834Y-116570437D01*
X106940779Y-116573856D01*
X106917500Y-116575000D01*
X106442500Y-116575000D01*
X106419221Y-116573856D01*
X106396166Y-116570437D01*
X106373557Y-116564773D01*
X106351613Y-116556921D01*
X106330543Y-116546956D01*
X106310552Y-116534974D01*
X106291832Y-116521090D01*
X106274562Y-116505438D01*
X106258910Y-116488168D01*
X106245026Y-116469448D01*
X106233044Y-116449457D01*
X106223079Y-116428387D01*
X106215227Y-116406443D01*
X106209563Y-116383834D01*
X106206144Y-116360779D01*
X106205000Y-116337500D01*
X106205000Y-115762500D01*
X106206144Y-115739221D01*
X106209563Y-115716166D01*
X106215227Y-115693557D01*
X106223079Y-115671613D01*
X106233044Y-115650543D01*
X106245026Y-115630552D01*
X106258910Y-115611832D01*
X106274562Y-115594562D01*
X106291832Y-115578910D01*
X106310552Y-115565026D01*
X106330543Y-115553044D01*
X106351613Y-115543079D01*
X106373557Y-115535227D01*
X106396166Y-115529563D01*
X106419221Y-115526144D01*
X106442500Y-115525000D01*
X106917500Y-115525000D01*
X106940779Y-115526144D01*
G37*
G04 #@! TD.AperFunction*
G04 #@! TA.AperFunction,SMDPad,CuDef*
G36*
X92970779Y-109486144D02*
G01*
X92993834Y-109489563D01*
X93016443Y-109495227D01*
X93038387Y-109503079D01*
X93059457Y-109513044D01*
X93079448Y-109525026D01*
X93098168Y-109538910D01*
X93115438Y-109554562D01*
X93131090Y-109571832D01*
X93144974Y-109590552D01*
X93156956Y-109610543D01*
X93166921Y-109631613D01*
X93174773Y-109653557D01*
X93180437Y-109676166D01*
X93183856Y-109699221D01*
X93185000Y-109722500D01*
X93185000Y-110297500D01*
X93183856Y-110320779D01*
X93180437Y-110343834D01*
X93174773Y-110366443D01*
X93166921Y-110388387D01*
X93156956Y-110409457D01*
X93144974Y-110429448D01*
X93131090Y-110448168D01*
X93115438Y-110465438D01*
X93098168Y-110481090D01*
X93079448Y-110494974D01*
X93059457Y-110506956D01*
X93038387Y-110516921D01*
X93016443Y-110524773D01*
X92993834Y-110530437D01*
X92970779Y-110533856D01*
X92947500Y-110535000D01*
X92472500Y-110535000D01*
X92449221Y-110533856D01*
X92426166Y-110530437D01*
X92403557Y-110524773D01*
X92381613Y-110516921D01*
X92360543Y-110506956D01*
X92340552Y-110494974D01*
X92321832Y-110481090D01*
X92304562Y-110465438D01*
X92288910Y-110448168D01*
X92275026Y-110429448D01*
X92263044Y-110409457D01*
X92253079Y-110388387D01*
X92245227Y-110366443D01*
X92239563Y-110343834D01*
X92236144Y-110320779D01*
X92235000Y-110297500D01*
X92235000Y-109722500D01*
X92236144Y-109699221D01*
X92239563Y-109676166D01*
X92245227Y-109653557D01*
X92253079Y-109631613D01*
X92263044Y-109610543D01*
X92275026Y-109590552D01*
X92288910Y-109571832D01*
X92304562Y-109554562D01*
X92321832Y-109538910D01*
X92340552Y-109525026D01*
X92360543Y-109513044D01*
X92381613Y-109503079D01*
X92403557Y-109495227D01*
X92426166Y-109489563D01*
X92449221Y-109486144D01*
X92472500Y-109485000D01*
X92947500Y-109485000D01*
X92970779Y-109486144D01*
G37*
G04 #@! TD.AperFunction*
G04 #@! TA.AperFunction,SMDPad,CuDef*
G36*
X92970779Y-111236144D02*
G01*
X92993834Y-111239563D01*
X93016443Y-111245227D01*
X93038387Y-111253079D01*
X93059457Y-111263044D01*
X93079448Y-111275026D01*
X93098168Y-111288910D01*
X93115438Y-111304562D01*
X93131090Y-111321832D01*
X93144974Y-111340552D01*
X93156956Y-111360543D01*
X93166921Y-111381613D01*
X93174773Y-111403557D01*
X93180437Y-111426166D01*
X93183856Y-111449221D01*
X93185000Y-111472500D01*
X93185000Y-112047500D01*
X93183856Y-112070779D01*
X93180437Y-112093834D01*
X93174773Y-112116443D01*
X93166921Y-112138387D01*
X93156956Y-112159457D01*
X93144974Y-112179448D01*
X93131090Y-112198168D01*
X93115438Y-112215438D01*
X93098168Y-112231090D01*
X93079448Y-112244974D01*
X93059457Y-112256956D01*
X93038387Y-112266921D01*
X93016443Y-112274773D01*
X92993834Y-112280437D01*
X92970779Y-112283856D01*
X92947500Y-112285000D01*
X92472500Y-112285000D01*
X92449221Y-112283856D01*
X92426166Y-112280437D01*
X92403557Y-112274773D01*
X92381613Y-112266921D01*
X92360543Y-112256956D01*
X92340552Y-112244974D01*
X92321832Y-112231090D01*
X92304562Y-112215438D01*
X92288910Y-112198168D01*
X92275026Y-112179448D01*
X92263044Y-112159457D01*
X92253079Y-112138387D01*
X92245227Y-112116443D01*
X92239563Y-112093834D01*
X92236144Y-112070779D01*
X92235000Y-112047500D01*
X92235000Y-111472500D01*
X92236144Y-111449221D01*
X92239563Y-111426166D01*
X92245227Y-111403557D01*
X92253079Y-111381613D01*
X92263044Y-111360543D01*
X92275026Y-111340552D01*
X92288910Y-111321832D01*
X92304562Y-111304562D01*
X92321832Y-111288910D01*
X92340552Y-111275026D01*
X92360543Y-111263044D01*
X92381613Y-111253079D01*
X92403557Y-111245227D01*
X92426166Y-111239563D01*
X92449221Y-111236144D01*
X92472500Y-111235000D01*
X92947500Y-111235000D01*
X92970779Y-111236144D01*
G37*
G04 #@! TD.AperFunction*
G04 #@! TA.AperFunction,SMDPad,CuDef*
G36*
X90430779Y-109486144D02*
G01*
X90453834Y-109489563D01*
X90476443Y-109495227D01*
X90498387Y-109503079D01*
X90519457Y-109513044D01*
X90539448Y-109525026D01*
X90558168Y-109538910D01*
X90575438Y-109554562D01*
X90591090Y-109571832D01*
X90604974Y-109590552D01*
X90616956Y-109610543D01*
X90626921Y-109631613D01*
X90634773Y-109653557D01*
X90640437Y-109676166D01*
X90643856Y-109699221D01*
X90645000Y-109722500D01*
X90645000Y-110297500D01*
X90643856Y-110320779D01*
X90640437Y-110343834D01*
X90634773Y-110366443D01*
X90626921Y-110388387D01*
X90616956Y-110409457D01*
X90604974Y-110429448D01*
X90591090Y-110448168D01*
X90575438Y-110465438D01*
X90558168Y-110481090D01*
X90539448Y-110494974D01*
X90519457Y-110506956D01*
X90498387Y-110516921D01*
X90476443Y-110524773D01*
X90453834Y-110530437D01*
X90430779Y-110533856D01*
X90407500Y-110535000D01*
X89932500Y-110535000D01*
X89909221Y-110533856D01*
X89886166Y-110530437D01*
X89863557Y-110524773D01*
X89841613Y-110516921D01*
X89820543Y-110506956D01*
X89800552Y-110494974D01*
X89781832Y-110481090D01*
X89764562Y-110465438D01*
X89748910Y-110448168D01*
X89735026Y-110429448D01*
X89723044Y-110409457D01*
X89713079Y-110388387D01*
X89705227Y-110366443D01*
X89699563Y-110343834D01*
X89696144Y-110320779D01*
X89695000Y-110297500D01*
X89695000Y-109722500D01*
X89696144Y-109699221D01*
X89699563Y-109676166D01*
X89705227Y-109653557D01*
X89713079Y-109631613D01*
X89723044Y-109610543D01*
X89735026Y-109590552D01*
X89748910Y-109571832D01*
X89764562Y-109554562D01*
X89781832Y-109538910D01*
X89800552Y-109525026D01*
X89820543Y-109513044D01*
X89841613Y-109503079D01*
X89863557Y-109495227D01*
X89886166Y-109489563D01*
X89909221Y-109486144D01*
X89932500Y-109485000D01*
X90407500Y-109485000D01*
X90430779Y-109486144D01*
G37*
G04 #@! TD.AperFunction*
G04 #@! TA.AperFunction,SMDPad,CuDef*
G36*
X90430779Y-111236144D02*
G01*
X90453834Y-111239563D01*
X90476443Y-111245227D01*
X90498387Y-111253079D01*
X90519457Y-111263044D01*
X90539448Y-111275026D01*
X90558168Y-111288910D01*
X90575438Y-111304562D01*
X90591090Y-111321832D01*
X90604974Y-111340552D01*
X90616956Y-111360543D01*
X90626921Y-111381613D01*
X90634773Y-111403557D01*
X90640437Y-111426166D01*
X90643856Y-111449221D01*
X90645000Y-111472500D01*
X90645000Y-112047500D01*
X90643856Y-112070779D01*
X90640437Y-112093834D01*
X90634773Y-112116443D01*
X90626921Y-112138387D01*
X90616956Y-112159457D01*
X90604974Y-112179448D01*
X90591090Y-112198168D01*
X90575438Y-112215438D01*
X90558168Y-112231090D01*
X90539448Y-112244974D01*
X90519457Y-112256956D01*
X90498387Y-112266921D01*
X90476443Y-112274773D01*
X90453834Y-112280437D01*
X90430779Y-112283856D01*
X90407500Y-112285000D01*
X89932500Y-112285000D01*
X89909221Y-112283856D01*
X89886166Y-112280437D01*
X89863557Y-112274773D01*
X89841613Y-112266921D01*
X89820543Y-112256956D01*
X89800552Y-112244974D01*
X89781832Y-112231090D01*
X89764562Y-112215438D01*
X89748910Y-112198168D01*
X89735026Y-112179448D01*
X89723044Y-112159457D01*
X89713079Y-112138387D01*
X89705227Y-112116443D01*
X89699563Y-112093834D01*
X89696144Y-112070779D01*
X89695000Y-112047500D01*
X89695000Y-111472500D01*
X89696144Y-111449221D01*
X89699563Y-111426166D01*
X89705227Y-111403557D01*
X89713079Y-111381613D01*
X89723044Y-111360543D01*
X89735026Y-111340552D01*
X89748910Y-111321832D01*
X89764562Y-111304562D01*
X89781832Y-111288910D01*
X89800552Y-111275026D01*
X89820543Y-111263044D01*
X89841613Y-111253079D01*
X89863557Y-111245227D01*
X89886166Y-111239563D01*
X89909221Y-111236144D01*
X89932500Y-111235000D01*
X90407500Y-111235000D01*
X90430779Y-111236144D01*
G37*
G04 #@! TD.AperFunction*
D10*
X172720000Y-54610000D03*
X170180000Y-54610000D03*
X167640000Y-54610000D03*
D11*
X165100000Y-54610000D03*
D10*
X172720000Y-58420000D03*
X170180000Y-58420000D03*
X167640000Y-58420000D03*
D11*
X165100000Y-58420000D03*
D10*
X172720000Y-114300000D03*
X170180000Y-114300000D03*
X167640000Y-114300000D03*
D11*
X165100000Y-114300000D03*
D10*
X102870000Y-110490000D03*
X102870000Y-113030000D03*
D11*
X102870000Y-115570000D03*
D10*
X100330000Y-110490000D03*
X100330000Y-113030000D03*
D11*
X100330000Y-115570000D03*
D10*
X97790000Y-110490000D03*
X97790000Y-113030000D03*
D11*
X97790000Y-115570000D03*
D10*
X95250000Y-110490000D03*
X95250000Y-113030000D03*
D11*
X95250000Y-115570000D03*
D10*
X139700000Y-64770000D03*
D11*
X137160000Y-64770000D03*
D10*
X100330000Y-87630000D03*
X97790000Y-87630000D03*
X95250000Y-87630000D03*
D11*
X92710000Y-87630000D03*
D10*
X118110000Y-64770000D03*
X115570000Y-64770000D03*
X113030000Y-64770000D03*
D11*
X110490000Y-64770000D03*
D10*
X101600000Y-64770000D03*
X99060000Y-64770000D03*
X96520000Y-64770000D03*
D11*
X93980000Y-64770000D03*
D10*
X120650000Y-87630000D03*
X118110000Y-87630000D03*
X115570000Y-87630000D03*
D11*
X113030000Y-87630000D03*
D10*
X151130000Y-113030000D03*
X151130000Y-115570000D03*
X148590000Y-113030000D03*
X148590000Y-115570000D03*
X146050000Y-113030000D03*
X146050000Y-115570000D03*
X143510000Y-113030000D03*
D11*
X143510000Y-115570000D03*
D10*
X135890000Y-113030000D03*
X135890000Y-115570000D03*
X133350000Y-113030000D03*
X133350000Y-115570000D03*
X130810000Y-113030000D03*
X130810000Y-115570000D03*
X128270000Y-113030000D03*
X128270000Y-115570000D03*
X125730000Y-113030000D03*
D11*
X125730000Y-115570000D03*
D10*
X118110000Y-113030000D03*
X118110000Y-115570000D03*
X115570000Y-113030000D03*
X115570000Y-115570000D03*
X113030000Y-113030000D03*
X113030000Y-115570000D03*
X110490000Y-113030000D03*
D11*
X110490000Y-115570000D03*
D10*
X151130000Y-59690000D03*
X151130000Y-62230000D03*
X151130000Y-64770000D03*
X151130000Y-67310000D03*
X151130000Y-69850000D03*
X151130000Y-72390000D03*
X151130000Y-74930000D03*
X151130000Y-77470000D03*
X151130000Y-80010000D03*
X151130000Y-82550000D03*
X151130000Y-85090000D03*
X151130000Y-87630000D03*
X151130000Y-90170000D03*
X151130000Y-92710000D03*
X151130000Y-95250000D03*
X151130000Y-97790000D03*
X151130000Y-100330000D03*
D11*
X151130000Y-102870000D03*
D13*
X186690000Y-113030000D03*
D14*
X189230000Y-111760000D03*
X186690000Y-110490000D03*
X189230000Y-109220000D03*
X186690000Y-107950000D03*
X189230000Y-106680000D03*
D15*
X192760000Y-94520000D03*
X198260000Y-94520000D03*
X200660000Y-96520000D03*
X192760000Y-109760000D03*
X198260000Y-109760000D03*
X200660000Y-111760000D03*
D13*
X186690000Y-82550000D03*
D14*
X189230000Y-81280000D03*
X186690000Y-80010000D03*
X189230000Y-78740000D03*
X186690000Y-77470000D03*
X189230000Y-76200000D03*
D13*
X186690000Y-67310000D03*
D14*
X189230000Y-66040000D03*
X186690000Y-64770000D03*
X189230000Y-63500000D03*
X186690000Y-62230000D03*
X189230000Y-60960000D03*
D13*
X186690000Y-97790000D03*
D14*
X189230000Y-96520000D03*
X186690000Y-95250000D03*
X189230000Y-93980000D03*
X186690000Y-92710000D03*
X189230000Y-91440000D03*
D16*
X140970000Y-100350000D03*
D17*
X140970000Y-107950000D03*
D18*
X148590000Y-68580000D03*
X181610000Y-107950000D03*
X175260000Y-62230000D03*
X157480000Y-104140000D03*
X156210000Y-104140000D03*
X148590000Y-86360000D03*
X181611404Y-93981404D03*
X181611404Y-95251404D03*
X147321404Y-86355788D03*
X181611404Y-96521404D03*
X146050000Y-86357192D03*
X181611404Y-97791404D03*
X144778596Y-86358596D03*
X181610000Y-63500000D03*
X181610000Y-64770000D03*
X181610000Y-66040000D03*
X181610000Y-67310000D03*
X181610000Y-78740000D03*
X181610000Y-80010000D03*
X181610000Y-81280000D03*
X181610000Y-82550000D03*
X154940000Y-100330000D03*
X181610000Y-109220000D03*
X181610000Y-110490000D03*
X181611404Y-111758596D03*
X181611404Y-113028596D03*
X157480001Y-97792809D03*
X156210000Y-68580000D03*
X148591404Y-67308596D03*
X156210000Y-99060000D03*
X156210000Y-67310000D03*
X173987192Y-62230000D03*
X90170000Y-113030000D03*
X92710000Y-113030000D03*
X160020000Y-104140000D03*
X160020000Y-95250000D03*
X172715788Y-62228596D03*
X156210000Y-66040000D03*
X158750000Y-104140000D03*
X158751404Y-96518596D03*
X171448596Y-62234212D03*
X156211404Y-64768596D03*
D19*
X181238597Y-94351403D02*
X181611404Y-94351403D01*
X148590000Y-86360000D02*
X148859911Y-86629911D01*
X148859911Y-105679911D02*
X169910089Y-105679911D01*
X169910089Y-105679911D02*
X181238597Y-94351403D01*
X181611404Y-94351403D02*
X181611404Y-93981404D01*
X148859911Y-86629911D02*
X148859911Y-105679911D01*
X148010064Y-105890739D02*
X148010064Y-87610133D01*
X148549247Y-106429922D02*
X148010064Y-105890739D01*
X170430078Y-106429922D02*
X148549247Y-106429922D01*
X148010064Y-87610133D02*
X147321404Y-86921473D01*
X181211405Y-95651403D02*
X181208597Y-95651403D01*
X181611404Y-95251404D02*
X181211405Y-95651403D01*
X147321404Y-86921473D02*
X147321404Y-86355788D01*
X181208597Y-95651403D02*
X170430078Y-106429922D01*
X181208597Y-96921403D02*
X170950067Y-107179933D01*
X181211405Y-96921403D02*
X181208597Y-96921403D01*
X170950067Y-107179933D02*
X148238583Y-107179933D01*
X146050000Y-86922877D02*
X146050000Y-86357192D01*
X148238583Y-107179933D02*
X147260053Y-106201403D01*
X147260053Y-88132930D02*
X146050000Y-86922877D01*
X181611404Y-96521404D02*
X181211405Y-96921403D01*
X147260053Y-106201403D02*
X147260053Y-88132930D01*
X181611404Y-97791404D02*
X171472864Y-107929944D01*
X171472864Y-107929944D02*
X147718594Y-107929944D01*
X147718594Y-107929944D02*
X146510042Y-106721392D01*
X146510042Y-106721392D02*
X146510042Y-88655727D01*
X146510042Y-88655727D02*
X144778596Y-86924281D01*
X144778596Y-86924281D02*
X144778596Y-86358596D01*
X166484077Y-63500000D02*
X181610000Y-63500000D01*
X154573977Y-51589900D02*
X166484077Y-63500000D01*
X147686023Y-51589900D02*
X154573977Y-51589900D01*
X118677389Y-52339911D02*
X146936012Y-52339911D01*
X114927334Y-56089966D02*
X118677389Y-52339911D01*
X146936012Y-52339911D02*
X147686023Y-51589900D01*
X102660034Y-56089966D02*
X114927334Y-56089966D01*
X93980000Y-64770000D02*
X102660034Y-56089966D01*
X97369999Y-63920001D02*
X96520000Y-64770000D01*
X118988053Y-53089922D02*
X115237998Y-56839977D01*
X147246677Y-53089922D02*
X118988053Y-53089922D01*
X147996687Y-52339911D02*
X147246677Y-53089922D01*
X166693402Y-64770000D02*
X154263313Y-52339911D01*
X181610000Y-64770000D02*
X166693402Y-64770000D01*
X154263313Y-52339911D02*
X147996687Y-52339911D01*
X104450023Y-56839977D02*
X97369999Y-63920001D01*
X115237998Y-56839977D02*
X104450023Y-56839977D01*
X166902727Y-66040000D02*
X153952649Y-53089922D01*
X99909999Y-63920001D02*
X99060000Y-64770000D01*
X106240012Y-57589988D02*
X99909999Y-63920001D01*
X115548662Y-57589988D02*
X106240012Y-57589988D01*
X119298717Y-53839933D02*
X115548662Y-57589988D01*
X147557340Y-53839933D02*
X119298717Y-53839933D01*
X153952649Y-53089922D02*
X148307351Y-53089922D01*
X148307351Y-53089922D02*
X147557340Y-53839933D01*
X181610000Y-66040000D02*
X166902727Y-66040000D01*
X102449999Y-63920001D02*
X101600000Y-64770000D01*
X115859326Y-58339999D02*
X108030001Y-58339999D01*
X147868005Y-54589944D02*
X119609381Y-54589944D01*
X148618015Y-53839933D02*
X147868005Y-54589944D01*
X153641985Y-53839933D02*
X148618015Y-53839933D01*
X119609381Y-54589944D02*
X115859326Y-58339999D01*
X181610000Y-67310000D02*
X167112052Y-67310000D01*
X167112052Y-67310000D02*
X153641985Y-53839933D01*
X108030001Y-58339999D02*
X102449999Y-63920001D01*
X177481377Y-78740000D02*
X153331321Y-54589944D01*
X148928679Y-54589944D02*
X148178668Y-55339955D01*
X153331321Y-54589944D02*
X148928679Y-54589944D01*
X119920045Y-55339955D02*
X110490000Y-64770000D01*
X181610000Y-78740000D02*
X177481377Y-78740000D01*
X148178668Y-55339955D02*
X119920045Y-55339955D01*
X149239343Y-55339955D02*
X148489333Y-56089966D01*
X177690702Y-80010000D02*
X153020657Y-55339955D01*
X121710034Y-56089966D02*
X113879999Y-63920001D01*
X113879999Y-63920001D02*
X113030000Y-64770000D01*
X181610000Y-80010000D02*
X177690702Y-80010000D01*
X153020657Y-55339955D02*
X149239343Y-55339955D01*
X148489333Y-56089966D02*
X121710034Y-56089966D01*
X177900027Y-81280000D02*
X152709993Y-56089966D01*
X181610000Y-81280000D02*
X177900027Y-81280000D01*
X123500023Y-56839977D02*
X116419999Y-63920001D01*
X148799996Y-56839977D02*
X123500023Y-56839977D01*
X152709993Y-56089966D02*
X149550007Y-56089966D01*
X149550007Y-56089966D02*
X148799996Y-56839977D01*
X116419999Y-63920001D02*
X115570000Y-64770000D01*
X152399329Y-56839977D02*
X149860671Y-56839977D01*
X178109352Y-82550000D02*
X152399329Y-56839977D01*
X149110661Y-57589988D02*
X125290012Y-57589988D01*
X149860671Y-56839977D02*
X149110661Y-57589988D01*
X125290012Y-57589988D02*
X118959999Y-63920001D01*
X181610000Y-82550000D02*
X178109352Y-82550000D01*
X118959999Y-63920001D02*
X118110000Y-64770000D01*
X154940000Y-100410000D02*
X152480000Y-102870000D01*
X152480000Y-102870000D02*
X151130000Y-102870000D01*
X145760031Y-90508007D02*
X145760031Y-107032056D01*
X145760031Y-107032056D02*
X147407930Y-108679955D01*
X101680001Y-86279999D02*
X141532023Y-86279999D01*
X100330000Y-87630000D02*
X101680001Y-86279999D01*
X147407930Y-108679955D02*
X181069955Y-108679955D01*
X141532023Y-86279999D02*
X145760031Y-90508007D01*
X181210001Y-108820001D02*
X181610000Y-109220000D01*
X181069955Y-108679955D02*
X181210001Y-108820001D01*
X97790000Y-87630000D02*
X99140001Y-88980001D01*
X179984281Y-109429966D02*
X181044315Y-110490000D01*
X145010020Y-107342720D02*
X147097266Y-109429966D01*
X147097266Y-109429966D02*
X179984281Y-109429966D01*
X181044315Y-110490000D02*
X181610000Y-110490000D01*
X99140001Y-88980001D02*
X143171350Y-88980001D01*
X143171350Y-88980001D02*
X145010020Y-90818671D01*
X145010020Y-90818671D02*
X145010020Y-107342720D01*
X181611404Y-111758596D02*
X181045719Y-111758596D01*
X142860686Y-89730012D02*
X97350012Y-89730012D01*
X96099999Y-88479999D02*
X95250000Y-87630000D01*
X181045719Y-111758596D02*
X179467100Y-110179977D01*
X97350012Y-89730012D02*
X96099999Y-88479999D01*
X144260009Y-107653384D02*
X144260009Y-91129335D01*
X146786602Y-110179977D02*
X144260009Y-107653384D01*
X179467100Y-110179977D02*
X146786602Y-110179977D01*
X144260009Y-91129335D02*
X142860686Y-89730012D01*
X92710000Y-88980000D02*
X92710000Y-87630000D01*
X94210023Y-90480023D02*
X92710000Y-88980000D01*
X142209869Y-90480023D02*
X94210023Y-90480023D01*
X143339923Y-91610077D02*
X142209869Y-90480023D01*
X143339923Y-107793973D02*
X143339923Y-91610077D01*
X146475938Y-110929988D02*
X143339923Y-107793973D01*
X178947111Y-110929988D02*
X146475938Y-110929988D01*
X181045719Y-113028596D02*
X178947111Y-110929988D01*
X181611404Y-113028596D02*
X181045719Y-113028596D01*
X106680000Y-113775000D02*
X106680000Y-114300000D01*
X108775001Y-111679999D02*
X106680000Y-113775000D01*
X177719999Y-111679999D02*
X108775001Y-111679999D01*
X195614998Y-111760000D02*
X193074998Y-114300000D01*
X200660000Y-111760000D02*
X195614998Y-111760000D01*
X193074998Y-114300000D02*
X180340000Y-114300000D01*
X180340000Y-114300000D02*
X177719999Y-111679999D01*
D20*
X90645000Y-116050000D02*
X90170000Y-116050000D01*
X91020010Y-110308768D02*
X91020010Y-115674990D01*
X92218788Y-109109990D02*
X91020010Y-110308768D01*
X93869990Y-109109990D02*
X92218788Y-109109990D01*
X91020010Y-115674990D02*
X90645000Y-116050000D01*
X95250000Y-110490000D02*
X93869990Y-109109990D01*
X93560010Y-113008334D02*
X93560010Y-115674990D01*
X93185000Y-116050000D02*
X92710000Y-116050000D01*
X94060020Y-112508324D02*
X93560010Y-113008334D01*
X94661999Y-111804999D02*
X94060021Y-112406977D01*
X97790000Y-110490000D02*
X96475001Y-111804999D01*
X93560010Y-115674990D02*
X93185000Y-116050000D01*
X94060021Y-112406977D02*
X94060020Y-112508324D01*
X96475001Y-111804999D02*
X94661999Y-111804999D01*
D19*
X192760000Y-96800000D02*
X181610000Y-107950000D01*
X192760000Y-94520000D02*
X192760000Y-96800000D01*
X157480000Y-104140000D02*
X157480001Y-103574314D01*
X157480001Y-103574314D02*
X157480001Y-98358494D01*
X157480001Y-98358494D02*
X157480001Y-97792809D01*
D20*
X149862808Y-68580000D02*
X156210000Y-68580000D01*
X148591404Y-67308596D02*
X149862808Y-68580000D01*
D19*
X172720000Y-58420000D02*
X172720000Y-59690000D01*
X172720000Y-59690000D02*
X175260000Y-62230000D01*
X156210000Y-100330000D02*
X156210000Y-104140000D01*
X156210000Y-100330000D02*
X156210000Y-99060000D01*
D20*
X156210000Y-67310000D02*
X154940000Y-66040000D01*
X154940000Y-66040000D02*
X147320000Y-66040000D01*
X147320000Y-67310000D02*
X148590000Y-68580000D01*
X147320000Y-66040000D02*
X147320000Y-67310000D01*
D19*
X170180000Y-58420000D02*
X173987192Y-62227192D01*
X173987192Y-62227192D02*
X173987192Y-62230000D01*
X106205000Y-116050000D02*
X106680000Y-116050000D01*
X105704990Y-111326988D02*
X105704990Y-115549990D01*
X103518001Y-109139999D02*
X105704990Y-111326988D01*
X101680001Y-109139999D02*
X103518001Y-109139999D01*
X105704990Y-115549990D02*
X106205000Y-116050000D01*
X100330000Y-110490000D02*
X101680001Y-109139999D01*
D20*
X89319990Y-113924990D02*
X89695000Y-114300000D01*
X89695000Y-114300000D02*
X90170000Y-114300000D01*
X89319990Y-110385010D02*
X89319990Y-113924990D01*
X89695000Y-110010000D02*
X89319990Y-110385010D01*
X90170000Y-110010000D02*
X89695000Y-110010000D01*
X91859990Y-110385010D02*
X91859990Y-113924990D01*
X92235000Y-110010000D02*
X91859990Y-110385010D01*
X92235000Y-114300000D02*
X92710000Y-114300000D01*
X91859990Y-113924990D02*
X92235000Y-114300000D01*
X92710000Y-110010000D02*
X92235000Y-110010000D01*
X90170000Y-111760000D02*
X90170000Y-113030000D01*
X92710000Y-111760000D02*
X92710000Y-113030000D01*
D19*
X160020000Y-100330000D02*
X160020000Y-104140000D01*
X160020000Y-100330000D02*
X160020000Y-95250000D01*
X168990001Y-59770001D02*
X170257193Y-59770001D01*
X172315789Y-61828597D02*
X172715788Y-62228596D01*
X170257193Y-59770001D02*
X172315789Y-61828597D01*
X167640000Y-58420000D02*
X168990001Y-59770001D01*
X143590001Y-67229999D02*
X143590000Y-69850000D01*
X149779999Y-61040001D02*
X143590001Y-67229999D01*
X149779999Y-59041999D02*
X149779999Y-61040001D01*
X151778001Y-58339999D02*
X150481999Y-58339999D01*
X143590000Y-69850000D02*
X142240000Y-69850000D01*
X154940000Y-61501998D02*
X151778001Y-58339999D01*
X150481999Y-58339999D02*
X149779999Y-59041999D01*
X154940000Y-64770000D02*
X154940000Y-61501998D01*
X156210000Y-66040000D02*
X154940000Y-64770000D01*
X158750000Y-96520000D02*
X158751404Y-96518596D01*
X158750000Y-104140000D02*
X158750000Y-96520000D01*
X142240000Y-67310000D02*
X149029988Y-60520012D01*
X156211404Y-64202911D02*
X156211404Y-64768596D01*
X156211404Y-61712727D02*
X156211404Y-64202911D01*
X152088665Y-57589988D02*
X156211404Y-61712727D01*
X150171335Y-57589988D02*
X152088665Y-57589988D01*
X149029988Y-58731335D02*
X150171335Y-57589988D01*
X149029988Y-60520012D02*
X149029988Y-58731335D01*
X165100000Y-59770000D02*
X166290000Y-60960000D01*
X165100000Y-58420000D02*
X165100000Y-59770000D01*
X170174384Y-60960000D02*
X171448596Y-62234212D01*
X166290000Y-60960000D02*
X170174384Y-60960000D01*
D21*
G36*
X129656525Y-116516632D02*
G01*
X129852893Y-116713000D01*
X129227107Y-116713000D01*
X129423475Y-116516632D01*
X129540000Y-116342240D01*
X129656525Y-116516632D01*
G37*
X129656525Y-116516632D02*
X129852893Y-116713000D01*
X129227107Y-116713000D01*
X129423475Y-116516632D01*
X129540000Y-116342240D01*
X129656525Y-116516632D01*
G36*
X179683470Y-114895049D02*
G01*
X179711183Y-114928817D01*
X179744951Y-114956530D01*
X179744953Y-114956532D01*
X179798861Y-115000773D01*
X179845941Y-115039411D01*
X179999687Y-115121589D01*
X180115903Y-115156843D01*
X180166509Y-115172195D01*
X180181306Y-115173652D01*
X180296523Y-115185000D01*
X180296531Y-115185000D01*
X180340000Y-115189281D01*
X180383469Y-115185000D01*
X193031529Y-115185000D01*
X193074998Y-115189281D01*
X193118467Y-115185000D01*
X193118475Y-115185000D01*
X193248488Y-115172195D01*
X193320000Y-115150502D01*
X193320000Y-115162591D01*
X193406851Y-115599218D01*
X193577214Y-116010511D01*
X193824544Y-116380666D01*
X194139334Y-116695456D01*
X194165590Y-116713000D01*
X152087107Y-116713000D01*
X152283475Y-116516632D01*
X152445990Y-116273411D01*
X152557932Y-116003158D01*
X152615000Y-115716260D01*
X152615000Y-115423740D01*
X152557932Y-115136842D01*
X152445990Y-114866589D01*
X152283475Y-114623368D01*
X152076632Y-114416525D01*
X151902240Y-114300000D01*
X152076632Y-114183475D01*
X152283475Y-113976632D01*
X152445990Y-113733411D01*
X152557932Y-113463158D01*
X152560549Y-113450000D01*
X163611928Y-113450000D01*
X163611928Y-115150000D01*
X163624188Y-115274482D01*
X163660498Y-115394180D01*
X163719463Y-115504494D01*
X163798815Y-115601185D01*
X163895506Y-115680537D01*
X164005820Y-115739502D01*
X164125518Y-115775812D01*
X164250000Y-115788072D01*
X165950000Y-115788072D01*
X166074482Y-115775812D01*
X166194180Y-115739502D01*
X166304494Y-115680537D01*
X166401185Y-115601185D01*
X166480537Y-115504494D01*
X166539502Y-115394180D01*
X166561513Y-115321620D01*
X166693368Y-115453475D01*
X166936589Y-115615990D01*
X167206842Y-115727932D01*
X167493740Y-115785000D01*
X167786260Y-115785000D01*
X168073158Y-115727932D01*
X168343411Y-115615990D01*
X168586632Y-115453475D01*
X168793475Y-115246632D01*
X168910000Y-115072240D01*
X169026525Y-115246632D01*
X169233368Y-115453475D01*
X169476589Y-115615990D01*
X169746842Y-115727932D01*
X170033740Y-115785000D01*
X170326260Y-115785000D01*
X170613158Y-115727932D01*
X170883411Y-115615990D01*
X171126632Y-115453475D01*
X171333475Y-115246632D01*
X171450000Y-115072240D01*
X171566525Y-115246632D01*
X171773368Y-115453475D01*
X172016589Y-115615990D01*
X172286842Y-115727932D01*
X172573740Y-115785000D01*
X172866260Y-115785000D01*
X173153158Y-115727932D01*
X173423411Y-115615990D01*
X173666632Y-115453475D01*
X173873475Y-115246632D01*
X174035990Y-115003411D01*
X174147932Y-114733158D01*
X174205000Y-114446260D01*
X174205000Y-114153740D01*
X174147932Y-113866842D01*
X174035990Y-113596589D01*
X173873475Y-113353368D01*
X173666632Y-113146525D01*
X173423411Y-112984010D01*
X173153158Y-112872068D01*
X172866260Y-112815000D01*
X172573740Y-112815000D01*
X172286842Y-112872068D01*
X172016589Y-112984010D01*
X171773368Y-113146525D01*
X171566525Y-113353368D01*
X171450000Y-113527760D01*
X171333475Y-113353368D01*
X171126632Y-113146525D01*
X170883411Y-112984010D01*
X170613158Y-112872068D01*
X170326260Y-112815000D01*
X170033740Y-112815000D01*
X169746842Y-112872068D01*
X169476589Y-112984010D01*
X169233368Y-113146525D01*
X169026525Y-113353368D01*
X168910000Y-113527760D01*
X168793475Y-113353368D01*
X168586632Y-113146525D01*
X168343411Y-112984010D01*
X168073158Y-112872068D01*
X167786260Y-112815000D01*
X167493740Y-112815000D01*
X167206842Y-112872068D01*
X166936589Y-112984010D01*
X166693368Y-113146525D01*
X166561513Y-113278380D01*
X166539502Y-113205820D01*
X166480537Y-113095506D01*
X166401185Y-112998815D01*
X166304494Y-112919463D01*
X166194180Y-112860498D01*
X166074482Y-112824188D01*
X165950000Y-112811928D01*
X164250000Y-112811928D01*
X164125518Y-112824188D01*
X164005820Y-112860498D01*
X163895506Y-112919463D01*
X163798815Y-112998815D01*
X163719463Y-113095506D01*
X163660498Y-113205820D01*
X163624188Y-113325518D01*
X163611928Y-113450000D01*
X152560549Y-113450000D01*
X152615000Y-113176260D01*
X152615000Y-112883740D01*
X152557932Y-112596842D01*
X152544742Y-112564999D01*
X177353421Y-112564999D01*
X179683470Y-114895049D01*
G37*
X179683470Y-114895049D02*
X179711183Y-114928817D01*
X179744951Y-114956530D01*
X179744953Y-114956532D01*
X179798861Y-115000773D01*
X179845941Y-115039411D01*
X179999687Y-115121589D01*
X180115903Y-115156843D01*
X180166509Y-115172195D01*
X180181306Y-115173652D01*
X180296523Y-115185000D01*
X180296531Y-115185000D01*
X180340000Y-115189281D01*
X180383469Y-115185000D01*
X193031529Y-115185000D01*
X193074998Y-115189281D01*
X193118467Y-115185000D01*
X193118475Y-115185000D01*
X193248488Y-115172195D01*
X193320000Y-115150502D01*
X193320000Y-115162591D01*
X193406851Y-115599218D01*
X193577214Y-116010511D01*
X193824544Y-116380666D01*
X194139334Y-116695456D01*
X194165590Y-116713000D01*
X152087107Y-116713000D01*
X152283475Y-116516632D01*
X152445990Y-116273411D01*
X152557932Y-116003158D01*
X152615000Y-115716260D01*
X152615000Y-115423740D01*
X152557932Y-115136842D01*
X152445990Y-114866589D01*
X152283475Y-114623368D01*
X152076632Y-114416525D01*
X151902240Y-114300000D01*
X152076632Y-114183475D01*
X152283475Y-113976632D01*
X152445990Y-113733411D01*
X152557932Y-113463158D01*
X152560549Y-113450000D01*
X163611928Y-113450000D01*
X163611928Y-115150000D01*
X163624188Y-115274482D01*
X163660498Y-115394180D01*
X163719463Y-115504494D01*
X163798815Y-115601185D01*
X163895506Y-115680537D01*
X164005820Y-115739502D01*
X164125518Y-115775812D01*
X164250000Y-115788072D01*
X165950000Y-115788072D01*
X166074482Y-115775812D01*
X166194180Y-115739502D01*
X166304494Y-115680537D01*
X166401185Y-115601185D01*
X166480537Y-115504494D01*
X166539502Y-115394180D01*
X166561513Y-115321620D01*
X166693368Y-115453475D01*
X166936589Y-115615990D01*
X167206842Y-115727932D01*
X167493740Y-115785000D01*
X167786260Y-115785000D01*
X168073158Y-115727932D01*
X168343411Y-115615990D01*
X168586632Y-115453475D01*
X168793475Y-115246632D01*
X168910000Y-115072240D01*
X169026525Y-115246632D01*
X169233368Y-115453475D01*
X169476589Y-115615990D01*
X169746842Y-115727932D01*
X170033740Y-115785000D01*
X170326260Y-115785000D01*
X170613158Y-115727932D01*
X170883411Y-115615990D01*
X171126632Y-115453475D01*
X171333475Y-115246632D01*
X171450000Y-115072240D01*
X171566525Y-115246632D01*
X171773368Y-115453475D01*
X172016589Y-115615990D01*
X172286842Y-115727932D01*
X172573740Y-115785000D01*
X172866260Y-115785000D01*
X173153158Y-115727932D01*
X173423411Y-115615990D01*
X173666632Y-115453475D01*
X173873475Y-115246632D01*
X174035990Y-115003411D01*
X174147932Y-114733158D01*
X174205000Y-114446260D01*
X174205000Y-114153740D01*
X174147932Y-113866842D01*
X174035990Y-113596589D01*
X173873475Y-113353368D01*
X173666632Y-113146525D01*
X173423411Y-112984010D01*
X173153158Y-112872068D01*
X172866260Y-112815000D01*
X172573740Y-112815000D01*
X172286842Y-112872068D01*
X172016589Y-112984010D01*
X171773368Y-113146525D01*
X171566525Y-113353368D01*
X171450000Y-113527760D01*
X171333475Y-113353368D01*
X171126632Y-113146525D01*
X170883411Y-112984010D01*
X170613158Y-112872068D01*
X170326260Y-112815000D01*
X170033740Y-112815000D01*
X169746842Y-112872068D01*
X169476589Y-112984010D01*
X169233368Y-113146525D01*
X169026525Y-113353368D01*
X168910000Y-113527760D01*
X168793475Y-113353368D01*
X168586632Y-113146525D01*
X168343411Y-112984010D01*
X168073158Y-112872068D01*
X167786260Y-112815000D01*
X167493740Y-112815000D01*
X167206842Y-112872068D01*
X166936589Y-112984010D01*
X166693368Y-113146525D01*
X166561513Y-113278380D01*
X166539502Y-113205820D01*
X166480537Y-113095506D01*
X166401185Y-112998815D01*
X166304494Y-112919463D01*
X166194180Y-112860498D01*
X166074482Y-112824188D01*
X165950000Y-112811928D01*
X164250000Y-112811928D01*
X164125518Y-112824188D01*
X164005820Y-112860498D01*
X163895506Y-112919463D01*
X163798815Y-112998815D01*
X163719463Y-113095506D01*
X163660498Y-113205820D01*
X163624188Y-113325518D01*
X163611928Y-113450000D01*
X152560549Y-113450000D01*
X152615000Y-113176260D01*
X152615000Y-112883740D01*
X152557932Y-112596842D01*
X152544742Y-112564999D01*
X177353421Y-112564999D01*
X179683470Y-114895049D01*
G36*
X93810498Y-116664180D02*
G01*
X93836593Y-116713000D01*
X93734811Y-116713000D01*
X93756423Y-116672567D01*
X93784733Y-116579243D01*
X93810498Y-116664180D01*
G37*
X93810498Y-116664180D02*
X93836593Y-116713000D01*
X93734811Y-116713000D01*
X93756423Y-116672567D01*
X93784733Y-116579243D01*
X93810498Y-116664180D01*
G36*
X91596928Y-116337500D02*
G01*
X91613752Y-116508316D01*
X91663577Y-116672567D01*
X91685189Y-116713000D01*
X91492606Y-116713000D01*
X91274704Y-116495098D01*
X91531007Y-116238794D01*
X91560011Y-116214991D01*
X91596928Y-116170007D01*
X91596928Y-116337500D01*
G37*
X91596928Y-116337500D02*
X91613752Y-116508316D01*
X91663577Y-116672567D01*
X91685189Y-116713000D01*
X91492606Y-116713000D01*
X91274704Y-116495098D01*
X91531007Y-116238794D01*
X91560011Y-116214991D01*
X91596928Y-116170007D01*
X91596928Y-116337500D01*
G36*
X199234983Y-112850261D02*
G01*
X199377519Y-113116927D01*
X199569340Y-113350661D01*
X199803074Y-113542481D01*
X200069740Y-113685017D01*
X200359088Y-113772790D01*
X200660000Y-113802427D01*
X200960913Y-113772790D01*
X201250261Y-113685017D01*
X201516927Y-113542481D01*
X201750661Y-113350661D01*
X201803000Y-113286886D01*
X201803000Y-115517394D01*
X200607394Y-116713000D01*
X196994410Y-116713000D01*
X197020666Y-116695456D01*
X197335456Y-116380666D01*
X197582786Y-116010511D01*
X197753149Y-115599218D01*
X197840000Y-115162591D01*
X197840000Y-114717409D01*
X197753149Y-114280782D01*
X197582786Y-113869489D01*
X197335456Y-113499334D01*
X197020666Y-113184544D01*
X196650511Y-112937214D01*
X196239218Y-112766851D01*
X195922688Y-112703889D01*
X195981577Y-112645000D01*
X199172718Y-112645000D01*
X199234983Y-112850261D01*
G37*
X199234983Y-112850261D02*
X199377519Y-113116927D01*
X199569340Y-113350661D01*
X199803074Y-113542481D01*
X200069740Y-113685017D01*
X200359088Y-113772790D01*
X200660000Y-113802427D01*
X200960913Y-113772790D01*
X201250261Y-113685017D01*
X201516927Y-113542481D01*
X201750661Y-113350661D01*
X201803000Y-113286886D01*
X201803000Y-115517394D01*
X200607394Y-116713000D01*
X196994410Y-116713000D01*
X197020666Y-116695456D01*
X197335456Y-116380666D01*
X197582786Y-116010511D01*
X197753149Y-115599218D01*
X197840000Y-115162591D01*
X197840000Y-114717409D01*
X197753149Y-114280782D01*
X197582786Y-113869489D01*
X197335456Y-113499334D01*
X197020666Y-113184544D01*
X196650511Y-112937214D01*
X196239218Y-112766851D01*
X195922688Y-112703889D01*
X195981577Y-112645000D01*
X199172718Y-112645000D01*
X199234983Y-112850261D01*
G36*
X149976525Y-116516632D02*
G01*
X150172893Y-116713000D01*
X149547107Y-116713000D01*
X149743475Y-116516632D01*
X149860000Y-116342240D01*
X149976525Y-116516632D01*
G37*
X149976525Y-116516632D02*
X150172893Y-116713000D01*
X149547107Y-116713000D01*
X149743475Y-116516632D01*
X149860000Y-116342240D01*
X149976525Y-116516632D01*
G36*
X147436525Y-116516632D02*
G01*
X147632893Y-116713000D01*
X147007107Y-116713000D01*
X147203475Y-116516632D01*
X147320000Y-116342240D01*
X147436525Y-116516632D01*
G37*
X147436525Y-116516632D02*
X147632893Y-116713000D01*
X147007107Y-116713000D01*
X147203475Y-116516632D01*
X147320000Y-116342240D01*
X147436525Y-116516632D01*
G36*
X145092893Y-116713000D02*
G01*
X144923407Y-116713000D01*
X144949502Y-116664180D01*
X144971513Y-116591620D01*
X145092893Y-116713000D01*
G37*
X145092893Y-116713000D02*
X144923407Y-116713000D01*
X144949502Y-116664180D01*
X144971513Y-116591620D01*
X145092893Y-116713000D01*
G36*
X142082068Y-112596842D02*
G01*
X142025000Y-112883740D01*
X142025000Y-113176260D01*
X142082068Y-113463158D01*
X142194010Y-113733411D01*
X142356525Y-113976632D01*
X142488380Y-114108487D01*
X142415820Y-114130498D01*
X142305506Y-114189463D01*
X142208815Y-114268815D01*
X142129463Y-114365506D01*
X142070498Y-114475820D01*
X142034188Y-114595518D01*
X142021928Y-114720000D01*
X142021928Y-116420000D01*
X142034188Y-116544482D01*
X142070498Y-116664180D01*
X142096593Y-116713000D01*
X136847107Y-116713000D01*
X137043475Y-116516632D01*
X137205990Y-116273411D01*
X137317932Y-116003158D01*
X137375000Y-115716260D01*
X137375000Y-115423740D01*
X137317932Y-115136842D01*
X137205990Y-114866589D01*
X137043475Y-114623368D01*
X136836632Y-114416525D01*
X136662240Y-114300000D01*
X136836632Y-114183475D01*
X137043475Y-113976632D01*
X137205990Y-113733411D01*
X137317932Y-113463158D01*
X137375000Y-113176260D01*
X137375000Y-112883740D01*
X137317932Y-112596842D01*
X137304742Y-112564999D01*
X142095258Y-112564999D01*
X142082068Y-112596842D01*
G37*
X142082068Y-112596842D02*
X142025000Y-112883740D01*
X142025000Y-113176260D01*
X142082068Y-113463158D01*
X142194010Y-113733411D01*
X142356525Y-113976632D01*
X142488380Y-114108487D01*
X142415820Y-114130498D01*
X142305506Y-114189463D01*
X142208815Y-114268815D01*
X142129463Y-114365506D01*
X142070498Y-114475820D01*
X142034188Y-114595518D01*
X142021928Y-114720000D01*
X142021928Y-116420000D01*
X142034188Y-116544482D01*
X142070498Y-116664180D01*
X142096593Y-116713000D01*
X136847107Y-116713000D01*
X137043475Y-116516632D01*
X137205990Y-116273411D01*
X137317932Y-116003158D01*
X137375000Y-115716260D01*
X137375000Y-115423740D01*
X137317932Y-115136842D01*
X137205990Y-114866589D01*
X137043475Y-114623368D01*
X136836632Y-114416525D01*
X136662240Y-114300000D01*
X136836632Y-114183475D01*
X137043475Y-113976632D01*
X137205990Y-113733411D01*
X137317932Y-113463158D01*
X137375000Y-113176260D01*
X137375000Y-112883740D01*
X137317932Y-112596842D01*
X137304742Y-112564999D01*
X142095258Y-112564999D01*
X142082068Y-112596842D01*
G36*
X134736525Y-116516632D02*
G01*
X134932893Y-116713000D01*
X134307107Y-116713000D01*
X134503475Y-116516632D01*
X134620000Y-116342240D01*
X134736525Y-116516632D01*
G37*
X134736525Y-116516632D02*
X134932893Y-116713000D01*
X134307107Y-116713000D01*
X134503475Y-116516632D01*
X134620000Y-116342240D01*
X134736525Y-116516632D01*
G36*
X132196525Y-116516632D02*
G01*
X132392893Y-116713000D01*
X131767107Y-116713000D01*
X131963475Y-116516632D01*
X132080000Y-116342240D01*
X132196525Y-116516632D01*
G37*
X132196525Y-116516632D02*
X132392893Y-116713000D01*
X131767107Y-116713000D01*
X131963475Y-116516632D01*
X132080000Y-116342240D01*
X132196525Y-116516632D01*
G36*
X127312893Y-116713000D02*
G01*
X127143407Y-116713000D01*
X127169502Y-116664180D01*
X127191513Y-116591620D01*
X127312893Y-116713000D01*
G37*
X127312893Y-116713000D02*
X127143407Y-116713000D01*
X127169502Y-116664180D01*
X127191513Y-116591620D01*
X127312893Y-116713000D01*
G36*
X124302068Y-112596842D02*
G01*
X124245000Y-112883740D01*
X124245000Y-113176260D01*
X124302068Y-113463158D01*
X124414010Y-113733411D01*
X124576525Y-113976632D01*
X124708380Y-114108487D01*
X124635820Y-114130498D01*
X124525506Y-114189463D01*
X124428815Y-114268815D01*
X124349463Y-114365506D01*
X124290498Y-114475820D01*
X124254188Y-114595518D01*
X124241928Y-114720000D01*
X124241928Y-116420000D01*
X124254188Y-116544482D01*
X124290498Y-116664180D01*
X124316593Y-116713000D01*
X119067107Y-116713000D01*
X119263475Y-116516632D01*
X119425990Y-116273411D01*
X119537932Y-116003158D01*
X119595000Y-115716260D01*
X119595000Y-115423740D01*
X119537932Y-115136842D01*
X119425990Y-114866589D01*
X119263475Y-114623368D01*
X119056632Y-114416525D01*
X118882240Y-114300000D01*
X119056632Y-114183475D01*
X119263475Y-113976632D01*
X119425990Y-113733411D01*
X119537932Y-113463158D01*
X119595000Y-113176260D01*
X119595000Y-112883740D01*
X119537932Y-112596842D01*
X119524742Y-112564999D01*
X124315258Y-112564999D01*
X124302068Y-112596842D01*
G37*
X124302068Y-112596842D02*
X124245000Y-112883740D01*
X124245000Y-113176260D01*
X124302068Y-113463158D01*
X124414010Y-113733411D01*
X124576525Y-113976632D01*
X124708380Y-114108487D01*
X124635820Y-114130498D01*
X124525506Y-114189463D01*
X124428815Y-114268815D01*
X124349463Y-114365506D01*
X124290498Y-114475820D01*
X124254188Y-114595518D01*
X124241928Y-114720000D01*
X124241928Y-116420000D01*
X124254188Y-116544482D01*
X124290498Y-116664180D01*
X124316593Y-116713000D01*
X119067107Y-116713000D01*
X119263475Y-116516632D01*
X119425990Y-116273411D01*
X119537932Y-116003158D01*
X119595000Y-115716260D01*
X119595000Y-115423740D01*
X119537932Y-115136842D01*
X119425990Y-114866589D01*
X119263475Y-114623368D01*
X119056632Y-114416525D01*
X118882240Y-114300000D01*
X119056632Y-114183475D01*
X119263475Y-113976632D01*
X119425990Y-113733411D01*
X119537932Y-113463158D01*
X119595000Y-113176260D01*
X119595000Y-112883740D01*
X119537932Y-112596842D01*
X119524742Y-112564999D01*
X124315258Y-112564999D01*
X124302068Y-112596842D01*
G36*
X116956525Y-116516632D02*
G01*
X117152893Y-116713000D01*
X116527107Y-116713000D01*
X116723475Y-116516632D01*
X116840000Y-116342240D01*
X116956525Y-116516632D01*
G37*
X116956525Y-116516632D02*
X117152893Y-116713000D01*
X116527107Y-116713000D01*
X116723475Y-116516632D01*
X116840000Y-116342240D01*
X116956525Y-116516632D01*
G36*
X114416525Y-116516632D02*
G01*
X114612893Y-116713000D01*
X113987107Y-116713000D01*
X114183475Y-116516632D01*
X114300000Y-116342240D01*
X114416525Y-116516632D01*
G37*
X114416525Y-116516632D02*
X114612893Y-116713000D01*
X113987107Y-116713000D01*
X114183475Y-116516632D01*
X114300000Y-116342240D01*
X114416525Y-116516632D01*
G36*
X112072893Y-116713000D02*
G01*
X111903407Y-116713000D01*
X111929502Y-116664180D01*
X111951513Y-116591620D01*
X112072893Y-116713000D01*
G37*
X112072893Y-116713000D02*
X111903407Y-116713000D01*
X111929502Y-116664180D01*
X111951513Y-116591620D01*
X112072893Y-116713000D01*
G36*
X104819990Y-111693567D02*
G01*
X104819991Y-115506511D01*
X104815709Y-115549990D01*
X104832795Y-115723480D01*
X104883402Y-115890303D01*
X104965580Y-116044049D01*
X105048458Y-116145036D01*
X105048461Y-116145039D01*
X105076174Y-116178807D01*
X105109942Y-116206520D01*
X105548466Y-116645044D01*
X105576183Y-116678817D01*
X105617835Y-116713000D01*
X104283407Y-116713000D01*
X104309502Y-116664180D01*
X104345812Y-116544482D01*
X104358072Y-116420000D01*
X104358072Y-114720000D01*
X104345812Y-114595518D01*
X104309502Y-114475820D01*
X104250537Y-114365506D01*
X104171185Y-114268815D01*
X104074494Y-114189463D01*
X103964180Y-114130498D01*
X103891620Y-114108487D01*
X104023475Y-113976632D01*
X104185990Y-113733411D01*
X104297932Y-113463158D01*
X104355000Y-113176260D01*
X104355000Y-112883740D01*
X104297932Y-112596842D01*
X104185990Y-112326589D01*
X104023475Y-112083368D01*
X103816632Y-111876525D01*
X103642240Y-111760000D01*
X103816632Y-111643475D01*
X104023475Y-111436632D01*
X104185990Y-111193411D01*
X104225192Y-111098769D01*
X104819990Y-111693567D01*
G37*
X104819990Y-111693567D02*
X104819991Y-115506511D01*
X104815709Y-115549990D01*
X104832795Y-115723480D01*
X104883402Y-115890303D01*
X104965580Y-116044049D01*
X105048458Y-116145036D01*
X105048461Y-116145039D01*
X105076174Y-116178807D01*
X105109942Y-116206520D01*
X105548466Y-116645044D01*
X105576183Y-116678817D01*
X105617835Y-116713000D01*
X104283407Y-116713000D01*
X104309502Y-116664180D01*
X104345812Y-116544482D01*
X104358072Y-116420000D01*
X104358072Y-114720000D01*
X104345812Y-114595518D01*
X104309502Y-114475820D01*
X104250537Y-114365506D01*
X104171185Y-114268815D01*
X104074494Y-114189463D01*
X103964180Y-114130498D01*
X103891620Y-114108487D01*
X104023475Y-113976632D01*
X104185990Y-113733411D01*
X104297932Y-113463158D01*
X104355000Y-113176260D01*
X104355000Y-112883740D01*
X104297932Y-112596842D01*
X104185990Y-112326589D01*
X104023475Y-112083368D01*
X103816632Y-111876525D01*
X103642240Y-111760000D01*
X103816632Y-111643475D01*
X104023475Y-111436632D01*
X104185990Y-111193411D01*
X104225192Y-111098769D01*
X104819990Y-111693567D01*
G36*
X109005000Y-112883740D02*
G01*
X109005000Y-113176260D01*
X109062068Y-113463158D01*
X109174010Y-113733411D01*
X109336525Y-113976632D01*
X109468380Y-114108487D01*
X109395820Y-114130498D01*
X109285506Y-114189463D01*
X109188815Y-114268815D01*
X109109463Y-114365506D01*
X109050498Y-114475820D01*
X109014188Y-114595518D01*
X109001928Y-114720000D01*
X109001928Y-116420000D01*
X109014188Y-116544482D01*
X109050498Y-116664180D01*
X109076593Y-116713000D01*
X107704811Y-116713000D01*
X107726423Y-116672567D01*
X107776248Y-116508316D01*
X107793072Y-116337500D01*
X107793072Y-115762500D01*
X107776248Y-115591684D01*
X107726423Y-115427433D01*
X107645512Y-115276058D01*
X107562575Y-115175000D01*
X107645512Y-115073942D01*
X107726423Y-114922567D01*
X107776248Y-114758316D01*
X107793072Y-114587500D01*
X107793072Y-114012500D01*
X107784196Y-113922382D01*
X109050232Y-112656347D01*
X109005000Y-112883740D01*
G37*
X109005000Y-112883740D02*
X109005000Y-113176260D01*
X109062068Y-113463158D01*
X109174010Y-113733411D01*
X109336525Y-113976632D01*
X109468380Y-114108487D01*
X109395820Y-114130498D01*
X109285506Y-114189463D01*
X109188815Y-114268815D01*
X109109463Y-114365506D01*
X109050498Y-114475820D01*
X109014188Y-114595518D01*
X109001928Y-114720000D01*
X109001928Y-116420000D01*
X109014188Y-116544482D01*
X109050498Y-116664180D01*
X109076593Y-116713000D01*
X107704811Y-116713000D01*
X107726423Y-116672567D01*
X107776248Y-116508316D01*
X107793072Y-116337500D01*
X107793072Y-115762500D01*
X107776248Y-115591684D01*
X107726423Y-115427433D01*
X107645512Y-115276058D01*
X107562575Y-115175000D01*
X107645512Y-115073942D01*
X107726423Y-114922567D01*
X107776248Y-114758316D01*
X107793072Y-114587500D01*
X107793072Y-114012500D01*
X107784196Y-113922382D01*
X109050232Y-112656347D01*
X109005000Y-112883740D01*
G36*
X91827425Y-115175000D02*
G01*
X91780010Y-115232775D01*
X91780010Y-115117225D01*
X91827425Y-115175000D01*
G37*
X91827425Y-115175000D02*
X91780010Y-115232775D01*
X91780010Y-115117225D01*
X91827425Y-115175000D01*
G36*
X134736525Y-113976632D02*
G01*
X134943368Y-114183475D01*
X135117760Y-114300000D01*
X134943368Y-114416525D01*
X134736525Y-114623368D01*
X134620000Y-114797760D01*
X134503475Y-114623368D01*
X134296632Y-114416525D01*
X134122240Y-114300000D01*
X134296632Y-114183475D01*
X134503475Y-113976632D01*
X134620000Y-113802240D01*
X134736525Y-113976632D01*
G37*
X134736525Y-113976632D02*
X134943368Y-114183475D01*
X135117760Y-114300000D01*
X134943368Y-114416525D01*
X134736525Y-114623368D01*
X134620000Y-114797760D01*
X134503475Y-114623368D01*
X134296632Y-114416525D01*
X134122240Y-114300000D01*
X134296632Y-114183475D01*
X134503475Y-113976632D01*
X134620000Y-113802240D01*
X134736525Y-113976632D01*
G36*
X132196525Y-113976632D02*
G01*
X132403368Y-114183475D01*
X132577760Y-114300000D01*
X132403368Y-114416525D01*
X132196525Y-114623368D01*
X132080000Y-114797760D01*
X131963475Y-114623368D01*
X131756632Y-114416525D01*
X131582240Y-114300000D01*
X131756632Y-114183475D01*
X131963475Y-113976632D01*
X132080000Y-113802240D01*
X132196525Y-113976632D01*
G37*
X132196525Y-113976632D02*
X132403368Y-114183475D01*
X132577760Y-114300000D01*
X132403368Y-114416525D01*
X132196525Y-114623368D01*
X132080000Y-114797760D01*
X131963475Y-114623368D01*
X131756632Y-114416525D01*
X131582240Y-114300000D01*
X131756632Y-114183475D01*
X131963475Y-113976632D01*
X132080000Y-113802240D01*
X132196525Y-113976632D01*
G36*
X147436525Y-113976632D02*
G01*
X147643368Y-114183475D01*
X147817760Y-114300000D01*
X147643368Y-114416525D01*
X147436525Y-114623368D01*
X147320000Y-114797760D01*
X147203475Y-114623368D01*
X146996632Y-114416525D01*
X146822240Y-114300000D01*
X146996632Y-114183475D01*
X147203475Y-113976632D01*
X147320000Y-113802240D01*
X147436525Y-113976632D01*
G37*
X147436525Y-113976632D02*
X147643368Y-114183475D01*
X147817760Y-114300000D01*
X147643368Y-114416525D01*
X147436525Y-114623368D01*
X147320000Y-114797760D01*
X147203475Y-114623368D01*
X146996632Y-114416525D01*
X146822240Y-114300000D01*
X146996632Y-114183475D01*
X147203475Y-113976632D01*
X147320000Y-113802240D01*
X147436525Y-113976632D01*
G36*
X129656525Y-113976632D02*
G01*
X129863368Y-114183475D01*
X130037760Y-114300000D01*
X129863368Y-114416525D01*
X129656525Y-114623368D01*
X129540000Y-114797760D01*
X129423475Y-114623368D01*
X129216632Y-114416525D01*
X129042240Y-114300000D01*
X129216632Y-114183475D01*
X129423475Y-113976632D01*
X129540000Y-113802240D01*
X129656525Y-113976632D01*
G37*
X129656525Y-113976632D02*
X129863368Y-114183475D01*
X130037760Y-114300000D01*
X129863368Y-114416525D01*
X129656525Y-114623368D01*
X129540000Y-114797760D01*
X129423475Y-114623368D01*
X129216632Y-114416525D01*
X129042240Y-114300000D01*
X129216632Y-114183475D01*
X129423475Y-113976632D01*
X129540000Y-113802240D01*
X129656525Y-113976632D01*
G36*
X116956525Y-113976632D02*
G01*
X117163368Y-114183475D01*
X117337760Y-114300000D01*
X117163368Y-114416525D01*
X116956525Y-114623368D01*
X116840000Y-114797760D01*
X116723475Y-114623368D01*
X116516632Y-114416525D01*
X116342240Y-114300000D01*
X116516632Y-114183475D01*
X116723475Y-113976632D01*
X116840000Y-113802240D01*
X116956525Y-113976632D01*
G37*
X116956525Y-113976632D02*
X117163368Y-114183475D01*
X117337760Y-114300000D01*
X117163368Y-114416525D01*
X116956525Y-114623368D01*
X116840000Y-114797760D01*
X116723475Y-114623368D01*
X116516632Y-114416525D01*
X116342240Y-114300000D01*
X116516632Y-114183475D01*
X116723475Y-113976632D01*
X116840000Y-113802240D01*
X116956525Y-113976632D01*
G36*
X114416525Y-113976632D02*
G01*
X114623368Y-114183475D01*
X114797760Y-114300000D01*
X114623368Y-114416525D01*
X114416525Y-114623368D01*
X114300000Y-114797760D01*
X114183475Y-114623368D01*
X113976632Y-114416525D01*
X113802240Y-114300000D01*
X113976632Y-114183475D01*
X114183475Y-113976632D01*
X114300000Y-113802240D01*
X114416525Y-113976632D01*
G37*
X114416525Y-113976632D02*
X114623368Y-114183475D01*
X114797760Y-114300000D01*
X114623368Y-114416525D01*
X114416525Y-114623368D01*
X114300000Y-114797760D01*
X114183475Y-114623368D01*
X113976632Y-114416525D01*
X113802240Y-114300000D01*
X113976632Y-114183475D01*
X114183475Y-113976632D01*
X114300000Y-113802240D01*
X114416525Y-113976632D01*
G36*
X149976525Y-113976632D02*
G01*
X150183368Y-114183475D01*
X150357760Y-114300000D01*
X150183368Y-114416525D01*
X149976525Y-114623368D01*
X149860000Y-114797760D01*
X149743475Y-114623368D01*
X149536632Y-114416525D01*
X149362240Y-114300000D01*
X149536632Y-114183475D01*
X149743475Y-113976632D01*
X149860000Y-113802240D01*
X149976525Y-113976632D01*
G37*
X149976525Y-113976632D02*
X150183368Y-114183475D01*
X150357760Y-114300000D01*
X150183368Y-114416525D01*
X149976525Y-114623368D01*
X149860000Y-114797760D01*
X149743475Y-114623368D01*
X149536632Y-114416525D01*
X149362240Y-114300000D01*
X149536632Y-114183475D01*
X149743475Y-113976632D01*
X149860000Y-113802240D01*
X149976525Y-113976632D01*
G36*
X144896525Y-113976632D02*
G01*
X145103368Y-114183475D01*
X145277760Y-114300000D01*
X145103368Y-114416525D01*
X144971513Y-114548380D01*
X144949502Y-114475820D01*
X144890537Y-114365506D01*
X144811185Y-114268815D01*
X144714494Y-114189463D01*
X144604180Y-114130498D01*
X144531620Y-114108487D01*
X144663475Y-113976632D01*
X144780000Y-113802240D01*
X144896525Y-113976632D01*
G37*
X144896525Y-113976632D02*
X145103368Y-114183475D01*
X145277760Y-114300000D01*
X145103368Y-114416525D01*
X144971513Y-114548380D01*
X144949502Y-114475820D01*
X144890537Y-114365506D01*
X144811185Y-114268815D01*
X144714494Y-114189463D01*
X144604180Y-114130498D01*
X144531620Y-114108487D01*
X144663475Y-113976632D01*
X144780000Y-113802240D01*
X144896525Y-113976632D01*
G36*
X111876525Y-113976632D02*
G01*
X112083368Y-114183475D01*
X112257760Y-114300000D01*
X112083368Y-114416525D01*
X111951513Y-114548380D01*
X111929502Y-114475820D01*
X111870537Y-114365506D01*
X111791185Y-114268815D01*
X111694494Y-114189463D01*
X111584180Y-114130498D01*
X111511620Y-114108487D01*
X111643475Y-113976632D01*
X111760000Y-113802240D01*
X111876525Y-113976632D01*
G37*
X111876525Y-113976632D02*
X112083368Y-114183475D01*
X112257760Y-114300000D01*
X112083368Y-114416525D01*
X111951513Y-114548380D01*
X111929502Y-114475820D01*
X111870537Y-114365506D01*
X111791185Y-114268815D01*
X111694494Y-114189463D01*
X111584180Y-114130498D01*
X111511620Y-114108487D01*
X111643475Y-113976632D01*
X111760000Y-113802240D01*
X111876525Y-113976632D01*
G36*
X127116525Y-113976632D02*
G01*
X127323368Y-114183475D01*
X127497760Y-114300000D01*
X127323368Y-114416525D01*
X127191513Y-114548380D01*
X127169502Y-114475820D01*
X127110537Y-114365506D01*
X127031185Y-114268815D01*
X126934494Y-114189463D01*
X126824180Y-114130498D01*
X126751620Y-114108487D01*
X126883475Y-113976632D01*
X127000000Y-113802240D01*
X127116525Y-113976632D01*
G37*
X127116525Y-113976632D02*
X127323368Y-114183475D01*
X127497760Y-114300000D01*
X127323368Y-114416525D01*
X127191513Y-114548380D01*
X127169502Y-114475820D01*
X127110537Y-114365506D01*
X127031185Y-114268815D01*
X126934494Y-114189463D01*
X126824180Y-114130498D01*
X126751620Y-114108487D01*
X126883475Y-113976632D01*
X127000000Y-113802240D01*
X127116525Y-113976632D01*
G36*
X99176525Y-113976632D02*
G01*
X99308380Y-114108487D01*
X99235820Y-114130498D01*
X99125506Y-114189463D01*
X99060000Y-114243222D01*
X98994494Y-114189463D01*
X98884180Y-114130498D01*
X98811620Y-114108487D01*
X98943475Y-113976632D01*
X99060000Y-113802240D01*
X99176525Y-113976632D01*
G37*
X99176525Y-113976632D02*
X99308380Y-114108487D01*
X99235820Y-114130498D01*
X99125506Y-114189463D01*
X99060000Y-114243222D01*
X98994494Y-114189463D01*
X98884180Y-114130498D01*
X98811620Y-114108487D01*
X98943475Y-113976632D01*
X99060000Y-113802240D01*
X99176525Y-113976632D01*
G36*
X101716525Y-113976632D02*
G01*
X101848380Y-114108487D01*
X101775820Y-114130498D01*
X101665506Y-114189463D01*
X101600000Y-114243222D01*
X101534494Y-114189463D01*
X101424180Y-114130498D01*
X101351620Y-114108487D01*
X101483475Y-113976632D01*
X101600000Y-113802240D01*
X101716525Y-113976632D01*
G37*
X101716525Y-113976632D02*
X101848380Y-114108487D01*
X101775820Y-114130498D01*
X101665506Y-114189463D01*
X101600000Y-114243222D01*
X101534494Y-114189463D01*
X101424180Y-114130498D01*
X101351620Y-114108487D01*
X101483475Y-113976632D01*
X101600000Y-113802240D01*
X101716525Y-113976632D01*
G36*
X96636525Y-113976632D02*
G01*
X96768380Y-114108487D01*
X96695820Y-114130498D01*
X96585506Y-114189463D01*
X96520000Y-114243222D01*
X96454494Y-114189463D01*
X96344180Y-114130498D01*
X96271620Y-114108487D01*
X96403475Y-113976632D01*
X96520000Y-113802240D01*
X96636525Y-113976632D01*
G37*
X96636525Y-113976632D02*
X96768380Y-114108487D01*
X96695820Y-114130498D01*
X96585506Y-114189463D01*
X96520000Y-114243222D01*
X96454494Y-114189463D01*
X96344180Y-114130498D01*
X96271620Y-114108487D01*
X96403475Y-113976632D01*
X96520000Y-113802240D01*
X96636525Y-113976632D01*
G36*
X201803000Y-53392606D02*
G01*
X201803000Y-94993114D01*
X201750661Y-94929339D01*
X201516926Y-94737519D01*
X201250260Y-94594983D01*
X200960912Y-94507210D01*
X200660000Y-94477573D01*
X200359087Y-94507210D01*
X200069739Y-94594983D01*
X199803073Y-94737519D01*
X199795000Y-94744144D01*
X199795000Y-93944592D01*
X199772790Y-93719087D01*
X199685017Y-93429739D01*
X199542481Y-93163073D01*
X199350661Y-92929339D01*
X199116926Y-92737519D01*
X198850260Y-92594983D01*
X198560912Y-92507210D01*
X198260000Y-92477573D01*
X197959087Y-92507210D01*
X197669739Y-92594983D01*
X197403073Y-92737519D01*
X197169339Y-92929339D01*
X196977519Y-93163074D01*
X196834983Y-93429740D01*
X196747210Y-93719088D01*
X196725000Y-93944593D01*
X196725000Y-95095408D01*
X196747210Y-95320913D01*
X196834983Y-95610261D01*
X196977519Y-95876927D01*
X197169340Y-96110661D01*
X197403074Y-96302481D01*
X197669740Y-96445017D01*
X197959088Y-96532790D01*
X198260000Y-96562427D01*
X198560913Y-96532790D01*
X198850261Y-96445017D01*
X199116927Y-96302481D01*
X199125000Y-96295856D01*
X199125000Y-97095408D01*
X199147210Y-97320913D01*
X199234983Y-97610261D01*
X199377519Y-97876927D01*
X199569340Y-98110661D01*
X199803074Y-98302481D01*
X200069740Y-98445017D01*
X200359088Y-98532790D01*
X200660000Y-98562427D01*
X200960913Y-98532790D01*
X201250261Y-98445017D01*
X201516927Y-98302481D01*
X201750661Y-98110661D01*
X201803000Y-98046886D01*
X201803000Y-110233114D01*
X201750661Y-110169339D01*
X201516926Y-109977519D01*
X201250260Y-109834983D01*
X200960912Y-109747210D01*
X200660000Y-109717573D01*
X200359087Y-109747210D01*
X200069739Y-109834983D01*
X199803073Y-109977519D01*
X199795000Y-109984144D01*
X199795000Y-109184592D01*
X199772790Y-108959087D01*
X199685017Y-108669739D01*
X199542481Y-108403073D01*
X199350661Y-108169339D01*
X199116926Y-107977519D01*
X198850260Y-107834983D01*
X198560912Y-107747210D01*
X198260000Y-107717573D01*
X197959087Y-107747210D01*
X197669739Y-107834983D01*
X197403073Y-107977519D01*
X197169339Y-108169339D01*
X196977519Y-108403074D01*
X196834983Y-108669740D01*
X196747210Y-108959088D01*
X196725000Y-109184593D01*
X196725000Y-110335408D01*
X196747210Y-110560913D01*
X196834983Y-110850261D01*
X196848206Y-110875000D01*
X195658463Y-110875000D01*
X195614997Y-110870719D01*
X195571531Y-110875000D01*
X195571521Y-110875000D01*
X195441508Y-110887805D01*
X195274685Y-110938411D01*
X195120939Y-111020589D01*
X195109471Y-111030001D01*
X195019951Y-111103468D01*
X195019949Y-111103470D01*
X194986181Y-111131183D01*
X194958468Y-111164951D01*
X192708420Y-113415000D01*
X188088072Y-113415000D01*
X188088072Y-112561918D01*
X188146433Y-112649261D01*
X188340739Y-112843567D01*
X188569220Y-112996233D01*
X188823093Y-113101391D01*
X189092604Y-113155000D01*
X189367396Y-113155000D01*
X189636907Y-113101391D01*
X189890780Y-112996233D01*
X190119261Y-112843567D01*
X190313567Y-112649261D01*
X190466233Y-112420780D01*
X190571391Y-112166907D01*
X190625000Y-111897396D01*
X190625000Y-111622604D01*
X190571391Y-111353093D01*
X190466233Y-111099220D01*
X190313567Y-110870739D01*
X190119261Y-110676433D01*
X189890780Y-110523767D01*
X189809260Y-110490000D01*
X189890780Y-110456233D01*
X190119261Y-110303567D01*
X190313567Y-110109261D01*
X190466233Y-109880780D01*
X190571391Y-109626907D01*
X190625000Y-109357396D01*
X190625000Y-109184593D01*
X191225000Y-109184593D01*
X191225000Y-110335408D01*
X191247210Y-110560913D01*
X191334983Y-110850261D01*
X191477519Y-111116927D01*
X191669340Y-111350661D01*
X191903074Y-111542481D01*
X192169740Y-111685017D01*
X192459088Y-111772790D01*
X192760000Y-111802427D01*
X193060913Y-111772790D01*
X193350261Y-111685017D01*
X193616927Y-111542481D01*
X193850661Y-111350661D01*
X194042481Y-111116927D01*
X194185017Y-110850261D01*
X194272790Y-110560913D01*
X194295000Y-110335408D01*
X194295000Y-109184592D01*
X194272790Y-108959087D01*
X194185017Y-108669739D01*
X194042481Y-108403073D01*
X193850661Y-108169339D01*
X193616926Y-107977519D01*
X193350260Y-107834983D01*
X193060912Y-107747210D01*
X192760000Y-107717573D01*
X192459087Y-107747210D01*
X192169739Y-107834983D01*
X191903073Y-107977519D01*
X191669339Y-108169339D01*
X191477519Y-108403074D01*
X191334983Y-108669740D01*
X191247210Y-108959088D01*
X191225000Y-109184593D01*
X190625000Y-109184593D01*
X190625000Y-109082604D01*
X190571391Y-108813093D01*
X190466233Y-108559220D01*
X190313567Y-108330739D01*
X190119261Y-108136433D01*
X189890780Y-107983767D01*
X189809260Y-107950000D01*
X189890780Y-107916233D01*
X190119261Y-107763567D01*
X190313567Y-107569261D01*
X190466233Y-107340780D01*
X190571391Y-107086907D01*
X190625000Y-106817396D01*
X190625000Y-106542604D01*
X190571391Y-106273093D01*
X190466233Y-106019220D01*
X190313567Y-105790739D01*
X190119261Y-105596433D01*
X189890780Y-105443767D01*
X189636907Y-105338609D01*
X189367396Y-105285000D01*
X189092604Y-105285000D01*
X188823093Y-105338609D01*
X188569220Y-105443767D01*
X188340739Y-105596433D01*
X188146433Y-105790739D01*
X187993767Y-106019220D01*
X187888609Y-106273093D01*
X187835000Y-106542604D01*
X187835000Y-106817396D01*
X187888609Y-107086907D01*
X187993767Y-107340780D01*
X188146433Y-107569261D01*
X188340739Y-107763567D01*
X188569220Y-107916233D01*
X188650740Y-107950000D01*
X188569220Y-107983767D01*
X188340739Y-108136433D01*
X188146433Y-108330739D01*
X187993767Y-108559220D01*
X187888609Y-108813093D01*
X187835000Y-109082604D01*
X187835000Y-109357396D01*
X187888609Y-109626907D01*
X187993767Y-109880780D01*
X188146433Y-110109261D01*
X188340739Y-110303567D01*
X188569220Y-110456233D01*
X188650740Y-110490000D01*
X188569220Y-110523767D01*
X188340739Y-110676433D01*
X188146433Y-110870739D01*
X187993767Y-111099220D01*
X187888609Y-111353093D01*
X187835000Y-111622604D01*
X187835000Y-111764499D01*
X187804494Y-111739463D01*
X187694180Y-111680498D01*
X187574482Y-111644188D01*
X187486533Y-111635526D01*
X187579261Y-111573567D01*
X187773567Y-111379261D01*
X187926233Y-111150780D01*
X188031391Y-110896907D01*
X188085000Y-110627396D01*
X188085000Y-110352604D01*
X188031391Y-110083093D01*
X187926233Y-109829220D01*
X187773567Y-109600739D01*
X187579261Y-109406433D01*
X187350780Y-109253767D01*
X187269260Y-109220000D01*
X187350780Y-109186233D01*
X187579261Y-109033567D01*
X187773567Y-108839261D01*
X187926233Y-108610780D01*
X188031391Y-108356907D01*
X188085000Y-108087396D01*
X188085000Y-107812604D01*
X188031391Y-107543093D01*
X187926233Y-107289220D01*
X187773567Y-107060739D01*
X187579261Y-106866433D01*
X187350780Y-106713767D01*
X187096907Y-106608609D01*
X186827396Y-106555000D01*
X186552604Y-106555000D01*
X186283093Y-106608609D01*
X186029220Y-106713767D01*
X185800739Y-106866433D01*
X185606433Y-107060739D01*
X185453767Y-107289220D01*
X185348609Y-107543093D01*
X185295000Y-107812604D01*
X185295000Y-108087396D01*
X185348609Y-108356907D01*
X185453767Y-108610780D01*
X185606433Y-108839261D01*
X185800739Y-109033567D01*
X186029220Y-109186233D01*
X186110740Y-109220000D01*
X186029220Y-109253767D01*
X185800739Y-109406433D01*
X185606433Y-109600739D01*
X185453767Y-109829220D01*
X185348609Y-110083093D01*
X185295000Y-110352604D01*
X185295000Y-110627396D01*
X185348609Y-110896907D01*
X185453767Y-111150780D01*
X185606433Y-111379261D01*
X185800739Y-111573567D01*
X185893467Y-111635526D01*
X185805518Y-111644188D01*
X185685820Y-111680498D01*
X185575506Y-111739463D01*
X185478815Y-111818815D01*
X185399463Y-111915506D01*
X185340498Y-112025820D01*
X185304188Y-112145518D01*
X185291928Y-112270000D01*
X185291928Y-113415000D01*
X182571626Y-113415000D01*
X182606630Y-113330494D01*
X182646404Y-113130535D01*
X182646404Y-112926657D01*
X182606630Y-112726698D01*
X182528609Y-112538340D01*
X182431894Y-112393596D01*
X182528609Y-112248852D01*
X182606630Y-112060494D01*
X182646404Y-111860535D01*
X182646404Y-111656657D01*
X182606630Y-111456698D01*
X182528609Y-111268340D01*
X182431661Y-111123247D01*
X182527205Y-110980256D01*
X182605226Y-110791898D01*
X182645000Y-110591939D01*
X182645000Y-110388061D01*
X182605226Y-110188102D01*
X182527205Y-109999744D01*
X182430490Y-109855000D01*
X182527205Y-109710256D01*
X182605226Y-109521898D01*
X182645000Y-109321939D01*
X182645000Y-109118061D01*
X182605226Y-108918102D01*
X182527205Y-108729744D01*
X182430490Y-108585000D01*
X182527205Y-108440256D01*
X182605226Y-108251898D01*
X182616535Y-108195043D01*
X186254169Y-104557409D01*
X193320000Y-104557409D01*
X193320000Y-105002591D01*
X193406851Y-105439218D01*
X193577214Y-105850511D01*
X193824544Y-106220666D01*
X194139334Y-106535456D01*
X194509489Y-106782786D01*
X194920782Y-106953149D01*
X195357409Y-107040000D01*
X195802591Y-107040000D01*
X196239218Y-106953149D01*
X196650511Y-106782786D01*
X197020666Y-106535456D01*
X197335456Y-106220666D01*
X197582786Y-105850511D01*
X197753149Y-105439218D01*
X197840000Y-105002591D01*
X197840000Y-104557409D01*
X197753149Y-104120782D01*
X197582786Y-103709489D01*
X197335456Y-103339334D01*
X197020666Y-103024544D01*
X196650511Y-102777214D01*
X196239218Y-102606851D01*
X195802591Y-102520000D01*
X195357409Y-102520000D01*
X194920782Y-102606851D01*
X194509489Y-102777214D01*
X194139334Y-103024544D01*
X193824544Y-103339334D01*
X193577214Y-103709489D01*
X193406851Y-104120782D01*
X193320000Y-104557409D01*
X186254169Y-104557409D01*
X191334169Y-99477409D01*
X193320000Y-99477409D01*
X193320000Y-99922591D01*
X193406851Y-100359218D01*
X193577214Y-100770511D01*
X193824544Y-101140666D01*
X194139334Y-101455456D01*
X194509489Y-101702786D01*
X194920782Y-101873149D01*
X195357409Y-101960000D01*
X195802591Y-101960000D01*
X196239218Y-101873149D01*
X196650511Y-101702786D01*
X197020666Y-101455456D01*
X197335456Y-101140666D01*
X197582786Y-100770511D01*
X197753149Y-100359218D01*
X197840000Y-99922591D01*
X197840000Y-99477409D01*
X197753149Y-99040782D01*
X197582786Y-98629489D01*
X197335456Y-98259334D01*
X197020666Y-97944544D01*
X196650511Y-97697214D01*
X196239218Y-97526851D01*
X195802591Y-97440000D01*
X195357409Y-97440000D01*
X194920782Y-97526851D01*
X194509489Y-97697214D01*
X194139334Y-97944544D01*
X193824544Y-98259334D01*
X193577214Y-98629489D01*
X193406851Y-99040782D01*
X193320000Y-99477409D01*
X191334169Y-99477409D01*
X193355049Y-97456530D01*
X193388817Y-97428817D01*
X193418873Y-97392195D01*
X193499410Y-97294060D01*
X193499411Y-97294059D01*
X193581589Y-97140313D01*
X193632195Y-96973490D01*
X193645000Y-96843477D01*
X193645000Y-96843467D01*
X193649281Y-96800001D01*
X193645000Y-96756535D01*
X193645000Y-96279442D01*
X193850661Y-96110661D01*
X194042481Y-95876927D01*
X194185017Y-95610261D01*
X194272790Y-95320913D01*
X194295000Y-95095408D01*
X194295000Y-93944592D01*
X194272790Y-93719087D01*
X194185017Y-93429739D01*
X194042481Y-93163073D01*
X193850661Y-92929339D01*
X193616926Y-92737519D01*
X193350260Y-92594983D01*
X193060912Y-92507210D01*
X192760000Y-92477573D01*
X192459087Y-92507210D01*
X192169739Y-92594983D01*
X191903073Y-92737519D01*
X191669339Y-92929339D01*
X191477519Y-93163074D01*
X191334983Y-93429740D01*
X191247210Y-93719088D01*
X191225000Y-93944593D01*
X191225000Y-95095408D01*
X191247210Y-95320913D01*
X191334983Y-95610261D01*
X191477519Y-95876927D01*
X191669340Y-96110661D01*
X191875001Y-96279442D01*
X191875001Y-96433420D01*
X181364957Y-106943465D01*
X181308102Y-106954774D01*
X181119744Y-107032795D01*
X180950226Y-107146063D01*
X180806063Y-107290226D01*
X180692795Y-107459744D01*
X180614774Y-107648102D01*
X180585563Y-107794955D01*
X172859431Y-107794955D01*
X181856448Y-98797939D01*
X181913302Y-98786630D01*
X182101660Y-98708609D01*
X182271178Y-98595341D01*
X182415341Y-98451178D01*
X182528609Y-98281660D01*
X182606630Y-98093302D01*
X182646404Y-97893343D01*
X182646404Y-97689465D01*
X182606630Y-97489506D01*
X182528609Y-97301148D01*
X182431894Y-97156404D01*
X182516354Y-97030000D01*
X185291928Y-97030000D01*
X185291928Y-98550000D01*
X185304188Y-98674482D01*
X185340498Y-98794180D01*
X185399463Y-98904494D01*
X185478815Y-99001185D01*
X185575506Y-99080537D01*
X185685820Y-99139502D01*
X185805518Y-99175812D01*
X185930000Y-99188072D01*
X187450000Y-99188072D01*
X187574482Y-99175812D01*
X187694180Y-99139502D01*
X187804494Y-99080537D01*
X187901185Y-99001185D01*
X187980537Y-98904494D01*
X188039502Y-98794180D01*
X188075812Y-98674482D01*
X188088072Y-98550000D01*
X188088072Y-97321918D01*
X188146433Y-97409261D01*
X188340739Y-97603567D01*
X188569220Y-97756233D01*
X188823093Y-97861391D01*
X189092604Y-97915000D01*
X189367396Y-97915000D01*
X189636907Y-97861391D01*
X189890780Y-97756233D01*
X190119261Y-97603567D01*
X190313567Y-97409261D01*
X190466233Y-97180780D01*
X190571391Y-96926907D01*
X190625000Y-96657396D01*
X190625000Y-96382604D01*
X190571391Y-96113093D01*
X190466233Y-95859220D01*
X190313567Y-95630739D01*
X190119261Y-95436433D01*
X189890780Y-95283767D01*
X189809260Y-95250000D01*
X189890780Y-95216233D01*
X190119261Y-95063567D01*
X190313567Y-94869261D01*
X190466233Y-94640780D01*
X190571391Y-94386907D01*
X190625000Y-94117396D01*
X190625000Y-93842604D01*
X190571391Y-93573093D01*
X190466233Y-93319220D01*
X190313567Y-93090739D01*
X190119261Y-92896433D01*
X189890780Y-92743767D01*
X189809260Y-92710000D01*
X189890780Y-92676233D01*
X190119261Y-92523567D01*
X190313567Y-92329261D01*
X190466233Y-92100780D01*
X190571391Y-91846907D01*
X190625000Y-91577396D01*
X190625000Y-91302604D01*
X190571391Y-91033093D01*
X190466233Y-90779220D01*
X190313567Y-90550739D01*
X190119261Y-90356433D01*
X189890780Y-90203767D01*
X189636907Y-90098609D01*
X189367396Y-90045000D01*
X189092604Y-90045000D01*
X188823093Y-90098609D01*
X188569220Y-90203767D01*
X188340739Y-90356433D01*
X188146433Y-90550739D01*
X187993767Y-90779220D01*
X187888609Y-91033093D01*
X187835000Y-91302604D01*
X187835000Y-91577396D01*
X187888609Y-91846907D01*
X187993767Y-92100780D01*
X188146433Y-92329261D01*
X188340739Y-92523567D01*
X188569220Y-92676233D01*
X188650740Y-92710000D01*
X188569220Y-92743767D01*
X188340739Y-92896433D01*
X188146433Y-93090739D01*
X187993767Y-93319220D01*
X187888609Y-93573093D01*
X187835000Y-93842604D01*
X187835000Y-94117396D01*
X187888609Y-94386907D01*
X187993767Y-94640780D01*
X188146433Y-94869261D01*
X188340739Y-95063567D01*
X188569220Y-95216233D01*
X188650740Y-95250000D01*
X188569220Y-95283767D01*
X188340739Y-95436433D01*
X188146433Y-95630739D01*
X187993767Y-95859220D01*
X187888609Y-96113093D01*
X187835000Y-96382604D01*
X187835000Y-96524499D01*
X187804494Y-96499463D01*
X187694180Y-96440498D01*
X187574482Y-96404188D01*
X187486533Y-96395526D01*
X187579261Y-96333567D01*
X187773567Y-96139261D01*
X187926233Y-95910780D01*
X188031391Y-95656907D01*
X188085000Y-95387396D01*
X188085000Y-95112604D01*
X188031391Y-94843093D01*
X187926233Y-94589220D01*
X187773567Y-94360739D01*
X187579261Y-94166433D01*
X187350780Y-94013767D01*
X187269260Y-93980000D01*
X187350780Y-93946233D01*
X187579261Y-93793567D01*
X187773567Y-93599261D01*
X187926233Y-93370780D01*
X188031391Y-93116907D01*
X188085000Y-92847396D01*
X188085000Y-92572604D01*
X188031391Y-92303093D01*
X187926233Y-92049220D01*
X187773567Y-91820739D01*
X187579261Y-91626433D01*
X187350780Y-91473767D01*
X187096907Y-91368609D01*
X186827396Y-91315000D01*
X186552604Y-91315000D01*
X186283093Y-91368609D01*
X186029220Y-91473767D01*
X185800739Y-91626433D01*
X185606433Y-91820739D01*
X185453767Y-92049220D01*
X185348609Y-92303093D01*
X185295000Y-92572604D01*
X185295000Y-92847396D01*
X185348609Y-93116907D01*
X185453767Y-93370780D01*
X185606433Y-93599261D01*
X185800739Y-93793567D01*
X186029220Y-93946233D01*
X186110740Y-93980000D01*
X186029220Y-94013767D01*
X185800739Y-94166433D01*
X185606433Y-94360739D01*
X185453767Y-94589220D01*
X185348609Y-94843093D01*
X185295000Y-95112604D01*
X185295000Y-95387396D01*
X185348609Y-95656907D01*
X185453767Y-95910780D01*
X185606433Y-96139261D01*
X185800739Y-96333567D01*
X185893467Y-96395526D01*
X185805518Y-96404188D01*
X185685820Y-96440498D01*
X185575506Y-96499463D01*
X185478815Y-96578815D01*
X185399463Y-96675506D01*
X185340498Y-96785820D01*
X185304188Y-96905518D01*
X185291928Y-97030000D01*
X182516354Y-97030000D01*
X182528609Y-97011660D01*
X182606630Y-96823302D01*
X182646404Y-96623343D01*
X182646404Y-96419465D01*
X182606630Y-96219506D01*
X182528609Y-96031148D01*
X182431894Y-95886404D01*
X182528609Y-95741660D01*
X182606630Y-95553302D01*
X182646404Y-95353343D01*
X182646404Y-95149465D01*
X182606630Y-94949506D01*
X182528609Y-94761148D01*
X182448363Y-94641050D01*
X182475749Y-94550771D01*
X182528609Y-94471660D01*
X182606630Y-94283302D01*
X182646404Y-94083343D01*
X182646404Y-93879465D01*
X182606630Y-93679506D01*
X182528609Y-93491148D01*
X182415341Y-93321630D01*
X182271178Y-93177467D01*
X182101660Y-93064199D01*
X181913302Y-92986178D01*
X181713343Y-92946404D01*
X181509465Y-92946404D01*
X181309506Y-92986178D01*
X181121148Y-93064199D01*
X180951630Y-93177467D01*
X180807467Y-93321630D01*
X180694199Y-93491148D01*
X180616178Y-93679506D01*
X180606914Y-93726078D01*
X180582067Y-93756354D01*
X169543511Y-104794911D01*
X160827186Y-104794911D01*
X160937205Y-104630256D01*
X161015226Y-104441898D01*
X161055000Y-104241939D01*
X161055000Y-104038061D01*
X161015226Y-103838102D01*
X160937205Y-103649744D01*
X160905000Y-103601546D01*
X160905000Y-95788454D01*
X160937205Y-95740256D01*
X161015226Y-95551898D01*
X161055000Y-95351939D01*
X161055000Y-95148061D01*
X161015226Y-94948102D01*
X160937205Y-94759744D01*
X160823937Y-94590226D01*
X160679774Y-94446063D01*
X160510256Y-94332795D01*
X160321898Y-94254774D01*
X160121939Y-94215000D01*
X159918061Y-94215000D01*
X159718102Y-94254774D01*
X159529744Y-94332795D01*
X159360226Y-94446063D01*
X159216063Y-94590226D01*
X159102795Y-94759744D01*
X159024774Y-94948102D01*
X158985000Y-95148061D01*
X158985000Y-95351939D01*
X159017690Y-95516286D01*
X158853343Y-95483596D01*
X158649465Y-95483596D01*
X158449506Y-95523370D01*
X158261148Y-95601391D01*
X158091630Y-95714659D01*
X157947467Y-95858822D01*
X157834199Y-96028340D01*
X157756178Y-96216698D01*
X157716404Y-96416657D01*
X157716404Y-96620535D01*
X157750373Y-96791312D01*
X157581940Y-96757809D01*
X157378062Y-96757809D01*
X157178103Y-96797583D01*
X156989745Y-96875604D01*
X156820227Y-96988872D01*
X156676064Y-97133035D01*
X156562796Y-97302553D01*
X156484775Y-97490911D01*
X156445001Y-97690870D01*
X156445001Y-97894748D01*
X156477458Y-98057924D01*
X156311939Y-98025000D01*
X156108061Y-98025000D01*
X155908102Y-98064774D01*
X155719744Y-98142795D01*
X155550226Y-98256063D01*
X155406063Y-98400226D01*
X155292795Y-98569744D01*
X155214774Y-98758102D01*
X155175000Y-98958061D01*
X155175000Y-99161939D01*
X155208039Y-99328039D01*
X155041939Y-99295000D01*
X154838061Y-99295000D01*
X154638102Y-99334774D01*
X154449744Y-99412795D01*
X154280226Y-99526063D01*
X154136063Y-99670226D01*
X154022795Y-99839744D01*
X153944774Y-100028102D01*
X153913601Y-100184820D01*
X152475549Y-101622873D01*
X152431185Y-101568815D01*
X152334494Y-101489463D01*
X152224180Y-101430498D01*
X152151620Y-101408487D01*
X152283475Y-101276632D01*
X152445990Y-101033411D01*
X152557932Y-100763158D01*
X152615000Y-100476260D01*
X152615000Y-100183740D01*
X152557932Y-99896842D01*
X152445990Y-99626589D01*
X152283475Y-99383368D01*
X152076632Y-99176525D01*
X151902240Y-99060000D01*
X152076632Y-98943475D01*
X152283475Y-98736632D01*
X152445990Y-98493411D01*
X152557932Y-98223158D01*
X152615000Y-97936260D01*
X152615000Y-97643740D01*
X152557932Y-97356842D01*
X152445990Y-97086589D01*
X152283475Y-96843368D01*
X152076632Y-96636525D01*
X151902240Y-96520000D01*
X152076632Y-96403475D01*
X152283475Y-96196632D01*
X152445990Y-95953411D01*
X152557932Y-95683158D01*
X152615000Y-95396260D01*
X152615000Y-95103740D01*
X152557932Y-94816842D01*
X152445990Y-94546589D01*
X152283475Y-94303368D01*
X152076632Y-94096525D01*
X151902240Y-93980000D01*
X152076632Y-93863475D01*
X152283475Y-93656632D01*
X152445990Y-93413411D01*
X152557932Y-93143158D01*
X152615000Y-92856260D01*
X152615000Y-92563740D01*
X152557932Y-92276842D01*
X152445990Y-92006589D01*
X152283475Y-91763368D01*
X152076632Y-91556525D01*
X151902240Y-91440000D01*
X152076632Y-91323475D01*
X152283475Y-91116632D01*
X152445990Y-90873411D01*
X152557932Y-90603158D01*
X152615000Y-90316260D01*
X152615000Y-90023740D01*
X152557932Y-89736842D01*
X152445990Y-89466589D01*
X152346312Y-89317409D01*
X193320000Y-89317409D01*
X193320000Y-89762591D01*
X193406851Y-90199218D01*
X193577214Y-90610511D01*
X193824544Y-90980666D01*
X194139334Y-91295456D01*
X194509489Y-91542786D01*
X194920782Y-91713149D01*
X195357409Y-91800000D01*
X195802591Y-91800000D01*
X196239218Y-91713149D01*
X196650511Y-91542786D01*
X197020666Y-91295456D01*
X197335456Y-90980666D01*
X197582786Y-90610511D01*
X197753149Y-90199218D01*
X197840000Y-89762591D01*
X197840000Y-89317409D01*
X197753149Y-88880782D01*
X197582786Y-88469489D01*
X197335456Y-88099334D01*
X197020666Y-87784544D01*
X196650511Y-87537214D01*
X196239218Y-87366851D01*
X195802591Y-87280000D01*
X195357409Y-87280000D01*
X194920782Y-87366851D01*
X194509489Y-87537214D01*
X194139334Y-87784544D01*
X193824544Y-88099334D01*
X193577214Y-88469489D01*
X193406851Y-88880782D01*
X193320000Y-89317409D01*
X152346312Y-89317409D01*
X152283475Y-89223368D01*
X152076632Y-89016525D01*
X151902240Y-88900000D01*
X152076632Y-88783475D01*
X152283475Y-88576632D01*
X152445990Y-88333411D01*
X152557932Y-88063158D01*
X152615000Y-87776260D01*
X152615000Y-87483740D01*
X152557932Y-87196842D01*
X152445990Y-86926589D01*
X152283475Y-86683368D01*
X152076632Y-86476525D01*
X151902240Y-86360000D01*
X152076632Y-86243475D01*
X152283475Y-86036632D01*
X152445990Y-85793411D01*
X152557932Y-85523158D01*
X152615000Y-85236260D01*
X152615000Y-84943740D01*
X152557932Y-84656842D01*
X152445990Y-84386589D01*
X152346312Y-84237409D01*
X193320000Y-84237409D01*
X193320000Y-84682591D01*
X193406851Y-85119218D01*
X193577214Y-85530511D01*
X193824544Y-85900666D01*
X194139334Y-86215456D01*
X194509489Y-86462786D01*
X194920782Y-86633149D01*
X195357409Y-86720000D01*
X195802591Y-86720000D01*
X196239218Y-86633149D01*
X196650511Y-86462786D01*
X197020666Y-86215456D01*
X197335456Y-85900666D01*
X197582786Y-85530511D01*
X197753149Y-85119218D01*
X197840000Y-84682591D01*
X197840000Y-84237409D01*
X197753149Y-83800782D01*
X197582786Y-83389489D01*
X197335456Y-83019334D01*
X197020666Y-82704544D01*
X196650511Y-82457214D01*
X196239218Y-82286851D01*
X195802591Y-82200000D01*
X195357409Y-82200000D01*
X194920782Y-82286851D01*
X194509489Y-82457214D01*
X194139334Y-82704544D01*
X193824544Y-83019334D01*
X193577214Y-83389489D01*
X193406851Y-83800782D01*
X193320000Y-84237409D01*
X152346312Y-84237409D01*
X152283475Y-84143368D01*
X152076632Y-83936525D01*
X151902240Y-83820000D01*
X152076632Y-83703475D01*
X152283475Y-83496632D01*
X152445990Y-83253411D01*
X152557932Y-82983158D01*
X152615000Y-82696260D01*
X152615000Y-82403740D01*
X152557932Y-82116842D01*
X152445990Y-81846589D01*
X152283475Y-81603368D01*
X152076632Y-81396525D01*
X151902240Y-81280000D01*
X152076632Y-81163475D01*
X152283475Y-80956632D01*
X152445990Y-80713411D01*
X152557932Y-80443158D01*
X152615000Y-80156260D01*
X152615000Y-79863740D01*
X152557932Y-79576842D01*
X152445990Y-79306589D01*
X152283475Y-79063368D01*
X152076632Y-78856525D01*
X151902240Y-78740000D01*
X152076632Y-78623475D01*
X152283475Y-78416632D01*
X152445990Y-78173411D01*
X152557932Y-77903158D01*
X152615000Y-77616260D01*
X152615000Y-77323740D01*
X152557932Y-77036842D01*
X152445990Y-76766589D01*
X152283475Y-76523368D01*
X152076632Y-76316525D01*
X151902240Y-76200000D01*
X152076632Y-76083475D01*
X152283475Y-75876632D01*
X152445990Y-75633411D01*
X152557932Y-75363158D01*
X152615000Y-75076260D01*
X152615000Y-74783740D01*
X152557932Y-74496842D01*
X152445990Y-74226589D01*
X152283475Y-73983368D01*
X152076632Y-73776525D01*
X151902240Y-73660000D01*
X152076632Y-73543475D01*
X152283475Y-73336632D01*
X152445990Y-73093411D01*
X152557932Y-72823158D01*
X152615000Y-72536260D01*
X152615000Y-72243740D01*
X152557932Y-71956842D01*
X152445990Y-71686589D01*
X152283475Y-71443368D01*
X152076632Y-71236525D01*
X151902240Y-71120000D01*
X152076632Y-71003475D01*
X152283475Y-70796632D01*
X152445990Y-70553411D01*
X152557932Y-70283158D01*
X152615000Y-69996260D01*
X152615000Y-69703740D01*
X152557932Y-69416842D01*
X152526103Y-69340000D01*
X155506289Y-69340000D01*
X155550226Y-69383937D01*
X155719744Y-69497205D01*
X155908102Y-69575226D01*
X156108061Y-69615000D01*
X156311939Y-69615000D01*
X156511898Y-69575226D01*
X156700256Y-69497205D01*
X156869774Y-69383937D01*
X157013937Y-69239774D01*
X157127205Y-69070256D01*
X157205226Y-68881898D01*
X157245000Y-68681939D01*
X157245000Y-68478061D01*
X157205226Y-68278102D01*
X157127205Y-68089744D01*
X157030490Y-67945000D01*
X157127205Y-67800256D01*
X157205226Y-67611898D01*
X157245000Y-67411939D01*
X157245000Y-67208061D01*
X157205226Y-67008102D01*
X157127205Y-66819744D01*
X157030490Y-66675000D01*
X157127205Y-66530256D01*
X157205226Y-66341898D01*
X157245000Y-66141939D01*
X157245000Y-65938061D01*
X157205226Y-65738102D01*
X157127205Y-65549744D01*
X157030723Y-65405349D01*
X157128609Y-65258852D01*
X157206630Y-65070494D01*
X157246404Y-64870535D01*
X157246404Y-64666657D01*
X157206630Y-64466698D01*
X157128609Y-64278340D01*
X157096404Y-64230142D01*
X157096404Y-62788630D01*
X177452822Y-83145049D01*
X177480535Y-83178817D01*
X177514303Y-83206530D01*
X177514305Y-83206532D01*
X177556720Y-83241341D01*
X177615293Y-83289411D01*
X177769039Y-83371589D01*
X177935862Y-83422195D01*
X178065875Y-83435000D01*
X178065885Y-83435000D01*
X178109351Y-83439281D01*
X178152817Y-83435000D01*
X181071546Y-83435000D01*
X181119744Y-83467205D01*
X181308102Y-83545226D01*
X181508061Y-83585000D01*
X181711939Y-83585000D01*
X181911898Y-83545226D01*
X182100256Y-83467205D01*
X182269774Y-83353937D01*
X182413937Y-83209774D01*
X182527205Y-83040256D01*
X182605226Y-82851898D01*
X182645000Y-82651939D01*
X182645000Y-82448061D01*
X182605226Y-82248102D01*
X182527205Y-82059744D01*
X182430490Y-81915000D01*
X182514012Y-81790000D01*
X185291928Y-81790000D01*
X185291928Y-83310000D01*
X185304188Y-83434482D01*
X185340498Y-83554180D01*
X185399463Y-83664494D01*
X185478815Y-83761185D01*
X185575506Y-83840537D01*
X185685820Y-83899502D01*
X185805518Y-83935812D01*
X185930000Y-83948072D01*
X187450000Y-83948072D01*
X187574482Y-83935812D01*
X187694180Y-83899502D01*
X187804494Y-83840537D01*
X187901185Y-83761185D01*
X187980537Y-83664494D01*
X188039502Y-83554180D01*
X188075812Y-83434482D01*
X188088072Y-83310000D01*
X188088072Y-82081918D01*
X188146433Y-82169261D01*
X188340739Y-82363567D01*
X188569220Y-82516233D01*
X188823093Y-82621391D01*
X189092604Y-82675000D01*
X189367396Y-82675000D01*
X189636907Y-82621391D01*
X189890780Y-82516233D01*
X190119261Y-82363567D01*
X190313567Y-82169261D01*
X190466233Y-81940780D01*
X190571391Y-81686907D01*
X190625000Y-81417396D01*
X190625000Y-81142604D01*
X190571391Y-80873093D01*
X190466233Y-80619220D01*
X190313567Y-80390739D01*
X190119261Y-80196433D01*
X189890780Y-80043767D01*
X189809260Y-80010000D01*
X189890780Y-79976233D01*
X190119261Y-79823567D01*
X190313567Y-79629261D01*
X190466233Y-79400780D01*
X190571391Y-79146907D01*
X190625000Y-78877396D01*
X190625000Y-78602604D01*
X190571391Y-78333093D01*
X190466233Y-78079220D01*
X190313567Y-77850739D01*
X190119261Y-77656433D01*
X189890780Y-77503767D01*
X189809260Y-77470000D01*
X189890780Y-77436233D01*
X190119261Y-77283567D01*
X190313567Y-77089261D01*
X190466233Y-76860780D01*
X190571391Y-76606907D01*
X190625000Y-76337396D01*
X190625000Y-76062604D01*
X190571391Y-75793093D01*
X190466233Y-75539220D01*
X190313567Y-75310739D01*
X190119261Y-75116433D01*
X189890780Y-74963767D01*
X189636907Y-74858609D01*
X189367396Y-74805000D01*
X189092604Y-74805000D01*
X188823093Y-74858609D01*
X188569220Y-74963767D01*
X188340739Y-75116433D01*
X188146433Y-75310739D01*
X187993767Y-75539220D01*
X187888609Y-75793093D01*
X187835000Y-76062604D01*
X187835000Y-76337396D01*
X187888609Y-76606907D01*
X187993767Y-76860780D01*
X188146433Y-77089261D01*
X188340739Y-77283567D01*
X188569220Y-77436233D01*
X188650740Y-77470000D01*
X188569220Y-77503767D01*
X188340739Y-77656433D01*
X188146433Y-77850739D01*
X187993767Y-78079220D01*
X187888609Y-78333093D01*
X187835000Y-78602604D01*
X187835000Y-78877396D01*
X187888609Y-79146907D01*
X187993767Y-79400780D01*
X188146433Y-79629261D01*
X188340739Y-79823567D01*
X188569220Y-79976233D01*
X188650740Y-80010000D01*
X188569220Y-80043767D01*
X188340739Y-80196433D01*
X188146433Y-80390739D01*
X187993767Y-80619220D01*
X187888609Y-80873093D01*
X187835000Y-81142604D01*
X187835000Y-81284499D01*
X187804494Y-81259463D01*
X187694180Y-81200498D01*
X187574482Y-81164188D01*
X187486533Y-81155526D01*
X187579261Y-81093567D01*
X187773567Y-80899261D01*
X187926233Y-80670780D01*
X188031391Y-80416907D01*
X188085000Y-80147396D01*
X188085000Y-79872604D01*
X188031391Y-79603093D01*
X187926233Y-79349220D01*
X187773567Y-79120739D01*
X187579261Y-78926433D01*
X187350780Y-78773767D01*
X187269260Y-78740000D01*
X187350780Y-78706233D01*
X187579261Y-78553567D01*
X187773567Y-78359261D01*
X187926233Y-78130780D01*
X188031391Y-77876907D01*
X188085000Y-77607396D01*
X188085000Y-77332604D01*
X188031391Y-77063093D01*
X187926233Y-76809220D01*
X187773567Y-76580739D01*
X187579261Y-76386433D01*
X187350780Y-76233767D01*
X187096907Y-76128609D01*
X186827396Y-76075000D01*
X186552604Y-76075000D01*
X186283093Y-76128609D01*
X186029220Y-76233767D01*
X185800739Y-76386433D01*
X185606433Y-76580739D01*
X185453767Y-76809220D01*
X185348609Y-77063093D01*
X185295000Y-77332604D01*
X185295000Y-77607396D01*
X185348609Y-77876907D01*
X185453767Y-78130780D01*
X185606433Y-78359261D01*
X185800739Y-78553567D01*
X186029220Y-78706233D01*
X186110740Y-78740000D01*
X186029220Y-78773767D01*
X185800739Y-78926433D01*
X185606433Y-79120739D01*
X185453767Y-79349220D01*
X185348609Y-79603093D01*
X185295000Y-79872604D01*
X185295000Y-80147396D01*
X185348609Y-80416907D01*
X185453767Y-80670780D01*
X185606433Y-80899261D01*
X185800739Y-81093567D01*
X185893467Y-81155526D01*
X185805518Y-81164188D01*
X185685820Y-81200498D01*
X185575506Y-81259463D01*
X185478815Y-81338815D01*
X185399463Y-81435506D01*
X185340498Y-81545820D01*
X185304188Y-81665518D01*
X185291928Y-81790000D01*
X182514012Y-81790000D01*
X182527205Y-81770256D01*
X182605226Y-81581898D01*
X182645000Y-81381939D01*
X182645000Y-81178061D01*
X182605226Y-80978102D01*
X182527205Y-80789744D01*
X182430490Y-80645000D01*
X182527205Y-80500256D01*
X182605226Y-80311898D01*
X182645000Y-80111939D01*
X182645000Y-79908061D01*
X182605226Y-79708102D01*
X182527205Y-79519744D01*
X182430490Y-79375000D01*
X182527205Y-79230256D01*
X182605226Y-79041898D01*
X182645000Y-78841939D01*
X182645000Y-78638061D01*
X182605226Y-78438102D01*
X182527205Y-78249744D01*
X182413937Y-78080226D01*
X182269774Y-77936063D01*
X182100256Y-77822795D01*
X181911898Y-77744774D01*
X181711939Y-77705000D01*
X181508061Y-77705000D01*
X181308102Y-77744774D01*
X181119744Y-77822795D01*
X181071546Y-77855000D01*
X177847956Y-77855000D01*
X174070365Y-74077409D01*
X193320000Y-74077409D01*
X193320000Y-74522591D01*
X193406851Y-74959218D01*
X193577214Y-75370511D01*
X193824544Y-75740666D01*
X194139334Y-76055456D01*
X194509489Y-76302786D01*
X194920782Y-76473149D01*
X195357409Y-76560000D01*
X195802591Y-76560000D01*
X196239218Y-76473149D01*
X196650511Y-76302786D01*
X197020666Y-76055456D01*
X197335456Y-75740666D01*
X197582786Y-75370511D01*
X197753149Y-74959218D01*
X197840000Y-74522591D01*
X197840000Y-74077409D01*
X197753149Y-73640782D01*
X197582786Y-73229489D01*
X197335456Y-72859334D01*
X197020666Y-72544544D01*
X196650511Y-72297214D01*
X196239218Y-72126851D01*
X195802591Y-72040000D01*
X195357409Y-72040000D01*
X194920782Y-72126851D01*
X194509489Y-72297214D01*
X194139334Y-72544544D01*
X193824544Y-72859334D01*
X193577214Y-73229489D01*
X193406851Y-73640782D01*
X193320000Y-74077409D01*
X174070365Y-74077409D01*
X168990365Y-68997409D01*
X193320000Y-68997409D01*
X193320000Y-69442591D01*
X193406851Y-69879218D01*
X193577214Y-70290511D01*
X193824544Y-70660666D01*
X194139334Y-70975456D01*
X194509489Y-71222786D01*
X194920782Y-71393149D01*
X195357409Y-71480000D01*
X195802591Y-71480000D01*
X196239218Y-71393149D01*
X196650511Y-71222786D01*
X197020666Y-70975456D01*
X197335456Y-70660666D01*
X197582786Y-70290511D01*
X197753149Y-69879218D01*
X197840000Y-69442591D01*
X197840000Y-68997409D01*
X197753149Y-68560782D01*
X197582786Y-68149489D01*
X197335456Y-67779334D01*
X197020666Y-67464544D01*
X196650511Y-67217214D01*
X196239218Y-67046851D01*
X195802591Y-66960000D01*
X195357409Y-66960000D01*
X194920782Y-67046851D01*
X194509489Y-67217214D01*
X194139334Y-67464544D01*
X193824544Y-67779334D01*
X193577214Y-68149489D01*
X193406851Y-68560782D01*
X193320000Y-68997409D01*
X168990365Y-68997409D01*
X168187956Y-68195000D01*
X181071546Y-68195000D01*
X181119744Y-68227205D01*
X181308102Y-68305226D01*
X181508061Y-68345000D01*
X181711939Y-68345000D01*
X181911898Y-68305226D01*
X182100256Y-68227205D01*
X182269774Y-68113937D01*
X182413937Y-67969774D01*
X182527205Y-67800256D01*
X182605226Y-67611898D01*
X182645000Y-67411939D01*
X182645000Y-67208061D01*
X182605226Y-67008102D01*
X182527205Y-66819744D01*
X182430490Y-66675000D01*
X182514012Y-66550000D01*
X185291928Y-66550000D01*
X185291928Y-68070000D01*
X185304188Y-68194482D01*
X185340498Y-68314180D01*
X185399463Y-68424494D01*
X185478815Y-68521185D01*
X185575506Y-68600537D01*
X185685820Y-68659502D01*
X185805518Y-68695812D01*
X185930000Y-68708072D01*
X187450000Y-68708072D01*
X187574482Y-68695812D01*
X187694180Y-68659502D01*
X187804494Y-68600537D01*
X187901185Y-68521185D01*
X187980537Y-68424494D01*
X188039502Y-68314180D01*
X188075812Y-68194482D01*
X188088072Y-68070000D01*
X188088072Y-66841918D01*
X188146433Y-66929261D01*
X188340739Y-67123567D01*
X188569220Y-67276233D01*
X188823093Y-67381391D01*
X189092604Y-67435000D01*
X189367396Y-67435000D01*
X189636907Y-67381391D01*
X189890780Y-67276233D01*
X190119261Y-67123567D01*
X190313567Y-66929261D01*
X190466233Y-66700780D01*
X190571391Y-66446907D01*
X190625000Y-66177396D01*
X190625000Y-65902604D01*
X190571391Y-65633093D01*
X190466233Y-65379220D01*
X190313567Y-65150739D01*
X190119261Y-64956433D01*
X189890780Y-64803767D01*
X189809260Y-64770000D01*
X189890780Y-64736233D01*
X190119261Y-64583567D01*
X190313567Y-64389261D01*
X190466233Y-64160780D01*
X190571391Y-63906907D01*
X190625000Y-63637396D01*
X190625000Y-63362604D01*
X190571391Y-63093093D01*
X190466233Y-62839220D01*
X190313567Y-62610739D01*
X190119261Y-62416433D01*
X189890780Y-62263767D01*
X189809260Y-62230000D01*
X189890780Y-62196233D01*
X190119261Y-62043567D01*
X190313567Y-61849261D01*
X190466233Y-61620780D01*
X190571391Y-61366907D01*
X190625000Y-61097396D01*
X190625000Y-60822604D01*
X190571391Y-60553093D01*
X190466233Y-60299220D01*
X190313567Y-60070739D01*
X190119261Y-59876433D01*
X189890780Y-59723767D01*
X189636907Y-59618609D01*
X189367396Y-59565000D01*
X189092604Y-59565000D01*
X188823093Y-59618609D01*
X188569220Y-59723767D01*
X188340739Y-59876433D01*
X188146433Y-60070739D01*
X187993767Y-60299220D01*
X187888609Y-60553093D01*
X187835000Y-60822604D01*
X187835000Y-61097396D01*
X187888609Y-61366907D01*
X187993767Y-61620780D01*
X188146433Y-61849261D01*
X188340739Y-62043567D01*
X188569220Y-62196233D01*
X188650740Y-62230000D01*
X188569220Y-62263767D01*
X188340739Y-62416433D01*
X188146433Y-62610739D01*
X187993767Y-62839220D01*
X187888609Y-63093093D01*
X187835000Y-63362604D01*
X187835000Y-63637396D01*
X187888609Y-63906907D01*
X187993767Y-64160780D01*
X188146433Y-64389261D01*
X188340739Y-64583567D01*
X188569220Y-64736233D01*
X188650740Y-64770000D01*
X188569220Y-64803767D01*
X188340739Y-64956433D01*
X188146433Y-65150739D01*
X187993767Y-65379220D01*
X187888609Y-65633093D01*
X187835000Y-65902604D01*
X187835000Y-66044499D01*
X187804494Y-66019463D01*
X187694180Y-65960498D01*
X187574482Y-65924188D01*
X187486533Y-65915526D01*
X187579261Y-65853567D01*
X187773567Y-65659261D01*
X187926233Y-65430780D01*
X188031391Y-65176907D01*
X188085000Y-64907396D01*
X188085000Y-64632604D01*
X188031391Y-64363093D01*
X187926233Y-64109220D01*
X187773567Y-63880739D01*
X187579261Y-63686433D01*
X187350780Y-63533767D01*
X187269260Y-63500000D01*
X187350780Y-63466233D01*
X187579261Y-63313567D01*
X187773567Y-63119261D01*
X187926233Y-62890780D01*
X188031391Y-62636907D01*
X188085000Y-62367396D01*
X188085000Y-62092604D01*
X188031391Y-61823093D01*
X187926233Y-61569220D01*
X187773567Y-61340739D01*
X187579261Y-61146433D01*
X187350780Y-60993767D01*
X187096907Y-60888609D01*
X186827396Y-60835000D01*
X186552604Y-60835000D01*
X186283093Y-60888609D01*
X186029220Y-60993767D01*
X185800739Y-61146433D01*
X185606433Y-61340739D01*
X185453767Y-61569220D01*
X185348609Y-61823093D01*
X185295000Y-62092604D01*
X185295000Y-62367396D01*
X185348609Y-62636907D01*
X185453767Y-62890780D01*
X185606433Y-63119261D01*
X185800739Y-63313567D01*
X186029220Y-63466233D01*
X186110740Y-63500000D01*
X186029220Y-63533767D01*
X185800739Y-63686433D01*
X185606433Y-63880739D01*
X185453767Y-64109220D01*
X185348609Y-64363093D01*
X185295000Y-64632604D01*
X185295000Y-64907396D01*
X185348609Y-65176907D01*
X185453767Y-65430780D01*
X185606433Y-65659261D01*
X185800739Y-65853567D01*
X185893467Y-65915526D01*
X185805518Y-65924188D01*
X185685820Y-65960498D01*
X185575506Y-66019463D01*
X185478815Y-66098815D01*
X185399463Y-66195506D01*
X185340498Y-66305820D01*
X185304188Y-66425518D01*
X185291928Y-66550000D01*
X182514012Y-66550000D01*
X182527205Y-66530256D01*
X182605226Y-66341898D01*
X182645000Y-66141939D01*
X182645000Y-65938061D01*
X182605226Y-65738102D01*
X182527205Y-65549744D01*
X182430490Y-65405000D01*
X182527205Y-65260256D01*
X182605226Y-65071898D01*
X182645000Y-64871939D01*
X182645000Y-64668061D01*
X182605226Y-64468102D01*
X182527205Y-64279744D01*
X182430490Y-64135000D01*
X182527205Y-63990256D01*
X182605226Y-63801898D01*
X182645000Y-63601939D01*
X182645000Y-63398061D01*
X182605226Y-63198102D01*
X182527205Y-63009744D01*
X182413937Y-62840226D01*
X182269774Y-62696063D01*
X182100256Y-62582795D01*
X181911898Y-62504774D01*
X181711939Y-62465000D01*
X181508061Y-62465000D01*
X181308102Y-62504774D01*
X181119744Y-62582795D01*
X181071546Y-62615000D01*
X176220804Y-62615000D01*
X176255226Y-62531898D01*
X176295000Y-62331939D01*
X176295000Y-62128061D01*
X176255226Y-61928102D01*
X176177205Y-61739744D01*
X176063937Y-61570226D01*
X175919774Y-61426063D01*
X175750256Y-61312795D01*
X175561898Y-61234774D01*
X175505044Y-61223465D01*
X173760843Y-59479264D01*
X173873475Y-59366632D01*
X174035990Y-59123411D01*
X174147932Y-58853158D01*
X174151064Y-58837409D01*
X193320000Y-58837409D01*
X193320000Y-59282591D01*
X193406851Y-59719218D01*
X193577214Y-60130511D01*
X193824544Y-60500666D01*
X194139334Y-60815456D01*
X194509489Y-61062786D01*
X194920782Y-61233149D01*
X195357409Y-61320000D01*
X195802591Y-61320000D01*
X196239218Y-61233149D01*
X196650511Y-61062786D01*
X197020666Y-60815456D01*
X197335456Y-60500666D01*
X197582786Y-60130511D01*
X197753149Y-59719218D01*
X197840000Y-59282591D01*
X197840000Y-58837409D01*
X197753149Y-58400782D01*
X197582786Y-57989489D01*
X197335456Y-57619334D01*
X197020666Y-57304544D01*
X196650511Y-57057214D01*
X196239218Y-56886851D01*
X195802591Y-56800000D01*
X195357409Y-56800000D01*
X194920782Y-56886851D01*
X194509489Y-57057214D01*
X194139334Y-57304544D01*
X193824544Y-57619334D01*
X193577214Y-57989489D01*
X193406851Y-58400782D01*
X193320000Y-58837409D01*
X174151064Y-58837409D01*
X174205000Y-58566260D01*
X174205000Y-58273740D01*
X174147932Y-57986842D01*
X174035990Y-57716589D01*
X173873475Y-57473368D01*
X173666632Y-57266525D01*
X173423411Y-57104010D01*
X173153158Y-56992068D01*
X172866260Y-56935000D01*
X172573740Y-56935000D01*
X172286842Y-56992068D01*
X172016589Y-57104010D01*
X171773368Y-57266525D01*
X171566525Y-57473368D01*
X171450000Y-57647760D01*
X171333475Y-57473368D01*
X171126632Y-57266525D01*
X170883411Y-57104010D01*
X170613158Y-56992068D01*
X170326260Y-56935000D01*
X170033740Y-56935000D01*
X169746842Y-56992068D01*
X169476589Y-57104010D01*
X169233368Y-57266525D01*
X169026525Y-57473368D01*
X168910000Y-57647760D01*
X168793475Y-57473368D01*
X168586632Y-57266525D01*
X168343411Y-57104010D01*
X168073158Y-56992068D01*
X167786260Y-56935000D01*
X167493740Y-56935000D01*
X167206842Y-56992068D01*
X166936589Y-57104010D01*
X166693368Y-57266525D01*
X166561513Y-57398380D01*
X166539502Y-57325820D01*
X166480537Y-57215506D01*
X166401185Y-57118815D01*
X166304494Y-57039463D01*
X166194180Y-56980498D01*
X166074482Y-56944188D01*
X165950000Y-56931928D01*
X164250000Y-56931928D01*
X164125518Y-56944188D01*
X164005820Y-56980498D01*
X163895506Y-57039463D01*
X163798815Y-57118815D01*
X163719463Y-57215506D01*
X163660498Y-57325820D01*
X163624188Y-57445518D01*
X163611928Y-57570000D01*
X163611928Y-59270000D01*
X163623538Y-59387882D01*
X157995656Y-53760000D01*
X163611928Y-53760000D01*
X163611928Y-55460000D01*
X163624188Y-55584482D01*
X163660498Y-55704180D01*
X163719463Y-55814494D01*
X163798815Y-55911185D01*
X163895506Y-55990537D01*
X164005820Y-56049502D01*
X164125518Y-56085812D01*
X164250000Y-56098072D01*
X165950000Y-56098072D01*
X166074482Y-56085812D01*
X166194180Y-56049502D01*
X166304494Y-55990537D01*
X166401185Y-55911185D01*
X166480537Y-55814494D01*
X166539502Y-55704180D01*
X166561513Y-55631620D01*
X166693368Y-55763475D01*
X166936589Y-55925990D01*
X167206842Y-56037932D01*
X167493740Y-56095000D01*
X167786260Y-56095000D01*
X168073158Y-56037932D01*
X168343411Y-55925990D01*
X168586632Y-55763475D01*
X168793475Y-55556632D01*
X168910000Y-55382240D01*
X169026525Y-55556632D01*
X169233368Y-55763475D01*
X169476589Y-55925990D01*
X169746842Y-56037932D01*
X170033740Y-56095000D01*
X170326260Y-56095000D01*
X170613158Y-56037932D01*
X170883411Y-55925990D01*
X171126632Y-55763475D01*
X171333475Y-55556632D01*
X171450000Y-55382240D01*
X171566525Y-55556632D01*
X171773368Y-55763475D01*
X172016589Y-55925990D01*
X172286842Y-56037932D01*
X172573740Y-56095000D01*
X172866260Y-56095000D01*
X173153158Y-56037932D01*
X173423411Y-55925990D01*
X173666632Y-55763475D01*
X173873475Y-55556632D01*
X174035990Y-55313411D01*
X174147932Y-55043158D01*
X174205000Y-54756260D01*
X174205000Y-54463740D01*
X174147932Y-54176842D01*
X174035990Y-53906589D01*
X173873475Y-53663368D01*
X173666632Y-53456525D01*
X173423411Y-53294010D01*
X173153158Y-53182068D01*
X172866260Y-53125000D01*
X172573740Y-53125000D01*
X172286842Y-53182068D01*
X172016589Y-53294010D01*
X171773368Y-53456525D01*
X171566525Y-53663368D01*
X171450000Y-53837760D01*
X171333475Y-53663368D01*
X171126632Y-53456525D01*
X170883411Y-53294010D01*
X170613158Y-53182068D01*
X170326260Y-53125000D01*
X170033740Y-53125000D01*
X169746842Y-53182068D01*
X169476589Y-53294010D01*
X169233368Y-53456525D01*
X169026525Y-53663368D01*
X168910000Y-53837760D01*
X168793475Y-53663368D01*
X168586632Y-53456525D01*
X168343411Y-53294010D01*
X168073158Y-53182068D01*
X167786260Y-53125000D01*
X167493740Y-53125000D01*
X167206842Y-53182068D01*
X166936589Y-53294010D01*
X166693368Y-53456525D01*
X166561513Y-53588380D01*
X166539502Y-53515820D01*
X166480537Y-53405506D01*
X166401185Y-53308815D01*
X166304494Y-53229463D01*
X166194180Y-53170498D01*
X166074482Y-53134188D01*
X165950000Y-53121928D01*
X164250000Y-53121928D01*
X164125518Y-53134188D01*
X164005820Y-53170498D01*
X163895506Y-53229463D01*
X163798815Y-53308815D01*
X163719463Y-53405506D01*
X163660498Y-53515820D01*
X163624188Y-53635518D01*
X163611928Y-53760000D01*
X157995656Y-53760000D01*
X156432655Y-52197000D01*
X200607394Y-52197000D01*
X201803000Y-53392606D01*
G37*
X201803000Y-53392606D02*
X201803000Y-94993114D01*
X201750661Y-94929339D01*
X201516926Y-94737519D01*
X201250260Y-94594983D01*
X200960912Y-94507210D01*
X200660000Y-94477573D01*
X200359087Y-94507210D01*
X200069739Y-94594983D01*
X199803073Y-94737519D01*
X199795000Y-94744144D01*
X199795000Y-93944592D01*
X199772790Y-93719087D01*
X199685017Y-93429739D01*
X199542481Y-93163073D01*
X199350661Y-92929339D01*
X199116926Y-92737519D01*
X198850260Y-92594983D01*
X198560912Y-92507210D01*
X198260000Y-92477573D01*
X197959087Y-92507210D01*
X197669739Y-92594983D01*
X197403073Y-92737519D01*
X197169339Y-92929339D01*
X196977519Y-93163074D01*
X196834983Y-93429740D01*
X196747210Y-93719088D01*
X196725000Y-93944593D01*
X196725000Y-95095408D01*
X196747210Y-95320913D01*
X196834983Y-95610261D01*
X196977519Y-95876927D01*
X197169340Y-96110661D01*
X197403074Y-96302481D01*
X197669740Y-96445017D01*
X197959088Y-96532790D01*
X198260000Y-96562427D01*
X198560913Y-96532790D01*
X198850261Y-96445017D01*
X199116927Y-96302481D01*
X199125000Y-96295856D01*
X199125000Y-97095408D01*
X199147210Y-97320913D01*
X199234983Y-97610261D01*
X199377519Y-97876927D01*
X199569340Y-98110661D01*
X199803074Y-98302481D01*
X200069740Y-98445017D01*
X200359088Y-98532790D01*
X200660000Y-98562427D01*
X200960913Y-98532790D01*
X201250261Y-98445017D01*
X201516927Y-98302481D01*
X201750661Y-98110661D01*
X201803000Y-98046886D01*
X201803000Y-110233114D01*
X201750661Y-110169339D01*
X201516926Y-109977519D01*
X201250260Y-109834983D01*
X200960912Y-109747210D01*
X200660000Y-109717573D01*
X200359087Y-109747210D01*
X200069739Y-109834983D01*
X199803073Y-109977519D01*
X199795000Y-109984144D01*
X199795000Y-109184592D01*
X199772790Y-108959087D01*
X199685017Y-108669739D01*
X199542481Y-108403073D01*
X199350661Y-108169339D01*
X199116926Y-107977519D01*
X198850260Y-107834983D01*
X198560912Y-107747210D01*
X198260000Y-107717573D01*
X197959087Y-107747210D01*
X197669739Y-107834983D01*
X197403073Y-107977519D01*
X197169339Y-108169339D01*
X196977519Y-108403074D01*
X196834983Y-108669740D01*
X196747210Y-108959088D01*
X196725000Y-109184593D01*
X196725000Y-110335408D01*
X196747210Y-110560913D01*
X196834983Y-110850261D01*
X196848206Y-110875000D01*
X195658463Y-110875000D01*
X195614997Y-110870719D01*
X195571531Y-110875000D01*
X195571521Y-110875000D01*
X195441508Y-110887805D01*
X195274685Y-110938411D01*
X195120939Y-111020589D01*
X195109471Y-111030001D01*
X195019951Y-111103468D01*
X195019949Y-111103470D01*
X194986181Y-111131183D01*
X194958468Y-111164951D01*
X192708420Y-113415000D01*
X188088072Y-113415000D01*
X188088072Y-112561918D01*
X188146433Y-112649261D01*
X188340739Y-112843567D01*
X188569220Y-112996233D01*
X188823093Y-113101391D01*
X189092604Y-113155000D01*
X189367396Y-113155000D01*
X189636907Y-113101391D01*
X189890780Y-112996233D01*
X190119261Y-112843567D01*
X190313567Y-112649261D01*
X190466233Y-112420780D01*
X190571391Y-112166907D01*
X190625000Y-111897396D01*
X190625000Y-111622604D01*
X190571391Y-111353093D01*
X190466233Y-111099220D01*
X190313567Y-110870739D01*
X190119261Y-110676433D01*
X189890780Y-110523767D01*
X189809260Y-110490000D01*
X189890780Y-110456233D01*
X190119261Y-110303567D01*
X190313567Y-110109261D01*
X190466233Y-109880780D01*
X190571391Y-109626907D01*
X190625000Y-109357396D01*
X190625000Y-109184593D01*
X191225000Y-109184593D01*
X191225000Y-110335408D01*
X191247210Y-110560913D01*
X191334983Y-110850261D01*
X191477519Y-111116927D01*
X191669340Y-111350661D01*
X191903074Y-111542481D01*
X192169740Y-111685017D01*
X192459088Y-111772790D01*
X192760000Y-111802427D01*
X193060913Y-111772790D01*
X193350261Y-111685017D01*
X193616927Y-111542481D01*
X193850661Y-111350661D01*
X194042481Y-111116927D01*
X194185017Y-110850261D01*
X194272790Y-110560913D01*
X194295000Y-110335408D01*
X194295000Y-109184592D01*
X194272790Y-108959087D01*
X194185017Y-108669739D01*
X194042481Y-108403073D01*
X193850661Y-108169339D01*
X193616926Y-107977519D01*
X193350260Y-107834983D01*
X193060912Y-107747210D01*
X192760000Y-107717573D01*
X192459087Y-107747210D01*
X192169739Y-107834983D01*
X191903073Y-107977519D01*
X191669339Y-108169339D01*
X191477519Y-108403074D01*
X191334983Y-108669740D01*
X191247210Y-108959088D01*
X191225000Y-109184593D01*
X190625000Y-109184593D01*
X190625000Y-109082604D01*
X190571391Y-108813093D01*
X190466233Y-108559220D01*
X190313567Y-108330739D01*
X190119261Y-108136433D01*
X189890780Y-107983767D01*
X189809260Y-107950000D01*
X189890780Y-107916233D01*
X190119261Y-107763567D01*
X190313567Y-107569261D01*
X190466233Y-107340780D01*
X190571391Y-107086907D01*
X190625000Y-106817396D01*
X190625000Y-106542604D01*
X190571391Y-106273093D01*
X190466233Y-106019220D01*
X190313567Y-105790739D01*
X190119261Y-105596433D01*
X189890780Y-105443767D01*
X189636907Y-105338609D01*
X189367396Y-105285000D01*
X189092604Y-105285000D01*
X188823093Y-105338609D01*
X188569220Y-105443767D01*
X188340739Y-105596433D01*
X188146433Y-105790739D01*
X187993767Y-106019220D01*
X187888609Y-106273093D01*
X187835000Y-106542604D01*
X187835000Y-106817396D01*
X187888609Y-107086907D01*
X187993767Y-107340780D01*
X188146433Y-107569261D01*
X188340739Y-107763567D01*
X188569220Y-107916233D01*
X188650740Y-107950000D01*
X188569220Y-107983767D01*
X188340739Y-108136433D01*
X188146433Y-108330739D01*
X187993767Y-108559220D01*
X187888609Y-108813093D01*
X187835000Y-109082604D01*
X187835000Y-109357396D01*
X187888609Y-109626907D01*
X187993767Y-109880780D01*
X188146433Y-110109261D01*
X188340739Y-110303567D01*
X188569220Y-110456233D01*
X188650740Y-110490000D01*
X188569220Y-110523767D01*
X188340739Y-110676433D01*
X188146433Y-110870739D01*
X187993767Y-111099220D01*
X187888609Y-111353093D01*
X187835000Y-111622604D01*
X187835000Y-111764499D01*
X187804494Y-111739463D01*
X187694180Y-111680498D01*
X187574482Y-111644188D01*
X187486533Y-111635526D01*
X187579261Y-111573567D01*
X187773567Y-111379261D01*
X187926233Y-111150780D01*
X188031391Y-110896907D01*
X188085000Y-110627396D01*
X188085000Y-110352604D01*
X188031391Y-110083093D01*
X187926233Y-109829220D01*
X187773567Y-109600739D01*
X187579261Y-109406433D01*
X187350780Y-109253767D01*
X187269260Y-109220000D01*
X187350780Y-109186233D01*
X187579261Y-109033567D01*
X187773567Y-108839261D01*
X187926233Y-108610780D01*
X188031391Y-108356907D01*
X188085000Y-108087396D01*
X188085000Y-107812604D01*
X188031391Y-107543093D01*
X187926233Y-107289220D01*
X187773567Y-107060739D01*
X187579261Y-106866433D01*
X187350780Y-106713767D01*
X187096907Y-106608609D01*
X186827396Y-106555000D01*
X186552604Y-106555000D01*
X186283093Y-106608609D01*
X186029220Y-106713767D01*
X185800739Y-106866433D01*
X185606433Y-107060739D01*
X185453767Y-107289220D01*
X185348609Y-107543093D01*
X185295000Y-107812604D01*
X185295000Y-108087396D01*
X185348609Y-108356907D01*
X185453767Y-108610780D01*
X185606433Y-108839261D01*
X185800739Y-109033567D01*
X186029220Y-109186233D01*
X186110740Y-109220000D01*
X186029220Y-109253767D01*
X185800739Y-109406433D01*
X185606433Y-109600739D01*
X185453767Y-109829220D01*
X185348609Y-110083093D01*
X185295000Y-110352604D01*
X185295000Y-110627396D01*
X185348609Y-110896907D01*
X185453767Y-111150780D01*
X185606433Y-111379261D01*
X185800739Y-111573567D01*
X185893467Y-111635526D01*
X185805518Y-111644188D01*
X185685820Y-111680498D01*
X185575506Y-111739463D01*
X185478815Y-111818815D01*
X185399463Y-111915506D01*
X185340498Y-112025820D01*
X185304188Y-112145518D01*
X185291928Y-112270000D01*
X185291928Y-113415000D01*
X182571626Y-113415000D01*
X182606630Y-113330494D01*
X182646404Y-113130535D01*
X182646404Y-112926657D01*
X182606630Y-112726698D01*
X182528609Y-112538340D01*
X182431894Y-112393596D01*
X182528609Y-112248852D01*
X182606630Y-112060494D01*
X182646404Y-111860535D01*
X182646404Y-111656657D01*
X182606630Y-111456698D01*
X182528609Y-111268340D01*
X182431661Y-111123247D01*
X182527205Y-110980256D01*
X182605226Y-110791898D01*
X182645000Y-110591939D01*
X182645000Y-110388061D01*
X182605226Y-110188102D01*
X182527205Y-109999744D01*
X182430490Y-109855000D01*
X182527205Y-109710256D01*
X182605226Y-109521898D01*
X182645000Y-109321939D01*
X182645000Y-109118061D01*
X182605226Y-108918102D01*
X182527205Y-108729744D01*
X182430490Y-108585000D01*
X182527205Y-108440256D01*
X182605226Y-108251898D01*
X182616535Y-108195043D01*
X186254169Y-104557409D01*
X193320000Y-104557409D01*
X193320000Y-105002591D01*
X193406851Y-105439218D01*
X193577214Y-105850511D01*
X193824544Y-106220666D01*
X194139334Y-106535456D01*
X194509489Y-106782786D01*
X194920782Y-106953149D01*
X195357409Y-107040000D01*
X195802591Y-107040000D01*
X196239218Y-106953149D01*
X196650511Y-106782786D01*
X197020666Y-106535456D01*
X197335456Y-106220666D01*
X197582786Y-105850511D01*
X197753149Y-105439218D01*
X197840000Y-105002591D01*
X197840000Y-104557409D01*
X197753149Y-104120782D01*
X197582786Y-103709489D01*
X197335456Y-103339334D01*
X197020666Y-103024544D01*
X196650511Y-102777214D01*
X196239218Y-102606851D01*
X195802591Y-102520000D01*
X195357409Y-102520000D01*
X194920782Y-102606851D01*
X194509489Y-102777214D01*
X194139334Y-103024544D01*
X193824544Y-103339334D01*
X193577214Y-103709489D01*
X193406851Y-104120782D01*
X193320000Y-104557409D01*
X186254169Y-104557409D01*
X191334169Y-99477409D01*
X193320000Y-99477409D01*
X193320000Y-99922591D01*
X193406851Y-100359218D01*
X193577214Y-100770511D01*
X193824544Y-101140666D01*
X194139334Y-101455456D01*
X194509489Y-101702786D01*
X194920782Y-101873149D01*
X195357409Y-101960000D01*
X195802591Y-101960000D01*
X196239218Y-101873149D01*
X196650511Y-101702786D01*
X197020666Y-101455456D01*
X197335456Y-101140666D01*
X197582786Y-100770511D01*
X197753149Y-100359218D01*
X197840000Y-99922591D01*
X197840000Y-99477409D01*
X197753149Y-99040782D01*
X197582786Y-98629489D01*
X197335456Y-98259334D01*
X197020666Y-97944544D01*
X196650511Y-97697214D01*
X196239218Y-97526851D01*
X195802591Y-97440000D01*
X195357409Y-97440000D01*
X194920782Y-97526851D01*
X194509489Y-97697214D01*
X194139334Y-97944544D01*
X193824544Y-98259334D01*
X193577214Y-98629489D01*
X193406851Y-99040782D01*
X193320000Y-99477409D01*
X191334169Y-99477409D01*
X193355049Y-97456530D01*
X193388817Y-97428817D01*
X193418873Y-97392195D01*
X193499410Y-97294060D01*
X193499411Y-97294059D01*
X193581589Y-97140313D01*
X193632195Y-96973490D01*
X193645000Y-96843477D01*
X193645000Y-96843467D01*
X193649281Y-96800001D01*
X193645000Y-96756535D01*
X193645000Y-96279442D01*
X193850661Y-96110661D01*
X194042481Y-95876927D01*
X194185017Y-95610261D01*
X194272790Y-95320913D01*
X194295000Y-95095408D01*
X194295000Y-93944592D01*
X194272790Y-93719087D01*
X194185017Y-93429739D01*
X194042481Y-93163073D01*
X193850661Y-92929339D01*
X193616926Y-92737519D01*
X193350260Y-92594983D01*
X193060912Y-92507210D01*
X192760000Y-92477573D01*
X192459087Y-92507210D01*
X192169739Y-92594983D01*
X191903073Y-92737519D01*
X191669339Y-92929339D01*
X191477519Y-93163074D01*
X191334983Y-93429740D01*
X191247210Y-93719088D01*
X191225000Y-93944593D01*
X191225000Y-95095408D01*
X191247210Y-95320913D01*
X191334983Y-95610261D01*
X191477519Y-95876927D01*
X191669340Y-96110661D01*
X191875001Y-96279442D01*
X191875001Y-96433420D01*
X181364957Y-106943465D01*
X181308102Y-106954774D01*
X181119744Y-107032795D01*
X180950226Y-107146063D01*
X180806063Y-107290226D01*
X180692795Y-107459744D01*
X180614774Y-107648102D01*
X180585563Y-107794955D01*
X172859431Y-107794955D01*
X181856448Y-98797939D01*
X181913302Y-98786630D01*
X182101660Y-98708609D01*
X182271178Y-98595341D01*
X182415341Y-98451178D01*
X182528609Y-98281660D01*
X182606630Y-98093302D01*
X182646404Y-97893343D01*
X182646404Y-97689465D01*
X182606630Y-97489506D01*
X182528609Y-97301148D01*
X182431894Y-97156404D01*
X182516354Y-97030000D01*
X185291928Y-97030000D01*
X185291928Y-98550000D01*
X185304188Y-98674482D01*
X185340498Y-98794180D01*
X185399463Y-98904494D01*
X185478815Y-99001185D01*
X185575506Y-99080537D01*
X185685820Y-99139502D01*
X185805518Y-99175812D01*
X185930000Y-99188072D01*
X187450000Y-99188072D01*
X187574482Y-99175812D01*
X187694180Y-99139502D01*
X187804494Y-99080537D01*
X187901185Y-99001185D01*
X187980537Y-98904494D01*
X188039502Y-98794180D01*
X188075812Y-98674482D01*
X188088072Y-98550000D01*
X188088072Y-97321918D01*
X188146433Y-97409261D01*
X188340739Y-97603567D01*
X188569220Y-97756233D01*
X188823093Y-97861391D01*
X189092604Y-97915000D01*
X189367396Y-97915000D01*
X189636907Y-97861391D01*
X189890780Y-97756233D01*
X190119261Y-97603567D01*
X190313567Y-97409261D01*
X190466233Y-97180780D01*
X190571391Y-96926907D01*
X190625000Y-96657396D01*
X190625000Y-96382604D01*
X190571391Y-96113093D01*
X190466233Y-95859220D01*
X190313567Y-95630739D01*
X190119261Y-95436433D01*
X189890780Y-95283767D01*
X189809260Y-95250000D01*
X189890780Y-95216233D01*
X190119261Y-95063567D01*
X190313567Y-94869261D01*
X190466233Y-94640780D01*
X190571391Y-94386907D01*
X190625000Y-94117396D01*
X190625000Y-93842604D01*
X190571391Y-93573093D01*
X190466233Y-93319220D01*
X190313567Y-93090739D01*
X190119261Y-92896433D01*
X189890780Y-92743767D01*
X189809260Y-92710000D01*
X189890780Y-92676233D01*
X190119261Y-92523567D01*
X190313567Y-92329261D01*
X190466233Y-92100780D01*
X190571391Y-91846907D01*
X190625000Y-91577396D01*
X190625000Y-91302604D01*
X190571391Y-91033093D01*
X190466233Y-90779220D01*
X190313567Y-90550739D01*
X190119261Y-90356433D01*
X189890780Y-90203767D01*
X189636907Y-90098609D01*
X189367396Y-90045000D01*
X189092604Y-90045000D01*
X188823093Y-90098609D01*
X188569220Y-90203767D01*
X188340739Y-90356433D01*
X188146433Y-90550739D01*
X187993767Y-90779220D01*
X187888609Y-91033093D01*
X187835000Y-91302604D01*
X187835000Y-91577396D01*
X187888609Y-91846907D01*
X187993767Y-92100780D01*
X188146433Y-92329261D01*
X188340739Y-92523567D01*
X188569220Y-92676233D01*
X188650740Y-92710000D01*
X188569220Y-92743767D01*
X188340739Y-92896433D01*
X188146433Y-93090739D01*
X187993767Y-93319220D01*
X187888609Y-93573093D01*
X187835000Y-93842604D01*
X187835000Y-94117396D01*
X187888609Y-94386907D01*
X187993767Y-94640780D01*
X188146433Y-94869261D01*
X188340739Y-95063567D01*
X188569220Y-95216233D01*
X188650740Y-95250000D01*
X188569220Y-95283767D01*
X188340739Y-95436433D01*
X188146433Y-95630739D01*
X187993767Y-95859220D01*
X187888609Y-96113093D01*
X187835000Y-96382604D01*
X187835000Y-96524499D01*
X187804494Y-96499463D01*
X187694180Y-96440498D01*
X187574482Y-96404188D01*
X187486533Y-96395526D01*
X187579261Y-96333567D01*
X187773567Y-96139261D01*
X187926233Y-95910780D01*
X188031391Y-95656907D01*
X188085000Y-95387396D01*
X188085000Y-95112604D01*
X188031391Y-94843093D01*
X187926233Y-94589220D01*
X187773567Y-94360739D01*
X187579261Y-94166433D01*
X187350780Y-94013767D01*
X187269260Y-93980000D01*
X187350780Y-93946233D01*
X187579261Y-93793567D01*
X187773567Y-93599261D01*
X187926233Y-93370780D01*
X188031391Y-93116907D01*
X188085000Y-92847396D01*
X188085000Y-92572604D01*
X188031391Y-92303093D01*
X187926233Y-92049220D01*
X187773567Y-91820739D01*
X187579261Y-91626433D01*
X187350780Y-91473767D01*
X187096907Y-91368609D01*
X186827396Y-91315000D01*
X186552604Y-91315000D01*
X186283093Y-91368609D01*
X186029220Y-91473767D01*
X185800739Y-91626433D01*
X185606433Y-91820739D01*
X185453767Y-92049220D01*
X185348609Y-92303093D01*
X185295000Y-92572604D01*
X185295000Y-92847396D01*
X185348609Y-93116907D01*
X185453767Y-93370780D01*
X185606433Y-93599261D01*
X185800739Y-93793567D01*
X186029220Y-93946233D01*
X186110740Y-93980000D01*
X186029220Y-94013767D01*
X185800739Y-94166433D01*
X185606433Y-94360739D01*
X185453767Y-94589220D01*
X185348609Y-94843093D01*
X185295000Y-95112604D01*
X185295000Y-95387396D01*
X185348609Y-95656907D01*
X185453767Y-95910780D01*
X185606433Y-96139261D01*
X185800739Y-96333567D01*
X185893467Y-96395526D01*
X185805518Y-96404188D01*
X185685820Y-96440498D01*
X185575506Y-96499463D01*
X185478815Y-96578815D01*
X185399463Y-96675506D01*
X185340498Y-96785820D01*
X185304188Y-96905518D01*
X185291928Y-97030000D01*
X182516354Y-97030000D01*
X182528609Y-97011660D01*
X182606630Y-96823302D01*
X182646404Y-96623343D01*
X182646404Y-96419465D01*
X182606630Y-96219506D01*
X182528609Y-96031148D01*
X182431894Y-95886404D01*
X182528609Y-95741660D01*
X182606630Y-95553302D01*
X182646404Y-95353343D01*
X182646404Y-95149465D01*
X182606630Y-94949506D01*
X182528609Y-94761148D01*
X182448363Y-94641050D01*
X182475749Y-94550771D01*
X182528609Y-94471660D01*
X182606630Y-94283302D01*
X182646404Y-94083343D01*
X182646404Y-93879465D01*
X182606630Y-93679506D01*
X182528609Y-93491148D01*
X182415341Y-93321630D01*
X182271178Y-93177467D01*
X182101660Y-93064199D01*
X181913302Y-92986178D01*
X181713343Y-92946404D01*
X181509465Y-92946404D01*
X181309506Y-92986178D01*
X181121148Y-93064199D01*
X180951630Y-93177467D01*
X180807467Y-93321630D01*
X180694199Y-93491148D01*
X180616178Y-93679506D01*
X180606914Y-93726078D01*
X180582067Y-93756354D01*
X169543511Y-104794911D01*
X160827186Y-104794911D01*
X160937205Y-104630256D01*
X161015226Y-104441898D01*
X161055000Y-104241939D01*
X161055000Y-104038061D01*
X161015226Y-103838102D01*
X160937205Y-103649744D01*
X160905000Y-103601546D01*
X160905000Y-95788454D01*
X160937205Y-95740256D01*
X161015226Y-95551898D01*
X161055000Y-95351939D01*
X161055000Y-95148061D01*
X161015226Y-94948102D01*
X160937205Y-94759744D01*
X160823937Y-94590226D01*
X160679774Y-94446063D01*
X160510256Y-94332795D01*
X160321898Y-94254774D01*
X160121939Y-94215000D01*
X159918061Y-94215000D01*
X159718102Y-94254774D01*
X159529744Y-94332795D01*
X159360226Y-94446063D01*
X159216063Y-94590226D01*
X159102795Y-94759744D01*
X159024774Y-94948102D01*
X158985000Y-95148061D01*
X158985000Y-95351939D01*
X159017690Y-95516286D01*
X158853343Y-95483596D01*
X158649465Y-95483596D01*
X158449506Y-95523370D01*
X158261148Y-95601391D01*
X158091630Y-95714659D01*
X157947467Y-95858822D01*
X157834199Y-96028340D01*
X157756178Y-96216698D01*
X157716404Y-96416657D01*
X157716404Y-96620535D01*
X157750373Y-96791312D01*
X157581940Y-96757809D01*
X157378062Y-96757809D01*
X157178103Y-96797583D01*
X156989745Y-96875604D01*
X156820227Y-96988872D01*
X156676064Y-97133035D01*
X156562796Y-97302553D01*
X156484775Y-97490911D01*
X156445001Y-97690870D01*
X156445001Y-97894748D01*
X156477458Y-98057924D01*
X156311939Y-98025000D01*
X156108061Y-98025000D01*
X155908102Y-98064774D01*
X155719744Y-98142795D01*
X155550226Y-98256063D01*
X155406063Y-98400226D01*
X155292795Y-98569744D01*
X155214774Y-98758102D01*
X155175000Y-98958061D01*
X155175000Y-99161939D01*
X155208039Y-99328039D01*
X155041939Y-99295000D01*
X154838061Y-99295000D01*
X154638102Y-99334774D01*
X154449744Y-99412795D01*
X154280226Y-99526063D01*
X154136063Y-99670226D01*
X154022795Y-99839744D01*
X153944774Y-100028102D01*
X153913601Y-100184820D01*
X152475549Y-101622873D01*
X152431185Y-101568815D01*
X152334494Y-101489463D01*
X152224180Y-101430498D01*
X152151620Y-101408487D01*
X152283475Y-101276632D01*
X152445990Y-101033411D01*
X152557932Y-100763158D01*
X152615000Y-100476260D01*
X152615000Y-100183740D01*
X152557932Y-99896842D01*
X152445990Y-99626589D01*
X152283475Y-99383368D01*
X152076632Y-99176525D01*
X151902240Y-99060000D01*
X152076632Y-98943475D01*
X152283475Y-98736632D01*
X152445990Y-98493411D01*
X152557932Y-98223158D01*
X152615000Y-97936260D01*
X152615000Y-97643740D01*
X152557932Y-97356842D01*
X152445990Y-97086589D01*
X152283475Y-96843368D01*
X152076632Y-96636525D01*
X151902240Y-96520000D01*
X152076632Y-96403475D01*
X152283475Y-96196632D01*
X152445990Y-95953411D01*
X152557932Y-95683158D01*
X152615000Y-95396260D01*
X152615000Y-95103740D01*
X152557932Y-94816842D01*
X152445990Y-94546589D01*
X152283475Y-94303368D01*
X152076632Y-94096525D01*
X151902240Y-93980000D01*
X152076632Y-93863475D01*
X152283475Y-93656632D01*
X152445990Y-93413411D01*
X152557932Y-93143158D01*
X152615000Y-92856260D01*
X152615000Y-92563740D01*
X152557932Y-92276842D01*
X152445990Y-92006589D01*
X152283475Y-91763368D01*
X152076632Y-91556525D01*
X151902240Y-91440000D01*
X152076632Y-91323475D01*
X152283475Y-91116632D01*
X152445990Y-90873411D01*
X152557932Y-90603158D01*
X152615000Y-90316260D01*
X152615000Y-90023740D01*
X152557932Y-89736842D01*
X152445990Y-89466589D01*
X152346312Y-89317409D01*
X193320000Y-89317409D01*
X193320000Y-89762591D01*
X193406851Y-90199218D01*
X193577214Y-90610511D01*
X193824544Y-90980666D01*
X194139334Y-91295456D01*
X194509489Y-91542786D01*
X194920782Y-91713149D01*
X195357409Y-91800000D01*
X195802591Y-91800000D01*
X196239218Y-91713149D01*
X196650511Y-91542786D01*
X197020666Y-91295456D01*
X197335456Y-90980666D01*
X197582786Y-90610511D01*
X197753149Y-90199218D01*
X197840000Y-89762591D01*
X197840000Y-89317409D01*
X197753149Y-88880782D01*
X197582786Y-88469489D01*
X197335456Y-88099334D01*
X197020666Y-87784544D01*
X196650511Y-87537214D01*
X196239218Y-87366851D01*
X195802591Y-87280000D01*
X195357409Y-87280000D01*
X194920782Y-87366851D01*
X194509489Y-87537214D01*
X194139334Y-87784544D01*
X193824544Y-88099334D01*
X193577214Y-88469489D01*
X193406851Y-88880782D01*
X193320000Y-89317409D01*
X152346312Y-89317409D01*
X152283475Y-89223368D01*
X152076632Y-89016525D01*
X151902240Y-88900000D01*
X152076632Y-88783475D01*
X152283475Y-88576632D01*
X152445990Y-88333411D01*
X152557932Y-88063158D01*
X152615000Y-87776260D01*
X152615000Y-87483740D01*
X152557932Y-87196842D01*
X152445990Y-86926589D01*
X152283475Y-86683368D01*
X152076632Y-86476525D01*
X151902240Y-86360000D01*
X152076632Y-86243475D01*
X152283475Y-86036632D01*
X152445990Y-85793411D01*
X152557932Y-85523158D01*
X152615000Y-85236260D01*
X152615000Y-84943740D01*
X152557932Y-84656842D01*
X152445990Y-84386589D01*
X152346312Y-84237409D01*
X193320000Y-84237409D01*
X193320000Y-84682591D01*
X193406851Y-85119218D01*
X193577214Y-85530511D01*
X193824544Y-85900666D01*
X194139334Y-86215456D01*
X194509489Y-86462786D01*
X194920782Y-86633149D01*
X195357409Y-86720000D01*
X195802591Y-86720000D01*
X196239218Y-86633149D01*
X196650511Y-86462786D01*
X197020666Y-86215456D01*
X197335456Y-85900666D01*
X197582786Y-85530511D01*
X197753149Y-85119218D01*
X197840000Y-84682591D01*
X197840000Y-84237409D01*
X197753149Y-83800782D01*
X197582786Y-83389489D01*
X197335456Y-83019334D01*
X197020666Y-82704544D01*
X196650511Y-82457214D01*
X196239218Y-82286851D01*
X195802591Y-82200000D01*
X195357409Y-82200000D01*
X194920782Y-82286851D01*
X194509489Y-82457214D01*
X194139334Y-82704544D01*
X193824544Y-83019334D01*
X193577214Y-83389489D01*
X193406851Y-83800782D01*
X193320000Y-84237409D01*
X152346312Y-84237409D01*
X152283475Y-84143368D01*
X152076632Y-83936525D01*
X151902240Y-83820000D01*
X152076632Y-83703475D01*
X152283475Y-83496632D01*
X152445990Y-83253411D01*
X152557932Y-82983158D01*
X152615000Y-82696260D01*
X152615000Y-82403740D01*
X152557932Y-82116842D01*
X152445990Y-81846589D01*
X152283475Y-81603368D01*
X152076632Y-81396525D01*
X151902240Y-81280000D01*
X152076632Y-81163475D01*
X152283475Y-80956632D01*
X152445990Y-80713411D01*
X152557932Y-80443158D01*
X152615000Y-80156260D01*
X152615000Y-79863740D01*
X152557932Y-79576842D01*
X152445990Y-79306589D01*
X152283475Y-79063368D01*
X152076632Y-78856525D01*
X151902240Y-78740000D01*
X152076632Y-78623475D01*
X152283475Y-78416632D01*
X152445990Y-78173411D01*
X152557932Y-77903158D01*
X152615000Y-77616260D01*
X152615000Y-77323740D01*
X152557932Y-77036842D01*
X152445990Y-76766589D01*
X152283475Y-76523368D01*
X152076632Y-76316525D01*
X151902240Y-76200000D01*
X152076632Y-76083475D01*
X152283475Y-75876632D01*
X152445990Y-75633411D01*
X152557932Y-75363158D01*
X152615000Y-75076260D01*
X152615000Y-74783740D01*
X152557932Y-74496842D01*
X152445990Y-74226589D01*
X152283475Y-73983368D01*
X152076632Y-73776525D01*
X151902240Y-73660000D01*
X152076632Y-73543475D01*
X152283475Y-73336632D01*
X152445990Y-73093411D01*
X152557932Y-72823158D01*
X152615000Y-72536260D01*
X152615000Y-72243740D01*
X152557932Y-71956842D01*
X152445990Y-71686589D01*
X152283475Y-71443368D01*
X152076632Y-71236525D01*
X151902240Y-71120000D01*
X152076632Y-71003475D01*
X152283475Y-70796632D01*
X152445990Y-70553411D01*
X152557932Y-70283158D01*
X152615000Y-69996260D01*
X152615000Y-69703740D01*
X152557932Y-69416842D01*
X152526103Y-69340000D01*
X155506289Y-69340000D01*
X155550226Y-69383937D01*
X155719744Y-69497205D01*
X155908102Y-69575226D01*
X156108061Y-69615000D01*
X156311939Y-69615000D01*
X156511898Y-69575226D01*
X156700256Y-69497205D01*
X156869774Y-69383937D01*
X157013937Y-69239774D01*
X157127205Y-69070256D01*
X157205226Y-68881898D01*
X157245000Y-68681939D01*
X157245000Y-68478061D01*
X157205226Y-68278102D01*
X157127205Y-68089744D01*
X157030490Y-67945000D01*
X157127205Y-67800256D01*
X157205226Y-67611898D01*
X157245000Y-67411939D01*
X157245000Y-67208061D01*
X157205226Y-67008102D01*
X157127205Y-66819744D01*
X157030490Y-66675000D01*
X157127205Y-66530256D01*
X157205226Y-66341898D01*
X157245000Y-66141939D01*
X157245000Y-65938061D01*
X157205226Y-65738102D01*
X157127205Y-65549744D01*
X157030723Y-65405349D01*
X157128609Y-65258852D01*
X157206630Y-65070494D01*
X157246404Y-64870535D01*
X157246404Y-64666657D01*
X157206630Y-64466698D01*
X157128609Y-64278340D01*
X157096404Y-64230142D01*
X157096404Y-62788630D01*
X177452822Y-83145049D01*
X177480535Y-83178817D01*
X177514303Y-83206530D01*
X177514305Y-83206532D01*
X177556720Y-83241341D01*
X177615293Y-83289411D01*
X177769039Y-83371589D01*
X177935862Y-83422195D01*
X178065875Y-83435000D01*
X178065885Y-83435000D01*
X178109351Y-83439281D01*
X178152817Y-83435000D01*
X181071546Y-83435000D01*
X181119744Y-83467205D01*
X181308102Y-83545226D01*
X181508061Y-83585000D01*
X181711939Y-83585000D01*
X181911898Y-83545226D01*
X182100256Y-83467205D01*
X182269774Y-83353937D01*
X182413937Y-83209774D01*
X182527205Y-83040256D01*
X182605226Y-82851898D01*
X182645000Y-82651939D01*
X182645000Y-82448061D01*
X182605226Y-82248102D01*
X182527205Y-82059744D01*
X182430490Y-81915000D01*
X182514012Y-81790000D01*
X185291928Y-81790000D01*
X185291928Y-83310000D01*
X185304188Y-83434482D01*
X185340498Y-83554180D01*
X185399463Y-83664494D01*
X185478815Y-83761185D01*
X185575506Y-83840537D01*
X185685820Y-83899502D01*
X185805518Y-83935812D01*
X185930000Y-83948072D01*
X187450000Y-83948072D01*
X187574482Y-83935812D01*
X187694180Y-83899502D01*
X187804494Y-83840537D01*
X187901185Y-83761185D01*
X187980537Y-83664494D01*
X188039502Y-83554180D01*
X188075812Y-83434482D01*
X188088072Y-83310000D01*
X188088072Y-82081918D01*
X188146433Y-82169261D01*
X188340739Y-82363567D01*
X188569220Y-82516233D01*
X188823093Y-82621391D01*
X189092604Y-82675000D01*
X189367396Y-82675000D01*
X189636907Y-82621391D01*
X189890780Y-82516233D01*
X190119261Y-82363567D01*
X190313567Y-82169261D01*
X190466233Y-81940780D01*
X190571391Y-81686907D01*
X190625000Y-81417396D01*
X190625000Y-81142604D01*
X190571391Y-80873093D01*
X190466233Y-80619220D01*
X190313567Y-80390739D01*
X190119261Y-80196433D01*
X189890780Y-80043767D01*
X189809260Y-80010000D01*
X189890780Y-79976233D01*
X190119261Y-79823567D01*
X190313567Y-79629261D01*
X190466233Y-79400780D01*
X190571391Y-79146907D01*
X190625000Y-78877396D01*
X190625000Y-78602604D01*
X190571391Y-78333093D01*
X190466233Y-78079220D01*
X190313567Y-77850739D01*
X190119261Y-77656433D01*
X189890780Y-77503767D01*
X189809260Y-77470000D01*
X189890780Y-77436233D01*
X190119261Y-77283567D01*
X190313567Y-77089261D01*
X190466233Y-76860780D01*
X190571391Y-76606907D01*
X190625000Y-76337396D01*
X190625000Y-76062604D01*
X190571391Y-75793093D01*
X190466233Y-75539220D01*
X190313567Y-75310739D01*
X190119261Y-75116433D01*
X189890780Y-74963767D01*
X189636907Y-74858609D01*
X189367396Y-74805000D01*
X189092604Y-74805000D01*
X188823093Y-74858609D01*
X188569220Y-74963767D01*
X188340739Y-75116433D01*
X188146433Y-75310739D01*
X187993767Y-75539220D01*
X187888609Y-75793093D01*
X187835000Y-76062604D01*
X187835000Y-76337396D01*
X187888609Y-76606907D01*
X187993767Y-76860780D01*
X188146433Y-77089261D01*
X188340739Y-77283567D01*
X188569220Y-77436233D01*
X188650740Y-77470000D01*
X188569220Y-77503767D01*
X188340739Y-77656433D01*
X188146433Y-77850739D01*
X187993767Y-78079220D01*
X187888609Y-78333093D01*
X187835000Y-78602604D01*
X187835000Y-78877396D01*
X187888609Y-79146907D01*
X187993767Y-79400780D01*
X188146433Y-79629261D01*
X188340739Y-79823567D01*
X188569220Y-79976233D01*
X188650740Y-80010000D01*
X188569220Y-80043767D01*
X188340739Y-80196433D01*
X188146433Y-80390739D01*
X187993767Y-80619220D01*
X187888609Y-80873093D01*
X187835000Y-81142604D01*
X187835000Y-81284499D01*
X187804494Y-81259463D01*
X187694180Y-81200498D01*
X187574482Y-81164188D01*
X187486533Y-81155526D01*
X187579261Y-81093567D01*
X187773567Y-80899261D01*
X187926233Y-80670780D01*
X188031391Y-80416907D01*
X188085000Y-80147396D01*
X188085000Y-79872604D01*
X188031391Y-79603093D01*
X187926233Y-79349220D01*
X187773567Y-79120739D01*
X187579261Y-78926433D01*
X187350780Y-78773767D01*
X187269260Y-78740000D01*
X187350780Y-78706233D01*
X187579261Y-78553567D01*
X187773567Y-78359261D01*
X187926233Y-78130780D01*
X188031391Y-77876907D01*
X188085000Y-77607396D01*
X188085000Y-77332604D01*
X188031391Y-77063093D01*
X187926233Y-76809220D01*
X187773567Y-76580739D01*
X187579261Y-76386433D01*
X187350780Y-76233767D01*
X187096907Y-76128609D01*
X186827396Y-76075000D01*
X186552604Y-76075000D01*
X186283093Y-76128609D01*
X186029220Y-76233767D01*
X185800739Y-76386433D01*
X185606433Y-76580739D01*
X185453767Y-76809220D01*
X185348609Y-77063093D01*
X185295000Y-77332604D01*
X185295000Y-77607396D01*
X185348609Y-77876907D01*
X185453767Y-78130780D01*
X185606433Y-78359261D01*
X185800739Y-78553567D01*
X186029220Y-78706233D01*
X186110740Y-78740000D01*
X186029220Y-78773767D01*
X185800739Y-78926433D01*
X185606433Y-79120739D01*
X185453767Y-79349220D01*
X185348609Y-79603093D01*
X185295000Y-79872604D01*
X185295000Y-80147396D01*
X185348609Y-80416907D01*
X185453767Y-80670780D01*
X185606433Y-80899261D01*
X185800739Y-81093567D01*
X185893467Y-81155526D01*
X185805518Y-81164188D01*
X185685820Y-81200498D01*
X185575506Y-81259463D01*
X185478815Y-81338815D01*
X185399463Y-81435506D01*
X185340498Y-81545820D01*
X185304188Y-81665518D01*
X185291928Y-81790000D01*
X182514012Y-81790000D01*
X182527205Y-81770256D01*
X182605226Y-81581898D01*
X182645000Y-81381939D01*
X182645000Y-81178061D01*
X182605226Y-80978102D01*
X182527205Y-80789744D01*
X182430490Y-80645000D01*
X182527205Y-80500256D01*
X182605226Y-80311898D01*
X182645000Y-80111939D01*
X182645000Y-79908061D01*
X182605226Y-79708102D01*
X182527205Y-79519744D01*
X182430490Y-79375000D01*
X182527205Y-79230256D01*
X182605226Y-79041898D01*
X182645000Y-78841939D01*
X182645000Y-78638061D01*
X182605226Y-78438102D01*
X182527205Y-78249744D01*
X182413937Y-78080226D01*
X182269774Y-77936063D01*
X182100256Y-77822795D01*
X181911898Y-77744774D01*
X181711939Y-77705000D01*
X181508061Y-77705000D01*
X181308102Y-77744774D01*
X181119744Y-77822795D01*
X181071546Y-77855000D01*
X177847956Y-77855000D01*
X174070365Y-74077409D01*
X193320000Y-74077409D01*
X193320000Y-74522591D01*
X193406851Y-74959218D01*
X193577214Y-75370511D01*
X193824544Y-75740666D01*
X194139334Y-76055456D01*
X194509489Y-76302786D01*
X194920782Y-76473149D01*
X195357409Y-76560000D01*
X195802591Y-76560000D01*
X196239218Y-76473149D01*
X196650511Y-76302786D01*
X197020666Y-76055456D01*
X197335456Y-75740666D01*
X197582786Y-75370511D01*
X197753149Y-74959218D01*
X197840000Y-74522591D01*
X197840000Y-74077409D01*
X197753149Y-73640782D01*
X197582786Y-73229489D01*
X197335456Y-72859334D01*
X197020666Y-72544544D01*
X196650511Y-72297214D01*
X196239218Y-72126851D01*
X195802591Y-72040000D01*
X195357409Y-72040000D01*
X194920782Y-72126851D01*
X194509489Y-72297214D01*
X194139334Y-72544544D01*
X193824544Y-72859334D01*
X193577214Y-73229489D01*
X193406851Y-73640782D01*
X193320000Y-74077409D01*
X174070365Y-74077409D01*
X168990365Y-68997409D01*
X193320000Y-68997409D01*
X193320000Y-69442591D01*
X193406851Y-69879218D01*
X193577214Y-70290511D01*
X193824544Y-70660666D01*
X194139334Y-70975456D01*
X194509489Y-71222786D01*
X194920782Y-71393149D01*
X195357409Y-71480000D01*
X195802591Y-71480000D01*
X196239218Y-71393149D01*
X196650511Y-71222786D01*
X197020666Y-70975456D01*
X197335456Y-70660666D01*
X197582786Y-70290511D01*
X197753149Y-69879218D01*
X197840000Y-69442591D01*
X197840000Y-68997409D01*
X197753149Y-68560782D01*
X197582786Y-68149489D01*
X197335456Y-67779334D01*
X197020666Y-67464544D01*
X196650511Y-67217214D01*
X196239218Y-67046851D01*
X195802591Y-66960000D01*
X195357409Y-66960000D01*
X194920782Y-67046851D01*
X194509489Y-67217214D01*
X194139334Y-67464544D01*
X193824544Y-67779334D01*
X193577214Y-68149489D01*
X193406851Y-68560782D01*
X193320000Y-68997409D01*
X168990365Y-68997409D01*
X168187956Y-68195000D01*
X181071546Y-68195000D01*
X181119744Y-68227205D01*
X181308102Y-68305226D01*
X181508061Y-68345000D01*
X181711939Y-68345000D01*
X181911898Y-68305226D01*
X182100256Y-68227205D01*
X182269774Y-68113937D01*
X182413937Y-67969774D01*
X182527205Y-67800256D01*
X182605226Y-67611898D01*
X182645000Y-67411939D01*
X182645000Y-67208061D01*
X182605226Y-67008102D01*
X182527205Y-66819744D01*
X182430490Y-66675000D01*
X182514012Y-66550000D01*
X185291928Y-66550000D01*
X185291928Y-68070000D01*
X185304188Y-68194482D01*
X185340498Y-68314180D01*
X185399463Y-68424494D01*
X185478815Y-68521185D01*
X185575506Y-68600537D01*
X185685820Y-68659502D01*
X185805518Y-68695812D01*
X185930000Y-68708072D01*
X187450000Y-68708072D01*
X187574482Y-68695812D01*
X187694180Y-68659502D01*
X187804494Y-68600537D01*
X187901185Y-68521185D01*
X187980537Y-68424494D01*
X188039502Y-68314180D01*
X188075812Y-68194482D01*
X188088072Y-68070000D01*
X188088072Y-66841918D01*
X188146433Y-66929261D01*
X188340739Y-67123567D01*
X188569220Y-67276233D01*
X188823093Y-67381391D01*
X189092604Y-67435000D01*
X189367396Y-67435000D01*
X189636907Y-67381391D01*
X189890780Y-67276233D01*
X190119261Y-67123567D01*
X190313567Y-66929261D01*
X190466233Y-66700780D01*
X190571391Y-66446907D01*
X190625000Y-66177396D01*
X190625000Y-65902604D01*
X190571391Y-65633093D01*
X190466233Y-65379220D01*
X190313567Y-65150739D01*
X190119261Y-64956433D01*
X189890780Y-64803767D01*
X189809260Y-64770000D01*
X189890780Y-64736233D01*
X190119261Y-64583567D01*
X190313567Y-64389261D01*
X190466233Y-64160780D01*
X190571391Y-63906907D01*
X190625000Y-63637396D01*
X190625000Y-63362604D01*
X190571391Y-63093093D01*
X190466233Y-62839220D01*
X190313567Y-62610739D01*
X190119261Y-62416433D01*
X189890780Y-62263767D01*
X189809260Y-62230000D01*
X189890780Y-62196233D01*
X190119261Y-62043567D01*
X190313567Y-61849261D01*
X190466233Y-61620780D01*
X190571391Y-61366907D01*
X190625000Y-61097396D01*
X190625000Y-60822604D01*
X190571391Y-60553093D01*
X190466233Y-60299220D01*
X190313567Y-60070739D01*
X190119261Y-59876433D01*
X189890780Y-59723767D01*
X189636907Y-59618609D01*
X189367396Y-59565000D01*
X189092604Y-59565000D01*
X188823093Y-59618609D01*
X188569220Y-59723767D01*
X188340739Y-59876433D01*
X188146433Y-60070739D01*
X187993767Y-60299220D01*
X187888609Y-60553093D01*
X187835000Y-60822604D01*
X187835000Y-61097396D01*
X187888609Y-61366907D01*
X187993767Y-61620780D01*
X188146433Y-61849261D01*
X188340739Y-62043567D01*
X188569220Y-62196233D01*
X188650740Y-62230000D01*
X188569220Y-62263767D01*
X188340739Y-62416433D01*
X188146433Y-62610739D01*
X187993767Y-62839220D01*
X187888609Y-63093093D01*
X187835000Y-63362604D01*
X187835000Y-63637396D01*
X187888609Y-63906907D01*
X187993767Y-64160780D01*
X188146433Y-64389261D01*
X188340739Y-64583567D01*
X188569220Y-64736233D01*
X188650740Y-64770000D01*
X188569220Y-64803767D01*
X188340739Y-64956433D01*
X188146433Y-65150739D01*
X187993767Y-65379220D01*
X187888609Y-65633093D01*
X187835000Y-65902604D01*
X187835000Y-66044499D01*
X187804494Y-66019463D01*
X187694180Y-65960498D01*
X187574482Y-65924188D01*
X187486533Y-65915526D01*
X187579261Y-65853567D01*
X187773567Y-65659261D01*
X187926233Y-65430780D01*
X188031391Y-65176907D01*
X188085000Y-64907396D01*
X188085000Y-64632604D01*
X188031391Y-64363093D01*
X187926233Y-64109220D01*
X187773567Y-63880739D01*
X187579261Y-63686433D01*
X187350780Y-63533767D01*
X187269260Y-63500000D01*
X187350780Y-63466233D01*
X187579261Y-63313567D01*
X187773567Y-63119261D01*
X187926233Y-62890780D01*
X188031391Y-62636907D01*
X188085000Y-62367396D01*
X188085000Y-62092604D01*
X188031391Y-61823093D01*
X187926233Y-61569220D01*
X187773567Y-61340739D01*
X187579261Y-61146433D01*
X187350780Y-60993767D01*
X187096907Y-60888609D01*
X186827396Y-60835000D01*
X186552604Y-60835000D01*
X186283093Y-60888609D01*
X186029220Y-60993767D01*
X185800739Y-61146433D01*
X185606433Y-61340739D01*
X185453767Y-61569220D01*
X185348609Y-61823093D01*
X185295000Y-62092604D01*
X185295000Y-62367396D01*
X185348609Y-62636907D01*
X185453767Y-62890780D01*
X185606433Y-63119261D01*
X185800739Y-63313567D01*
X186029220Y-63466233D01*
X186110740Y-63500000D01*
X186029220Y-63533767D01*
X185800739Y-63686433D01*
X185606433Y-63880739D01*
X185453767Y-64109220D01*
X185348609Y-64363093D01*
X185295000Y-64632604D01*
X185295000Y-64907396D01*
X185348609Y-65176907D01*
X185453767Y-65430780D01*
X185606433Y-65659261D01*
X185800739Y-65853567D01*
X185893467Y-65915526D01*
X185805518Y-65924188D01*
X185685820Y-65960498D01*
X185575506Y-66019463D01*
X185478815Y-66098815D01*
X185399463Y-66195506D01*
X185340498Y-66305820D01*
X185304188Y-66425518D01*
X185291928Y-66550000D01*
X182514012Y-66550000D01*
X182527205Y-66530256D01*
X182605226Y-66341898D01*
X182645000Y-66141939D01*
X182645000Y-65938061D01*
X182605226Y-65738102D01*
X182527205Y-65549744D01*
X182430490Y-65405000D01*
X182527205Y-65260256D01*
X182605226Y-65071898D01*
X182645000Y-64871939D01*
X182645000Y-64668061D01*
X182605226Y-64468102D01*
X182527205Y-64279744D01*
X182430490Y-64135000D01*
X182527205Y-63990256D01*
X182605226Y-63801898D01*
X182645000Y-63601939D01*
X182645000Y-63398061D01*
X182605226Y-63198102D01*
X182527205Y-63009744D01*
X182413937Y-62840226D01*
X182269774Y-62696063D01*
X182100256Y-62582795D01*
X181911898Y-62504774D01*
X181711939Y-62465000D01*
X181508061Y-62465000D01*
X181308102Y-62504774D01*
X181119744Y-62582795D01*
X181071546Y-62615000D01*
X176220804Y-62615000D01*
X176255226Y-62531898D01*
X176295000Y-62331939D01*
X176295000Y-62128061D01*
X176255226Y-61928102D01*
X176177205Y-61739744D01*
X176063937Y-61570226D01*
X175919774Y-61426063D01*
X175750256Y-61312795D01*
X175561898Y-61234774D01*
X175505044Y-61223465D01*
X173760843Y-59479264D01*
X173873475Y-59366632D01*
X174035990Y-59123411D01*
X174147932Y-58853158D01*
X174151064Y-58837409D01*
X193320000Y-58837409D01*
X193320000Y-59282591D01*
X193406851Y-59719218D01*
X193577214Y-60130511D01*
X193824544Y-60500666D01*
X194139334Y-60815456D01*
X194509489Y-61062786D01*
X194920782Y-61233149D01*
X195357409Y-61320000D01*
X195802591Y-61320000D01*
X196239218Y-61233149D01*
X196650511Y-61062786D01*
X197020666Y-60815456D01*
X197335456Y-60500666D01*
X197582786Y-60130511D01*
X197753149Y-59719218D01*
X197840000Y-59282591D01*
X197840000Y-58837409D01*
X197753149Y-58400782D01*
X197582786Y-57989489D01*
X197335456Y-57619334D01*
X197020666Y-57304544D01*
X196650511Y-57057214D01*
X196239218Y-56886851D01*
X195802591Y-56800000D01*
X195357409Y-56800000D01*
X194920782Y-56886851D01*
X194509489Y-57057214D01*
X194139334Y-57304544D01*
X193824544Y-57619334D01*
X193577214Y-57989489D01*
X193406851Y-58400782D01*
X193320000Y-58837409D01*
X174151064Y-58837409D01*
X174205000Y-58566260D01*
X174205000Y-58273740D01*
X174147932Y-57986842D01*
X174035990Y-57716589D01*
X173873475Y-57473368D01*
X173666632Y-57266525D01*
X173423411Y-57104010D01*
X173153158Y-56992068D01*
X172866260Y-56935000D01*
X172573740Y-56935000D01*
X172286842Y-56992068D01*
X172016589Y-57104010D01*
X171773368Y-57266525D01*
X171566525Y-57473368D01*
X171450000Y-57647760D01*
X171333475Y-57473368D01*
X171126632Y-57266525D01*
X170883411Y-57104010D01*
X170613158Y-56992068D01*
X170326260Y-56935000D01*
X170033740Y-56935000D01*
X169746842Y-56992068D01*
X169476589Y-57104010D01*
X169233368Y-57266525D01*
X169026525Y-57473368D01*
X168910000Y-57647760D01*
X168793475Y-57473368D01*
X168586632Y-57266525D01*
X168343411Y-57104010D01*
X168073158Y-56992068D01*
X167786260Y-56935000D01*
X167493740Y-56935000D01*
X167206842Y-56992068D01*
X166936589Y-57104010D01*
X166693368Y-57266525D01*
X166561513Y-57398380D01*
X166539502Y-57325820D01*
X166480537Y-57215506D01*
X166401185Y-57118815D01*
X166304494Y-57039463D01*
X166194180Y-56980498D01*
X166074482Y-56944188D01*
X165950000Y-56931928D01*
X164250000Y-56931928D01*
X164125518Y-56944188D01*
X164005820Y-56980498D01*
X163895506Y-57039463D01*
X163798815Y-57118815D01*
X163719463Y-57215506D01*
X163660498Y-57325820D01*
X163624188Y-57445518D01*
X163611928Y-57570000D01*
X163611928Y-59270000D01*
X163623538Y-59387882D01*
X157995656Y-53760000D01*
X163611928Y-53760000D01*
X163611928Y-55460000D01*
X163624188Y-55584482D01*
X163660498Y-55704180D01*
X163719463Y-55814494D01*
X163798815Y-55911185D01*
X163895506Y-55990537D01*
X164005820Y-56049502D01*
X164125518Y-56085812D01*
X164250000Y-56098072D01*
X165950000Y-56098072D01*
X166074482Y-56085812D01*
X166194180Y-56049502D01*
X166304494Y-55990537D01*
X166401185Y-55911185D01*
X166480537Y-55814494D01*
X166539502Y-55704180D01*
X166561513Y-55631620D01*
X166693368Y-55763475D01*
X166936589Y-55925990D01*
X167206842Y-56037932D01*
X167493740Y-56095000D01*
X167786260Y-56095000D01*
X168073158Y-56037932D01*
X168343411Y-55925990D01*
X168586632Y-55763475D01*
X168793475Y-55556632D01*
X168910000Y-55382240D01*
X169026525Y-55556632D01*
X169233368Y-55763475D01*
X169476589Y-55925990D01*
X169746842Y-56037932D01*
X170033740Y-56095000D01*
X170326260Y-56095000D01*
X170613158Y-56037932D01*
X170883411Y-55925990D01*
X171126632Y-55763475D01*
X171333475Y-55556632D01*
X171450000Y-55382240D01*
X171566525Y-55556632D01*
X171773368Y-55763475D01*
X172016589Y-55925990D01*
X172286842Y-56037932D01*
X172573740Y-56095000D01*
X172866260Y-56095000D01*
X173153158Y-56037932D01*
X173423411Y-55925990D01*
X173666632Y-55763475D01*
X173873475Y-55556632D01*
X174035990Y-55313411D01*
X174147932Y-55043158D01*
X174205000Y-54756260D01*
X174205000Y-54463740D01*
X174147932Y-54176842D01*
X174035990Y-53906589D01*
X173873475Y-53663368D01*
X173666632Y-53456525D01*
X173423411Y-53294010D01*
X173153158Y-53182068D01*
X172866260Y-53125000D01*
X172573740Y-53125000D01*
X172286842Y-53182068D01*
X172016589Y-53294010D01*
X171773368Y-53456525D01*
X171566525Y-53663368D01*
X171450000Y-53837760D01*
X171333475Y-53663368D01*
X171126632Y-53456525D01*
X170883411Y-53294010D01*
X170613158Y-53182068D01*
X170326260Y-53125000D01*
X170033740Y-53125000D01*
X169746842Y-53182068D01*
X169476589Y-53294010D01*
X169233368Y-53456525D01*
X169026525Y-53663368D01*
X168910000Y-53837760D01*
X168793475Y-53663368D01*
X168586632Y-53456525D01*
X168343411Y-53294010D01*
X168073158Y-53182068D01*
X167786260Y-53125000D01*
X167493740Y-53125000D01*
X167206842Y-53182068D01*
X166936589Y-53294010D01*
X166693368Y-53456525D01*
X166561513Y-53588380D01*
X166539502Y-53515820D01*
X166480537Y-53405506D01*
X166401185Y-53308815D01*
X166304494Y-53229463D01*
X166194180Y-53170498D01*
X166074482Y-53134188D01*
X165950000Y-53121928D01*
X164250000Y-53121928D01*
X164125518Y-53134188D01*
X164005820Y-53170498D01*
X163895506Y-53229463D01*
X163798815Y-53308815D01*
X163719463Y-53405506D01*
X163660498Y-53515820D01*
X163624188Y-53635518D01*
X163611928Y-53760000D01*
X157995656Y-53760000D01*
X156432655Y-52197000D01*
X200607394Y-52197000D01*
X201803000Y-53392606D01*
G36*
X139331928Y-108950000D02*
G01*
X139344188Y-109074482D01*
X139380498Y-109194180D01*
X139439463Y-109304494D01*
X139518815Y-109401185D01*
X139615506Y-109480537D01*
X139725820Y-109539502D01*
X139845518Y-109575812D01*
X139970000Y-109588072D01*
X141970000Y-109588072D01*
X142094482Y-109575812D01*
X142214180Y-109539502D01*
X142324494Y-109480537D01*
X142421185Y-109401185D01*
X142500537Y-109304494D01*
X142559502Y-109194180D01*
X142595812Y-109074482D01*
X142608072Y-108950000D01*
X142608072Y-108297243D01*
X142711106Y-108422790D01*
X142744879Y-108450507D01*
X145089370Y-110794999D01*
X108818470Y-110794999D01*
X108775001Y-110790718D01*
X108731532Y-110794999D01*
X108731524Y-110794999D01*
X108601511Y-110807804D01*
X108434688Y-110858410D01*
X108300173Y-110930309D01*
X108280942Y-110940588D01*
X108179954Y-111023467D01*
X108179952Y-111023469D01*
X108146184Y-111051182D01*
X108118471Y-111084950D01*
X106589990Y-112613432D01*
X106589990Y-111370457D01*
X106594271Y-111326988D01*
X106589990Y-111283519D01*
X106589990Y-111283511D01*
X106577185Y-111153498D01*
X106568532Y-111124974D01*
X106526579Y-110986674D01*
X106444401Y-110832929D01*
X106361522Y-110731941D01*
X106361520Y-110731939D01*
X106333807Y-110698171D01*
X106300040Y-110670459D01*
X104976580Y-109347000D01*
X137160000Y-109347000D01*
X137184776Y-109344560D01*
X137208601Y-109337333D01*
X137230557Y-109325597D01*
X137249803Y-109309803D01*
X139331928Y-107227678D01*
X139331928Y-108950000D01*
G37*
X139331928Y-108950000D02*
X139344188Y-109074482D01*
X139380498Y-109194180D01*
X139439463Y-109304494D01*
X139518815Y-109401185D01*
X139615506Y-109480537D01*
X139725820Y-109539502D01*
X139845518Y-109575812D01*
X139970000Y-109588072D01*
X141970000Y-109588072D01*
X142094482Y-109575812D01*
X142214180Y-109539502D01*
X142324494Y-109480537D01*
X142421185Y-109401185D01*
X142500537Y-109304494D01*
X142559502Y-109194180D01*
X142595812Y-109074482D01*
X142608072Y-108950000D01*
X142608072Y-108297243D01*
X142711106Y-108422790D01*
X142744879Y-108450507D01*
X145089370Y-110794999D01*
X108818470Y-110794999D01*
X108775001Y-110790718D01*
X108731532Y-110794999D01*
X108731524Y-110794999D01*
X108601511Y-110807804D01*
X108434688Y-110858410D01*
X108300173Y-110930309D01*
X108280942Y-110940588D01*
X108179954Y-111023467D01*
X108179952Y-111023469D01*
X108146184Y-111051182D01*
X108118471Y-111084950D01*
X106589990Y-112613432D01*
X106589990Y-111370457D01*
X106594271Y-111326988D01*
X106589990Y-111283519D01*
X106589990Y-111283511D01*
X106577185Y-111153498D01*
X106568532Y-111124974D01*
X106526579Y-110986674D01*
X106444401Y-110832929D01*
X106361522Y-110731941D01*
X106361520Y-110731939D01*
X106333807Y-110698171D01*
X106300040Y-110670459D01*
X104976580Y-109347000D01*
X137160000Y-109347000D01*
X137184776Y-109344560D01*
X137208601Y-109337333D01*
X137230557Y-109325597D01*
X137249803Y-109309803D01*
X139331928Y-107227678D01*
X139331928Y-108950000D01*
G36*
X99176525Y-111436632D02*
G01*
X99383368Y-111643475D01*
X99557760Y-111760000D01*
X99383368Y-111876525D01*
X99176525Y-112083368D01*
X99060000Y-112257760D01*
X98943475Y-112083368D01*
X98736632Y-111876525D01*
X98562240Y-111760000D01*
X98736632Y-111643475D01*
X98943475Y-111436632D01*
X99060000Y-111262240D01*
X99176525Y-111436632D01*
G37*
X99176525Y-111436632D02*
X99383368Y-111643475D01*
X99557760Y-111760000D01*
X99383368Y-111876525D01*
X99176525Y-112083368D01*
X99060000Y-112257760D01*
X98943475Y-112083368D01*
X98736632Y-111876525D01*
X98562240Y-111760000D01*
X98736632Y-111643475D01*
X98943475Y-111436632D01*
X99060000Y-111262240D01*
X99176525Y-111436632D01*
G36*
X101716525Y-111436632D02*
G01*
X101923368Y-111643475D01*
X102097760Y-111760000D01*
X101923368Y-111876525D01*
X101716525Y-112083368D01*
X101600000Y-112257760D01*
X101483475Y-112083368D01*
X101276632Y-111876525D01*
X101102240Y-111760000D01*
X101276632Y-111643475D01*
X101483475Y-111436632D01*
X101600000Y-111262240D01*
X101716525Y-111436632D01*
G37*
X101716525Y-111436632D02*
X101923368Y-111643475D01*
X102097760Y-111760000D01*
X101923368Y-111876525D01*
X101716525Y-112083368D01*
X101600000Y-112257760D01*
X101483475Y-112083368D01*
X101276632Y-111876525D01*
X101102240Y-111760000D01*
X101276632Y-111643475D01*
X101483475Y-111436632D01*
X101600000Y-111262240D01*
X101716525Y-111436632D01*
G36*
X93765000Y-110636260D02*
G01*
X93822068Y-110923158D01*
X93934010Y-111193411D01*
X94040064Y-111352132D01*
X93823072Y-111569124D01*
X93823072Y-111472500D01*
X93806248Y-111301684D01*
X93756423Y-111137433D01*
X93675512Y-110986058D01*
X93592575Y-110885000D01*
X93675512Y-110783942D01*
X93756423Y-110632567D01*
X93765000Y-110604292D01*
X93765000Y-110636260D01*
G37*
X93765000Y-110636260D02*
X93822068Y-110923158D01*
X93934010Y-111193411D01*
X94040064Y-111352132D01*
X93823072Y-111569124D01*
X93823072Y-111472500D01*
X93806248Y-111301684D01*
X93756423Y-111137433D01*
X93675512Y-110986058D01*
X93592575Y-110885000D01*
X93675512Y-110783942D01*
X93756423Y-110632567D01*
X93765000Y-110604292D01*
X93765000Y-110636260D01*
G36*
X99176525Y-109543368D02*
G01*
X99060000Y-109717760D01*
X98943475Y-109543368D01*
X98747107Y-109347000D01*
X99372893Y-109347000D01*
X99176525Y-109543368D01*
G37*
X99176525Y-109543368D02*
X99060000Y-109717760D01*
X98943475Y-109543368D01*
X98747107Y-109347000D01*
X99372893Y-109347000D01*
X99176525Y-109543368D01*
G36*
X96636525Y-109543368D02*
G01*
X96520000Y-109717760D01*
X96403475Y-109543368D01*
X96207107Y-109347000D01*
X96832893Y-109347000D01*
X96636525Y-109543368D01*
G37*
X96636525Y-109543368D02*
X96520000Y-109717760D01*
X96403475Y-109543368D01*
X96207107Y-109347000D01*
X96832893Y-109347000D01*
X96636525Y-109543368D01*
G36*
X142454923Y-106539925D02*
G01*
X142421185Y-106498815D01*
X142324494Y-106419463D01*
X142214180Y-106360498D01*
X142094482Y-106324188D01*
X141970000Y-106311928D01*
X139970000Y-106311928D01*
X139845518Y-106324188D01*
X139827000Y-106329805D01*
X139827000Y-101519239D01*
X139927748Y-101619987D01*
X140195537Y-101798918D01*
X140493088Y-101922168D01*
X140808967Y-101985000D01*
X141131033Y-101985000D01*
X141446912Y-101922168D01*
X141744463Y-101798918D01*
X142012252Y-101619987D01*
X142239987Y-101392252D01*
X142418918Y-101124463D01*
X142454923Y-101037538D01*
X142454923Y-106539925D01*
G37*
X142454923Y-106539925D02*
X142421185Y-106498815D01*
X142324494Y-106419463D01*
X142214180Y-106360498D01*
X142094482Y-106324188D01*
X141970000Y-106311928D01*
X139970000Y-106311928D01*
X139845518Y-106324188D01*
X139827000Y-106329805D01*
X139827000Y-101519239D01*
X139927748Y-101619987D01*
X140195537Y-101798918D01*
X140493088Y-101922168D01*
X140808967Y-101985000D01*
X141131033Y-101985000D01*
X141446912Y-101922168D01*
X141744463Y-101798918D01*
X142012252Y-101619987D01*
X142239987Y-101392252D01*
X142418918Y-101124463D01*
X142454923Y-101037538D01*
X142454923Y-106539925D01*
G36*
X155325001Y-103601544D02*
G01*
X155292795Y-103649744D01*
X155214774Y-103838102D01*
X155175000Y-104038061D01*
X155175000Y-104241939D01*
X155214774Y-104441898D01*
X155292795Y-104630256D01*
X155402814Y-104794911D01*
X149744911Y-104794911D01*
X149744911Y-104065978D01*
X149749463Y-104074494D01*
X149828815Y-104171185D01*
X149925506Y-104250537D01*
X150035820Y-104309502D01*
X150155518Y-104345812D01*
X150280000Y-104358072D01*
X151980000Y-104358072D01*
X152104482Y-104345812D01*
X152224180Y-104309502D01*
X152334494Y-104250537D01*
X152431185Y-104171185D01*
X152510537Y-104074494D01*
X152569502Y-103964180D01*
X152605812Y-103844482D01*
X152615518Y-103745935D01*
X152653490Y-103742195D01*
X152820313Y-103691589D01*
X152974059Y-103609411D01*
X153108817Y-103498817D01*
X153136534Y-103465044D01*
X155300716Y-101300862D01*
X155325000Y-101290804D01*
X155325001Y-103601544D01*
G37*
X155325001Y-103601544D02*
X155292795Y-103649744D01*
X155214774Y-103838102D01*
X155175000Y-104038061D01*
X155175000Y-104241939D01*
X155214774Y-104441898D01*
X155292795Y-104630256D01*
X155402814Y-104794911D01*
X149744911Y-104794911D01*
X149744911Y-104065978D01*
X149749463Y-104074494D01*
X149828815Y-104171185D01*
X149925506Y-104250537D01*
X150035820Y-104309502D01*
X150155518Y-104345812D01*
X150280000Y-104358072D01*
X151980000Y-104358072D01*
X152104482Y-104345812D01*
X152224180Y-104309502D01*
X152334494Y-104250537D01*
X152431185Y-104171185D01*
X152510537Y-104074494D01*
X152569502Y-103964180D01*
X152605812Y-103844482D01*
X152615518Y-103745935D01*
X152653490Y-103742195D01*
X152820313Y-103691589D01*
X152974059Y-103609411D01*
X153108817Y-103498817D01*
X153136534Y-103465044D01*
X155300716Y-101300862D01*
X155325000Y-101290804D01*
X155325001Y-103601544D01*
G36*
X149814010Y-101033411D02*
G01*
X149976525Y-101276632D01*
X150108380Y-101408487D01*
X150035820Y-101430498D01*
X149925506Y-101489463D01*
X149828815Y-101568815D01*
X149749463Y-101665506D01*
X149744911Y-101674022D01*
X149744911Y-100866591D01*
X149814010Y-101033411D01*
G37*
X149814010Y-101033411D02*
X149976525Y-101276632D01*
X150108380Y-101408487D01*
X150035820Y-101430498D01*
X149925506Y-101489463D01*
X149828815Y-101568815D01*
X149749463Y-101665506D01*
X149744911Y-101674022D01*
X149744911Y-100866591D01*
X149814010Y-101033411D01*
G36*
X149814010Y-98493411D02*
G01*
X149976525Y-98736632D01*
X150183368Y-98943475D01*
X150357760Y-99060000D01*
X150183368Y-99176525D01*
X149976525Y-99383368D01*
X149814010Y-99626589D01*
X149744911Y-99793409D01*
X149744911Y-98326591D01*
X149814010Y-98493411D01*
G37*
X149814010Y-98493411D02*
X149976525Y-98736632D01*
X150183368Y-98943475D01*
X150357760Y-99060000D01*
X150183368Y-99176525D01*
X149976525Y-99383368D01*
X149814010Y-99626589D01*
X149744911Y-99793409D01*
X149744911Y-98326591D01*
X149814010Y-98493411D01*
G36*
X142454924Y-91976657D02*
G01*
X142454924Y-99662462D01*
X142418918Y-99575537D01*
X142239987Y-99307748D01*
X142012252Y-99080013D01*
X141744463Y-98901082D01*
X141446912Y-98777832D01*
X141131033Y-98715000D01*
X140808967Y-98715000D01*
X140493088Y-98777832D01*
X140195537Y-98901082D01*
X139927748Y-99080013D01*
X139827000Y-99180761D01*
X139827000Y-92710000D01*
X139824560Y-92685224D01*
X139817333Y-92661399D01*
X139805597Y-92639443D01*
X139789803Y-92620197D01*
X138534629Y-91365023D01*
X141843291Y-91365023D01*
X142454924Y-91976657D01*
G37*
X142454924Y-91976657D02*
X142454924Y-99662462D01*
X142418918Y-99575537D01*
X142239987Y-99307748D01*
X142012252Y-99080013D01*
X141744463Y-98901082D01*
X141446912Y-98777832D01*
X141131033Y-98715000D01*
X140808967Y-98715000D01*
X140493088Y-98777832D01*
X140195537Y-98901082D01*
X139927748Y-99080013D01*
X139827000Y-99180761D01*
X139827000Y-92710000D01*
X139824560Y-92685224D01*
X139817333Y-92661399D01*
X139805597Y-92639443D01*
X139789803Y-92620197D01*
X138534629Y-91365023D01*
X141843291Y-91365023D01*
X142454924Y-91976657D01*
G36*
X149814010Y-95953411D02*
G01*
X149976525Y-96196632D01*
X150183368Y-96403475D01*
X150357760Y-96520000D01*
X150183368Y-96636525D01*
X149976525Y-96843368D01*
X149814010Y-97086589D01*
X149744911Y-97253409D01*
X149744911Y-95786591D01*
X149814010Y-95953411D01*
G37*
X149814010Y-95953411D02*
X149976525Y-96196632D01*
X150183368Y-96403475D01*
X150357760Y-96520000D01*
X150183368Y-96636525D01*
X149976525Y-96843368D01*
X149814010Y-97086589D01*
X149744911Y-97253409D01*
X149744911Y-95786591D01*
X149814010Y-95953411D01*
G36*
X149814010Y-93413411D02*
G01*
X149976525Y-93656632D01*
X150183368Y-93863475D01*
X150357760Y-93980000D01*
X150183368Y-94096525D01*
X149976525Y-94303368D01*
X149814010Y-94546589D01*
X149744911Y-94713409D01*
X149744911Y-93246591D01*
X149814010Y-93413411D01*
G37*
X149814010Y-93413411D02*
X149976525Y-93656632D01*
X150183368Y-93863475D01*
X150357760Y-93980000D01*
X150183368Y-94096525D01*
X149976525Y-94303368D01*
X149814010Y-94546589D01*
X149744911Y-94713409D01*
X149744911Y-93246591D01*
X149814010Y-93413411D01*
G36*
X149814010Y-90873411D02*
G01*
X149976525Y-91116632D01*
X150183368Y-91323475D01*
X150357760Y-91440000D01*
X150183368Y-91556525D01*
X149976525Y-91763368D01*
X149814010Y-92006589D01*
X149744911Y-92173409D01*
X149744911Y-90706591D01*
X149814010Y-90873411D01*
G37*
X149814010Y-90873411D02*
X149976525Y-91116632D01*
X150183368Y-91323475D01*
X150357760Y-91440000D01*
X150183368Y-91556525D01*
X149976525Y-91763368D01*
X149814010Y-92006589D01*
X149744911Y-92173409D01*
X149744911Y-90706591D01*
X149814010Y-90873411D01*
G36*
X91221928Y-86780000D02*
G01*
X91221928Y-88480000D01*
X91234188Y-88604482D01*
X91270498Y-88724180D01*
X91329463Y-88834494D01*
X91408815Y-88931185D01*
X91505506Y-89010537D01*
X91615820Y-89069502D01*
X91735518Y-89105812D01*
X91834065Y-89115518D01*
X91837805Y-89153490D01*
X91846144Y-89180978D01*
X91888411Y-89320312D01*
X91970589Y-89474058D01*
X92081183Y-89608817D01*
X92114955Y-89636533D01*
X92521422Y-90043000D01*
X91492606Y-90043000D01*
X90297000Y-88847394D01*
X90297000Y-87682606D01*
X91224367Y-86755239D01*
X91221928Y-86780000D01*
G37*
X91221928Y-86780000D02*
X91221928Y-88480000D01*
X91234188Y-88604482D01*
X91270498Y-88724180D01*
X91329463Y-88834494D01*
X91408815Y-88931185D01*
X91505506Y-89010537D01*
X91615820Y-89069502D01*
X91735518Y-89105812D01*
X91834065Y-89115518D01*
X91837805Y-89153490D01*
X91846144Y-89180978D01*
X91888411Y-89320312D01*
X91970589Y-89474058D01*
X92081183Y-89608817D01*
X92114955Y-89636533D01*
X92521422Y-90043000D01*
X91492606Y-90043000D01*
X90297000Y-88847394D01*
X90297000Y-87682606D01*
X91224367Y-86755239D01*
X91221928Y-86780000D01*
G36*
X149814010Y-88333411D02*
G01*
X149976525Y-88576632D01*
X150183368Y-88783475D01*
X150357760Y-88900000D01*
X150183368Y-89016525D01*
X149976525Y-89223368D01*
X149814010Y-89466589D01*
X149744911Y-89633409D01*
X149744911Y-88166591D01*
X149814010Y-88333411D01*
G37*
X149814010Y-88333411D02*
X149976525Y-88576632D01*
X150183368Y-88783475D01*
X150357760Y-88900000D01*
X150183368Y-89016525D01*
X149976525Y-89223368D01*
X149814010Y-89466589D01*
X149744911Y-89633409D01*
X149744911Y-88166591D01*
X149814010Y-88333411D01*
G36*
X94303368Y-88783475D02*
G01*
X94546589Y-88945990D01*
X94816842Y-89057932D01*
X95103740Y-89115000D01*
X95396260Y-89115000D01*
X95468960Y-89100539D01*
X95504952Y-89136531D01*
X95504957Y-89136535D01*
X95963445Y-89595023D01*
X94576602Y-89595023D01*
X93957127Y-88975549D01*
X94011185Y-88931185D01*
X94090537Y-88834494D01*
X94149502Y-88724180D01*
X94171513Y-88651620D01*
X94303368Y-88783475D01*
G37*
X94303368Y-88783475D02*
X94546589Y-88945990D01*
X94816842Y-89057932D01*
X95103740Y-89115000D01*
X95396260Y-89115000D01*
X95468960Y-89100539D01*
X95504952Y-89136531D01*
X95504957Y-89136535D01*
X95963445Y-89595023D01*
X94576602Y-89595023D01*
X93957127Y-88975549D01*
X94011185Y-88931185D01*
X94090537Y-88834494D01*
X94149502Y-88724180D01*
X94171513Y-88651620D01*
X94303368Y-88783475D01*
G36*
X149702068Y-62663158D02*
G01*
X149814010Y-62933411D01*
X149976525Y-63176632D01*
X150183368Y-63383475D01*
X150357760Y-63500000D01*
X150183368Y-63616525D01*
X149976525Y-63823368D01*
X149814010Y-64066589D01*
X149702068Y-64336842D01*
X149645000Y-64623740D01*
X149645000Y-64916260D01*
X149702068Y-65203158D01*
X149733897Y-65280000D01*
X147357333Y-65280000D01*
X147320000Y-65276323D01*
X147282667Y-65280000D01*
X147171014Y-65290997D01*
X147027753Y-65334454D01*
X146895724Y-65405026D01*
X146779999Y-65499999D01*
X146685026Y-65615724D01*
X146614454Y-65747753D01*
X146570997Y-65891014D01*
X146556323Y-66040000D01*
X146560000Y-66077333D01*
X146560001Y-67272668D01*
X146556324Y-67310000D01*
X146560001Y-67347333D01*
X146563356Y-67381391D01*
X146570998Y-67458985D01*
X146614454Y-67602246D01*
X146685026Y-67734276D01*
X146754567Y-67819011D01*
X146780000Y-67850001D01*
X146808998Y-67873799D01*
X147555000Y-68619802D01*
X147555000Y-68681939D01*
X147594774Y-68881898D01*
X147672795Y-69070256D01*
X147786063Y-69239774D01*
X147930226Y-69383937D01*
X148099744Y-69497205D01*
X148288102Y-69575226D01*
X148488061Y-69615000D01*
X148691939Y-69615000D01*
X148891898Y-69575226D01*
X149080256Y-69497205D01*
X149249774Y-69383937D01*
X149393937Y-69239774D01*
X149420433Y-69200120D01*
X149438532Y-69214974D01*
X149570561Y-69285546D01*
X149713822Y-69329003D01*
X149737487Y-69331334D01*
X149702068Y-69416842D01*
X149645000Y-69703740D01*
X149645000Y-69996260D01*
X149702068Y-70283158D01*
X149814010Y-70553411D01*
X149976525Y-70796632D01*
X150183368Y-71003475D01*
X150357760Y-71120000D01*
X150183368Y-71236525D01*
X149976525Y-71443368D01*
X149814010Y-71686589D01*
X149702068Y-71956842D01*
X149645000Y-72243740D01*
X149645000Y-72536260D01*
X149702068Y-72823158D01*
X149814010Y-73093411D01*
X149976525Y-73336632D01*
X150183368Y-73543475D01*
X150357760Y-73660000D01*
X150183368Y-73776525D01*
X149976525Y-73983368D01*
X149814010Y-74226589D01*
X149702068Y-74496842D01*
X149645000Y-74783740D01*
X149645000Y-75076260D01*
X149702068Y-75363158D01*
X149814010Y-75633411D01*
X149976525Y-75876632D01*
X150183368Y-76083475D01*
X150357760Y-76200000D01*
X150183368Y-76316525D01*
X149976525Y-76523368D01*
X149814010Y-76766589D01*
X149702068Y-77036842D01*
X149645000Y-77323740D01*
X149645000Y-77616260D01*
X149702068Y-77903158D01*
X149814010Y-78173411D01*
X149976525Y-78416632D01*
X150183368Y-78623475D01*
X150357760Y-78740000D01*
X150183368Y-78856525D01*
X149976525Y-79063368D01*
X149814010Y-79306589D01*
X149702068Y-79576842D01*
X149645000Y-79863740D01*
X149645000Y-80156260D01*
X149702068Y-80443158D01*
X149814010Y-80713411D01*
X149976525Y-80956632D01*
X150183368Y-81163475D01*
X150357760Y-81280000D01*
X150183368Y-81396525D01*
X149976525Y-81603368D01*
X149814010Y-81846589D01*
X149702068Y-82116842D01*
X149645000Y-82403740D01*
X149645000Y-82696260D01*
X149702068Y-82983158D01*
X149814010Y-83253411D01*
X149976525Y-83496632D01*
X150183368Y-83703475D01*
X150357760Y-83820000D01*
X150183368Y-83936525D01*
X149976525Y-84143368D01*
X149814010Y-84386589D01*
X149702068Y-84656842D01*
X149645000Y-84943740D01*
X149645000Y-85236260D01*
X149702068Y-85523158D01*
X149814010Y-85793411D01*
X149976525Y-86036632D01*
X150183368Y-86243475D01*
X150357760Y-86360000D01*
X150183368Y-86476525D01*
X149976525Y-86683368D01*
X149814010Y-86926589D01*
X149744911Y-87093409D01*
X149744911Y-86673380D01*
X149749192Y-86629911D01*
X149744911Y-86586442D01*
X149744911Y-86586434D01*
X149732106Y-86456421D01*
X149681500Y-86289598D01*
X149601503Y-86139932D01*
X149585226Y-86058102D01*
X149507205Y-85869744D01*
X149393937Y-85700226D01*
X149249774Y-85556063D01*
X149080256Y-85442795D01*
X148891898Y-85364774D01*
X148691939Y-85325000D01*
X148488061Y-85325000D01*
X148288102Y-85364774D01*
X148099744Y-85442795D01*
X147958854Y-85536935D01*
X147811660Y-85438583D01*
X147623302Y-85360562D01*
X147423343Y-85320788D01*
X147219465Y-85320788D01*
X147019506Y-85360562D01*
X146831148Y-85438583D01*
X146684651Y-85536469D01*
X146540256Y-85439987D01*
X146351898Y-85361966D01*
X146151939Y-85322192D01*
X145948061Y-85322192D01*
X145748102Y-85361966D01*
X145559744Y-85439987D01*
X145413247Y-85537873D01*
X145268852Y-85441391D01*
X145080494Y-85363370D01*
X144880535Y-85323596D01*
X144676657Y-85323596D01*
X144476698Y-85363370D01*
X144288340Y-85441391D01*
X144118822Y-85554659D01*
X143974659Y-85698822D01*
X143861391Y-85868340D01*
X143783370Y-86056698D01*
X143743596Y-86256657D01*
X143743596Y-86460535D01*
X143783370Y-86660494D01*
X143861391Y-86848852D01*
X143892202Y-86894964D01*
X143889315Y-86924281D01*
X143893596Y-86967750D01*
X143893596Y-86967757D01*
X143903646Y-87069800D01*
X143906401Y-87097771D01*
X143914349Y-87123970D01*
X143957007Y-87264593D01*
X144039185Y-87418339D01*
X144149779Y-87553098D01*
X144183552Y-87580815D01*
X145625043Y-89022307D01*
X145625043Y-89121440D01*
X142188557Y-85684955D01*
X142160840Y-85651182D01*
X142026082Y-85540588D01*
X141872336Y-85458410D01*
X141705513Y-85407804D01*
X141575500Y-85394999D01*
X141575492Y-85394999D01*
X141532023Y-85390718D01*
X141488554Y-85394999D01*
X138304607Y-85394999D01*
X139789803Y-83909803D01*
X139805597Y-83890557D01*
X139817333Y-83868601D01*
X139824560Y-83844776D01*
X139827000Y-83820000D01*
X139827000Y-67310000D01*
X139824560Y-67285224D01*
X139817333Y-67261399D01*
X139805597Y-67239443D01*
X139789803Y-67220197D01*
X138541778Y-65972172D01*
X138599502Y-65864180D01*
X138621513Y-65791620D01*
X138753368Y-65923475D01*
X138996589Y-66085990D01*
X139266842Y-66197932D01*
X139553740Y-66255000D01*
X139846260Y-66255000D01*
X140133158Y-66197932D01*
X140403411Y-66085990D01*
X140646632Y-65923475D01*
X140853475Y-65716632D01*
X140970000Y-65542240D01*
X141086525Y-65716632D01*
X141293368Y-65923475D01*
X141467760Y-66040000D01*
X141293368Y-66156525D01*
X141086525Y-66363368D01*
X140924010Y-66606589D01*
X140812068Y-66876842D01*
X140755000Y-67163740D01*
X140755000Y-67456260D01*
X140812068Y-67743158D01*
X140924010Y-68013411D01*
X141086525Y-68256632D01*
X141218380Y-68388487D01*
X141145820Y-68410498D01*
X141035506Y-68469463D01*
X140938815Y-68548815D01*
X140859463Y-68645506D01*
X140800498Y-68755820D01*
X140764188Y-68875518D01*
X140751928Y-69000000D01*
X140751928Y-70700000D01*
X140764188Y-70824482D01*
X140800498Y-70944180D01*
X140859463Y-71054494D01*
X140938815Y-71151185D01*
X141035506Y-71230537D01*
X141145820Y-71289502D01*
X141265518Y-71325812D01*
X141390000Y-71338072D01*
X143090000Y-71338072D01*
X143214482Y-71325812D01*
X143334180Y-71289502D01*
X143444494Y-71230537D01*
X143541185Y-71151185D01*
X143620537Y-71054494D01*
X143679502Y-70944180D01*
X143715812Y-70824482D01*
X143725518Y-70725935D01*
X143763490Y-70722195D01*
X143930313Y-70671589D01*
X144084059Y-70589411D01*
X144218817Y-70478817D01*
X144329411Y-70344059D01*
X144411589Y-70190313D01*
X144462195Y-70023490D01*
X144479282Y-69850000D01*
X144474999Y-69806514D01*
X144475001Y-67596577D01*
X149653348Y-62418230D01*
X149702068Y-62663158D01*
G37*
X149702068Y-62663158D02*
X149814010Y-62933411D01*
X149976525Y-63176632D01*
X150183368Y-63383475D01*
X150357760Y-63500000D01*
X150183368Y-63616525D01*
X149976525Y-63823368D01*
X149814010Y-64066589D01*
X149702068Y-64336842D01*
X149645000Y-64623740D01*
X149645000Y-64916260D01*
X149702068Y-65203158D01*
X149733897Y-65280000D01*
X147357333Y-65280000D01*
X147320000Y-65276323D01*
X147282667Y-65280000D01*
X147171014Y-65290997D01*
X147027753Y-65334454D01*
X146895724Y-65405026D01*
X146779999Y-65499999D01*
X146685026Y-65615724D01*
X146614454Y-65747753D01*
X146570997Y-65891014D01*
X146556323Y-66040000D01*
X146560000Y-66077333D01*
X146560001Y-67272668D01*
X146556324Y-67310000D01*
X146560001Y-67347333D01*
X146563356Y-67381391D01*
X146570998Y-67458985D01*
X146614454Y-67602246D01*
X146685026Y-67734276D01*
X146754567Y-67819011D01*
X146780000Y-67850001D01*
X146808998Y-67873799D01*
X147555000Y-68619802D01*
X147555000Y-68681939D01*
X147594774Y-68881898D01*
X147672795Y-69070256D01*
X147786063Y-69239774D01*
X147930226Y-69383937D01*
X148099744Y-69497205D01*
X148288102Y-69575226D01*
X148488061Y-69615000D01*
X148691939Y-69615000D01*
X148891898Y-69575226D01*
X149080256Y-69497205D01*
X149249774Y-69383937D01*
X149393937Y-69239774D01*
X149420433Y-69200120D01*
X149438532Y-69214974D01*
X149570561Y-69285546D01*
X149713822Y-69329003D01*
X149737487Y-69331334D01*
X149702068Y-69416842D01*
X149645000Y-69703740D01*
X149645000Y-69996260D01*
X149702068Y-70283158D01*
X149814010Y-70553411D01*
X149976525Y-70796632D01*
X150183368Y-71003475D01*
X150357760Y-71120000D01*
X150183368Y-71236525D01*
X149976525Y-71443368D01*
X149814010Y-71686589D01*
X149702068Y-71956842D01*
X149645000Y-72243740D01*
X149645000Y-72536260D01*
X149702068Y-72823158D01*
X149814010Y-73093411D01*
X149976525Y-73336632D01*
X150183368Y-73543475D01*
X150357760Y-73660000D01*
X150183368Y-73776525D01*
X149976525Y-73983368D01*
X149814010Y-74226589D01*
X149702068Y-74496842D01*
X149645000Y-74783740D01*
X149645000Y-75076260D01*
X149702068Y-75363158D01*
X149814010Y-75633411D01*
X149976525Y-75876632D01*
X150183368Y-76083475D01*
X150357760Y-76200000D01*
X150183368Y-76316525D01*
X149976525Y-76523368D01*
X149814010Y-76766589D01*
X149702068Y-77036842D01*
X149645000Y-77323740D01*
X149645000Y-77616260D01*
X149702068Y-77903158D01*
X149814010Y-78173411D01*
X149976525Y-78416632D01*
X150183368Y-78623475D01*
X150357760Y-78740000D01*
X150183368Y-78856525D01*
X149976525Y-79063368D01*
X149814010Y-79306589D01*
X149702068Y-79576842D01*
X149645000Y-79863740D01*
X149645000Y-80156260D01*
X149702068Y-80443158D01*
X149814010Y-80713411D01*
X149976525Y-80956632D01*
X150183368Y-81163475D01*
X150357760Y-81280000D01*
X150183368Y-81396525D01*
X149976525Y-81603368D01*
X149814010Y-81846589D01*
X149702068Y-82116842D01*
X149645000Y-82403740D01*
X149645000Y-82696260D01*
X149702068Y-82983158D01*
X149814010Y-83253411D01*
X149976525Y-83496632D01*
X150183368Y-83703475D01*
X150357760Y-83820000D01*
X150183368Y-83936525D01*
X149976525Y-84143368D01*
X149814010Y-84386589D01*
X149702068Y-84656842D01*
X149645000Y-84943740D01*
X149645000Y-85236260D01*
X149702068Y-85523158D01*
X149814010Y-85793411D01*
X149976525Y-86036632D01*
X150183368Y-86243475D01*
X150357760Y-86360000D01*
X150183368Y-86476525D01*
X149976525Y-86683368D01*
X149814010Y-86926589D01*
X149744911Y-87093409D01*
X149744911Y-86673380D01*
X149749192Y-86629911D01*
X149744911Y-86586442D01*
X149744911Y-86586434D01*
X149732106Y-86456421D01*
X149681500Y-86289598D01*
X149601503Y-86139932D01*
X149585226Y-86058102D01*
X149507205Y-85869744D01*
X149393937Y-85700226D01*
X149249774Y-85556063D01*
X149080256Y-85442795D01*
X148891898Y-85364774D01*
X148691939Y-85325000D01*
X148488061Y-85325000D01*
X148288102Y-85364774D01*
X148099744Y-85442795D01*
X147958854Y-85536935D01*
X147811660Y-85438583D01*
X147623302Y-85360562D01*
X147423343Y-85320788D01*
X147219465Y-85320788D01*
X147019506Y-85360562D01*
X146831148Y-85438583D01*
X146684651Y-85536469D01*
X146540256Y-85439987D01*
X146351898Y-85361966D01*
X146151939Y-85322192D01*
X145948061Y-85322192D01*
X145748102Y-85361966D01*
X145559744Y-85439987D01*
X145413247Y-85537873D01*
X145268852Y-85441391D01*
X145080494Y-85363370D01*
X144880535Y-85323596D01*
X144676657Y-85323596D01*
X144476698Y-85363370D01*
X144288340Y-85441391D01*
X144118822Y-85554659D01*
X143974659Y-85698822D01*
X143861391Y-85868340D01*
X143783370Y-86056698D01*
X143743596Y-86256657D01*
X143743596Y-86460535D01*
X143783370Y-86660494D01*
X143861391Y-86848852D01*
X143892202Y-86894964D01*
X143889315Y-86924281D01*
X143893596Y-86967750D01*
X143893596Y-86967757D01*
X143903646Y-87069800D01*
X143906401Y-87097771D01*
X143914349Y-87123970D01*
X143957007Y-87264593D01*
X144039185Y-87418339D01*
X144149779Y-87553098D01*
X144183552Y-87580815D01*
X145625043Y-89022307D01*
X145625043Y-89121440D01*
X142188557Y-85684955D01*
X142160840Y-85651182D01*
X142026082Y-85540588D01*
X141872336Y-85458410D01*
X141705513Y-85407804D01*
X141575500Y-85394999D01*
X141575492Y-85394999D01*
X141532023Y-85390718D01*
X141488554Y-85394999D01*
X138304607Y-85394999D01*
X139789803Y-83909803D01*
X139805597Y-83890557D01*
X139817333Y-83868601D01*
X139824560Y-83844776D01*
X139827000Y-83820000D01*
X139827000Y-67310000D01*
X139824560Y-67285224D01*
X139817333Y-67261399D01*
X139805597Y-67239443D01*
X139789803Y-67220197D01*
X138541778Y-65972172D01*
X138599502Y-65864180D01*
X138621513Y-65791620D01*
X138753368Y-65923475D01*
X138996589Y-66085990D01*
X139266842Y-66197932D01*
X139553740Y-66255000D01*
X139846260Y-66255000D01*
X140133158Y-66197932D01*
X140403411Y-66085990D01*
X140646632Y-65923475D01*
X140853475Y-65716632D01*
X140970000Y-65542240D01*
X141086525Y-65716632D01*
X141293368Y-65923475D01*
X141467760Y-66040000D01*
X141293368Y-66156525D01*
X141086525Y-66363368D01*
X140924010Y-66606589D01*
X140812068Y-66876842D01*
X140755000Y-67163740D01*
X140755000Y-67456260D01*
X140812068Y-67743158D01*
X140924010Y-68013411D01*
X141086525Y-68256632D01*
X141218380Y-68388487D01*
X141145820Y-68410498D01*
X141035506Y-68469463D01*
X140938815Y-68548815D01*
X140859463Y-68645506D01*
X140800498Y-68755820D01*
X140764188Y-68875518D01*
X140751928Y-69000000D01*
X140751928Y-70700000D01*
X140764188Y-70824482D01*
X140800498Y-70944180D01*
X140859463Y-71054494D01*
X140938815Y-71151185D01*
X141035506Y-71230537D01*
X141145820Y-71289502D01*
X141265518Y-71325812D01*
X141390000Y-71338072D01*
X143090000Y-71338072D01*
X143214482Y-71325812D01*
X143334180Y-71289502D01*
X143444494Y-71230537D01*
X143541185Y-71151185D01*
X143620537Y-71054494D01*
X143679502Y-70944180D01*
X143715812Y-70824482D01*
X143725518Y-70725935D01*
X143763490Y-70722195D01*
X143930313Y-70671589D01*
X144084059Y-70589411D01*
X144218817Y-70478817D01*
X144329411Y-70344059D01*
X144411589Y-70190313D01*
X144462195Y-70023490D01*
X144479282Y-69850000D01*
X144474999Y-69806514D01*
X144475001Y-67596577D01*
X149653348Y-62418230D01*
X149702068Y-62663158D01*
G36*
X142095447Y-88095001D02*
G01*
X122064742Y-88095001D01*
X122077932Y-88063158D01*
X122135000Y-87776260D01*
X122135000Y-87483740D01*
X122077932Y-87196842D01*
X122064742Y-87164999D01*
X141165445Y-87164999D01*
X142095447Y-88095001D01*
G37*
X142095447Y-88095001D02*
X122064742Y-88095001D01*
X122077932Y-88063158D01*
X122135000Y-87776260D01*
X122135000Y-87483740D01*
X122077932Y-87196842D01*
X122064742Y-87164999D01*
X141165445Y-87164999D01*
X142095447Y-88095001D01*
G36*
X111541928Y-88095001D02*
G01*
X101744742Y-88095001D01*
X101757932Y-88063158D01*
X101815000Y-87776260D01*
X101815000Y-87483740D01*
X101800539Y-87411040D01*
X102046580Y-87164999D01*
X111541928Y-87164999D01*
X111541928Y-88095001D01*
G37*
X111541928Y-88095001D02*
X101744742Y-88095001D01*
X101757932Y-88063158D01*
X101815000Y-87776260D01*
X101815000Y-87483740D01*
X101800539Y-87411040D01*
X102046580Y-87164999D01*
X111541928Y-87164999D01*
X111541928Y-88095001D01*
G36*
X96636525Y-86683368D02*
G01*
X96520000Y-86857760D01*
X96403475Y-86683368D01*
X96207107Y-86487000D01*
X96832893Y-86487000D01*
X96636525Y-86683368D01*
G37*
X96636525Y-86683368D02*
X96520000Y-86857760D01*
X96403475Y-86683368D01*
X96207107Y-86487000D01*
X96832893Y-86487000D01*
X96636525Y-86683368D01*
G36*
X99176525Y-86683368D02*
G01*
X99060000Y-86857760D01*
X98943475Y-86683368D01*
X98747107Y-86487000D01*
X99372893Y-86487000D01*
X99176525Y-86683368D01*
G37*
X99176525Y-86683368D02*
X99060000Y-86857760D01*
X98943475Y-86683368D01*
X98747107Y-86487000D01*
X99372893Y-86487000D01*
X99176525Y-86683368D01*
G36*
X94171513Y-86608380D02*
G01*
X94149502Y-86535820D01*
X94123407Y-86487000D01*
X94292893Y-86487000D01*
X94171513Y-86608380D01*
G37*
X94171513Y-86608380D02*
X94149502Y-86535820D01*
X94123407Y-86487000D01*
X94292893Y-86487000D01*
X94171513Y-86608380D01*
G36*
X155175000Y-67349802D02*
G01*
X155175000Y-67411939D01*
X155214774Y-67611898D01*
X155292795Y-67800256D01*
X155305987Y-67820000D01*
X152526103Y-67820000D01*
X152557932Y-67743158D01*
X152615000Y-67456260D01*
X152615000Y-67163740D01*
X152557932Y-66876842D01*
X152526103Y-66800000D01*
X154625199Y-66800000D01*
X155175000Y-67349802D01*
G37*
X155175000Y-67349802D02*
X155175000Y-67411939D01*
X155214774Y-67611898D01*
X155292795Y-67800256D01*
X155305987Y-67820000D01*
X152526103Y-67820000D01*
X152557932Y-67743158D01*
X152615000Y-67456260D01*
X152615000Y-67163740D01*
X152557932Y-66876842D01*
X152526103Y-66800000D01*
X154625199Y-66800000D01*
X155175000Y-67349802D01*
G36*
X149702068Y-66876842D02*
G01*
X149645000Y-67163740D01*
X149645000Y-67287391D01*
X149626404Y-67268795D01*
X149626404Y-67206657D01*
X149586630Y-67006698D01*
X149508609Y-66818340D01*
X149496355Y-66800000D01*
X149733897Y-66800000D01*
X149702068Y-66876842D01*
G37*
X149702068Y-66876842D02*
X149645000Y-67163740D01*
X149645000Y-67287391D01*
X149626404Y-67268795D01*
X149626404Y-67206657D01*
X149586630Y-67006698D01*
X149508609Y-66818340D01*
X149496355Y-66800000D01*
X149733897Y-66800000D01*
X149702068Y-66876842D01*
G36*
X114416525Y-65716632D02*
G01*
X114612893Y-65913000D01*
X113987107Y-65913000D01*
X114183475Y-65716632D01*
X114300000Y-65542240D01*
X114416525Y-65716632D01*
G37*
X114416525Y-65716632D02*
X114612893Y-65913000D01*
X113987107Y-65913000D01*
X114183475Y-65716632D01*
X114300000Y-65542240D01*
X114416525Y-65716632D01*
G36*
X97906525Y-65716632D02*
G01*
X98102893Y-65913000D01*
X97477107Y-65913000D01*
X97673475Y-65716632D01*
X97790000Y-65542240D01*
X97906525Y-65716632D01*
G37*
X97906525Y-65716632D02*
X98102893Y-65913000D01*
X97477107Y-65913000D01*
X97673475Y-65716632D01*
X97790000Y-65542240D01*
X97906525Y-65716632D01*
G36*
X100446525Y-65716632D02*
G01*
X100642893Y-65913000D01*
X100017107Y-65913000D01*
X100213475Y-65716632D01*
X100330000Y-65542240D01*
X100446525Y-65716632D01*
G37*
X100446525Y-65716632D02*
X100642893Y-65913000D01*
X100017107Y-65913000D01*
X100213475Y-65716632D01*
X100330000Y-65542240D01*
X100446525Y-65716632D01*
G36*
X110726494Y-63281928D02*
G01*
X109640000Y-63281928D01*
X109515518Y-63294188D01*
X109395820Y-63330498D01*
X109285506Y-63389463D01*
X109188815Y-63468815D01*
X109109463Y-63565506D01*
X109050498Y-63675820D01*
X109014188Y-63795518D01*
X109001928Y-63920000D01*
X109001928Y-65620000D01*
X109014188Y-65744482D01*
X109050498Y-65864180D01*
X109076593Y-65913000D01*
X102557107Y-65913000D01*
X102753475Y-65716632D01*
X102915990Y-65473411D01*
X103027932Y-65203158D01*
X103085000Y-64916260D01*
X103085000Y-64623740D01*
X103070539Y-64551040D01*
X103106531Y-64515048D01*
X103106536Y-64515042D01*
X108396580Y-59224999D01*
X114783422Y-59224999D01*
X110726494Y-63281928D01*
G37*
X110726494Y-63281928D02*
X109640000Y-63281928D01*
X109515518Y-63294188D01*
X109395820Y-63330498D01*
X109285506Y-63389463D01*
X109188815Y-63468815D01*
X109109463Y-63565506D01*
X109050498Y-63675820D01*
X109014188Y-63795518D01*
X109001928Y-63920000D01*
X109001928Y-65620000D01*
X109014188Y-65744482D01*
X109050498Y-65864180D01*
X109076593Y-65913000D01*
X102557107Y-65913000D01*
X102753475Y-65716632D01*
X102915990Y-65473411D01*
X103027932Y-65203158D01*
X103085000Y-64916260D01*
X103085000Y-64623740D01*
X103070539Y-64551040D01*
X103106531Y-64515048D01*
X103106536Y-64515042D01*
X108396580Y-59224999D01*
X114783422Y-59224999D01*
X110726494Y-63281928D01*
G36*
X112072893Y-65913000D02*
G01*
X111903407Y-65913000D01*
X111929502Y-65864180D01*
X111951513Y-65791620D01*
X112072893Y-65913000D01*
G37*
X112072893Y-65913000D02*
X111903407Y-65913000D01*
X111929502Y-65864180D01*
X111951513Y-65791620D01*
X112072893Y-65913000D01*
G36*
X95562893Y-65913000D02*
G01*
X95393407Y-65913000D01*
X95419502Y-65864180D01*
X95441513Y-65791620D01*
X95562893Y-65913000D01*
G37*
X95562893Y-65913000D02*
X95393407Y-65913000D01*
X95419502Y-65864180D01*
X95441513Y-65791620D01*
X95562893Y-65913000D01*
G36*
X116956525Y-65716632D02*
G01*
X117152893Y-65913000D01*
X116527107Y-65913000D01*
X116723475Y-65716632D01*
X116840000Y-65542240D01*
X116956525Y-65716632D01*
G37*
X116956525Y-65716632D02*
X117152893Y-65913000D01*
X116527107Y-65913000D01*
X116723475Y-65716632D01*
X116840000Y-65542240D01*
X116956525Y-65716632D01*
G36*
X114560756Y-55204966D02*
G01*
X102703503Y-55204966D01*
X102660034Y-55200685D01*
X102616565Y-55204966D01*
X102616557Y-55204966D01*
X102486544Y-55217771D01*
X102319721Y-55268377D01*
X102165975Y-55350555D01*
X102064987Y-55433434D01*
X102064985Y-55433436D01*
X102031217Y-55461149D01*
X102003504Y-55494917D01*
X94216494Y-63281928D01*
X93130000Y-63281928D01*
X93005518Y-63294188D01*
X92885820Y-63330498D01*
X92775506Y-63389463D01*
X92678815Y-63468815D01*
X92599463Y-63565506D01*
X92540498Y-63675820D01*
X92504188Y-63795518D01*
X92491928Y-63920000D01*
X92491928Y-65620000D01*
X92504188Y-65744482D01*
X92540498Y-65864180D01*
X92566593Y-65913000D01*
X91492606Y-65913000D01*
X90297000Y-64717394D01*
X90297000Y-53392606D01*
X91492606Y-52197000D01*
X117568721Y-52197000D01*
X114560756Y-55204966D01*
G37*
X114560756Y-55204966D02*
X102703503Y-55204966D01*
X102660034Y-55200685D01*
X102616565Y-55204966D01*
X102616557Y-55204966D01*
X102486544Y-55217771D01*
X102319721Y-55268377D01*
X102165975Y-55350555D01*
X102064987Y-55433434D01*
X102064985Y-55433436D01*
X102031217Y-55461149D01*
X102003504Y-55494917D01*
X94216494Y-63281928D01*
X93130000Y-63281928D01*
X93005518Y-63294188D01*
X92885820Y-63330498D01*
X92775506Y-63389463D01*
X92678815Y-63468815D01*
X92599463Y-63565506D01*
X92540498Y-63675820D01*
X92504188Y-63795518D01*
X92491928Y-63920000D01*
X92491928Y-65620000D01*
X92504188Y-65744482D01*
X92540498Y-65864180D01*
X92566593Y-65913000D01*
X91492606Y-65913000D01*
X90297000Y-64717394D01*
X90297000Y-53392606D01*
X91492606Y-52197000D01*
X117568721Y-52197000D01*
X114560756Y-55204966D01*
G36*
X148157793Y-58557845D02*
G01*
X148140707Y-58731335D01*
X148144989Y-58774814D01*
X148144988Y-60153433D01*
X143716652Y-64581770D01*
X143667932Y-64336842D01*
X143555990Y-64066589D01*
X143393475Y-63823368D01*
X143186632Y-63616525D01*
X143012240Y-63500000D01*
X143186632Y-63383475D01*
X143393475Y-63176632D01*
X143555990Y-62933411D01*
X143667932Y-62663158D01*
X143725000Y-62376260D01*
X143725000Y-62083740D01*
X143667932Y-61796842D01*
X143555990Y-61526589D01*
X143393475Y-61283368D01*
X143186632Y-61076525D01*
X142943411Y-60914010D01*
X142673158Y-60802068D01*
X142386260Y-60745000D01*
X142093740Y-60745000D01*
X141806842Y-60802068D01*
X141536589Y-60914010D01*
X141293368Y-61076525D01*
X141086525Y-61283368D01*
X140924010Y-61526589D01*
X140812068Y-61796842D01*
X140755000Y-62083740D01*
X140755000Y-62376260D01*
X140812068Y-62663158D01*
X140924010Y-62933411D01*
X141086525Y-63176632D01*
X141293368Y-63383475D01*
X141467760Y-63500000D01*
X141293368Y-63616525D01*
X141086525Y-63823368D01*
X140970000Y-63997760D01*
X140853475Y-63823368D01*
X140646632Y-63616525D01*
X140403411Y-63454010D01*
X140133158Y-63342068D01*
X139846260Y-63285000D01*
X139553740Y-63285000D01*
X139266842Y-63342068D01*
X138996589Y-63454010D01*
X138753368Y-63616525D01*
X138621513Y-63748380D01*
X138599502Y-63675820D01*
X138540537Y-63565506D01*
X138461185Y-63468815D01*
X138364494Y-63389463D01*
X138254180Y-63330498D01*
X138134482Y-63294188D01*
X138010000Y-63281928D01*
X136310000Y-63281928D01*
X136185518Y-63294188D01*
X136065820Y-63330498D01*
X135955506Y-63389463D01*
X135858815Y-63468815D01*
X135779463Y-63565506D01*
X135720498Y-63675820D01*
X135684188Y-63795518D01*
X135671928Y-63920000D01*
X135671928Y-65620000D01*
X135684188Y-65744482D01*
X135720498Y-65864180D01*
X135746593Y-65913000D01*
X119067107Y-65913000D01*
X119263475Y-65716632D01*
X119425990Y-65473411D01*
X119537932Y-65203158D01*
X119595000Y-64916260D01*
X119595000Y-64623740D01*
X119580539Y-64551040D01*
X119616531Y-64515048D01*
X119616536Y-64515042D01*
X125656591Y-58474988D01*
X148182928Y-58474988D01*
X148157793Y-58557845D01*
G37*
X148157793Y-58557845D02*
X148140707Y-58731335D01*
X148144989Y-58774814D01*
X148144988Y-60153433D01*
X143716652Y-64581770D01*
X143667932Y-64336842D01*
X143555990Y-64066589D01*
X143393475Y-63823368D01*
X143186632Y-63616525D01*
X143012240Y-63500000D01*
X143186632Y-63383475D01*
X143393475Y-63176632D01*
X143555990Y-62933411D01*
X143667932Y-62663158D01*
X143725000Y-62376260D01*
X143725000Y-62083740D01*
X143667932Y-61796842D01*
X143555990Y-61526589D01*
X143393475Y-61283368D01*
X143186632Y-61076525D01*
X142943411Y-60914010D01*
X142673158Y-60802068D01*
X142386260Y-60745000D01*
X142093740Y-60745000D01*
X141806842Y-60802068D01*
X141536589Y-60914010D01*
X141293368Y-61076525D01*
X141086525Y-61283368D01*
X140924010Y-61526589D01*
X140812068Y-61796842D01*
X140755000Y-62083740D01*
X140755000Y-62376260D01*
X140812068Y-62663158D01*
X140924010Y-62933411D01*
X141086525Y-63176632D01*
X141293368Y-63383475D01*
X141467760Y-63500000D01*
X141293368Y-63616525D01*
X141086525Y-63823368D01*
X140970000Y-63997760D01*
X140853475Y-63823368D01*
X140646632Y-63616525D01*
X140403411Y-63454010D01*
X140133158Y-63342068D01*
X139846260Y-63285000D01*
X139553740Y-63285000D01*
X139266842Y-63342068D01*
X138996589Y-63454010D01*
X138753368Y-63616525D01*
X138621513Y-63748380D01*
X138599502Y-63675820D01*
X138540537Y-63565506D01*
X138461185Y-63468815D01*
X138364494Y-63389463D01*
X138254180Y-63330498D01*
X138134482Y-63294188D01*
X138010000Y-63281928D01*
X136310000Y-63281928D01*
X136185518Y-63294188D01*
X136065820Y-63330498D01*
X135955506Y-63389463D01*
X135858815Y-63468815D01*
X135779463Y-63565506D01*
X135720498Y-63675820D01*
X135684188Y-63795518D01*
X135671928Y-63920000D01*
X135671928Y-65620000D01*
X135684188Y-65744482D01*
X135720498Y-65864180D01*
X135746593Y-65913000D01*
X119067107Y-65913000D01*
X119263475Y-65716632D01*
X119425990Y-65473411D01*
X119537932Y-65203158D01*
X119595000Y-64916260D01*
X119595000Y-64623740D01*
X119580539Y-64551040D01*
X119616531Y-64515048D01*
X119616536Y-64515042D01*
X125656591Y-58474988D01*
X148182928Y-58474988D01*
X148157793Y-58557845D01*
G36*
X154055001Y-61868578D02*
G01*
X154055000Y-64726531D01*
X154050719Y-64770000D01*
X154055000Y-64813469D01*
X154055000Y-64813476D01*
X154064250Y-64907396D01*
X154067805Y-64943490D01*
X154083157Y-64994096D01*
X154118411Y-65110312D01*
X154200589Y-65264058D01*
X154213672Y-65280000D01*
X152526103Y-65280000D01*
X152557932Y-65203158D01*
X152615000Y-64916260D01*
X152615000Y-64623740D01*
X152557932Y-64336842D01*
X152445990Y-64066589D01*
X152283475Y-63823368D01*
X152076632Y-63616525D01*
X151902240Y-63500000D01*
X152076632Y-63383475D01*
X152283475Y-63176632D01*
X152445990Y-62933411D01*
X152557932Y-62663158D01*
X152615000Y-62376260D01*
X152615000Y-62083740D01*
X152557932Y-61796842D01*
X152445990Y-61526589D01*
X152283475Y-61283368D01*
X152076632Y-61076525D01*
X151902240Y-60960000D01*
X152076632Y-60843475D01*
X152283475Y-60636632D01*
X152445990Y-60393411D01*
X152485192Y-60298768D01*
X154055001Y-61868578D01*
G37*
X154055001Y-61868578D02*
X154055000Y-64726531D01*
X154050719Y-64770000D01*
X154055000Y-64813469D01*
X154055000Y-64813476D01*
X154064250Y-64907396D01*
X154067805Y-64943490D01*
X154083157Y-64994096D01*
X154118411Y-65110312D01*
X154200589Y-65264058D01*
X154213672Y-65280000D01*
X152526103Y-65280000D01*
X152557932Y-65203158D01*
X152615000Y-64916260D01*
X152615000Y-64623740D01*
X152557932Y-64336842D01*
X152445990Y-64066589D01*
X152283475Y-63823368D01*
X152076632Y-63616525D01*
X151902240Y-63500000D01*
X152076632Y-63383475D01*
X152283475Y-63176632D01*
X152445990Y-62933411D01*
X152557932Y-62663158D01*
X152615000Y-62376260D01*
X152615000Y-62083740D01*
X152557932Y-61796842D01*
X152445990Y-61526589D01*
X152283475Y-61283368D01*
X152076632Y-61076525D01*
X151902240Y-60960000D01*
X152076632Y-60843475D01*
X152283475Y-60636632D01*
X152445990Y-60393411D01*
X152485192Y-60298768D01*
X154055001Y-61868578D01*
G36*
X118364958Y-63263464D02*
G01*
X118364952Y-63263469D01*
X118328960Y-63299461D01*
X118298230Y-63293348D01*
X123866602Y-57724977D01*
X123903444Y-57724977D01*
X118364958Y-63263464D01*
G37*
X118364958Y-63263464D02*
X118364952Y-63263469D01*
X118328960Y-63299461D01*
X118298230Y-63293348D01*
X123866602Y-57724977D01*
X123903444Y-57724977D01*
X118364958Y-63263464D01*
G36*
X99314958Y-63263464D02*
G01*
X99314952Y-63263469D01*
X99278960Y-63299461D01*
X99248230Y-63293348D01*
X104816602Y-57724977D01*
X104853444Y-57724977D01*
X99314958Y-63263464D01*
G37*
X99314958Y-63263464D02*
X99314952Y-63263469D01*
X99278960Y-63299461D01*
X99248230Y-63293348D01*
X104816602Y-57724977D01*
X104853444Y-57724977D01*
X99314958Y-63263464D01*
G36*
X115824958Y-63263464D02*
G01*
X115824952Y-63263469D01*
X115788960Y-63299461D01*
X115758230Y-63293348D01*
X122076613Y-56974966D01*
X122113455Y-56974966D01*
X115824958Y-63263464D01*
G37*
X115824958Y-63263464D02*
X115824952Y-63263469D01*
X115788960Y-63299461D01*
X115758230Y-63293348D01*
X122076613Y-56974966D01*
X122113455Y-56974966D01*
X115824958Y-63263464D01*
G36*
X113284958Y-63263464D02*
G01*
X113284952Y-63263469D01*
X113248960Y-63299461D01*
X113218230Y-63293348D01*
X120286624Y-56224955D01*
X120323466Y-56224955D01*
X113284958Y-63263464D01*
G37*
X113284958Y-63263464D02*
X113284952Y-63263469D01*
X113248960Y-63299461D01*
X113218230Y-63293348D01*
X120286624Y-56224955D01*
X120323466Y-56224955D01*
X113284958Y-63263464D01*
G36*
X96774958Y-63263464D02*
G01*
X96774952Y-63263469D01*
X96738960Y-63299461D01*
X96708230Y-63293348D01*
X103026613Y-56974966D01*
X103063455Y-56974966D01*
X96774958Y-63263464D01*
G37*
X96774958Y-63263464D02*
X96774952Y-63263469D01*
X96738960Y-63299461D01*
X96708230Y-63293348D01*
X103026613Y-56974966D01*
X103063455Y-56974966D01*
X96774958Y-63263464D01*
G36*
X101854958Y-63263464D02*
G01*
X101854952Y-63263469D01*
X101818960Y-63299461D01*
X101788230Y-63293348D01*
X106606591Y-58474988D01*
X106643433Y-58474988D01*
X101854958Y-63263464D01*
G37*
X101854958Y-63263464D02*
X101854952Y-63263469D01*
X101818960Y-63299461D01*
X101788230Y-63293348D01*
X106606591Y-58474988D01*
X106643433Y-58474988D01*
X101854958Y-63263464D01*
G36*
X166116510Y-61832195D02*
G01*
X166246523Y-61845000D01*
X166246533Y-61845000D01*
X166289999Y-61849281D01*
X166333465Y-61845000D01*
X169807806Y-61845000D01*
X170442061Y-62479256D01*
X170453370Y-62536110D01*
X170486048Y-62615000D01*
X166850656Y-62615000D01*
X166046663Y-61811007D01*
X166116510Y-61832195D01*
G37*
X166116510Y-61832195D02*
X166246523Y-61845000D01*
X166246533Y-61845000D01*
X166289999Y-61849281D01*
X166333465Y-61845000D01*
X169807806Y-61845000D01*
X170442061Y-62479256D01*
X170453370Y-62536110D01*
X170486048Y-62615000D01*
X166850656Y-62615000D01*
X166046663Y-61811007D01*
X166116510Y-61832195D01*
G36*
X166693368Y-59573475D02*
G01*
X166936589Y-59735990D01*
X167206842Y-59847932D01*
X167493740Y-59905000D01*
X167786260Y-59905000D01*
X167858960Y-59890539D01*
X168043421Y-60075000D01*
X166656579Y-60075000D01*
X166347127Y-59765549D01*
X166401185Y-59721185D01*
X166480537Y-59624494D01*
X166539502Y-59514180D01*
X166561513Y-59441620D01*
X166693368Y-59573475D01*
G37*
X166693368Y-59573475D02*
X166936589Y-59735990D01*
X167206842Y-59847932D01*
X167493740Y-59905000D01*
X167786260Y-59905000D01*
X167858960Y-59890539D01*
X168043421Y-60075000D01*
X166656579Y-60075000D01*
X166347127Y-59765549D01*
X166401185Y-59721185D01*
X166480537Y-59624494D01*
X166539502Y-59514180D01*
X166561513Y-59441620D01*
X166693368Y-59573475D01*
G36*
X164224065Y-59905518D02*
G01*
X164227805Y-59943490D01*
X164248994Y-60013338D01*
X164132118Y-59896462D01*
X164224065Y-59905518D01*
G37*
X164224065Y-59905518D02*
X164227805Y-59943490D01*
X164248994Y-60013338D01*
X164132118Y-59896462D01*
X164224065Y-59905518D01*
M02*
