M48
; DRILL file {KiCad 5.1.5+dfsg1-2build2} date Sa 05 Sep 2020 16:32:50 CEST
; FORMAT={-:-/ absolute / inch / decimal}
; #@! TF.CreationDate,2020-09-05T16:32:50+02:00
; #@! TF.GenerationSoftware,Kicad,Pcbnew,5.1.5+dfsg1-2build2
; #@! TF.FileFunction,Plated,1,2,PTH
FMAT,2
INCH
T1C0.0157
T2C0.0299
T3C0.0394
%
G90
G05
T1
X3.55Y-4.45
X3.65Y-4.45
X5.6999Y-3.3999
X5.75Y-3.3999
X5.8001Y-3.3998
X5.85Y-2.7
X5.85Y-3.4
X5.8501Y-2.6499
X6.1Y-3.95
X6.15Y-2.6
X6.15Y-2.65
X6.15Y-2.7
X6.15Y-3.9
X6.15Y-4.1
X6.1501Y-2.5499
X6.2Y-4.1
X6.2Y-3.8501
X6.25Y-4.1
X6.2501Y-3.7999
X6.3Y-3.75
X6.3Y-4.1
X6.7499Y-2.4502
X6.7998Y-2.4499
X6.8499Y-2.45
X6.9Y-2.45
X7.15Y-2.5
X7.15Y-2.55
X7.15Y-2.6
X7.15Y-2.65
X7.15Y-3.1
X7.15Y-3.15
X7.15Y-3.2
X7.15Y-3.25
X7.15Y-4.25
X7.15Y-4.3
X7.15Y-4.35
X7.1501Y-3.7001
X7.1501Y-3.7501
X7.1501Y-3.8001
X7.1501Y-3.8501
X7.1501Y-4.3999
X7.1501Y-4.4499
T2
X7.35Y-3.65
X7.35Y-3.75
X7.35Y-3.85
X7.45Y-3.6
X7.45Y-3.7
X7.45Y-3.8
X7.35Y-4.25
X7.35Y-4.35
X7.35Y-4.45
X7.45Y-4.2
X7.45Y-4.3
X7.45Y-4.4
X7.35Y-3.05
X7.35Y-3.15
X7.35Y-3.25
X7.45Y-3.0
X7.45Y-3.1
X7.45Y-3.2
X7.35Y-2.45
X7.35Y-2.55
X7.35Y-2.65
X7.45Y-2.4
X7.45Y-2.5
X7.45Y-2.6
T3
X4.05Y-4.35
X4.05Y-4.45
X4.05Y-4.55
X3.65Y-3.45
X3.75Y-3.45
X3.85Y-3.45
X3.95Y-3.45
X5.6Y-2.45
X5.6Y-2.55
X5.6Y-2.65
X5.6Y-2.75
X6.5Y-4.5
X6.6Y-4.5
X6.7Y-4.5
X6.8Y-4.5
X4.45Y-3.45
X4.55Y-3.45
X4.65Y-3.45
X4.75Y-3.45
X6.5Y-2.3
X6.6Y-2.3
X6.7Y-2.3
X6.8Y-2.3
X3.95Y-4.35
X3.95Y-4.45
X3.95Y-4.55
X3.85Y-4.35
X3.85Y-4.45
X3.85Y-4.55
X5.4Y-2.55
X5.5Y-2.55
X4.35Y-4.45
X4.35Y-4.55
X4.45Y-4.45
X4.45Y-4.55
X4.55Y-4.45
X4.55Y-4.55
X4.65Y-4.45
X4.65Y-4.55
X3.7Y-2.55
X3.8Y-2.55
X3.9Y-2.55
X4.0Y-2.55
X5.95Y-2.35
X5.95Y-2.45
X5.95Y-2.55
X5.95Y-2.65
X5.95Y-2.75
X5.95Y-2.85
X5.95Y-2.95
X5.95Y-3.05
X5.95Y-3.15
X5.95Y-3.25
X5.95Y-3.35
X5.95Y-3.45
X5.95Y-3.55
X5.95Y-3.65
X5.95Y-3.75
X5.95Y-3.85
X5.95Y-3.95
X5.95Y-4.05
X6.5Y-2.15
X6.6Y-2.15
X6.7Y-2.15
X6.8Y-2.15
X4.35Y-2.55
X4.45Y-2.55
X4.55Y-2.55
X4.65Y-2.55
X4.95Y-4.45
X4.95Y-4.55
X5.05Y-4.45
X5.05Y-4.55
X5.15Y-4.45
X5.15Y-4.55
X5.25Y-4.45
X5.25Y-4.55
X5.35Y-4.45
X5.35Y-4.55
X3.75Y-4.35
X3.75Y-4.45
X3.75Y-4.55
X5.55Y-3.9508
X5.55Y-4.25
X5.65Y-4.45
X5.65Y-4.55
X5.75Y-4.45
X5.75Y-4.55
X5.85Y-4.45
X5.85Y-4.55
X5.95Y-4.45
X5.95Y-4.55
T3
G00X7.589Y-4.3409
M15
G01X7.589Y-4.3016
M16
G05
G00X7.8055Y-4.3409
M15
G01X7.8055Y-4.3016
M16
G05
G00X7.9Y-4.4197
M15
G01X7.9Y-4.3803
M16
G05
G00X7.589Y-3.7409
M15
G01X7.589Y-3.7016
M16
G05
G00X7.8055Y-3.7409
M15
G01X7.8055Y-3.7016
M16
G05
G00X7.9Y-3.8197
M15
G01X7.9Y-3.7803
M16
G05
T0
M30
