G04 #@! TF.GenerationSoftware,KiCad,Pcbnew,5.1.5+dfsg1-2build2*
G04 #@! TF.CreationDate,2020-09-05T16:32:43+02:00*
G04 #@! TF.ProjectId,onstep-ramps-shield,6f6e7374-6570-42d7-9261-6d70732d7368,1*
G04 #@! TF.SameCoordinates,Original*
G04 #@! TF.FileFunction,Legend,Top*
G04 #@! TF.FilePolarity,Positive*
%FSLAX46Y46*%
G04 Gerber Fmt 4.6, Leading zero omitted, Abs format (unit mm)*
G04 Created by KiCad (PCBNEW 5.1.5+dfsg1-2build2) date 2020-09-05 16:32:43*
%MOMM*%
%LPD*%
G04 APERTURE LIST*
%ADD10C,0.120000*%
%ADD11C,0.100000*%
%ADD12C,0.150000*%
%ADD13O,1.700000X1.700000*%
%ADD14R,1.700000X1.700000*%
%ADD15C,0.152400*%
%ADD16R,1.520000X1.520000*%
%ADD17C,3.250000*%
%ADD18C,1.520000*%
%ADD19O,1.800000X2.800000*%
%ADD20C,2.000000*%
%ADD21R,2.000000X2.000000*%
G04 APERTURE END LIST*
D10*
X93220000Y-115346267D02*
X93220000Y-115003733D01*
X92200000Y-115346267D02*
X92200000Y-115003733D01*
X90680000Y-115346267D02*
X90680000Y-115003733D01*
X89660000Y-115346267D02*
X89660000Y-115003733D01*
X107190000Y-115346267D02*
X107190000Y-115003733D01*
X106170000Y-115346267D02*
X106170000Y-115003733D01*
X93445000Y-112545000D02*
X93445000Y-110085000D01*
X91975000Y-112545000D02*
X93445000Y-112545000D01*
X91975000Y-110085000D02*
X91975000Y-112545000D01*
X90905000Y-112545000D02*
X90905000Y-110085000D01*
X89435000Y-112545000D02*
X90905000Y-112545000D01*
X89435000Y-110085000D02*
X89435000Y-112545000D01*
X163770000Y-54610000D02*
X163770000Y-53280000D01*
X163770000Y-53280000D02*
X165100000Y-53280000D01*
X166370000Y-53280000D02*
X174050000Y-53280000D01*
X174050000Y-55940000D02*
X174050000Y-53280000D01*
X166370000Y-55940000D02*
X174050000Y-55940000D01*
X166370000Y-55940000D02*
X166370000Y-53280000D01*
X185460000Y-116460000D02*
X185460000Y-103260000D01*
X185460000Y-103260000D02*
X194480000Y-103260000D01*
D11*
X203340000Y-103260000D02*
X203460000Y-103260000D01*
D10*
X203460000Y-103260000D02*
X196680000Y-103260000D01*
D11*
X203450000Y-103260000D02*
X203460000Y-103260000D01*
D10*
X203460000Y-103260000D02*
X203460000Y-116460000D01*
X203460000Y-116460000D02*
X196680000Y-116460000D01*
D11*
X194410000Y-116460000D02*
X194480000Y-116460000D01*
D10*
X194480000Y-116460000D02*
X185460000Y-116460000D01*
X187460000Y-116930000D02*
X185930000Y-116930000D01*
X185460000Y-85980000D02*
X185460000Y-72780000D01*
X185460000Y-72780000D02*
X194480000Y-72780000D01*
D11*
X203340000Y-72780000D02*
X203460000Y-72780000D01*
D10*
X203460000Y-72780000D02*
X196680000Y-72780000D01*
D11*
X203450000Y-72780000D02*
X203460000Y-72780000D01*
D10*
X203460000Y-72780000D02*
X203460000Y-85980000D01*
X203460000Y-85980000D02*
X196680000Y-85980000D01*
D11*
X194410000Y-85980000D02*
X194480000Y-85980000D01*
D10*
X194480000Y-85980000D02*
X185460000Y-85980000D01*
X187460000Y-86450000D02*
X185930000Y-86450000D01*
X185460000Y-70740000D02*
X185460000Y-57540000D01*
X185460000Y-57540000D02*
X194480000Y-57540000D01*
D11*
X203340000Y-57540000D02*
X203460000Y-57540000D01*
D10*
X203460000Y-57540000D02*
X196680000Y-57540000D01*
D11*
X203450000Y-57540000D02*
X203460000Y-57540000D01*
D10*
X203460000Y-57540000D02*
X203460000Y-70740000D01*
X203460000Y-70740000D02*
X196680000Y-70740000D01*
D11*
X194410000Y-70740000D02*
X194480000Y-70740000D01*
D10*
X194480000Y-70740000D02*
X185460000Y-70740000D01*
X187460000Y-71210000D02*
X185930000Y-71210000D01*
X185460000Y-101220000D02*
X185460000Y-88020000D01*
X185460000Y-88020000D02*
X194480000Y-88020000D01*
D11*
X203340000Y-88020000D02*
X203460000Y-88020000D01*
D10*
X203460000Y-88020000D02*
X196680000Y-88020000D01*
D11*
X203450000Y-88020000D02*
X203460000Y-88020000D01*
D10*
X203460000Y-88020000D02*
X203460000Y-101220000D01*
X203460000Y-101220000D02*
X196680000Y-101220000D01*
D11*
X194410000Y-101220000D02*
X194480000Y-101220000D01*
D10*
X194480000Y-101220000D02*
X185460000Y-101220000D01*
X187460000Y-101690000D02*
X185930000Y-101690000D01*
X147070000Y-104150000D02*
G75*
G03X147070000Y-104150000I-6100000J0D01*
G01*
D12*
X93813333Y-117292380D02*
X93480000Y-116816190D01*
X93241904Y-117292380D02*
X93241904Y-116292380D01*
X93622857Y-116292380D01*
X93718095Y-116340000D01*
X93765714Y-116387619D01*
X93813333Y-116482857D01*
X93813333Y-116625714D01*
X93765714Y-116720952D01*
X93718095Y-116768571D01*
X93622857Y-116816190D01*
X93241904Y-116816190D01*
X94146666Y-116292380D02*
X94765714Y-116292380D01*
X94432380Y-116673333D01*
X94575238Y-116673333D01*
X94670476Y-116720952D01*
X94718095Y-116768571D01*
X94765714Y-116863809D01*
X94765714Y-117101904D01*
X94718095Y-117197142D01*
X94670476Y-117244761D01*
X94575238Y-117292380D01*
X94289523Y-117292380D01*
X94194285Y-117244761D01*
X94146666Y-117197142D01*
X91273333Y-117292380D02*
X90940000Y-116816190D01*
X90701904Y-117292380D02*
X90701904Y-116292380D01*
X91082857Y-116292380D01*
X91178095Y-116340000D01*
X91225714Y-116387619D01*
X91273333Y-116482857D01*
X91273333Y-116625714D01*
X91225714Y-116720952D01*
X91178095Y-116768571D01*
X91082857Y-116816190D01*
X90701904Y-116816190D01*
X91654285Y-116387619D02*
X91701904Y-116340000D01*
X91797142Y-116292380D01*
X92035238Y-116292380D01*
X92130476Y-116340000D01*
X92178095Y-116387619D01*
X92225714Y-116482857D01*
X92225714Y-116578095D01*
X92178095Y-116720952D01*
X91606666Y-117292380D01*
X92225714Y-117292380D01*
X105702380Y-115341666D02*
X105226190Y-115675000D01*
X105702380Y-115913095D02*
X104702380Y-115913095D01*
X104702380Y-115532142D01*
X104750000Y-115436904D01*
X104797619Y-115389285D01*
X104892857Y-115341666D01*
X105035714Y-115341666D01*
X105130952Y-115389285D01*
X105178571Y-115436904D01*
X105226190Y-115532142D01*
X105226190Y-115913095D01*
X105702380Y-114389285D02*
X105702380Y-114960714D01*
X105702380Y-114675000D02*
X104702380Y-114675000D01*
X104845238Y-114770238D01*
X104940476Y-114865476D01*
X104988095Y-114960714D01*
X93241904Y-109672380D02*
X93241904Y-108672380D01*
X93480000Y-108672380D01*
X93622857Y-108720000D01*
X93718095Y-108815238D01*
X93765714Y-108910476D01*
X93813333Y-109100952D01*
X93813333Y-109243809D01*
X93765714Y-109434285D01*
X93718095Y-109529523D01*
X93622857Y-109624761D01*
X93480000Y-109672380D01*
X93241904Y-109672380D01*
X94194285Y-108767619D02*
X94241904Y-108720000D01*
X94337142Y-108672380D01*
X94575238Y-108672380D01*
X94670476Y-108720000D01*
X94718095Y-108767619D01*
X94765714Y-108862857D01*
X94765714Y-108958095D01*
X94718095Y-109100952D01*
X94146666Y-109672380D01*
X94765714Y-109672380D01*
X90701904Y-109672380D02*
X90701904Y-108672380D01*
X90940000Y-108672380D01*
X91082857Y-108720000D01*
X91178095Y-108815238D01*
X91225714Y-108910476D01*
X91273333Y-109100952D01*
X91273333Y-109243809D01*
X91225714Y-109434285D01*
X91178095Y-109529523D01*
X91082857Y-109624761D01*
X90940000Y-109672380D01*
X90701904Y-109672380D01*
X92225714Y-109672380D02*
X91654285Y-109672380D01*
X91940000Y-109672380D02*
X91940000Y-108672380D01*
X91844761Y-108815238D01*
X91749523Y-108910476D01*
X91654285Y-108958095D01*
X164155714Y-51522380D02*
X164155714Y-52236666D01*
X164108095Y-52379523D01*
X164012857Y-52474761D01*
X163870000Y-52522380D01*
X163774761Y-52522380D01*
X164393809Y-52617619D02*
X165155714Y-52617619D01*
X165393809Y-52522380D02*
X165393809Y-51522380D01*
X165393809Y-51998571D02*
X165965238Y-51998571D01*
X165965238Y-52522380D02*
X165965238Y-51522380D01*
X167012857Y-52427142D02*
X166965238Y-52474761D01*
X166822380Y-52522380D01*
X166727142Y-52522380D01*
X166584285Y-52474761D01*
X166489047Y-52379523D01*
X166441428Y-52284285D01*
X166393809Y-52093809D01*
X166393809Y-51950952D01*
X166441428Y-51760476D01*
X166489047Y-51665238D01*
X166584285Y-51570000D01*
X166727142Y-51522380D01*
X166822380Y-51522380D01*
X166965238Y-51570000D01*
X167012857Y-51617619D01*
X167631904Y-51522380D02*
X167727142Y-51522380D01*
X167822380Y-51570000D01*
X167870000Y-51617619D01*
X167917619Y-51712857D01*
X167965238Y-51903333D01*
X167965238Y-52141428D01*
X167917619Y-52331904D01*
X167870000Y-52427142D01*
X167822380Y-52474761D01*
X167727142Y-52522380D01*
X167631904Y-52522380D01*
X167536666Y-52474761D01*
X167489047Y-52427142D01*
X167441428Y-52331904D01*
X167393809Y-52141428D01*
X167393809Y-51903333D01*
X167441428Y-51712857D01*
X167489047Y-51617619D01*
X167536666Y-51570000D01*
X167631904Y-51522380D01*
X168870000Y-51522380D02*
X168393809Y-51522380D01*
X168346190Y-51998571D01*
X168393809Y-51950952D01*
X168489047Y-51903333D01*
X168727142Y-51903333D01*
X168822380Y-51950952D01*
X168870000Y-51998571D01*
X168917619Y-52093809D01*
X168917619Y-52331904D01*
X168870000Y-52427142D01*
X168822380Y-52474761D01*
X168727142Y-52522380D01*
X168489047Y-52522380D01*
X168393809Y-52474761D01*
X168346190Y-52427142D01*
X184982380Y-115295238D02*
X184506190Y-115628571D01*
X184982380Y-115866666D02*
X183982380Y-115866666D01*
X183982380Y-115485714D01*
X184030000Y-115390476D01*
X184077619Y-115342857D01*
X184172857Y-115295238D01*
X184315714Y-115295238D01*
X184410952Y-115342857D01*
X184458571Y-115390476D01*
X184506190Y-115485714D01*
X184506190Y-115866666D01*
X184696666Y-114914285D02*
X184696666Y-114438095D01*
X184982380Y-115009523D02*
X183982380Y-114676190D01*
X184982380Y-114342857D01*
X184982380Y-113485714D02*
X184982380Y-114057142D01*
X184982380Y-113771428D02*
X183982380Y-113771428D01*
X184125238Y-113866666D01*
X184220476Y-113961904D01*
X184268095Y-114057142D01*
X184458571Y-85577142D02*
X184458571Y-85910476D01*
X184982380Y-85910476D02*
X183982380Y-85910476D01*
X183982380Y-85434285D01*
X183982380Y-84862857D02*
X183982380Y-84672380D01*
X184030000Y-84577142D01*
X184125238Y-84481904D01*
X184315714Y-84434285D01*
X184649047Y-84434285D01*
X184839523Y-84481904D01*
X184934761Y-84577142D01*
X184982380Y-84672380D01*
X184982380Y-84862857D01*
X184934761Y-84958095D01*
X184839523Y-85053333D01*
X184649047Y-85100952D01*
X184315714Y-85100952D01*
X184125238Y-85053333D01*
X184030000Y-84958095D01*
X183982380Y-84862857D01*
X184887142Y-83434285D02*
X184934761Y-83481904D01*
X184982380Y-83624761D01*
X184982380Y-83720000D01*
X184934761Y-83862857D01*
X184839523Y-83958095D01*
X184744285Y-84005714D01*
X184553809Y-84053333D01*
X184410952Y-84053333D01*
X184220476Y-84005714D01*
X184125238Y-83958095D01*
X184030000Y-83862857D01*
X183982380Y-83720000D01*
X183982380Y-83624761D01*
X184030000Y-83481904D01*
X184077619Y-83434285D01*
X184077619Y-83053333D02*
X184030000Y-83005714D01*
X183982380Y-82910476D01*
X183982380Y-82672380D01*
X184030000Y-82577142D01*
X184077619Y-82529523D01*
X184172857Y-82481904D01*
X184268095Y-82481904D01*
X184410952Y-82529523D01*
X184982380Y-83100952D01*
X184982380Y-82481904D01*
X184458571Y-70337142D02*
X184458571Y-70670476D01*
X184982380Y-70670476D02*
X183982380Y-70670476D01*
X183982380Y-70194285D01*
X183982380Y-69622857D02*
X183982380Y-69432380D01*
X184030000Y-69337142D01*
X184125238Y-69241904D01*
X184315714Y-69194285D01*
X184649047Y-69194285D01*
X184839523Y-69241904D01*
X184934761Y-69337142D01*
X184982380Y-69432380D01*
X184982380Y-69622857D01*
X184934761Y-69718095D01*
X184839523Y-69813333D01*
X184649047Y-69860952D01*
X184315714Y-69860952D01*
X184125238Y-69813333D01*
X184030000Y-69718095D01*
X183982380Y-69622857D01*
X184887142Y-68194285D02*
X184934761Y-68241904D01*
X184982380Y-68384761D01*
X184982380Y-68480000D01*
X184934761Y-68622857D01*
X184839523Y-68718095D01*
X184744285Y-68765714D01*
X184553809Y-68813333D01*
X184410952Y-68813333D01*
X184220476Y-68765714D01*
X184125238Y-68718095D01*
X184030000Y-68622857D01*
X183982380Y-68480000D01*
X183982380Y-68384761D01*
X184030000Y-68241904D01*
X184077619Y-68194285D01*
X184982380Y-67241904D02*
X184982380Y-67813333D01*
X184982380Y-67527619D02*
X183982380Y-67527619D01*
X184125238Y-67622857D01*
X184220476Y-67718095D01*
X184268095Y-67813333D01*
X184982380Y-101150476D02*
X183982380Y-101150476D01*
X183982380Y-100912380D01*
X184030000Y-100769523D01*
X184125238Y-100674285D01*
X184220476Y-100626666D01*
X184410952Y-100579047D01*
X184553809Y-100579047D01*
X184744285Y-100626666D01*
X184839523Y-100674285D01*
X184934761Y-100769523D01*
X184982380Y-100912380D01*
X184982380Y-101150476D01*
X184458571Y-100150476D02*
X184458571Y-99817142D01*
X184982380Y-99674285D02*
X184982380Y-100150476D01*
X183982380Y-100150476D01*
X183982380Y-99674285D01*
X184887142Y-98674285D02*
X184934761Y-98721904D01*
X184982380Y-98864761D01*
X184982380Y-98960000D01*
X184934761Y-99102857D01*
X184839523Y-99198095D01*
X184744285Y-99245714D01*
X184553809Y-99293333D01*
X184410952Y-99293333D01*
X184220476Y-99245714D01*
X184125238Y-99198095D01*
X184030000Y-99102857D01*
X183982380Y-98960000D01*
X183982380Y-98864761D01*
X184030000Y-98721904D01*
X184077619Y-98674285D01*
X184982380Y-97721904D02*
X184982380Y-98293333D01*
X184982380Y-98007619D02*
X183982380Y-98007619D01*
X184125238Y-98102857D01*
X184220476Y-98198095D01*
X184268095Y-98293333D01*
X133698571Y-105030952D02*
X133746190Y-104888095D01*
X133793809Y-104840476D01*
X133889047Y-104792857D01*
X134031904Y-104792857D01*
X134127142Y-104840476D01*
X134174761Y-104888095D01*
X134222380Y-104983333D01*
X134222380Y-105364285D01*
X133222380Y-105364285D01*
X133222380Y-105030952D01*
X133270000Y-104935714D01*
X133317619Y-104888095D01*
X133412857Y-104840476D01*
X133508095Y-104840476D01*
X133603333Y-104888095D01*
X133650952Y-104935714D01*
X133698571Y-105030952D01*
X133698571Y-105364285D01*
X133222380Y-104459523D02*
X133222380Y-103792857D01*
X134222380Y-104459523D01*
X134222380Y-103792857D01*
X134222380Y-102888095D02*
X134222380Y-103459523D01*
X134222380Y-103173809D02*
X133222380Y-103173809D01*
X133365238Y-103269047D01*
X133460476Y-103364285D01*
X133508095Y-103459523D01*
X138501428Y-108340952D02*
X138501428Y-107579047D01*
X138882380Y-107960000D02*
X138120476Y-107960000D01*
%LPC*%
D13*
X142240000Y-62230000D03*
X142240000Y-64770000D03*
X142240000Y-67310000D03*
D14*
X142240000Y-69850000D03*
D15*
G36*
X92970779Y-113776144D02*
G01*
X92993834Y-113779563D01*
X93016443Y-113785227D01*
X93038387Y-113793079D01*
X93059457Y-113803044D01*
X93079448Y-113815026D01*
X93098168Y-113828910D01*
X93115438Y-113844562D01*
X93131090Y-113861832D01*
X93144974Y-113880552D01*
X93156956Y-113900543D01*
X93166921Y-113921613D01*
X93174773Y-113943557D01*
X93180437Y-113966166D01*
X93183856Y-113989221D01*
X93185000Y-114012500D01*
X93185000Y-114587500D01*
X93183856Y-114610779D01*
X93180437Y-114633834D01*
X93174773Y-114656443D01*
X93166921Y-114678387D01*
X93156956Y-114699457D01*
X93144974Y-114719448D01*
X93131090Y-114738168D01*
X93115438Y-114755438D01*
X93098168Y-114771090D01*
X93079448Y-114784974D01*
X93059457Y-114796956D01*
X93038387Y-114806921D01*
X93016443Y-114814773D01*
X92993834Y-114820437D01*
X92970779Y-114823856D01*
X92947500Y-114825000D01*
X92472500Y-114825000D01*
X92449221Y-114823856D01*
X92426166Y-114820437D01*
X92403557Y-114814773D01*
X92381613Y-114806921D01*
X92360543Y-114796956D01*
X92340552Y-114784974D01*
X92321832Y-114771090D01*
X92304562Y-114755438D01*
X92288910Y-114738168D01*
X92275026Y-114719448D01*
X92263044Y-114699457D01*
X92253079Y-114678387D01*
X92245227Y-114656443D01*
X92239563Y-114633834D01*
X92236144Y-114610779D01*
X92235000Y-114587500D01*
X92235000Y-114012500D01*
X92236144Y-113989221D01*
X92239563Y-113966166D01*
X92245227Y-113943557D01*
X92253079Y-113921613D01*
X92263044Y-113900543D01*
X92275026Y-113880552D01*
X92288910Y-113861832D01*
X92304562Y-113844562D01*
X92321832Y-113828910D01*
X92340552Y-113815026D01*
X92360543Y-113803044D01*
X92381613Y-113793079D01*
X92403557Y-113785227D01*
X92426166Y-113779563D01*
X92449221Y-113776144D01*
X92472500Y-113775000D01*
X92947500Y-113775000D01*
X92970779Y-113776144D01*
G37*
G36*
X92970779Y-115526144D02*
G01*
X92993834Y-115529563D01*
X93016443Y-115535227D01*
X93038387Y-115543079D01*
X93059457Y-115553044D01*
X93079448Y-115565026D01*
X93098168Y-115578910D01*
X93115438Y-115594562D01*
X93131090Y-115611832D01*
X93144974Y-115630552D01*
X93156956Y-115650543D01*
X93166921Y-115671613D01*
X93174773Y-115693557D01*
X93180437Y-115716166D01*
X93183856Y-115739221D01*
X93185000Y-115762500D01*
X93185000Y-116337500D01*
X93183856Y-116360779D01*
X93180437Y-116383834D01*
X93174773Y-116406443D01*
X93166921Y-116428387D01*
X93156956Y-116449457D01*
X93144974Y-116469448D01*
X93131090Y-116488168D01*
X93115438Y-116505438D01*
X93098168Y-116521090D01*
X93079448Y-116534974D01*
X93059457Y-116546956D01*
X93038387Y-116556921D01*
X93016443Y-116564773D01*
X92993834Y-116570437D01*
X92970779Y-116573856D01*
X92947500Y-116575000D01*
X92472500Y-116575000D01*
X92449221Y-116573856D01*
X92426166Y-116570437D01*
X92403557Y-116564773D01*
X92381613Y-116556921D01*
X92360543Y-116546956D01*
X92340552Y-116534974D01*
X92321832Y-116521090D01*
X92304562Y-116505438D01*
X92288910Y-116488168D01*
X92275026Y-116469448D01*
X92263044Y-116449457D01*
X92253079Y-116428387D01*
X92245227Y-116406443D01*
X92239563Y-116383834D01*
X92236144Y-116360779D01*
X92235000Y-116337500D01*
X92235000Y-115762500D01*
X92236144Y-115739221D01*
X92239563Y-115716166D01*
X92245227Y-115693557D01*
X92253079Y-115671613D01*
X92263044Y-115650543D01*
X92275026Y-115630552D01*
X92288910Y-115611832D01*
X92304562Y-115594562D01*
X92321832Y-115578910D01*
X92340552Y-115565026D01*
X92360543Y-115553044D01*
X92381613Y-115543079D01*
X92403557Y-115535227D01*
X92426166Y-115529563D01*
X92449221Y-115526144D01*
X92472500Y-115525000D01*
X92947500Y-115525000D01*
X92970779Y-115526144D01*
G37*
G36*
X90430779Y-113776144D02*
G01*
X90453834Y-113779563D01*
X90476443Y-113785227D01*
X90498387Y-113793079D01*
X90519457Y-113803044D01*
X90539448Y-113815026D01*
X90558168Y-113828910D01*
X90575438Y-113844562D01*
X90591090Y-113861832D01*
X90604974Y-113880552D01*
X90616956Y-113900543D01*
X90626921Y-113921613D01*
X90634773Y-113943557D01*
X90640437Y-113966166D01*
X90643856Y-113989221D01*
X90645000Y-114012500D01*
X90645000Y-114587500D01*
X90643856Y-114610779D01*
X90640437Y-114633834D01*
X90634773Y-114656443D01*
X90626921Y-114678387D01*
X90616956Y-114699457D01*
X90604974Y-114719448D01*
X90591090Y-114738168D01*
X90575438Y-114755438D01*
X90558168Y-114771090D01*
X90539448Y-114784974D01*
X90519457Y-114796956D01*
X90498387Y-114806921D01*
X90476443Y-114814773D01*
X90453834Y-114820437D01*
X90430779Y-114823856D01*
X90407500Y-114825000D01*
X89932500Y-114825000D01*
X89909221Y-114823856D01*
X89886166Y-114820437D01*
X89863557Y-114814773D01*
X89841613Y-114806921D01*
X89820543Y-114796956D01*
X89800552Y-114784974D01*
X89781832Y-114771090D01*
X89764562Y-114755438D01*
X89748910Y-114738168D01*
X89735026Y-114719448D01*
X89723044Y-114699457D01*
X89713079Y-114678387D01*
X89705227Y-114656443D01*
X89699563Y-114633834D01*
X89696144Y-114610779D01*
X89695000Y-114587500D01*
X89695000Y-114012500D01*
X89696144Y-113989221D01*
X89699563Y-113966166D01*
X89705227Y-113943557D01*
X89713079Y-113921613D01*
X89723044Y-113900543D01*
X89735026Y-113880552D01*
X89748910Y-113861832D01*
X89764562Y-113844562D01*
X89781832Y-113828910D01*
X89800552Y-113815026D01*
X89820543Y-113803044D01*
X89841613Y-113793079D01*
X89863557Y-113785227D01*
X89886166Y-113779563D01*
X89909221Y-113776144D01*
X89932500Y-113775000D01*
X90407500Y-113775000D01*
X90430779Y-113776144D01*
G37*
G36*
X90430779Y-115526144D02*
G01*
X90453834Y-115529563D01*
X90476443Y-115535227D01*
X90498387Y-115543079D01*
X90519457Y-115553044D01*
X90539448Y-115565026D01*
X90558168Y-115578910D01*
X90575438Y-115594562D01*
X90591090Y-115611832D01*
X90604974Y-115630552D01*
X90616956Y-115650543D01*
X90626921Y-115671613D01*
X90634773Y-115693557D01*
X90640437Y-115716166D01*
X90643856Y-115739221D01*
X90645000Y-115762500D01*
X90645000Y-116337500D01*
X90643856Y-116360779D01*
X90640437Y-116383834D01*
X90634773Y-116406443D01*
X90626921Y-116428387D01*
X90616956Y-116449457D01*
X90604974Y-116469448D01*
X90591090Y-116488168D01*
X90575438Y-116505438D01*
X90558168Y-116521090D01*
X90539448Y-116534974D01*
X90519457Y-116546956D01*
X90498387Y-116556921D01*
X90476443Y-116564773D01*
X90453834Y-116570437D01*
X90430779Y-116573856D01*
X90407500Y-116575000D01*
X89932500Y-116575000D01*
X89909221Y-116573856D01*
X89886166Y-116570437D01*
X89863557Y-116564773D01*
X89841613Y-116556921D01*
X89820543Y-116546956D01*
X89800552Y-116534974D01*
X89781832Y-116521090D01*
X89764562Y-116505438D01*
X89748910Y-116488168D01*
X89735026Y-116469448D01*
X89723044Y-116449457D01*
X89713079Y-116428387D01*
X89705227Y-116406443D01*
X89699563Y-116383834D01*
X89696144Y-116360779D01*
X89695000Y-116337500D01*
X89695000Y-115762500D01*
X89696144Y-115739221D01*
X89699563Y-115716166D01*
X89705227Y-115693557D01*
X89713079Y-115671613D01*
X89723044Y-115650543D01*
X89735026Y-115630552D01*
X89748910Y-115611832D01*
X89764562Y-115594562D01*
X89781832Y-115578910D01*
X89800552Y-115565026D01*
X89820543Y-115553044D01*
X89841613Y-115543079D01*
X89863557Y-115535227D01*
X89886166Y-115529563D01*
X89909221Y-115526144D01*
X89932500Y-115525000D01*
X90407500Y-115525000D01*
X90430779Y-115526144D01*
G37*
G36*
X106940779Y-113776144D02*
G01*
X106963834Y-113779563D01*
X106986443Y-113785227D01*
X107008387Y-113793079D01*
X107029457Y-113803044D01*
X107049448Y-113815026D01*
X107068168Y-113828910D01*
X107085438Y-113844562D01*
X107101090Y-113861832D01*
X107114974Y-113880552D01*
X107126956Y-113900543D01*
X107136921Y-113921613D01*
X107144773Y-113943557D01*
X107150437Y-113966166D01*
X107153856Y-113989221D01*
X107155000Y-114012500D01*
X107155000Y-114587500D01*
X107153856Y-114610779D01*
X107150437Y-114633834D01*
X107144773Y-114656443D01*
X107136921Y-114678387D01*
X107126956Y-114699457D01*
X107114974Y-114719448D01*
X107101090Y-114738168D01*
X107085438Y-114755438D01*
X107068168Y-114771090D01*
X107049448Y-114784974D01*
X107029457Y-114796956D01*
X107008387Y-114806921D01*
X106986443Y-114814773D01*
X106963834Y-114820437D01*
X106940779Y-114823856D01*
X106917500Y-114825000D01*
X106442500Y-114825000D01*
X106419221Y-114823856D01*
X106396166Y-114820437D01*
X106373557Y-114814773D01*
X106351613Y-114806921D01*
X106330543Y-114796956D01*
X106310552Y-114784974D01*
X106291832Y-114771090D01*
X106274562Y-114755438D01*
X106258910Y-114738168D01*
X106245026Y-114719448D01*
X106233044Y-114699457D01*
X106223079Y-114678387D01*
X106215227Y-114656443D01*
X106209563Y-114633834D01*
X106206144Y-114610779D01*
X106205000Y-114587500D01*
X106205000Y-114012500D01*
X106206144Y-113989221D01*
X106209563Y-113966166D01*
X106215227Y-113943557D01*
X106223079Y-113921613D01*
X106233044Y-113900543D01*
X106245026Y-113880552D01*
X106258910Y-113861832D01*
X106274562Y-113844562D01*
X106291832Y-113828910D01*
X106310552Y-113815026D01*
X106330543Y-113803044D01*
X106351613Y-113793079D01*
X106373557Y-113785227D01*
X106396166Y-113779563D01*
X106419221Y-113776144D01*
X106442500Y-113775000D01*
X106917500Y-113775000D01*
X106940779Y-113776144D01*
G37*
G36*
X106940779Y-115526144D02*
G01*
X106963834Y-115529563D01*
X106986443Y-115535227D01*
X107008387Y-115543079D01*
X107029457Y-115553044D01*
X107049448Y-115565026D01*
X107068168Y-115578910D01*
X107085438Y-115594562D01*
X107101090Y-115611832D01*
X107114974Y-115630552D01*
X107126956Y-115650543D01*
X107136921Y-115671613D01*
X107144773Y-115693557D01*
X107150437Y-115716166D01*
X107153856Y-115739221D01*
X107155000Y-115762500D01*
X107155000Y-116337500D01*
X107153856Y-116360779D01*
X107150437Y-116383834D01*
X107144773Y-116406443D01*
X107136921Y-116428387D01*
X107126956Y-116449457D01*
X107114974Y-116469448D01*
X107101090Y-116488168D01*
X107085438Y-116505438D01*
X107068168Y-116521090D01*
X107049448Y-116534974D01*
X107029457Y-116546956D01*
X107008387Y-116556921D01*
X106986443Y-116564773D01*
X106963834Y-116570437D01*
X106940779Y-116573856D01*
X106917500Y-116575000D01*
X106442500Y-116575000D01*
X106419221Y-116573856D01*
X106396166Y-116570437D01*
X106373557Y-116564773D01*
X106351613Y-116556921D01*
X106330543Y-116546956D01*
X106310552Y-116534974D01*
X106291832Y-116521090D01*
X106274562Y-116505438D01*
X106258910Y-116488168D01*
X106245026Y-116469448D01*
X106233044Y-116449457D01*
X106223079Y-116428387D01*
X106215227Y-116406443D01*
X106209563Y-116383834D01*
X106206144Y-116360779D01*
X106205000Y-116337500D01*
X106205000Y-115762500D01*
X106206144Y-115739221D01*
X106209563Y-115716166D01*
X106215227Y-115693557D01*
X106223079Y-115671613D01*
X106233044Y-115650543D01*
X106245026Y-115630552D01*
X106258910Y-115611832D01*
X106274562Y-115594562D01*
X106291832Y-115578910D01*
X106310552Y-115565026D01*
X106330543Y-115553044D01*
X106351613Y-115543079D01*
X106373557Y-115535227D01*
X106396166Y-115529563D01*
X106419221Y-115526144D01*
X106442500Y-115525000D01*
X106917500Y-115525000D01*
X106940779Y-115526144D01*
G37*
G36*
X92970779Y-109486144D02*
G01*
X92993834Y-109489563D01*
X93016443Y-109495227D01*
X93038387Y-109503079D01*
X93059457Y-109513044D01*
X93079448Y-109525026D01*
X93098168Y-109538910D01*
X93115438Y-109554562D01*
X93131090Y-109571832D01*
X93144974Y-109590552D01*
X93156956Y-109610543D01*
X93166921Y-109631613D01*
X93174773Y-109653557D01*
X93180437Y-109676166D01*
X93183856Y-109699221D01*
X93185000Y-109722500D01*
X93185000Y-110297500D01*
X93183856Y-110320779D01*
X93180437Y-110343834D01*
X93174773Y-110366443D01*
X93166921Y-110388387D01*
X93156956Y-110409457D01*
X93144974Y-110429448D01*
X93131090Y-110448168D01*
X93115438Y-110465438D01*
X93098168Y-110481090D01*
X93079448Y-110494974D01*
X93059457Y-110506956D01*
X93038387Y-110516921D01*
X93016443Y-110524773D01*
X92993834Y-110530437D01*
X92970779Y-110533856D01*
X92947500Y-110535000D01*
X92472500Y-110535000D01*
X92449221Y-110533856D01*
X92426166Y-110530437D01*
X92403557Y-110524773D01*
X92381613Y-110516921D01*
X92360543Y-110506956D01*
X92340552Y-110494974D01*
X92321832Y-110481090D01*
X92304562Y-110465438D01*
X92288910Y-110448168D01*
X92275026Y-110429448D01*
X92263044Y-110409457D01*
X92253079Y-110388387D01*
X92245227Y-110366443D01*
X92239563Y-110343834D01*
X92236144Y-110320779D01*
X92235000Y-110297500D01*
X92235000Y-109722500D01*
X92236144Y-109699221D01*
X92239563Y-109676166D01*
X92245227Y-109653557D01*
X92253079Y-109631613D01*
X92263044Y-109610543D01*
X92275026Y-109590552D01*
X92288910Y-109571832D01*
X92304562Y-109554562D01*
X92321832Y-109538910D01*
X92340552Y-109525026D01*
X92360543Y-109513044D01*
X92381613Y-109503079D01*
X92403557Y-109495227D01*
X92426166Y-109489563D01*
X92449221Y-109486144D01*
X92472500Y-109485000D01*
X92947500Y-109485000D01*
X92970779Y-109486144D01*
G37*
G36*
X92970779Y-111236144D02*
G01*
X92993834Y-111239563D01*
X93016443Y-111245227D01*
X93038387Y-111253079D01*
X93059457Y-111263044D01*
X93079448Y-111275026D01*
X93098168Y-111288910D01*
X93115438Y-111304562D01*
X93131090Y-111321832D01*
X93144974Y-111340552D01*
X93156956Y-111360543D01*
X93166921Y-111381613D01*
X93174773Y-111403557D01*
X93180437Y-111426166D01*
X93183856Y-111449221D01*
X93185000Y-111472500D01*
X93185000Y-112047500D01*
X93183856Y-112070779D01*
X93180437Y-112093834D01*
X93174773Y-112116443D01*
X93166921Y-112138387D01*
X93156956Y-112159457D01*
X93144974Y-112179448D01*
X93131090Y-112198168D01*
X93115438Y-112215438D01*
X93098168Y-112231090D01*
X93079448Y-112244974D01*
X93059457Y-112256956D01*
X93038387Y-112266921D01*
X93016443Y-112274773D01*
X92993834Y-112280437D01*
X92970779Y-112283856D01*
X92947500Y-112285000D01*
X92472500Y-112285000D01*
X92449221Y-112283856D01*
X92426166Y-112280437D01*
X92403557Y-112274773D01*
X92381613Y-112266921D01*
X92360543Y-112256956D01*
X92340552Y-112244974D01*
X92321832Y-112231090D01*
X92304562Y-112215438D01*
X92288910Y-112198168D01*
X92275026Y-112179448D01*
X92263044Y-112159457D01*
X92253079Y-112138387D01*
X92245227Y-112116443D01*
X92239563Y-112093834D01*
X92236144Y-112070779D01*
X92235000Y-112047500D01*
X92235000Y-111472500D01*
X92236144Y-111449221D01*
X92239563Y-111426166D01*
X92245227Y-111403557D01*
X92253079Y-111381613D01*
X92263044Y-111360543D01*
X92275026Y-111340552D01*
X92288910Y-111321832D01*
X92304562Y-111304562D01*
X92321832Y-111288910D01*
X92340552Y-111275026D01*
X92360543Y-111263044D01*
X92381613Y-111253079D01*
X92403557Y-111245227D01*
X92426166Y-111239563D01*
X92449221Y-111236144D01*
X92472500Y-111235000D01*
X92947500Y-111235000D01*
X92970779Y-111236144D01*
G37*
G36*
X90430779Y-109486144D02*
G01*
X90453834Y-109489563D01*
X90476443Y-109495227D01*
X90498387Y-109503079D01*
X90519457Y-109513044D01*
X90539448Y-109525026D01*
X90558168Y-109538910D01*
X90575438Y-109554562D01*
X90591090Y-109571832D01*
X90604974Y-109590552D01*
X90616956Y-109610543D01*
X90626921Y-109631613D01*
X90634773Y-109653557D01*
X90640437Y-109676166D01*
X90643856Y-109699221D01*
X90645000Y-109722500D01*
X90645000Y-110297500D01*
X90643856Y-110320779D01*
X90640437Y-110343834D01*
X90634773Y-110366443D01*
X90626921Y-110388387D01*
X90616956Y-110409457D01*
X90604974Y-110429448D01*
X90591090Y-110448168D01*
X90575438Y-110465438D01*
X90558168Y-110481090D01*
X90539448Y-110494974D01*
X90519457Y-110506956D01*
X90498387Y-110516921D01*
X90476443Y-110524773D01*
X90453834Y-110530437D01*
X90430779Y-110533856D01*
X90407500Y-110535000D01*
X89932500Y-110535000D01*
X89909221Y-110533856D01*
X89886166Y-110530437D01*
X89863557Y-110524773D01*
X89841613Y-110516921D01*
X89820543Y-110506956D01*
X89800552Y-110494974D01*
X89781832Y-110481090D01*
X89764562Y-110465438D01*
X89748910Y-110448168D01*
X89735026Y-110429448D01*
X89723044Y-110409457D01*
X89713079Y-110388387D01*
X89705227Y-110366443D01*
X89699563Y-110343834D01*
X89696144Y-110320779D01*
X89695000Y-110297500D01*
X89695000Y-109722500D01*
X89696144Y-109699221D01*
X89699563Y-109676166D01*
X89705227Y-109653557D01*
X89713079Y-109631613D01*
X89723044Y-109610543D01*
X89735026Y-109590552D01*
X89748910Y-109571832D01*
X89764562Y-109554562D01*
X89781832Y-109538910D01*
X89800552Y-109525026D01*
X89820543Y-109513044D01*
X89841613Y-109503079D01*
X89863557Y-109495227D01*
X89886166Y-109489563D01*
X89909221Y-109486144D01*
X89932500Y-109485000D01*
X90407500Y-109485000D01*
X90430779Y-109486144D01*
G37*
G36*
X90430779Y-111236144D02*
G01*
X90453834Y-111239563D01*
X90476443Y-111245227D01*
X90498387Y-111253079D01*
X90519457Y-111263044D01*
X90539448Y-111275026D01*
X90558168Y-111288910D01*
X90575438Y-111304562D01*
X90591090Y-111321832D01*
X90604974Y-111340552D01*
X90616956Y-111360543D01*
X90626921Y-111381613D01*
X90634773Y-111403557D01*
X90640437Y-111426166D01*
X90643856Y-111449221D01*
X90645000Y-111472500D01*
X90645000Y-112047500D01*
X90643856Y-112070779D01*
X90640437Y-112093834D01*
X90634773Y-112116443D01*
X90626921Y-112138387D01*
X90616956Y-112159457D01*
X90604974Y-112179448D01*
X90591090Y-112198168D01*
X90575438Y-112215438D01*
X90558168Y-112231090D01*
X90539448Y-112244974D01*
X90519457Y-112256956D01*
X90498387Y-112266921D01*
X90476443Y-112274773D01*
X90453834Y-112280437D01*
X90430779Y-112283856D01*
X90407500Y-112285000D01*
X89932500Y-112285000D01*
X89909221Y-112283856D01*
X89886166Y-112280437D01*
X89863557Y-112274773D01*
X89841613Y-112266921D01*
X89820543Y-112256956D01*
X89800552Y-112244974D01*
X89781832Y-112231090D01*
X89764562Y-112215438D01*
X89748910Y-112198168D01*
X89735026Y-112179448D01*
X89723044Y-112159457D01*
X89713079Y-112138387D01*
X89705227Y-112116443D01*
X89699563Y-112093834D01*
X89696144Y-112070779D01*
X89695000Y-112047500D01*
X89695000Y-111472500D01*
X89696144Y-111449221D01*
X89699563Y-111426166D01*
X89705227Y-111403557D01*
X89713079Y-111381613D01*
X89723044Y-111360543D01*
X89735026Y-111340552D01*
X89748910Y-111321832D01*
X89764562Y-111304562D01*
X89781832Y-111288910D01*
X89800552Y-111275026D01*
X89820543Y-111263044D01*
X89841613Y-111253079D01*
X89863557Y-111245227D01*
X89886166Y-111239563D01*
X89909221Y-111236144D01*
X89932500Y-111235000D01*
X90407500Y-111235000D01*
X90430779Y-111236144D01*
G37*
D13*
X172720000Y-54610000D03*
X170180000Y-54610000D03*
X167640000Y-54610000D03*
D14*
X165100000Y-54610000D03*
D13*
X172720000Y-58420000D03*
X170180000Y-58420000D03*
X167640000Y-58420000D03*
D14*
X165100000Y-58420000D03*
D13*
X172720000Y-114300000D03*
X170180000Y-114300000D03*
X167640000Y-114300000D03*
D14*
X165100000Y-114300000D03*
D13*
X102870000Y-110490000D03*
X102870000Y-113030000D03*
D14*
X102870000Y-115570000D03*
D13*
X100330000Y-110490000D03*
X100330000Y-113030000D03*
D14*
X100330000Y-115570000D03*
D13*
X97790000Y-110490000D03*
X97790000Y-113030000D03*
D14*
X97790000Y-115570000D03*
D13*
X95250000Y-110490000D03*
X95250000Y-113030000D03*
D14*
X95250000Y-115570000D03*
D13*
X139700000Y-64770000D03*
D14*
X137160000Y-64770000D03*
D13*
X100330000Y-87630000D03*
X97790000Y-87630000D03*
X95250000Y-87630000D03*
D14*
X92710000Y-87630000D03*
D13*
X118110000Y-64770000D03*
X115570000Y-64770000D03*
X113030000Y-64770000D03*
D14*
X110490000Y-64770000D03*
D13*
X101600000Y-64770000D03*
X99060000Y-64770000D03*
X96520000Y-64770000D03*
D14*
X93980000Y-64770000D03*
D13*
X120650000Y-87630000D03*
X118110000Y-87630000D03*
X115570000Y-87630000D03*
D14*
X113030000Y-87630000D03*
D13*
X151130000Y-113030000D03*
X151130000Y-115570000D03*
X148590000Y-113030000D03*
X148590000Y-115570000D03*
X146050000Y-113030000D03*
X146050000Y-115570000D03*
X143510000Y-113030000D03*
D14*
X143510000Y-115570000D03*
D13*
X135890000Y-113030000D03*
X135890000Y-115570000D03*
X133350000Y-113030000D03*
X133350000Y-115570000D03*
X130810000Y-113030000D03*
X130810000Y-115570000D03*
X128270000Y-113030000D03*
X128270000Y-115570000D03*
X125730000Y-113030000D03*
D14*
X125730000Y-115570000D03*
D13*
X118110000Y-113030000D03*
X118110000Y-115570000D03*
X115570000Y-113030000D03*
X115570000Y-115570000D03*
X113030000Y-113030000D03*
X113030000Y-115570000D03*
X110490000Y-113030000D03*
D14*
X110490000Y-115570000D03*
D13*
X151130000Y-59690000D03*
X151130000Y-62230000D03*
X151130000Y-64770000D03*
X151130000Y-67310000D03*
X151130000Y-69850000D03*
X151130000Y-72390000D03*
X151130000Y-74930000D03*
X151130000Y-77470000D03*
X151130000Y-80010000D03*
X151130000Y-82550000D03*
X151130000Y-85090000D03*
X151130000Y-87630000D03*
X151130000Y-90170000D03*
X151130000Y-92710000D03*
X151130000Y-95250000D03*
X151130000Y-97790000D03*
X151130000Y-100330000D03*
D14*
X151130000Y-102870000D03*
D16*
X186690000Y-113030000D03*
D17*
X195580000Y-114940000D03*
D18*
X189230000Y-111760000D03*
X186690000Y-110490000D03*
X189230000Y-109220000D03*
X186690000Y-107950000D03*
X189230000Y-106680000D03*
D17*
X195580000Y-104780000D03*
D19*
X192760000Y-94520000D03*
X198260000Y-94520000D03*
X200660000Y-96520000D03*
X192760000Y-109760000D03*
X198260000Y-109760000D03*
X200660000Y-111760000D03*
D16*
X186690000Y-82550000D03*
D17*
X195580000Y-84460000D03*
D18*
X189230000Y-81280000D03*
X186690000Y-80010000D03*
X189230000Y-78740000D03*
X186690000Y-77470000D03*
X189230000Y-76200000D03*
D17*
X195580000Y-74300000D03*
D16*
X186690000Y-67310000D03*
D17*
X195580000Y-69220000D03*
D18*
X189230000Y-66040000D03*
X186690000Y-64770000D03*
X189230000Y-63500000D03*
X186690000Y-62230000D03*
X189230000Y-60960000D03*
D17*
X195580000Y-59060000D03*
D16*
X186690000Y-97790000D03*
D17*
X195580000Y-99700000D03*
D18*
X189230000Y-96520000D03*
X186690000Y-95250000D03*
X189230000Y-93980000D03*
X186690000Y-92710000D03*
X189230000Y-91440000D03*
D17*
X195580000Y-89540000D03*
D20*
X140970000Y-100350000D03*
D21*
X140970000Y-107950000D03*
M02*
