G04 #@! TF.GenerationSoftware,KiCad,Pcbnew,5.1.5+dfsg1-2build2*
G04 #@! TF.CreationDate,2020-09-05T16:32:44+02:00*
G04 #@! TF.ProjectId,onstep-ramps-shield,6f6e7374-6570-42d7-9261-6d70732d7368,1*
G04 #@! TF.SameCoordinates,Original*
G04 #@! TF.FileFunction,Soldermask,Bot*
G04 #@! TF.FilePolarity,Negative*
%FSLAX46Y46*%
G04 Gerber Fmt 4.6, Leading zero omitted, Abs format (unit mm)*
G04 Created by KiCad (PCBNEW 5.1.5+dfsg1-2build2) date 2020-09-05 16:32:44*
%MOMM*%
%LPD*%
G04 APERTURE LIST*
%ADD10C,0.152400*%
G04 APERTURE END LIST*
D10*
G36*
X196053993Y-113377447D02*
G01*
X196053996Y-113377448D01*
X196053995Y-113377448D01*
X196349726Y-113499943D01*
X196615877Y-113677780D01*
X196842220Y-113904123D01*
X197020057Y-114170274D01*
X197039114Y-114216282D01*
X197142553Y-114466007D01*
X197205000Y-114779950D01*
X197205000Y-115100050D01*
X197142553Y-115413993D01*
X197142552Y-115413995D01*
X197020057Y-115709726D01*
X196947754Y-115817934D01*
X196844393Y-115972626D01*
X196842220Y-115975877D01*
X196615877Y-116202220D01*
X196349726Y-116380057D01*
X196253294Y-116420000D01*
X196053993Y-116502553D01*
X195740050Y-116565000D01*
X195419950Y-116565000D01*
X195106007Y-116502553D01*
X194906706Y-116420000D01*
X194810274Y-116380057D01*
X194544123Y-116202220D01*
X194317780Y-115975877D01*
X194315608Y-115972626D01*
X194212246Y-115817934D01*
X194139943Y-115709726D01*
X194017448Y-115413995D01*
X194017447Y-115413993D01*
X193955000Y-115100050D01*
X193955000Y-114779950D01*
X194017447Y-114466007D01*
X194120886Y-114216282D01*
X194139943Y-114170274D01*
X194317780Y-113904123D01*
X194544123Y-113677780D01*
X194810274Y-113499943D01*
X195106005Y-113377448D01*
X195106004Y-113377448D01*
X195106007Y-113377447D01*
X195419950Y-113315000D01*
X195740050Y-113315000D01*
X196053993Y-113377447D01*
G37*
G36*
X133597934Y-114752664D02*
G01*
X133752625Y-114816739D01*
X133752626Y-114816740D01*
X133891844Y-114909762D01*
X134010238Y-115028156D01*
X134057065Y-115098238D01*
X134103261Y-115167375D01*
X134167336Y-115322066D01*
X134200000Y-115486281D01*
X134200000Y-115653719D01*
X134167336Y-115817934D01*
X134103261Y-115972625D01*
X134101088Y-115975877D01*
X134010238Y-116111844D01*
X133891844Y-116230238D01*
X133821762Y-116277065D01*
X133752625Y-116323261D01*
X133597934Y-116387336D01*
X133433719Y-116420000D01*
X133266281Y-116420000D01*
X133102066Y-116387336D01*
X132947375Y-116323261D01*
X132878238Y-116277065D01*
X132808156Y-116230238D01*
X132689762Y-116111844D01*
X132598912Y-115975877D01*
X132596739Y-115972625D01*
X132532664Y-115817934D01*
X132500000Y-115653719D01*
X132500000Y-115486281D01*
X132532664Y-115322066D01*
X132596739Y-115167375D01*
X132642935Y-115098238D01*
X132689762Y-115028156D01*
X132808156Y-114909762D01*
X132947374Y-114816740D01*
X132947375Y-114816739D01*
X133102066Y-114752664D01*
X133266281Y-114720000D01*
X133433719Y-114720000D01*
X133597934Y-114752664D01*
G37*
G36*
X103720000Y-116420000D02*
G01*
X102020000Y-116420000D01*
X102020000Y-114720000D01*
X103720000Y-114720000D01*
X103720000Y-116420000D01*
G37*
G36*
X101180000Y-116420000D02*
G01*
X99480000Y-116420000D01*
X99480000Y-114720000D01*
X101180000Y-114720000D01*
X101180000Y-116420000D01*
G37*
G36*
X98640000Y-116420000D02*
G01*
X96940000Y-116420000D01*
X96940000Y-114720000D01*
X98640000Y-114720000D01*
X98640000Y-116420000D01*
G37*
G36*
X96100000Y-116420000D02*
G01*
X94400000Y-116420000D01*
X94400000Y-114720000D01*
X96100000Y-114720000D01*
X96100000Y-116420000D01*
G37*
G36*
X148837934Y-114752664D02*
G01*
X148992625Y-114816739D01*
X148992626Y-114816740D01*
X149131844Y-114909762D01*
X149250238Y-115028156D01*
X149297065Y-115098238D01*
X149343261Y-115167375D01*
X149407336Y-115322066D01*
X149440000Y-115486281D01*
X149440000Y-115653719D01*
X149407336Y-115817934D01*
X149343261Y-115972625D01*
X149341088Y-115975877D01*
X149250238Y-116111844D01*
X149131844Y-116230238D01*
X149061762Y-116277065D01*
X148992625Y-116323261D01*
X148837934Y-116387336D01*
X148673719Y-116420000D01*
X148506281Y-116420000D01*
X148342066Y-116387336D01*
X148187375Y-116323261D01*
X148118238Y-116277065D01*
X148048156Y-116230238D01*
X147929762Y-116111844D01*
X147838912Y-115975877D01*
X147836739Y-115972625D01*
X147772664Y-115817934D01*
X147740000Y-115653719D01*
X147740000Y-115486281D01*
X147772664Y-115322066D01*
X147836739Y-115167375D01*
X147882935Y-115098238D01*
X147929762Y-115028156D01*
X148048156Y-114909762D01*
X148187374Y-114816740D01*
X148187375Y-114816739D01*
X148342066Y-114752664D01*
X148506281Y-114720000D01*
X148673719Y-114720000D01*
X148837934Y-114752664D01*
G37*
G36*
X146297934Y-114752664D02*
G01*
X146452625Y-114816739D01*
X146452626Y-114816740D01*
X146591844Y-114909762D01*
X146710238Y-115028156D01*
X146757065Y-115098238D01*
X146803261Y-115167375D01*
X146867336Y-115322066D01*
X146900000Y-115486281D01*
X146900000Y-115653719D01*
X146867336Y-115817934D01*
X146803261Y-115972625D01*
X146801088Y-115975877D01*
X146710238Y-116111844D01*
X146591844Y-116230238D01*
X146521762Y-116277065D01*
X146452625Y-116323261D01*
X146297934Y-116387336D01*
X146133719Y-116420000D01*
X145966281Y-116420000D01*
X145802066Y-116387336D01*
X145647375Y-116323261D01*
X145578238Y-116277065D01*
X145508156Y-116230238D01*
X145389762Y-116111844D01*
X145298912Y-115975877D01*
X145296739Y-115972625D01*
X145232664Y-115817934D01*
X145200000Y-115653719D01*
X145200000Y-115486281D01*
X145232664Y-115322066D01*
X145296739Y-115167375D01*
X145342935Y-115098238D01*
X145389762Y-115028156D01*
X145508156Y-114909762D01*
X145647374Y-114816740D01*
X145647375Y-114816739D01*
X145802066Y-114752664D01*
X145966281Y-114720000D01*
X146133719Y-114720000D01*
X146297934Y-114752664D01*
G37*
G36*
X144360000Y-116420000D02*
G01*
X142660000Y-116420000D01*
X142660000Y-114720000D01*
X144360000Y-114720000D01*
X144360000Y-116420000D01*
G37*
G36*
X136137934Y-114752664D02*
G01*
X136292625Y-114816739D01*
X136292626Y-114816740D01*
X136431844Y-114909762D01*
X136550238Y-115028156D01*
X136597065Y-115098238D01*
X136643261Y-115167375D01*
X136707336Y-115322066D01*
X136740000Y-115486281D01*
X136740000Y-115653719D01*
X136707336Y-115817934D01*
X136643261Y-115972625D01*
X136641088Y-115975877D01*
X136550238Y-116111844D01*
X136431844Y-116230238D01*
X136361762Y-116277065D01*
X136292625Y-116323261D01*
X136137934Y-116387336D01*
X135973719Y-116420000D01*
X135806281Y-116420000D01*
X135642066Y-116387336D01*
X135487375Y-116323261D01*
X135418238Y-116277065D01*
X135348156Y-116230238D01*
X135229762Y-116111844D01*
X135138912Y-115975877D01*
X135136739Y-115972625D01*
X135072664Y-115817934D01*
X135040000Y-115653719D01*
X135040000Y-115486281D01*
X135072664Y-115322066D01*
X135136739Y-115167375D01*
X135182935Y-115098238D01*
X135229762Y-115028156D01*
X135348156Y-114909762D01*
X135487374Y-114816740D01*
X135487375Y-114816739D01*
X135642066Y-114752664D01*
X135806281Y-114720000D01*
X135973719Y-114720000D01*
X136137934Y-114752664D01*
G37*
G36*
X131057934Y-114752664D02*
G01*
X131212625Y-114816739D01*
X131212626Y-114816740D01*
X131351844Y-114909762D01*
X131470238Y-115028156D01*
X131517065Y-115098238D01*
X131563261Y-115167375D01*
X131627336Y-115322066D01*
X131660000Y-115486281D01*
X131660000Y-115653719D01*
X131627336Y-115817934D01*
X131563261Y-115972625D01*
X131561088Y-115975877D01*
X131470238Y-116111844D01*
X131351844Y-116230238D01*
X131281762Y-116277065D01*
X131212625Y-116323261D01*
X131057934Y-116387336D01*
X130893719Y-116420000D01*
X130726281Y-116420000D01*
X130562066Y-116387336D01*
X130407375Y-116323261D01*
X130338238Y-116277065D01*
X130268156Y-116230238D01*
X130149762Y-116111844D01*
X130058912Y-115975877D01*
X130056739Y-115972625D01*
X129992664Y-115817934D01*
X129960000Y-115653719D01*
X129960000Y-115486281D01*
X129992664Y-115322066D01*
X130056739Y-115167375D01*
X130102935Y-115098238D01*
X130149762Y-115028156D01*
X130268156Y-114909762D01*
X130407374Y-114816740D01*
X130407375Y-114816739D01*
X130562066Y-114752664D01*
X130726281Y-114720000D01*
X130893719Y-114720000D01*
X131057934Y-114752664D01*
G37*
G36*
X128517934Y-114752664D02*
G01*
X128672625Y-114816739D01*
X128672626Y-114816740D01*
X128811844Y-114909762D01*
X128930238Y-115028156D01*
X128977065Y-115098238D01*
X129023261Y-115167375D01*
X129087336Y-115322066D01*
X129120000Y-115486281D01*
X129120000Y-115653719D01*
X129087336Y-115817934D01*
X129023261Y-115972625D01*
X129021088Y-115975877D01*
X128930238Y-116111844D01*
X128811844Y-116230238D01*
X128741762Y-116277065D01*
X128672625Y-116323261D01*
X128517934Y-116387336D01*
X128353719Y-116420000D01*
X128186281Y-116420000D01*
X128022066Y-116387336D01*
X127867375Y-116323261D01*
X127798238Y-116277065D01*
X127728156Y-116230238D01*
X127609762Y-116111844D01*
X127518912Y-115975877D01*
X127516739Y-115972625D01*
X127452664Y-115817934D01*
X127420000Y-115653719D01*
X127420000Y-115486281D01*
X127452664Y-115322066D01*
X127516739Y-115167375D01*
X127562935Y-115098238D01*
X127609762Y-115028156D01*
X127728156Y-114909762D01*
X127867374Y-114816740D01*
X127867375Y-114816739D01*
X128022066Y-114752664D01*
X128186281Y-114720000D01*
X128353719Y-114720000D01*
X128517934Y-114752664D01*
G37*
G36*
X126580000Y-116420000D02*
G01*
X124880000Y-116420000D01*
X124880000Y-114720000D01*
X126580000Y-114720000D01*
X126580000Y-116420000D01*
G37*
G36*
X118357934Y-114752664D02*
G01*
X118512625Y-114816739D01*
X118512626Y-114816740D01*
X118651844Y-114909762D01*
X118770238Y-115028156D01*
X118817065Y-115098238D01*
X118863261Y-115167375D01*
X118927336Y-115322066D01*
X118960000Y-115486281D01*
X118960000Y-115653719D01*
X118927336Y-115817934D01*
X118863261Y-115972625D01*
X118861088Y-115975877D01*
X118770238Y-116111844D01*
X118651844Y-116230238D01*
X118581762Y-116277065D01*
X118512625Y-116323261D01*
X118357934Y-116387336D01*
X118193719Y-116420000D01*
X118026281Y-116420000D01*
X117862066Y-116387336D01*
X117707375Y-116323261D01*
X117638238Y-116277065D01*
X117568156Y-116230238D01*
X117449762Y-116111844D01*
X117358912Y-115975877D01*
X117356739Y-115972625D01*
X117292664Y-115817934D01*
X117260000Y-115653719D01*
X117260000Y-115486281D01*
X117292664Y-115322066D01*
X117356739Y-115167375D01*
X117402935Y-115098238D01*
X117449762Y-115028156D01*
X117568156Y-114909762D01*
X117707374Y-114816740D01*
X117707375Y-114816739D01*
X117862066Y-114752664D01*
X118026281Y-114720000D01*
X118193719Y-114720000D01*
X118357934Y-114752664D01*
G37*
G36*
X115817934Y-114752664D02*
G01*
X115972625Y-114816739D01*
X115972626Y-114816740D01*
X116111844Y-114909762D01*
X116230238Y-115028156D01*
X116277065Y-115098238D01*
X116323261Y-115167375D01*
X116387336Y-115322066D01*
X116420000Y-115486281D01*
X116420000Y-115653719D01*
X116387336Y-115817934D01*
X116323261Y-115972625D01*
X116321088Y-115975877D01*
X116230238Y-116111844D01*
X116111844Y-116230238D01*
X116041762Y-116277065D01*
X115972625Y-116323261D01*
X115817934Y-116387336D01*
X115653719Y-116420000D01*
X115486281Y-116420000D01*
X115322066Y-116387336D01*
X115167375Y-116323261D01*
X115098238Y-116277065D01*
X115028156Y-116230238D01*
X114909762Y-116111844D01*
X114818912Y-115975877D01*
X114816739Y-115972625D01*
X114752664Y-115817934D01*
X114720000Y-115653719D01*
X114720000Y-115486281D01*
X114752664Y-115322066D01*
X114816739Y-115167375D01*
X114862935Y-115098238D01*
X114909762Y-115028156D01*
X115028156Y-114909762D01*
X115167374Y-114816740D01*
X115167375Y-114816739D01*
X115322066Y-114752664D01*
X115486281Y-114720000D01*
X115653719Y-114720000D01*
X115817934Y-114752664D01*
G37*
G36*
X113277934Y-114752664D02*
G01*
X113432625Y-114816739D01*
X113432626Y-114816740D01*
X113571844Y-114909762D01*
X113690238Y-115028156D01*
X113737065Y-115098238D01*
X113783261Y-115167375D01*
X113847336Y-115322066D01*
X113880000Y-115486281D01*
X113880000Y-115653719D01*
X113847336Y-115817934D01*
X113783261Y-115972625D01*
X113781088Y-115975877D01*
X113690238Y-116111844D01*
X113571844Y-116230238D01*
X113501762Y-116277065D01*
X113432625Y-116323261D01*
X113277934Y-116387336D01*
X113113719Y-116420000D01*
X112946281Y-116420000D01*
X112782066Y-116387336D01*
X112627375Y-116323261D01*
X112558238Y-116277065D01*
X112488156Y-116230238D01*
X112369762Y-116111844D01*
X112278912Y-115975877D01*
X112276739Y-115972625D01*
X112212664Y-115817934D01*
X112180000Y-115653719D01*
X112180000Y-115486281D01*
X112212664Y-115322066D01*
X112276739Y-115167375D01*
X112322935Y-115098238D01*
X112369762Y-115028156D01*
X112488156Y-114909762D01*
X112627374Y-114816740D01*
X112627375Y-114816739D01*
X112782066Y-114752664D01*
X112946281Y-114720000D01*
X113113719Y-114720000D01*
X113277934Y-114752664D01*
G37*
G36*
X111340000Y-116420000D02*
G01*
X109640000Y-116420000D01*
X109640000Y-114720000D01*
X111340000Y-114720000D01*
X111340000Y-116420000D01*
G37*
G36*
X151377934Y-114752664D02*
G01*
X151532625Y-114816739D01*
X151532626Y-114816740D01*
X151671844Y-114909762D01*
X151790238Y-115028156D01*
X151837065Y-115098238D01*
X151883261Y-115167375D01*
X151947336Y-115322066D01*
X151980000Y-115486281D01*
X151980000Y-115653719D01*
X151947336Y-115817934D01*
X151883261Y-115972625D01*
X151881088Y-115975877D01*
X151790238Y-116111844D01*
X151671844Y-116230238D01*
X151601762Y-116277065D01*
X151532625Y-116323261D01*
X151377934Y-116387336D01*
X151213719Y-116420000D01*
X151046281Y-116420000D01*
X150882066Y-116387336D01*
X150727375Y-116323261D01*
X150658238Y-116277065D01*
X150588156Y-116230238D01*
X150469762Y-116111844D01*
X150378912Y-115975877D01*
X150376739Y-115972625D01*
X150312664Y-115817934D01*
X150280000Y-115653719D01*
X150280000Y-115486281D01*
X150312664Y-115322066D01*
X150376739Y-115167375D01*
X150422935Y-115098238D01*
X150469762Y-115028156D01*
X150588156Y-114909762D01*
X150727374Y-114816740D01*
X150727375Y-114816739D01*
X150882066Y-114752664D01*
X151046281Y-114720000D01*
X151213719Y-114720000D01*
X151377934Y-114752664D01*
G37*
G36*
X165950000Y-115150000D02*
G01*
X164250000Y-115150000D01*
X164250000Y-113450000D01*
X165950000Y-113450000D01*
X165950000Y-115150000D01*
G37*
G36*
X167887934Y-113482664D02*
G01*
X168042625Y-113546739D01*
X168042626Y-113546740D01*
X168181844Y-113639762D01*
X168300238Y-113758156D01*
X168321515Y-113790000D01*
X168393261Y-113897375D01*
X168457336Y-114052066D01*
X168490000Y-114216281D01*
X168490000Y-114383719D01*
X168457336Y-114547934D01*
X168393261Y-114702625D01*
X168393260Y-114702626D01*
X168300238Y-114841844D01*
X168181844Y-114960238D01*
X168111762Y-115007065D01*
X168042625Y-115053261D01*
X167887934Y-115117336D01*
X167723719Y-115150000D01*
X167556281Y-115150000D01*
X167392066Y-115117336D01*
X167237375Y-115053261D01*
X167168238Y-115007065D01*
X167098156Y-114960238D01*
X166979762Y-114841844D01*
X166886740Y-114702626D01*
X166886739Y-114702625D01*
X166822664Y-114547934D01*
X166790000Y-114383719D01*
X166790000Y-114216281D01*
X166822664Y-114052066D01*
X166886739Y-113897375D01*
X166958485Y-113790000D01*
X166979762Y-113758156D01*
X167098156Y-113639762D01*
X167237374Y-113546740D01*
X167237375Y-113546739D01*
X167392066Y-113482664D01*
X167556281Y-113450000D01*
X167723719Y-113450000D01*
X167887934Y-113482664D01*
G37*
G36*
X172967934Y-113482664D02*
G01*
X173122625Y-113546739D01*
X173122626Y-113546740D01*
X173261844Y-113639762D01*
X173380238Y-113758156D01*
X173401515Y-113790000D01*
X173473261Y-113897375D01*
X173537336Y-114052066D01*
X173570000Y-114216281D01*
X173570000Y-114383719D01*
X173537336Y-114547934D01*
X173473261Y-114702625D01*
X173473260Y-114702626D01*
X173380238Y-114841844D01*
X173261844Y-114960238D01*
X173191762Y-115007065D01*
X173122625Y-115053261D01*
X172967934Y-115117336D01*
X172803719Y-115150000D01*
X172636281Y-115150000D01*
X172472066Y-115117336D01*
X172317375Y-115053261D01*
X172248238Y-115007065D01*
X172178156Y-114960238D01*
X172059762Y-114841844D01*
X171966740Y-114702626D01*
X171966739Y-114702625D01*
X171902664Y-114547934D01*
X171870000Y-114383719D01*
X171870000Y-114216281D01*
X171902664Y-114052066D01*
X171966739Y-113897375D01*
X172038485Y-113790000D01*
X172059762Y-113758156D01*
X172178156Y-113639762D01*
X172317374Y-113546740D01*
X172317375Y-113546739D01*
X172472066Y-113482664D01*
X172636281Y-113450000D01*
X172803719Y-113450000D01*
X172967934Y-113482664D01*
G37*
G36*
X170427934Y-113482664D02*
G01*
X170582625Y-113546739D01*
X170582626Y-113546740D01*
X170721844Y-113639762D01*
X170840238Y-113758156D01*
X170861515Y-113790000D01*
X170933261Y-113897375D01*
X170997336Y-114052066D01*
X171030000Y-114216281D01*
X171030000Y-114383719D01*
X170997336Y-114547934D01*
X170933261Y-114702625D01*
X170933260Y-114702626D01*
X170840238Y-114841844D01*
X170721844Y-114960238D01*
X170651762Y-115007065D01*
X170582625Y-115053261D01*
X170427934Y-115117336D01*
X170263719Y-115150000D01*
X170096281Y-115150000D01*
X169932066Y-115117336D01*
X169777375Y-115053261D01*
X169708238Y-115007065D01*
X169638156Y-114960238D01*
X169519762Y-114841844D01*
X169426740Y-114702626D01*
X169426739Y-114702625D01*
X169362664Y-114547934D01*
X169330000Y-114383719D01*
X169330000Y-114216281D01*
X169362664Y-114052066D01*
X169426739Y-113897375D01*
X169498485Y-113790000D01*
X169519762Y-113758156D01*
X169638156Y-113639762D01*
X169777374Y-113546740D01*
X169777375Y-113546739D01*
X169932066Y-113482664D01*
X170096281Y-113450000D01*
X170263719Y-113450000D01*
X170427934Y-113482664D01*
G37*
G36*
X100577934Y-112212664D02*
G01*
X100732625Y-112276739D01*
X100801762Y-112322935D01*
X100871844Y-112369762D01*
X100990238Y-112488156D01*
X101011515Y-112520000D01*
X101083261Y-112627375D01*
X101147336Y-112782066D01*
X101180000Y-112946281D01*
X101180000Y-113113719D01*
X101147336Y-113277934D01*
X101083261Y-113432625D01*
X101083260Y-113432626D01*
X100990238Y-113571844D01*
X100871844Y-113690238D01*
X100801762Y-113737065D01*
X100732625Y-113783261D01*
X100577934Y-113847336D01*
X100413719Y-113880000D01*
X100246281Y-113880000D01*
X100082066Y-113847336D01*
X99927375Y-113783261D01*
X99858238Y-113737065D01*
X99788156Y-113690238D01*
X99669762Y-113571844D01*
X99576740Y-113432626D01*
X99576739Y-113432625D01*
X99512664Y-113277934D01*
X99480000Y-113113719D01*
X99480000Y-112946281D01*
X99512664Y-112782066D01*
X99576739Y-112627375D01*
X99648485Y-112520000D01*
X99669762Y-112488156D01*
X99788156Y-112369762D01*
X99858238Y-112322935D01*
X99927375Y-112276739D01*
X100082066Y-112212664D01*
X100246281Y-112180000D01*
X100413719Y-112180000D01*
X100577934Y-112212664D01*
G37*
G36*
X103117934Y-112212664D02*
G01*
X103272625Y-112276739D01*
X103341762Y-112322935D01*
X103411844Y-112369762D01*
X103530238Y-112488156D01*
X103551515Y-112520000D01*
X103623261Y-112627375D01*
X103687336Y-112782066D01*
X103720000Y-112946281D01*
X103720000Y-113113719D01*
X103687336Y-113277934D01*
X103623261Y-113432625D01*
X103623260Y-113432626D01*
X103530238Y-113571844D01*
X103411844Y-113690238D01*
X103341762Y-113737065D01*
X103272625Y-113783261D01*
X103117934Y-113847336D01*
X102953719Y-113880000D01*
X102786281Y-113880000D01*
X102622066Y-113847336D01*
X102467375Y-113783261D01*
X102398238Y-113737065D01*
X102328156Y-113690238D01*
X102209762Y-113571844D01*
X102116740Y-113432626D01*
X102116739Y-113432625D01*
X102052664Y-113277934D01*
X102020000Y-113113719D01*
X102020000Y-112946281D01*
X102052664Y-112782066D01*
X102116739Y-112627375D01*
X102188485Y-112520000D01*
X102209762Y-112488156D01*
X102328156Y-112369762D01*
X102398238Y-112322935D01*
X102467375Y-112276739D01*
X102622066Y-112212664D01*
X102786281Y-112180000D01*
X102953719Y-112180000D01*
X103117934Y-112212664D01*
G37*
G36*
X98037934Y-112212664D02*
G01*
X98192625Y-112276739D01*
X98261762Y-112322935D01*
X98331844Y-112369762D01*
X98450238Y-112488156D01*
X98471515Y-112520000D01*
X98543261Y-112627375D01*
X98607336Y-112782066D01*
X98640000Y-112946281D01*
X98640000Y-113113719D01*
X98607336Y-113277934D01*
X98543261Y-113432625D01*
X98543260Y-113432626D01*
X98450238Y-113571844D01*
X98331844Y-113690238D01*
X98261762Y-113737065D01*
X98192625Y-113783261D01*
X98037934Y-113847336D01*
X97873719Y-113880000D01*
X97706281Y-113880000D01*
X97542066Y-113847336D01*
X97387375Y-113783261D01*
X97318238Y-113737065D01*
X97248156Y-113690238D01*
X97129762Y-113571844D01*
X97036740Y-113432626D01*
X97036739Y-113432625D01*
X96972664Y-113277934D01*
X96940000Y-113113719D01*
X96940000Y-112946281D01*
X96972664Y-112782066D01*
X97036739Y-112627375D01*
X97108485Y-112520000D01*
X97129762Y-112488156D01*
X97248156Y-112369762D01*
X97318238Y-112322935D01*
X97387375Y-112276739D01*
X97542066Y-112212664D01*
X97706281Y-112180000D01*
X97873719Y-112180000D01*
X98037934Y-112212664D01*
G37*
G36*
X95497934Y-112212664D02*
G01*
X95652625Y-112276739D01*
X95721762Y-112322935D01*
X95791844Y-112369762D01*
X95910238Y-112488156D01*
X95931515Y-112520000D01*
X96003261Y-112627375D01*
X96067336Y-112782066D01*
X96100000Y-112946281D01*
X96100000Y-113113719D01*
X96067336Y-113277934D01*
X96003261Y-113432625D01*
X96003260Y-113432626D01*
X95910238Y-113571844D01*
X95791844Y-113690238D01*
X95721762Y-113737065D01*
X95652625Y-113783261D01*
X95497934Y-113847336D01*
X95333719Y-113880000D01*
X95166281Y-113880000D01*
X95002066Y-113847336D01*
X94847375Y-113783261D01*
X94778238Y-113737065D01*
X94708156Y-113690238D01*
X94589762Y-113571844D01*
X94496740Y-113432626D01*
X94496739Y-113432625D01*
X94432664Y-113277934D01*
X94400000Y-113113719D01*
X94400000Y-112946281D01*
X94432664Y-112782066D01*
X94496739Y-112627375D01*
X94568485Y-112520000D01*
X94589762Y-112488156D01*
X94708156Y-112369762D01*
X94778238Y-112322935D01*
X94847375Y-112276739D01*
X95002066Y-112212664D01*
X95166281Y-112180000D01*
X95333719Y-112180000D01*
X95497934Y-112212664D01*
G37*
G36*
X151377934Y-112212664D02*
G01*
X151532625Y-112276739D01*
X151601762Y-112322935D01*
X151671844Y-112369762D01*
X151790238Y-112488156D01*
X151811515Y-112520000D01*
X151883261Y-112627375D01*
X151947336Y-112782066D01*
X151980000Y-112946281D01*
X151980000Y-113113719D01*
X151947336Y-113277934D01*
X151883261Y-113432625D01*
X151883260Y-113432626D01*
X151790238Y-113571844D01*
X151671844Y-113690238D01*
X151601762Y-113737065D01*
X151532625Y-113783261D01*
X151377934Y-113847336D01*
X151213719Y-113880000D01*
X151046281Y-113880000D01*
X150882066Y-113847336D01*
X150727375Y-113783261D01*
X150658238Y-113737065D01*
X150588156Y-113690238D01*
X150469762Y-113571844D01*
X150376740Y-113432626D01*
X150376739Y-113432625D01*
X150312664Y-113277934D01*
X150280000Y-113113719D01*
X150280000Y-112946281D01*
X150312664Y-112782066D01*
X150376739Y-112627375D01*
X150448485Y-112520000D01*
X150469762Y-112488156D01*
X150588156Y-112369762D01*
X150658238Y-112322935D01*
X150727375Y-112276739D01*
X150882066Y-112212664D01*
X151046281Y-112180000D01*
X151213719Y-112180000D01*
X151377934Y-112212664D01*
G37*
G36*
X148837934Y-112212664D02*
G01*
X148992625Y-112276739D01*
X149061762Y-112322935D01*
X149131844Y-112369762D01*
X149250238Y-112488156D01*
X149271515Y-112520000D01*
X149343261Y-112627375D01*
X149407336Y-112782066D01*
X149440000Y-112946281D01*
X149440000Y-113113719D01*
X149407336Y-113277934D01*
X149343261Y-113432625D01*
X149343260Y-113432626D01*
X149250238Y-113571844D01*
X149131844Y-113690238D01*
X149061762Y-113737065D01*
X148992625Y-113783261D01*
X148837934Y-113847336D01*
X148673719Y-113880000D01*
X148506281Y-113880000D01*
X148342066Y-113847336D01*
X148187375Y-113783261D01*
X148118238Y-113737065D01*
X148048156Y-113690238D01*
X147929762Y-113571844D01*
X147836740Y-113432626D01*
X147836739Y-113432625D01*
X147772664Y-113277934D01*
X147740000Y-113113719D01*
X147740000Y-112946281D01*
X147772664Y-112782066D01*
X147836739Y-112627375D01*
X147908485Y-112520000D01*
X147929762Y-112488156D01*
X148048156Y-112369762D01*
X148118238Y-112322935D01*
X148187375Y-112276739D01*
X148342066Y-112212664D01*
X148506281Y-112180000D01*
X148673719Y-112180000D01*
X148837934Y-112212664D01*
G37*
G36*
X146297934Y-112212664D02*
G01*
X146452625Y-112276739D01*
X146521762Y-112322935D01*
X146591844Y-112369762D01*
X146710238Y-112488156D01*
X146731515Y-112520000D01*
X146803261Y-112627375D01*
X146867336Y-112782066D01*
X146900000Y-112946281D01*
X146900000Y-113113719D01*
X146867336Y-113277934D01*
X146803261Y-113432625D01*
X146803260Y-113432626D01*
X146710238Y-113571844D01*
X146591844Y-113690238D01*
X146521762Y-113737065D01*
X146452625Y-113783261D01*
X146297934Y-113847336D01*
X146133719Y-113880000D01*
X145966281Y-113880000D01*
X145802066Y-113847336D01*
X145647375Y-113783261D01*
X145578238Y-113737065D01*
X145508156Y-113690238D01*
X145389762Y-113571844D01*
X145296740Y-113432626D01*
X145296739Y-113432625D01*
X145232664Y-113277934D01*
X145200000Y-113113719D01*
X145200000Y-112946281D01*
X145232664Y-112782066D01*
X145296739Y-112627375D01*
X145368485Y-112520000D01*
X145389762Y-112488156D01*
X145508156Y-112369762D01*
X145578238Y-112322935D01*
X145647375Y-112276739D01*
X145802066Y-112212664D01*
X145966281Y-112180000D01*
X146133719Y-112180000D01*
X146297934Y-112212664D01*
G37*
G36*
X125977934Y-112212664D02*
G01*
X126132625Y-112276739D01*
X126201762Y-112322935D01*
X126271844Y-112369762D01*
X126390238Y-112488156D01*
X126411515Y-112520000D01*
X126483261Y-112627375D01*
X126547336Y-112782066D01*
X126580000Y-112946281D01*
X126580000Y-113113719D01*
X126547336Y-113277934D01*
X126483261Y-113432625D01*
X126483260Y-113432626D01*
X126390238Y-113571844D01*
X126271844Y-113690238D01*
X126201762Y-113737065D01*
X126132625Y-113783261D01*
X125977934Y-113847336D01*
X125813719Y-113880000D01*
X125646281Y-113880000D01*
X125482066Y-113847336D01*
X125327375Y-113783261D01*
X125258238Y-113737065D01*
X125188156Y-113690238D01*
X125069762Y-113571844D01*
X124976740Y-113432626D01*
X124976739Y-113432625D01*
X124912664Y-113277934D01*
X124880000Y-113113719D01*
X124880000Y-112946281D01*
X124912664Y-112782066D01*
X124976739Y-112627375D01*
X125048485Y-112520000D01*
X125069762Y-112488156D01*
X125188156Y-112369762D01*
X125258238Y-112322935D01*
X125327375Y-112276739D01*
X125482066Y-112212664D01*
X125646281Y-112180000D01*
X125813719Y-112180000D01*
X125977934Y-112212664D01*
G37*
G36*
X118357934Y-112212664D02*
G01*
X118512625Y-112276739D01*
X118581762Y-112322935D01*
X118651844Y-112369762D01*
X118770238Y-112488156D01*
X118791515Y-112520000D01*
X118863261Y-112627375D01*
X118927336Y-112782066D01*
X118960000Y-112946281D01*
X118960000Y-113113719D01*
X118927336Y-113277934D01*
X118863261Y-113432625D01*
X118863260Y-113432626D01*
X118770238Y-113571844D01*
X118651844Y-113690238D01*
X118581762Y-113737065D01*
X118512625Y-113783261D01*
X118357934Y-113847336D01*
X118193719Y-113880000D01*
X118026281Y-113880000D01*
X117862066Y-113847336D01*
X117707375Y-113783261D01*
X117638238Y-113737065D01*
X117568156Y-113690238D01*
X117449762Y-113571844D01*
X117356740Y-113432626D01*
X117356739Y-113432625D01*
X117292664Y-113277934D01*
X117260000Y-113113719D01*
X117260000Y-112946281D01*
X117292664Y-112782066D01*
X117356739Y-112627375D01*
X117428485Y-112520000D01*
X117449762Y-112488156D01*
X117568156Y-112369762D01*
X117638238Y-112322935D01*
X117707375Y-112276739D01*
X117862066Y-112212664D01*
X118026281Y-112180000D01*
X118193719Y-112180000D01*
X118357934Y-112212664D01*
G37*
G36*
X143757934Y-112212664D02*
G01*
X143912625Y-112276739D01*
X143981762Y-112322935D01*
X144051844Y-112369762D01*
X144170238Y-112488156D01*
X144191515Y-112520000D01*
X144263261Y-112627375D01*
X144327336Y-112782066D01*
X144360000Y-112946281D01*
X144360000Y-113113719D01*
X144327336Y-113277934D01*
X144263261Y-113432625D01*
X144263260Y-113432626D01*
X144170238Y-113571844D01*
X144051844Y-113690238D01*
X143981762Y-113737065D01*
X143912625Y-113783261D01*
X143757934Y-113847336D01*
X143593719Y-113880000D01*
X143426281Y-113880000D01*
X143262066Y-113847336D01*
X143107375Y-113783261D01*
X143038238Y-113737065D01*
X142968156Y-113690238D01*
X142849762Y-113571844D01*
X142756740Y-113432626D01*
X142756739Y-113432625D01*
X142692664Y-113277934D01*
X142660000Y-113113719D01*
X142660000Y-112946281D01*
X142692664Y-112782066D01*
X142756739Y-112627375D01*
X142828485Y-112520000D01*
X142849762Y-112488156D01*
X142968156Y-112369762D01*
X143038238Y-112322935D01*
X143107375Y-112276739D01*
X143262066Y-112212664D01*
X143426281Y-112180000D01*
X143593719Y-112180000D01*
X143757934Y-112212664D01*
G37*
G36*
X128517934Y-112212664D02*
G01*
X128672625Y-112276739D01*
X128741762Y-112322935D01*
X128811844Y-112369762D01*
X128930238Y-112488156D01*
X128951515Y-112520000D01*
X129023261Y-112627375D01*
X129087336Y-112782066D01*
X129120000Y-112946281D01*
X129120000Y-113113719D01*
X129087336Y-113277934D01*
X129023261Y-113432625D01*
X129023260Y-113432626D01*
X128930238Y-113571844D01*
X128811844Y-113690238D01*
X128741762Y-113737065D01*
X128672625Y-113783261D01*
X128517934Y-113847336D01*
X128353719Y-113880000D01*
X128186281Y-113880000D01*
X128022066Y-113847336D01*
X127867375Y-113783261D01*
X127798238Y-113737065D01*
X127728156Y-113690238D01*
X127609762Y-113571844D01*
X127516740Y-113432626D01*
X127516739Y-113432625D01*
X127452664Y-113277934D01*
X127420000Y-113113719D01*
X127420000Y-112946281D01*
X127452664Y-112782066D01*
X127516739Y-112627375D01*
X127588485Y-112520000D01*
X127609762Y-112488156D01*
X127728156Y-112369762D01*
X127798238Y-112322935D01*
X127867375Y-112276739D01*
X128022066Y-112212664D01*
X128186281Y-112180000D01*
X128353719Y-112180000D01*
X128517934Y-112212664D01*
G37*
G36*
X131057934Y-112212664D02*
G01*
X131212625Y-112276739D01*
X131281762Y-112322935D01*
X131351844Y-112369762D01*
X131470238Y-112488156D01*
X131491515Y-112520000D01*
X131563261Y-112627375D01*
X131627336Y-112782066D01*
X131660000Y-112946281D01*
X131660000Y-113113719D01*
X131627336Y-113277934D01*
X131563261Y-113432625D01*
X131563260Y-113432626D01*
X131470238Y-113571844D01*
X131351844Y-113690238D01*
X131281762Y-113737065D01*
X131212625Y-113783261D01*
X131057934Y-113847336D01*
X130893719Y-113880000D01*
X130726281Y-113880000D01*
X130562066Y-113847336D01*
X130407375Y-113783261D01*
X130338238Y-113737065D01*
X130268156Y-113690238D01*
X130149762Y-113571844D01*
X130056740Y-113432626D01*
X130056739Y-113432625D01*
X129992664Y-113277934D01*
X129960000Y-113113719D01*
X129960000Y-112946281D01*
X129992664Y-112782066D01*
X130056739Y-112627375D01*
X130128485Y-112520000D01*
X130149762Y-112488156D01*
X130268156Y-112369762D01*
X130338238Y-112322935D01*
X130407375Y-112276739D01*
X130562066Y-112212664D01*
X130726281Y-112180000D01*
X130893719Y-112180000D01*
X131057934Y-112212664D01*
G37*
G36*
X110737934Y-112212664D02*
G01*
X110892625Y-112276739D01*
X110961762Y-112322935D01*
X111031844Y-112369762D01*
X111150238Y-112488156D01*
X111171515Y-112520000D01*
X111243261Y-112627375D01*
X111307336Y-112782066D01*
X111340000Y-112946281D01*
X111340000Y-113113719D01*
X111307336Y-113277934D01*
X111243261Y-113432625D01*
X111243260Y-113432626D01*
X111150238Y-113571844D01*
X111031844Y-113690238D01*
X110961762Y-113737065D01*
X110892625Y-113783261D01*
X110737934Y-113847336D01*
X110573719Y-113880000D01*
X110406281Y-113880000D01*
X110242066Y-113847336D01*
X110087375Y-113783261D01*
X110018238Y-113737065D01*
X109948156Y-113690238D01*
X109829762Y-113571844D01*
X109736740Y-113432626D01*
X109736739Y-113432625D01*
X109672664Y-113277934D01*
X109640000Y-113113719D01*
X109640000Y-112946281D01*
X109672664Y-112782066D01*
X109736739Y-112627375D01*
X109808485Y-112520000D01*
X109829762Y-112488156D01*
X109948156Y-112369762D01*
X110018238Y-112322935D01*
X110087375Y-112276739D01*
X110242066Y-112212664D01*
X110406281Y-112180000D01*
X110573719Y-112180000D01*
X110737934Y-112212664D01*
G37*
G36*
X113277934Y-112212664D02*
G01*
X113432625Y-112276739D01*
X113501762Y-112322935D01*
X113571844Y-112369762D01*
X113690238Y-112488156D01*
X113711515Y-112520000D01*
X113783261Y-112627375D01*
X113847336Y-112782066D01*
X113880000Y-112946281D01*
X113880000Y-113113719D01*
X113847336Y-113277934D01*
X113783261Y-113432625D01*
X113783260Y-113432626D01*
X113690238Y-113571844D01*
X113571844Y-113690238D01*
X113501762Y-113737065D01*
X113432625Y-113783261D01*
X113277934Y-113847336D01*
X113113719Y-113880000D01*
X112946281Y-113880000D01*
X112782066Y-113847336D01*
X112627375Y-113783261D01*
X112558238Y-113737065D01*
X112488156Y-113690238D01*
X112369762Y-113571844D01*
X112276740Y-113432626D01*
X112276739Y-113432625D01*
X112212664Y-113277934D01*
X112180000Y-113113719D01*
X112180000Y-112946281D01*
X112212664Y-112782066D01*
X112276739Y-112627375D01*
X112348485Y-112520000D01*
X112369762Y-112488156D01*
X112488156Y-112369762D01*
X112558238Y-112322935D01*
X112627375Y-112276739D01*
X112782066Y-112212664D01*
X112946281Y-112180000D01*
X113113719Y-112180000D01*
X113277934Y-112212664D01*
G37*
G36*
X133597934Y-112212664D02*
G01*
X133752625Y-112276739D01*
X133821762Y-112322935D01*
X133891844Y-112369762D01*
X134010238Y-112488156D01*
X134031515Y-112520000D01*
X134103261Y-112627375D01*
X134167336Y-112782066D01*
X134200000Y-112946281D01*
X134200000Y-113113719D01*
X134167336Y-113277934D01*
X134103261Y-113432625D01*
X134103260Y-113432626D01*
X134010238Y-113571844D01*
X133891844Y-113690238D01*
X133821762Y-113737065D01*
X133752625Y-113783261D01*
X133597934Y-113847336D01*
X133433719Y-113880000D01*
X133266281Y-113880000D01*
X133102066Y-113847336D01*
X132947375Y-113783261D01*
X132878238Y-113737065D01*
X132808156Y-113690238D01*
X132689762Y-113571844D01*
X132596740Y-113432626D01*
X132596739Y-113432625D01*
X132532664Y-113277934D01*
X132500000Y-113113719D01*
X132500000Y-112946281D01*
X132532664Y-112782066D01*
X132596739Y-112627375D01*
X132668485Y-112520000D01*
X132689762Y-112488156D01*
X132808156Y-112369762D01*
X132878238Y-112322935D01*
X132947375Y-112276739D01*
X133102066Y-112212664D01*
X133266281Y-112180000D01*
X133433719Y-112180000D01*
X133597934Y-112212664D01*
G37*
G36*
X115817934Y-112212664D02*
G01*
X115972625Y-112276739D01*
X116041762Y-112322935D01*
X116111844Y-112369762D01*
X116230238Y-112488156D01*
X116251515Y-112520000D01*
X116323261Y-112627375D01*
X116387336Y-112782066D01*
X116420000Y-112946281D01*
X116420000Y-113113719D01*
X116387336Y-113277934D01*
X116323261Y-113432625D01*
X116323260Y-113432626D01*
X116230238Y-113571844D01*
X116111844Y-113690238D01*
X116041762Y-113737065D01*
X115972625Y-113783261D01*
X115817934Y-113847336D01*
X115653719Y-113880000D01*
X115486281Y-113880000D01*
X115322066Y-113847336D01*
X115167375Y-113783261D01*
X115098238Y-113737065D01*
X115028156Y-113690238D01*
X114909762Y-113571844D01*
X114816740Y-113432626D01*
X114816739Y-113432625D01*
X114752664Y-113277934D01*
X114720000Y-113113719D01*
X114720000Y-112946281D01*
X114752664Y-112782066D01*
X114816739Y-112627375D01*
X114888485Y-112520000D01*
X114909762Y-112488156D01*
X115028156Y-112369762D01*
X115098238Y-112322935D01*
X115167375Y-112276739D01*
X115322066Y-112212664D01*
X115486281Y-112180000D01*
X115653719Y-112180000D01*
X115817934Y-112212664D01*
G37*
G36*
X136137934Y-112212664D02*
G01*
X136292625Y-112276739D01*
X136361762Y-112322935D01*
X136431844Y-112369762D01*
X136550238Y-112488156D01*
X136571515Y-112520000D01*
X136643261Y-112627375D01*
X136707336Y-112782066D01*
X136740000Y-112946281D01*
X136740000Y-113113719D01*
X136707336Y-113277934D01*
X136643261Y-113432625D01*
X136643260Y-113432626D01*
X136550238Y-113571844D01*
X136431844Y-113690238D01*
X136361762Y-113737065D01*
X136292625Y-113783261D01*
X136137934Y-113847336D01*
X135973719Y-113880000D01*
X135806281Y-113880000D01*
X135642066Y-113847336D01*
X135487375Y-113783261D01*
X135418238Y-113737065D01*
X135348156Y-113690238D01*
X135229762Y-113571844D01*
X135136740Y-113432626D01*
X135136739Y-113432625D01*
X135072664Y-113277934D01*
X135040000Y-113113719D01*
X135040000Y-112946281D01*
X135072664Y-112782066D01*
X135136739Y-112627375D01*
X135208485Y-112520000D01*
X135229762Y-112488156D01*
X135348156Y-112369762D01*
X135418238Y-112322935D01*
X135487375Y-112276739D01*
X135642066Y-112212664D01*
X135806281Y-112180000D01*
X135973719Y-112180000D01*
X136137934Y-112212664D01*
G37*
G36*
X187450000Y-113790000D02*
G01*
X185930000Y-113790000D01*
X185930000Y-112270000D01*
X187450000Y-112270000D01*
X187450000Y-113790000D01*
G37*
G36*
X200836429Y-110373022D02*
G01*
X201006082Y-110424486D01*
X201162431Y-110508055D01*
X201299475Y-110620525D01*
X201411945Y-110757569D01*
X201495514Y-110913917D01*
X201546978Y-111083570D01*
X201560000Y-111215789D01*
X201560000Y-112304211D01*
X201546978Y-112436430D01*
X201495514Y-112606083D01*
X201411945Y-112762431D01*
X201299475Y-112899475D01*
X201162431Y-113011945D01*
X201006083Y-113095514D01*
X200836430Y-113146978D01*
X200660000Y-113164354D01*
X200483571Y-113146978D01*
X200313918Y-113095514D01*
X200157570Y-113011945D01*
X200020526Y-112899475D01*
X199908056Y-112762431D01*
X199824487Y-112606083D01*
X199773023Y-112436430D01*
X199760001Y-112304211D01*
X199760000Y-111215790D01*
X199773022Y-111083571D01*
X199824486Y-110913918D01*
X199908055Y-110757569D01*
X200020525Y-110620525D01*
X200157569Y-110508055D01*
X200313917Y-110424486D01*
X200483570Y-110373022D01*
X200660000Y-110355646D01*
X200836429Y-110373022D01*
G37*
G36*
X189451682Y-111029206D02*
G01*
X189582929Y-111083570D01*
X189589995Y-111086497D01*
X189714472Y-111169670D01*
X189820330Y-111275528D01*
X189841583Y-111307336D01*
X189903504Y-111400007D01*
X189960794Y-111538318D01*
X189990000Y-111685145D01*
X189990000Y-111834855D01*
X189960794Y-111981682D01*
X189960793Y-111981684D01*
X189903503Y-112119995D01*
X189820330Y-112244472D01*
X189714472Y-112350330D01*
X189589995Y-112433503D01*
X189589994Y-112433504D01*
X189589993Y-112433504D01*
X189451682Y-112490794D01*
X189304855Y-112520000D01*
X189155145Y-112520000D01*
X189008318Y-112490794D01*
X188870007Y-112433504D01*
X188870006Y-112433504D01*
X188870005Y-112433503D01*
X188745528Y-112350330D01*
X188639670Y-112244472D01*
X188556497Y-112119995D01*
X188499207Y-111981684D01*
X188499206Y-111981682D01*
X188470000Y-111834855D01*
X188470000Y-111685145D01*
X188499206Y-111538318D01*
X188556496Y-111400007D01*
X188618417Y-111307336D01*
X188639670Y-111275528D01*
X188745528Y-111169670D01*
X188870005Y-111086497D01*
X188877071Y-111083570D01*
X189008318Y-111029206D01*
X189155145Y-111000000D01*
X189304855Y-111000000D01*
X189451682Y-111029206D01*
G37*
G36*
X98037934Y-109672664D02*
G01*
X98192625Y-109736739D01*
X98261762Y-109782935D01*
X98331844Y-109829762D01*
X98450238Y-109948156D01*
X98488574Y-110005530D01*
X98543261Y-110087375D01*
X98607336Y-110242066D01*
X98640000Y-110406281D01*
X98640000Y-110573719D01*
X98607336Y-110737934D01*
X98543261Y-110892625D01*
X98543260Y-110892626D01*
X98450238Y-111031844D01*
X98331844Y-111150238D01*
X98302763Y-111169669D01*
X98192625Y-111243261D01*
X98037934Y-111307336D01*
X97873719Y-111340000D01*
X97706281Y-111340000D01*
X97542066Y-111307336D01*
X97387375Y-111243261D01*
X97277237Y-111169669D01*
X97248156Y-111150238D01*
X97129762Y-111031844D01*
X97036740Y-110892626D01*
X97036739Y-110892625D01*
X96972664Y-110737934D01*
X96940000Y-110573719D01*
X96940000Y-110406281D01*
X96972664Y-110242066D01*
X97036739Y-110087375D01*
X97091426Y-110005530D01*
X97129762Y-109948156D01*
X97248156Y-109829762D01*
X97318238Y-109782935D01*
X97387375Y-109736739D01*
X97542066Y-109672664D01*
X97706281Y-109640000D01*
X97873719Y-109640000D01*
X98037934Y-109672664D01*
G37*
G36*
X95497934Y-109672664D02*
G01*
X95652625Y-109736739D01*
X95721762Y-109782935D01*
X95791844Y-109829762D01*
X95910238Y-109948156D01*
X95948574Y-110005530D01*
X96003261Y-110087375D01*
X96067336Y-110242066D01*
X96100000Y-110406281D01*
X96100000Y-110573719D01*
X96067336Y-110737934D01*
X96003261Y-110892625D01*
X96003260Y-110892626D01*
X95910238Y-111031844D01*
X95791844Y-111150238D01*
X95762763Y-111169669D01*
X95652625Y-111243261D01*
X95497934Y-111307336D01*
X95333719Y-111340000D01*
X95166281Y-111340000D01*
X95002066Y-111307336D01*
X94847375Y-111243261D01*
X94737237Y-111169669D01*
X94708156Y-111150238D01*
X94589762Y-111031844D01*
X94496740Y-110892626D01*
X94496739Y-110892625D01*
X94432664Y-110737934D01*
X94400000Y-110573719D01*
X94400000Y-110406281D01*
X94432664Y-110242066D01*
X94496739Y-110087375D01*
X94551426Y-110005530D01*
X94589762Y-109948156D01*
X94708156Y-109829762D01*
X94778238Y-109782935D01*
X94847375Y-109736739D01*
X95002066Y-109672664D01*
X95166281Y-109640000D01*
X95333719Y-109640000D01*
X95497934Y-109672664D01*
G37*
G36*
X103117934Y-109672664D02*
G01*
X103272625Y-109736739D01*
X103341762Y-109782935D01*
X103411844Y-109829762D01*
X103530238Y-109948156D01*
X103568574Y-110005530D01*
X103623261Y-110087375D01*
X103687336Y-110242066D01*
X103720000Y-110406281D01*
X103720000Y-110573719D01*
X103687336Y-110737934D01*
X103623261Y-110892625D01*
X103623260Y-110892626D01*
X103530238Y-111031844D01*
X103411844Y-111150238D01*
X103382763Y-111169669D01*
X103272625Y-111243261D01*
X103117934Y-111307336D01*
X102953719Y-111340000D01*
X102786281Y-111340000D01*
X102622066Y-111307336D01*
X102467375Y-111243261D01*
X102357237Y-111169669D01*
X102328156Y-111150238D01*
X102209762Y-111031844D01*
X102116740Y-110892626D01*
X102116739Y-110892625D01*
X102052664Y-110737934D01*
X102020000Y-110573719D01*
X102020000Y-110406281D01*
X102052664Y-110242066D01*
X102116739Y-110087375D01*
X102171426Y-110005530D01*
X102209762Y-109948156D01*
X102328156Y-109829762D01*
X102398238Y-109782935D01*
X102467375Y-109736739D01*
X102622066Y-109672664D01*
X102786281Y-109640000D01*
X102953719Y-109640000D01*
X103117934Y-109672664D01*
G37*
G36*
X100577934Y-109672664D02*
G01*
X100732625Y-109736739D01*
X100801762Y-109782935D01*
X100871844Y-109829762D01*
X100990238Y-109948156D01*
X101028574Y-110005530D01*
X101083261Y-110087375D01*
X101147336Y-110242066D01*
X101180000Y-110406281D01*
X101180000Y-110573719D01*
X101147336Y-110737934D01*
X101083261Y-110892625D01*
X101083260Y-110892626D01*
X100990238Y-111031844D01*
X100871844Y-111150238D01*
X100842763Y-111169669D01*
X100732625Y-111243261D01*
X100577934Y-111307336D01*
X100413719Y-111340000D01*
X100246281Y-111340000D01*
X100082066Y-111307336D01*
X99927375Y-111243261D01*
X99817237Y-111169669D01*
X99788156Y-111150238D01*
X99669762Y-111031844D01*
X99576740Y-110892626D01*
X99576739Y-110892625D01*
X99512664Y-110737934D01*
X99480000Y-110573719D01*
X99480000Y-110406281D01*
X99512664Y-110242066D01*
X99576739Y-110087375D01*
X99631426Y-110005530D01*
X99669762Y-109948156D01*
X99788156Y-109829762D01*
X99858238Y-109782935D01*
X99927375Y-109736739D01*
X100082066Y-109672664D01*
X100246281Y-109640000D01*
X100413719Y-109640000D01*
X100577934Y-109672664D01*
G37*
G36*
X186911682Y-109759206D02*
G01*
X187035109Y-109810331D01*
X187049995Y-109816497D01*
X187174472Y-109899670D01*
X187280330Y-110005528D01*
X187363503Y-110130005D01*
X187363504Y-110130007D01*
X187420794Y-110268318D01*
X187450000Y-110415145D01*
X187450000Y-110564855D01*
X187420794Y-110711682D01*
X187420793Y-110711684D01*
X187363503Y-110849995D01*
X187280330Y-110974472D01*
X187174472Y-111080330D01*
X187049995Y-111163503D01*
X187049994Y-111163504D01*
X187049993Y-111163504D01*
X186911682Y-111220794D01*
X186764855Y-111250000D01*
X186615145Y-111250000D01*
X186468318Y-111220794D01*
X186330007Y-111163504D01*
X186330006Y-111163504D01*
X186330005Y-111163503D01*
X186205528Y-111080330D01*
X186099670Y-110974472D01*
X186016497Y-110849995D01*
X185959207Y-110711684D01*
X185959206Y-110711682D01*
X185930000Y-110564855D01*
X185930000Y-110415145D01*
X185959206Y-110268318D01*
X186016496Y-110130007D01*
X186016497Y-110130005D01*
X186099670Y-110005528D01*
X186205528Y-109899670D01*
X186330005Y-109816497D01*
X186344891Y-109810331D01*
X186468318Y-109759206D01*
X186615145Y-109730000D01*
X186764855Y-109730000D01*
X186911682Y-109759206D01*
G37*
G36*
X198436429Y-108373022D02*
G01*
X198606082Y-108424486D01*
X198762431Y-108508055D01*
X198899475Y-108620525D01*
X199011945Y-108757569D01*
X199095514Y-108913917D01*
X199146978Y-109083570D01*
X199160000Y-109215789D01*
X199160000Y-110304211D01*
X199146978Y-110436430D01*
X199095514Y-110606083D01*
X199011945Y-110762431D01*
X198899475Y-110899475D01*
X198762431Y-111011945D01*
X198606083Y-111095514D01*
X198436430Y-111146978D01*
X198260000Y-111164354D01*
X198083571Y-111146978D01*
X197913918Y-111095514D01*
X197757570Y-111011945D01*
X197620526Y-110899475D01*
X197508056Y-110762431D01*
X197424487Y-110606083D01*
X197373023Y-110436430D01*
X197360001Y-110304211D01*
X197360000Y-109215790D01*
X197373022Y-109083571D01*
X197424486Y-108913918D01*
X197508055Y-108757569D01*
X197620525Y-108620525D01*
X197757569Y-108508055D01*
X197913917Y-108424486D01*
X198083570Y-108373022D01*
X198260000Y-108355646D01*
X198436429Y-108373022D01*
G37*
G36*
X192936429Y-108373022D02*
G01*
X193106082Y-108424486D01*
X193262431Y-108508055D01*
X193399475Y-108620525D01*
X193511945Y-108757569D01*
X193595514Y-108913917D01*
X193646978Y-109083570D01*
X193660000Y-109215789D01*
X193660000Y-110304211D01*
X193646978Y-110436430D01*
X193595514Y-110606083D01*
X193511945Y-110762431D01*
X193399475Y-110899475D01*
X193262431Y-111011945D01*
X193106083Y-111095514D01*
X192936430Y-111146978D01*
X192760000Y-111164354D01*
X192583571Y-111146978D01*
X192413918Y-111095514D01*
X192257570Y-111011945D01*
X192120526Y-110899475D01*
X192008056Y-110762431D01*
X191924487Y-110606083D01*
X191873023Y-110436430D01*
X191860001Y-110304211D01*
X191860000Y-109215790D01*
X191873022Y-109083571D01*
X191924486Y-108913918D01*
X192008055Y-108757569D01*
X192120525Y-108620525D01*
X192257569Y-108508055D01*
X192413917Y-108424486D01*
X192583570Y-108373022D01*
X192760000Y-108355646D01*
X192936429Y-108373022D01*
G37*
G36*
X189451682Y-108489206D02*
G01*
X189575109Y-108540331D01*
X189589995Y-108546497D01*
X189714472Y-108629670D01*
X189820330Y-108735528D01*
X189835057Y-108757569D01*
X189903504Y-108860007D01*
X189960794Y-108998318D01*
X189990000Y-109145145D01*
X189990000Y-109294855D01*
X189960794Y-109441682D01*
X189960793Y-109441684D01*
X189903503Y-109579995D01*
X189820330Y-109704472D01*
X189714472Y-109810330D01*
X189589995Y-109893503D01*
X189589994Y-109893504D01*
X189589993Y-109893504D01*
X189451682Y-109950794D01*
X189304855Y-109980000D01*
X189155145Y-109980000D01*
X189008318Y-109950794D01*
X188870007Y-109893504D01*
X188870006Y-109893504D01*
X188870005Y-109893503D01*
X188745528Y-109810330D01*
X188639670Y-109704472D01*
X188556497Y-109579995D01*
X188499207Y-109441684D01*
X188499206Y-109441682D01*
X188470000Y-109294855D01*
X188470000Y-109145145D01*
X188499206Y-108998318D01*
X188556496Y-108860007D01*
X188624943Y-108757569D01*
X188639670Y-108735528D01*
X188745528Y-108629670D01*
X188870005Y-108546497D01*
X188884891Y-108540331D01*
X189008318Y-108489206D01*
X189155145Y-108460000D01*
X189304855Y-108460000D01*
X189451682Y-108489206D01*
G37*
G36*
X141970000Y-108950000D02*
G01*
X139970000Y-108950000D01*
X139970000Y-106950000D01*
X141970000Y-106950000D01*
X141970000Y-108950000D01*
G37*
G36*
X186911682Y-107219206D02*
G01*
X187035109Y-107270331D01*
X187049995Y-107276497D01*
X187174472Y-107359670D01*
X187280330Y-107465528D01*
X187280331Y-107465530D01*
X187363504Y-107590007D01*
X187420794Y-107728318D01*
X187450000Y-107875145D01*
X187450000Y-108024855D01*
X187420794Y-108171682D01*
X187420793Y-108171684D01*
X187363503Y-108309995D01*
X187280330Y-108434472D01*
X187174472Y-108540330D01*
X187049995Y-108623503D01*
X187049994Y-108623504D01*
X187049993Y-108623504D01*
X186911682Y-108680794D01*
X186764855Y-108710000D01*
X186615145Y-108710000D01*
X186468318Y-108680794D01*
X186330007Y-108623504D01*
X186330006Y-108623504D01*
X186330005Y-108623503D01*
X186205528Y-108540330D01*
X186099670Y-108434472D01*
X186016497Y-108309995D01*
X185959207Y-108171684D01*
X185959206Y-108171682D01*
X185930000Y-108024855D01*
X185930000Y-107875145D01*
X185959206Y-107728318D01*
X186016496Y-107590007D01*
X186099669Y-107465530D01*
X186099670Y-107465528D01*
X186205528Y-107359670D01*
X186330005Y-107276497D01*
X186344891Y-107270331D01*
X186468318Y-107219206D01*
X186615145Y-107190000D01*
X186764855Y-107190000D01*
X186911682Y-107219206D01*
G37*
G36*
X189451682Y-105949206D02*
G01*
X189451685Y-105949207D01*
X189451684Y-105949207D01*
X189589995Y-106006497D01*
X189714472Y-106089670D01*
X189820330Y-106195528D01*
X189903503Y-106320005D01*
X189903504Y-106320007D01*
X189960794Y-106458318D01*
X189990000Y-106605145D01*
X189990000Y-106754855D01*
X189960794Y-106901682D01*
X189960793Y-106901684D01*
X189903503Y-107039995D01*
X189820330Y-107164472D01*
X189714472Y-107270330D01*
X189589995Y-107353503D01*
X189589994Y-107353504D01*
X189589993Y-107353504D01*
X189451682Y-107410794D01*
X189304855Y-107440000D01*
X189155145Y-107440000D01*
X189008318Y-107410794D01*
X188870007Y-107353504D01*
X188870006Y-107353504D01*
X188870005Y-107353503D01*
X188745528Y-107270330D01*
X188639670Y-107164472D01*
X188556497Y-107039995D01*
X188499207Y-106901684D01*
X188499206Y-106901682D01*
X188470000Y-106754855D01*
X188470000Y-106605145D01*
X188499206Y-106458318D01*
X188556496Y-106320007D01*
X188556497Y-106320005D01*
X188639670Y-106195528D01*
X188745528Y-106089670D01*
X188870005Y-106006497D01*
X189008316Y-105949207D01*
X189008315Y-105949207D01*
X189008318Y-105949206D01*
X189155145Y-105920000D01*
X189304855Y-105920000D01*
X189451682Y-105949206D01*
G37*
G36*
X196053993Y-103217447D02*
G01*
X196053996Y-103217448D01*
X196053995Y-103217448D01*
X196349726Y-103339943D01*
X196615877Y-103517780D01*
X196842220Y-103744123D01*
X197020057Y-104010274D01*
X197020057Y-104010275D01*
X197142553Y-104306007D01*
X197205000Y-104619950D01*
X197205000Y-104940050D01*
X197142553Y-105253993D01*
X197142552Y-105253995D01*
X197020057Y-105549726D01*
X196842220Y-105815877D01*
X196615877Y-106042220D01*
X196349726Y-106220057D01*
X196140613Y-106306674D01*
X196053993Y-106342553D01*
X195740050Y-106405000D01*
X195419950Y-106405000D01*
X195106007Y-106342553D01*
X195019387Y-106306674D01*
X194810274Y-106220057D01*
X194544123Y-106042220D01*
X194317780Y-105815877D01*
X194139943Y-105549726D01*
X194017448Y-105253995D01*
X194017447Y-105253993D01*
X193955000Y-104940050D01*
X193955000Y-104619950D01*
X194017447Y-104306007D01*
X194139943Y-104010275D01*
X194139943Y-104010274D01*
X194317780Y-103744123D01*
X194544123Y-103517780D01*
X194810274Y-103339943D01*
X195106005Y-103217448D01*
X195106004Y-103217448D01*
X195106007Y-103217447D01*
X195419950Y-103155000D01*
X195740050Y-103155000D01*
X196053993Y-103217447D01*
G37*
G36*
X151980000Y-103720000D02*
G01*
X150280000Y-103720000D01*
X150280000Y-102020000D01*
X151980000Y-102020000D01*
X151980000Y-103720000D01*
G37*
G36*
X141165090Y-99369215D02*
G01*
X141261689Y-99388429D01*
X141443678Y-99463811D01*
X141607463Y-99573249D01*
X141746751Y-99712537D01*
X141856189Y-99876322D01*
X141931571Y-100058311D01*
X141936296Y-100082066D01*
X141970000Y-100251507D01*
X141970000Y-100448493D01*
X141965776Y-100469726D01*
X141931571Y-100641689D01*
X141856189Y-100823678D01*
X141746751Y-100987463D01*
X141607463Y-101126751D01*
X141443678Y-101236189D01*
X141261689Y-101311571D01*
X141165090Y-101330785D01*
X141068493Y-101350000D01*
X140871507Y-101350000D01*
X140774910Y-101330785D01*
X140678311Y-101311571D01*
X140496322Y-101236189D01*
X140332537Y-101126751D01*
X140193249Y-100987463D01*
X140083811Y-100823678D01*
X140008429Y-100641689D01*
X139974224Y-100469726D01*
X139970000Y-100448493D01*
X139970000Y-100251507D01*
X140003704Y-100082066D01*
X140008429Y-100058311D01*
X140083811Y-99876322D01*
X140193249Y-99712537D01*
X140332537Y-99573249D01*
X140496322Y-99463811D01*
X140678311Y-99388429D01*
X140774910Y-99369215D01*
X140871507Y-99350000D01*
X141068493Y-99350000D01*
X141165090Y-99369215D01*
G37*
G36*
X196053993Y-98137447D02*
G01*
X196053996Y-98137448D01*
X196053995Y-98137448D01*
X196349726Y-98259943D01*
X196615877Y-98437780D01*
X196842220Y-98664123D01*
X197020057Y-98930274D01*
X197020057Y-98930275D01*
X197142553Y-99226007D01*
X197205000Y-99539950D01*
X197205000Y-99860050D01*
X197142553Y-100173993D01*
X197142552Y-100173995D01*
X197020057Y-100469726D01*
X196947754Y-100577934D01*
X196842221Y-100735876D01*
X196615876Y-100962221D01*
X196573945Y-100990238D01*
X196349726Y-101140057D01*
X196253294Y-101180000D01*
X196053993Y-101262553D01*
X195740050Y-101325000D01*
X195419950Y-101325000D01*
X195106007Y-101262553D01*
X194906706Y-101180000D01*
X194810274Y-101140057D01*
X194586055Y-100990238D01*
X194544124Y-100962221D01*
X194317779Y-100735876D01*
X194212246Y-100577934D01*
X194139943Y-100469726D01*
X194017448Y-100173995D01*
X194017447Y-100173993D01*
X193955000Y-99860050D01*
X193955000Y-99539950D01*
X194017447Y-99226007D01*
X194139943Y-98930275D01*
X194139943Y-98930274D01*
X194317780Y-98664123D01*
X194544123Y-98437780D01*
X194810274Y-98259943D01*
X195106005Y-98137448D01*
X195106004Y-98137448D01*
X195106007Y-98137447D01*
X195419950Y-98075000D01*
X195740050Y-98075000D01*
X196053993Y-98137447D01*
G37*
G36*
X151377934Y-99512664D02*
G01*
X151532625Y-99576739D01*
X151532626Y-99576740D01*
X151671844Y-99669762D01*
X151790238Y-99788156D01*
X151790239Y-99788158D01*
X151883261Y-99927375D01*
X151947336Y-100082066D01*
X151980000Y-100246281D01*
X151980000Y-100413719D01*
X151947336Y-100577934D01*
X151883261Y-100732625D01*
X151881088Y-100735877D01*
X151790238Y-100871844D01*
X151671844Y-100990238D01*
X151601762Y-101037065D01*
X151532625Y-101083261D01*
X151377934Y-101147336D01*
X151213719Y-101180000D01*
X151046281Y-101180000D01*
X150882066Y-101147336D01*
X150727375Y-101083261D01*
X150658238Y-101037065D01*
X150588156Y-100990238D01*
X150469762Y-100871844D01*
X150378912Y-100735877D01*
X150376739Y-100732625D01*
X150312664Y-100577934D01*
X150280000Y-100413719D01*
X150280000Y-100246281D01*
X150312664Y-100082066D01*
X150376739Y-99927375D01*
X150469761Y-99788158D01*
X150469762Y-99788156D01*
X150588156Y-99669762D01*
X150727374Y-99576740D01*
X150727375Y-99576739D01*
X150882066Y-99512664D01*
X151046281Y-99480000D01*
X151213719Y-99480000D01*
X151377934Y-99512664D01*
G37*
G36*
X151377934Y-96972664D02*
G01*
X151532625Y-97036739D01*
X151601762Y-97082935D01*
X151671844Y-97129762D01*
X151790238Y-97248156D01*
X151811515Y-97280000D01*
X151883261Y-97387375D01*
X151947336Y-97542066D01*
X151980000Y-97706281D01*
X151980000Y-97873719D01*
X151947336Y-98037934D01*
X151883261Y-98192625D01*
X151883260Y-98192626D01*
X151790238Y-98331844D01*
X151671844Y-98450238D01*
X151601762Y-98497065D01*
X151532625Y-98543261D01*
X151377934Y-98607336D01*
X151213719Y-98640000D01*
X151046281Y-98640000D01*
X150882066Y-98607336D01*
X150727375Y-98543261D01*
X150658238Y-98497065D01*
X150588156Y-98450238D01*
X150469762Y-98331844D01*
X150376740Y-98192626D01*
X150376739Y-98192625D01*
X150312664Y-98037934D01*
X150280000Y-97873719D01*
X150280000Y-97706281D01*
X150312664Y-97542066D01*
X150376739Y-97387375D01*
X150448485Y-97280000D01*
X150469762Y-97248156D01*
X150588156Y-97129762D01*
X150658238Y-97082935D01*
X150727375Y-97036739D01*
X150882066Y-96972664D01*
X151046281Y-96940000D01*
X151213719Y-96940000D01*
X151377934Y-96972664D01*
G37*
G36*
X187450000Y-98550000D02*
G01*
X185930000Y-98550000D01*
X185930000Y-97030000D01*
X187450000Y-97030000D01*
X187450000Y-98550000D01*
G37*
G36*
X200836429Y-95133022D02*
G01*
X201006082Y-95184486D01*
X201162431Y-95268055D01*
X201299475Y-95380525D01*
X201411945Y-95517569D01*
X201495514Y-95673917D01*
X201546978Y-95843570D01*
X201560000Y-95975789D01*
X201560000Y-97064211D01*
X201546978Y-97196430D01*
X201495514Y-97366083D01*
X201411945Y-97522431D01*
X201299475Y-97659475D01*
X201162431Y-97771945D01*
X201006083Y-97855514D01*
X200836430Y-97906978D01*
X200660000Y-97924354D01*
X200483571Y-97906978D01*
X200313918Y-97855514D01*
X200157570Y-97771945D01*
X200020526Y-97659475D01*
X199908056Y-97522431D01*
X199824487Y-97366083D01*
X199773023Y-97196430D01*
X199760001Y-97064211D01*
X199760000Y-95975790D01*
X199773022Y-95843571D01*
X199824486Y-95673918D01*
X199908055Y-95517569D01*
X200020525Y-95380525D01*
X200157569Y-95268055D01*
X200313917Y-95184486D01*
X200483570Y-95133022D01*
X200660000Y-95115646D01*
X200836429Y-95133022D01*
G37*
G36*
X189451682Y-95789206D02*
G01*
X189582929Y-95843570D01*
X189589995Y-95846497D01*
X189714472Y-95929670D01*
X189820330Y-96035528D01*
X189841583Y-96067336D01*
X189903504Y-96160007D01*
X189960794Y-96298318D01*
X189990000Y-96445145D01*
X189990000Y-96594855D01*
X189960794Y-96741682D01*
X189960793Y-96741684D01*
X189903503Y-96879995D01*
X189820330Y-97004472D01*
X189714472Y-97110330D01*
X189589995Y-97193503D01*
X189589994Y-97193504D01*
X189589993Y-97193504D01*
X189451682Y-97250794D01*
X189304855Y-97280000D01*
X189155145Y-97280000D01*
X189008318Y-97250794D01*
X188870007Y-97193504D01*
X188870006Y-97193504D01*
X188870005Y-97193503D01*
X188745528Y-97110330D01*
X188639670Y-97004472D01*
X188556497Y-96879995D01*
X188499207Y-96741684D01*
X188499206Y-96741682D01*
X188470000Y-96594855D01*
X188470000Y-96445145D01*
X188499206Y-96298318D01*
X188556496Y-96160007D01*
X188618417Y-96067336D01*
X188639670Y-96035528D01*
X188745528Y-95929670D01*
X188870005Y-95846497D01*
X188877071Y-95843570D01*
X189008318Y-95789206D01*
X189155145Y-95760000D01*
X189304855Y-95760000D01*
X189451682Y-95789206D01*
G37*
G36*
X151377934Y-94432664D02*
G01*
X151532625Y-94496739D01*
X151601762Y-94542935D01*
X151671844Y-94589762D01*
X151790238Y-94708156D01*
X151828574Y-94765530D01*
X151883261Y-94847375D01*
X151947336Y-95002066D01*
X151980000Y-95166281D01*
X151980000Y-95333719D01*
X151947336Y-95497934D01*
X151883261Y-95652625D01*
X151883260Y-95652626D01*
X151790238Y-95791844D01*
X151671844Y-95910238D01*
X151642763Y-95929669D01*
X151532625Y-96003261D01*
X151377934Y-96067336D01*
X151213719Y-96100000D01*
X151046281Y-96100000D01*
X150882066Y-96067336D01*
X150727375Y-96003261D01*
X150617237Y-95929669D01*
X150588156Y-95910238D01*
X150469762Y-95791844D01*
X150376740Y-95652626D01*
X150376739Y-95652625D01*
X150312664Y-95497934D01*
X150280000Y-95333719D01*
X150280000Y-95166281D01*
X150312664Y-95002066D01*
X150376739Y-94847375D01*
X150431426Y-94765530D01*
X150469762Y-94708156D01*
X150588156Y-94589762D01*
X150658238Y-94542935D01*
X150727375Y-94496739D01*
X150882066Y-94432664D01*
X151046281Y-94400000D01*
X151213719Y-94400000D01*
X151377934Y-94432664D01*
G37*
G36*
X186911682Y-94519206D02*
G01*
X187035109Y-94570331D01*
X187049995Y-94576497D01*
X187174472Y-94659670D01*
X187280330Y-94765528D01*
X187363503Y-94890005D01*
X187363504Y-94890007D01*
X187420794Y-95028318D01*
X187450000Y-95175145D01*
X187450000Y-95324855D01*
X187420794Y-95471682D01*
X187420793Y-95471684D01*
X187363503Y-95609995D01*
X187280330Y-95734472D01*
X187174472Y-95840330D01*
X187049995Y-95923503D01*
X187049994Y-95923504D01*
X187049993Y-95923504D01*
X186911682Y-95980794D01*
X186764855Y-96010000D01*
X186615145Y-96010000D01*
X186468318Y-95980794D01*
X186330007Y-95923504D01*
X186330006Y-95923504D01*
X186330005Y-95923503D01*
X186205528Y-95840330D01*
X186099670Y-95734472D01*
X186016497Y-95609995D01*
X185959207Y-95471684D01*
X185959206Y-95471682D01*
X185930000Y-95324855D01*
X185930000Y-95175145D01*
X185959206Y-95028318D01*
X186016496Y-94890007D01*
X186016497Y-94890005D01*
X186099670Y-94765528D01*
X186205528Y-94659670D01*
X186330005Y-94576497D01*
X186344891Y-94570331D01*
X186468318Y-94519206D01*
X186615145Y-94490000D01*
X186764855Y-94490000D01*
X186911682Y-94519206D01*
G37*
G36*
X198436429Y-93133022D02*
G01*
X198606082Y-93184486D01*
X198762431Y-93268055D01*
X198899475Y-93380525D01*
X199011945Y-93517569D01*
X199095514Y-93673917D01*
X199146978Y-93843570D01*
X199160000Y-93975789D01*
X199160000Y-95064211D01*
X199146978Y-95196430D01*
X199095514Y-95366083D01*
X199011945Y-95522431D01*
X198899475Y-95659475D01*
X198762431Y-95771945D01*
X198606083Y-95855514D01*
X198436430Y-95906978D01*
X198260000Y-95924354D01*
X198083571Y-95906978D01*
X197913918Y-95855514D01*
X197757570Y-95771945D01*
X197620526Y-95659475D01*
X197508056Y-95522431D01*
X197424487Y-95366083D01*
X197373023Y-95196430D01*
X197360001Y-95064211D01*
X197360000Y-93975790D01*
X197373022Y-93843571D01*
X197424486Y-93673918D01*
X197508055Y-93517569D01*
X197620525Y-93380525D01*
X197757569Y-93268055D01*
X197913917Y-93184486D01*
X198083570Y-93133022D01*
X198260000Y-93115646D01*
X198436429Y-93133022D01*
G37*
G36*
X192936429Y-93133022D02*
G01*
X193106082Y-93184486D01*
X193262431Y-93268055D01*
X193399475Y-93380525D01*
X193511945Y-93517569D01*
X193595514Y-93673917D01*
X193646978Y-93843570D01*
X193660000Y-93975789D01*
X193660000Y-95064211D01*
X193646978Y-95196430D01*
X193595514Y-95366083D01*
X193511945Y-95522431D01*
X193399475Y-95659475D01*
X193262431Y-95771945D01*
X193106083Y-95855514D01*
X192936430Y-95906978D01*
X192760000Y-95924354D01*
X192583571Y-95906978D01*
X192413918Y-95855514D01*
X192257570Y-95771945D01*
X192120526Y-95659475D01*
X192008056Y-95522431D01*
X191924487Y-95366083D01*
X191873023Y-95196430D01*
X191860001Y-95064211D01*
X191860000Y-93975790D01*
X191873022Y-93843571D01*
X191924486Y-93673918D01*
X192008055Y-93517569D01*
X192120525Y-93380525D01*
X192257569Y-93268055D01*
X192413917Y-93184486D01*
X192583570Y-93133022D01*
X192760000Y-93115646D01*
X192936429Y-93133022D01*
G37*
G36*
X189451682Y-93249206D02*
G01*
X189575109Y-93300331D01*
X189589995Y-93306497D01*
X189714472Y-93389670D01*
X189820330Y-93495528D01*
X189841583Y-93527336D01*
X189903504Y-93620007D01*
X189960794Y-93758318D01*
X189990000Y-93905145D01*
X189990000Y-94054855D01*
X189960794Y-94201682D01*
X189960793Y-94201684D01*
X189903503Y-94339995D01*
X189820330Y-94464472D01*
X189714472Y-94570330D01*
X189589995Y-94653503D01*
X189589994Y-94653504D01*
X189589993Y-94653504D01*
X189451682Y-94710794D01*
X189304855Y-94740000D01*
X189155145Y-94740000D01*
X189008318Y-94710794D01*
X188870007Y-94653504D01*
X188870006Y-94653504D01*
X188870005Y-94653503D01*
X188745528Y-94570330D01*
X188639670Y-94464472D01*
X188556497Y-94339995D01*
X188499207Y-94201684D01*
X188499206Y-94201682D01*
X188470000Y-94054855D01*
X188470000Y-93905145D01*
X188499206Y-93758318D01*
X188556496Y-93620007D01*
X188618417Y-93527336D01*
X188639670Y-93495528D01*
X188745528Y-93389670D01*
X188870005Y-93306497D01*
X188884891Y-93300331D01*
X189008318Y-93249206D01*
X189155145Y-93220000D01*
X189304855Y-93220000D01*
X189451682Y-93249206D01*
G37*
G36*
X151377934Y-91892664D02*
G01*
X151532625Y-91956739D01*
X151601762Y-92002935D01*
X151671844Y-92049762D01*
X151790238Y-92168156D01*
X151828574Y-92225530D01*
X151883261Y-92307375D01*
X151947336Y-92462066D01*
X151980000Y-92626281D01*
X151980000Y-92793719D01*
X151947336Y-92957934D01*
X151883261Y-93112625D01*
X151883260Y-93112626D01*
X151790238Y-93251844D01*
X151671844Y-93370238D01*
X151656448Y-93380525D01*
X151532625Y-93463261D01*
X151377934Y-93527336D01*
X151213719Y-93560000D01*
X151046281Y-93560000D01*
X150882066Y-93527336D01*
X150727375Y-93463261D01*
X150603552Y-93380525D01*
X150588156Y-93370238D01*
X150469762Y-93251844D01*
X150376740Y-93112626D01*
X150376739Y-93112625D01*
X150312664Y-92957934D01*
X150280000Y-92793719D01*
X150280000Y-92626281D01*
X150312664Y-92462066D01*
X150376739Y-92307375D01*
X150431426Y-92225530D01*
X150469762Y-92168156D01*
X150588156Y-92049762D01*
X150658238Y-92002935D01*
X150727375Y-91956739D01*
X150882066Y-91892664D01*
X151046281Y-91860000D01*
X151213719Y-91860000D01*
X151377934Y-91892664D01*
G37*
G36*
X186911682Y-91979206D02*
G01*
X187035109Y-92030331D01*
X187049995Y-92036497D01*
X187174472Y-92119670D01*
X187280330Y-92225528D01*
X187363503Y-92350005D01*
X187363504Y-92350007D01*
X187420794Y-92488318D01*
X187450000Y-92635145D01*
X187450000Y-92784855D01*
X187420794Y-92931682D01*
X187420793Y-92931684D01*
X187363503Y-93069995D01*
X187280330Y-93194472D01*
X187174472Y-93300330D01*
X187049995Y-93383503D01*
X187049994Y-93383504D01*
X187049993Y-93383504D01*
X186911682Y-93440794D01*
X186764855Y-93470000D01*
X186615145Y-93470000D01*
X186468318Y-93440794D01*
X186330007Y-93383504D01*
X186330006Y-93383504D01*
X186330005Y-93383503D01*
X186205528Y-93300330D01*
X186099670Y-93194472D01*
X186016497Y-93069995D01*
X185959207Y-92931684D01*
X185959206Y-92931682D01*
X185930000Y-92784855D01*
X185930000Y-92635145D01*
X185959206Y-92488318D01*
X186016496Y-92350007D01*
X186016497Y-92350005D01*
X186099670Y-92225528D01*
X186205528Y-92119670D01*
X186330005Y-92036497D01*
X186344891Y-92030331D01*
X186468318Y-91979206D01*
X186615145Y-91950000D01*
X186764855Y-91950000D01*
X186911682Y-91979206D01*
G37*
G36*
X189451682Y-90709206D02*
G01*
X189589993Y-90766496D01*
X189589995Y-90766497D01*
X189714472Y-90849670D01*
X189820330Y-90955528D01*
X189841583Y-90987336D01*
X189903504Y-91080007D01*
X189960794Y-91218318D01*
X189990000Y-91365145D01*
X189990000Y-91514855D01*
X189960794Y-91661682D01*
X189960793Y-91661684D01*
X189903503Y-91799995D01*
X189820330Y-91924472D01*
X189714472Y-92030330D01*
X189589995Y-92113503D01*
X189589994Y-92113504D01*
X189589993Y-92113504D01*
X189451682Y-92170794D01*
X189304855Y-92200000D01*
X189155145Y-92200000D01*
X189008318Y-92170794D01*
X188870007Y-92113504D01*
X188870006Y-92113504D01*
X188870005Y-92113503D01*
X188745528Y-92030330D01*
X188639670Y-91924472D01*
X188556497Y-91799995D01*
X188499207Y-91661684D01*
X188499206Y-91661682D01*
X188470000Y-91514855D01*
X188470000Y-91365145D01*
X188499206Y-91218318D01*
X188556496Y-91080007D01*
X188618417Y-90987336D01*
X188639670Y-90955528D01*
X188745528Y-90849670D01*
X188870005Y-90766497D01*
X188870007Y-90766496D01*
X189008318Y-90709206D01*
X189155145Y-90680000D01*
X189304855Y-90680000D01*
X189451682Y-90709206D01*
G37*
G36*
X196053993Y-87977447D02*
G01*
X196053996Y-87977448D01*
X196053995Y-87977448D01*
X196349726Y-88099943D01*
X196615877Y-88277780D01*
X196842220Y-88504123D01*
X197020057Y-88770274D01*
X197020057Y-88770275D01*
X197142553Y-89066007D01*
X197205000Y-89379950D01*
X197205000Y-89700050D01*
X197142553Y-90013993D01*
X197142552Y-90013995D01*
X197020057Y-90309726D01*
X196947754Y-90417934D01*
X196844393Y-90572626D01*
X196842220Y-90575877D01*
X196615877Y-90802220D01*
X196349726Y-90980057D01*
X196253294Y-91020000D01*
X196053993Y-91102553D01*
X195740050Y-91165000D01*
X195419950Y-91165000D01*
X195106007Y-91102553D01*
X194906706Y-91020000D01*
X194810274Y-90980057D01*
X194544123Y-90802220D01*
X194317780Y-90575877D01*
X194315608Y-90572626D01*
X194212246Y-90417934D01*
X194139943Y-90309726D01*
X194017448Y-90013995D01*
X194017447Y-90013993D01*
X193955000Y-89700050D01*
X193955000Y-89379950D01*
X194017447Y-89066007D01*
X194139943Y-88770275D01*
X194139943Y-88770274D01*
X194317780Y-88504123D01*
X194544123Y-88277780D01*
X194810274Y-88099943D01*
X195106005Y-87977448D01*
X195106004Y-87977448D01*
X195106007Y-87977447D01*
X195419950Y-87915000D01*
X195740050Y-87915000D01*
X196053993Y-87977447D01*
G37*
G36*
X151377934Y-89352664D02*
G01*
X151532625Y-89416739D01*
X151532626Y-89416740D01*
X151671844Y-89509762D01*
X151790238Y-89628156D01*
X151790239Y-89628158D01*
X151883261Y-89767375D01*
X151947336Y-89922066D01*
X151980000Y-90086281D01*
X151980000Y-90253719D01*
X151947336Y-90417934D01*
X151883261Y-90572625D01*
X151881088Y-90575877D01*
X151790238Y-90711844D01*
X151671844Y-90830238D01*
X151642763Y-90849669D01*
X151532625Y-90923261D01*
X151377934Y-90987336D01*
X151213719Y-91020000D01*
X151046281Y-91020000D01*
X150882066Y-90987336D01*
X150727375Y-90923261D01*
X150617237Y-90849669D01*
X150588156Y-90830238D01*
X150469762Y-90711844D01*
X150378912Y-90575877D01*
X150376739Y-90572625D01*
X150312664Y-90417934D01*
X150280000Y-90253719D01*
X150280000Y-90086281D01*
X150312664Y-89922066D01*
X150376739Y-89767375D01*
X150469761Y-89628158D01*
X150469762Y-89628156D01*
X150588156Y-89509762D01*
X150727374Y-89416740D01*
X150727375Y-89416739D01*
X150882066Y-89352664D01*
X151046281Y-89320000D01*
X151213719Y-89320000D01*
X151377934Y-89352664D01*
G37*
G36*
X98037934Y-86812664D02*
G01*
X98192625Y-86876739D01*
X98192626Y-86876740D01*
X98331844Y-86969762D01*
X98450238Y-87088156D01*
X98450239Y-87088158D01*
X98543261Y-87227375D01*
X98607336Y-87382066D01*
X98640000Y-87546281D01*
X98640000Y-87713719D01*
X98607336Y-87877934D01*
X98543261Y-88032625D01*
X98543260Y-88032626D01*
X98450238Y-88171844D01*
X98331844Y-88290238D01*
X98261762Y-88337065D01*
X98192625Y-88383261D01*
X98037934Y-88447336D01*
X97873719Y-88480000D01*
X97706281Y-88480000D01*
X97542066Y-88447336D01*
X97387375Y-88383261D01*
X97318238Y-88337065D01*
X97248156Y-88290238D01*
X97129762Y-88171844D01*
X97036740Y-88032626D01*
X97036739Y-88032625D01*
X96972664Y-87877934D01*
X96940000Y-87713719D01*
X96940000Y-87546281D01*
X96972664Y-87382066D01*
X97036739Y-87227375D01*
X97129761Y-87088158D01*
X97129762Y-87088156D01*
X97248156Y-86969762D01*
X97387374Y-86876740D01*
X97387375Y-86876739D01*
X97542066Y-86812664D01*
X97706281Y-86780000D01*
X97873719Y-86780000D01*
X98037934Y-86812664D01*
G37*
G36*
X95497934Y-86812664D02*
G01*
X95652625Y-86876739D01*
X95652626Y-86876740D01*
X95791844Y-86969762D01*
X95910238Y-87088156D01*
X95910239Y-87088158D01*
X96003261Y-87227375D01*
X96067336Y-87382066D01*
X96100000Y-87546281D01*
X96100000Y-87713719D01*
X96067336Y-87877934D01*
X96003261Y-88032625D01*
X96003260Y-88032626D01*
X95910238Y-88171844D01*
X95791844Y-88290238D01*
X95721762Y-88337065D01*
X95652625Y-88383261D01*
X95497934Y-88447336D01*
X95333719Y-88480000D01*
X95166281Y-88480000D01*
X95002066Y-88447336D01*
X94847375Y-88383261D01*
X94778238Y-88337065D01*
X94708156Y-88290238D01*
X94589762Y-88171844D01*
X94496740Y-88032626D01*
X94496739Y-88032625D01*
X94432664Y-87877934D01*
X94400000Y-87713719D01*
X94400000Y-87546281D01*
X94432664Y-87382066D01*
X94496739Y-87227375D01*
X94589761Y-87088158D01*
X94589762Y-87088156D01*
X94708156Y-86969762D01*
X94847374Y-86876740D01*
X94847375Y-86876739D01*
X95002066Y-86812664D01*
X95166281Y-86780000D01*
X95333719Y-86780000D01*
X95497934Y-86812664D01*
G37*
G36*
X93560000Y-88480000D02*
G01*
X91860000Y-88480000D01*
X91860000Y-86780000D01*
X93560000Y-86780000D01*
X93560000Y-88480000D01*
G37*
G36*
X120897934Y-86812664D02*
G01*
X121052625Y-86876739D01*
X121052626Y-86876740D01*
X121191844Y-86969762D01*
X121310238Y-87088156D01*
X121310239Y-87088158D01*
X121403261Y-87227375D01*
X121467336Y-87382066D01*
X121500000Y-87546281D01*
X121500000Y-87713719D01*
X121467336Y-87877934D01*
X121403261Y-88032625D01*
X121403260Y-88032626D01*
X121310238Y-88171844D01*
X121191844Y-88290238D01*
X121121762Y-88337065D01*
X121052625Y-88383261D01*
X120897934Y-88447336D01*
X120733719Y-88480000D01*
X120566281Y-88480000D01*
X120402066Y-88447336D01*
X120247375Y-88383261D01*
X120178238Y-88337065D01*
X120108156Y-88290238D01*
X119989762Y-88171844D01*
X119896740Y-88032626D01*
X119896739Y-88032625D01*
X119832664Y-87877934D01*
X119800000Y-87713719D01*
X119800000Y-87546281D01*
X119832664Y-87382066D01*
X119896739Y-87227375D01*
X119989761Y-87088158D01*
X119989762Y-87088156D01*
X120108156Y-86969762D01*
X120247374Y-86876740D01*
X120247375Y-86876739D01*
X120402066Y-86812664D01*
X120566281Y-86780000D01*
X120733719Y-86780000D01*
X120897934Y-86812664D01*
G37*
G36*
X118357934Y-86812664D02*
G01*
X118512625Y-86876739D01*
X118512626Y-86876740D01*
X118651844Y-86969762D01*
X118770238Y-87088156D01*
X118770239Y-87088158D01*
X118863261Y-87227375D01*
X118927336Y-87382066D01*
X118960000Y-87546281D01*
X118960000Y-87713719D01*
X118927336Y-87877934D01*
X118863261Y-88032625D01*
X118863260Y-88032626D01*
X118770238Y-88171844D01*
X118651844Y-88290238D01*
X118581762Y-88337065D01*
X118512625Y-88383261D01*
X118357934Y-88447336D01*
X118193719Y-88480000D01*
X118026281Y-88480000D01*
X117862066Y-88447336D01*
X117707375Y-88383261D01*
X117638238Y-88337065D01*
X117568156Y-88290238D01*
X117449762Y-88171844D01*
X117356740Y-88032626D01*
X117356739Y-88032625D01*
X117292664Y-87877934D01*
X117260000Y-87713719D01*
X117260000Y-87546281D01*
X117292664Y-87382066D01*
X117356739Y-87227375D01*
X117449761Y-87088158D01*
X117449762Y-87088156D01*
X117568156Y-86969762D01*
X117707374Y-86876740D01*
X117707375Y-86876739D01*
X117862066Y-86812664D01*
X118026281Y-86780000D01*
X118193719Y-86780000D01*
X118357934Y-86812664D01*
G37*
G36*
X115817934Y-86812664D02*
G01*
X115972625Y-86876739D01*
X115972626Y-86876740D01*
X116111844Y-86969762D01*
X116230238Y-87088156D01*
X116230239Y-87088158D01*
X116323261Y-87227375D01*
X116387336Y-87382066D01*
X116420000Y-87546281D01*
X116420000Y-87713719D01*
X116387336Y-87877934D01*
X116323261Y-88032625D01*
X116323260Y-88032626D01*
X116230238Y-88171844D01*
X116111844Y-88290238D01*
X116041762Y-88337065D01*
X115972625Y-88383261D01*
X115817934Y-88447336D01*
X115653719Y-88480000D01*
X115486281Y-88480000D01*
X115322066Y-88447336D01*
X115167375Y-88383261D01*
X115098238Y-88337065D01*
X115028156Y-88290238D01*
X114909762Y-88171844D01*
X114816740Y-88032626D01*
X114816739Y-88032625D01*
X114752664Y-87877934D01*
X114720000Y-87713719D01*
X114720000Y-87546281D01*
X114752664Y-87382066D01*
X114816739Y-87227375D01*
X114909761Y-87088158D01*
X114909762Y-87088156D01*
X115028156Y-86969762D01*
X115167374Y-86876740D01*
X115167375Y-86876739D01*
X115322066Y-86812664D01*
X115486281Y-86780000D01*
X115653719Y-86780000D01*
X115817934Y-86812664D01*
G37*
G36*
X113880000Y-88480000D02*
G01*
X112180000Y-88480000D01*
X112180000Y-86780000D01*
X113880000Y-86780000D01*
X113880000Y-88480000D01*
G37*
G36*
X151377934Y-86812664D02*
G01*
X151532625Y-86876739D01*
X151532626Y-86876740D01*
X151671844Y-86969762D01*
X151790238Y-87088156D01*
X151790239Y-87088158D01*
X151883261Y-87227375D01*
X151947336Y-87382066D01*
X151980000Y-87546281D01*
X151980000Y-87713719D01*
X151947336Y-87877934D01*
X151883261Y-88032625D01*
X151883260Y-88032626D01*
X151790238Y-88171844D01*
X151671844Y-88290238D01*
X151601762Y-88337065D01*
X151532625Y-88383261D01*
X151377934Y-88447336D01*
X151213719Y-88480000D01*
X151046281Y-88480000D01*
X150882066Y-88447336D01*
X150727375Y-88383261D01*
X150658238Y-88337065D01*
X150588156Y-88290238D01*
X150469762Y-88171844D01*
X150376740Y-88032626D01*
X150376739Y-88032625D01*
X150312664Y-87877934D01*
X150280000Y-87713719D01*
X150280000Y-87546281D01*
X150312664Y-87382066D01*
X150376739Y-87227375D01*
X150469761Y-87088158D01*
X150469762Y-87088156D01*
X150588156Y-86969762D01*
X150727374Y-86876740D01*
X150727375Y-86876739D01*
X150882066Y-86812664D01*
X151046281Y-86780000D01*
X151213719Y-86780000D01*
X151377934Y-86812664D01*
G37*
G36*
X100577934Y-86812664D02*
G01*
X100732625Y-86876739D01*
X100732626Y-86876740D01*
X100871844Y-86969762D01*
X100990238Y-87088156D01*
X100990239Y-87088158D01*
X101083261Y-87227375D01*
X101147336Y-87382066D01*
X101180000Y-87546281D01*
X101180000Y-87713719D01*
X101147336Y-87877934D01*
X101083261Y-88032625D01*
X101083260Y-88032626D01*
X100990238Y-88171844D01*
X100871844Y-88290238D01*
X100801762Y-88337065D01*
X100732625Y-88383261D01*
X100577934Y-88447336D01*
X100413719Y-88480000D01*
X100246281Y-88480000D01*
X100082066Y-88447336D01*
X99927375Y-88383261D01*
X99858238Y-88337065D01*
X99788156Y-88290238D01*
X99669762Y-88171844D01*
X99576740Y-88032626D01*
X99576739Y-88032625D01*
X99512664Y-87877934D01*
X99480000Y-87713719D01*
X99480000Y-87546281D01*
X99512664Y-87382066D01*
X99576739Y-87227375D01*
X99669761Y-87088158D01*
X99669762Y-87088156D01*
X99788156Y-86969762D01*
X99927374Y-86876740D01*
X99927375Y-86876739D01*
X100082066Y-86812664D01*
X100246281Y-86780000D01*
X100413719Y-86780000D01*
X100577934Y-86812664D01*
G37*
G36*
X196053993Y-82897447D02*
G01*
X196053996Y-82897448D01*
X196053995Y-82897448D01*
X196349726Y-83019943D01*
X196615877Y-83197780D01*
X196842220Y-83424123D01*
X197020057Y-83690274D01*
X197020057Y-83690275D01*
X197142553Y-83986007D01*
X197205000Y-84299950D01*
X197205000Y-84620050D01*
X197142553Y-84933993D01*
X197142552Y-84933995D01*
X197020057Y-85229726D01*
X196947754Y-85337934D01*
X196844393Y-85492626D01*
X196842220Y-85495877D01*
X196615877Y-85722220D01*
X196349726Y-85900057D01*
X196253294Y-85940000D01*
X196053993Y-86022553D01*
X195740050Y-86085000D01*
X195419950Y-86085000D01*
X195106007Y-86022553D01*
X194906706Y-85940000D01*
X194810274Y-85900057D01*
X194544123Y-85722220D01*
X194317780Y-85495877D01*
X194315608Y-85492626D01*
X194212246Y-85337934D01*
X194139943Y-85229726D01*
X194017448Y-84933995D01*
X194017447Y-84933993D01*
X193955000Y-84620050D01*
X193955000Y-84299950D01*
X194017447Y-83986007D01*
X194139943Y-83690275D01*
X194139943Y-83690274D01*
X194317780Y-83424123D01*
X194544123Y-83197780D01*
X194810274Y-83019943D01*
X195106005Y-82897448D01*
X195106004Y-82897448D01*
X195106007Y-82897447D01*
X195419950Y-82835000D01*
X195740050Y-82835000D01*
X196053993Y-82897447D01*
G37*
G36*
X151377934Y-84272664D02*
G01*
X151532625Y-84336739D01*
X151532626Y-84336740D01*
X151671844Y-84429762D01*
X151790238Y-84548156D01*
X151790239Y-84548158D01*
X151883261Y-84687375D01*
X151947336Y-84842066D01*
X151980000Y-85006281D01*
X151980000Y-85173719D01*
X151947336Y-85337934D01*
X151883261Y-85492625D01*
X151881088Y-85495877D01*
X151790238Y-85631844D01*
X151671844Y-85750238D01*
X151601762Y-85797065D01*
X151532625Y-85843261D01*
X151377934Y-85907336D01*
X151213719Y-85940000D01*
X151046281Y-85940000D01*
X150882066Y-85907336D01*
X150727375Y-85843261D01*
X150658238Y-85797065D01*
X150588156Y-85750238D01*
X150469762Y-85631844D01*
X150378912Y-85495877D01*
X150376739Y-85492625D01*
X150312664Y-85337934D01*
X150280000Y-85173719D01*
X150280000Y-85006281D01*
X150312664Y-84842066D01*
X150376739Y-84687375D01*
X150469761Y-84548158D01*
X150469762Y-84548156D01*
X150588156Y-84429762D01*
X150727374Y-84336740D01*
X150727375Y-84336739D01*
X150882066Y-84272664D01*
X151046281Y-84240000D01*
X151213719Y-84240000D01*
X151377934Y-84272664D01*
G37*
G36*
X151377934Y-81732664D02*
G01*
X151532625Y-81796739D01*
X151532626Y-81796740D01*
X151671844Y-81889762D01*
X151790238Y-82008156D01*
X151811515Y-82040000D01*
X151883261Y-82147375D01*
X151947336Y-82302066D01*
X151980000Y-82466281D01*
X151980000Y-82633719D01*
X151947336Y-82797934D01*
X151883261Y-82952625D01*
X151883260Y-82952626D01*
X151790238Y-83091844D01*
X151671844Y-83210238D01*
X151601762Y-83257065D01*
X151532625Y-83303261D01*
X151377934Y-83367336D01*
X151213719Y-83400000D01*
X151046281Y-83400000D01*
X150882066Y-83367336D01*
X150727375Y-83303261D01*
X150658238Y-83257065D01*
X150588156Y-83210238D01*
X150469762Y-83091844D01*
X150376740Y-82952626D01*
X150376739Y-82952625D01*
X150312664Y-82797934D01*
X150280000Y-82633719D01*
X150280000Y-82466281D01*
X150312664Y-82302066D01*
X150376739Y-82147375D01*
X150448485Y-82040000D01*
X150469762Y-82008156D01*
X150588156Y-81889762D01*
X150727374Y-81796740D01*
X150727375Y-81796739D01*
X150882066Y-81732664D01*
X151046281Y-81700000D01*
X151213719Y-81700000D01*
X151377934Y-81732664D01*
G37*
G36*
X187450000Y-83310000D02*
G01*
X185930000Y-83310000D01*
X185930000Y-81790000D01*
X187450000Y-81790000D01*
X187450000Y-83310000D01*
G37*
G36*
X189451682Y-80549206D02*
G01*
X189575109Y-80600331D01*
X189589995Y-80606497D01*
X189714472Y-80689670D01*
X189820330Y-80795528D01*
X189841583Y-80827336D01*
X189903504Y-80920007D01*
X189960794Y-81058318D01*
X189990000Y-81205145D01*
X189990000Y-81354855D01*
X189960794Y-81501682D01*
X189960793Y-81501684D01*
X189903503Y-81639995D01*
X189820330Y-81764472D01*
X189714472Y-81870330D01*
X189589995Y-81953503D01*
X189589994Y-81953504D01*
X189589993Y-81953504D01*
X189451682Y-82010794D01*
X189304855Y-82040000D01*
X189155145Y-82040000D01*
X189008318Y-82010794D01*
X188870007Y-81953504D01*
X188870006Y-81953504D01*
X188870005Y-81953503D01*
X188745528Y-81870330D01*
X188639670Y-81764472D01*
X188556497Y-81639995D01*
X188499207Y-81501684D01*
X188499206Y-81501682D01*
X188470000Y-81354855D01*
X188470000Y-81205145D01*
X188499206Y-81058318D01*
X188556496Y-80920007D01*
X188618417Y-80827336D01*
X188639670Y-80795528D01*
X188745528Y-80689670D01*
X188870005Y-80606497D01*
X188884891Y-80600331D01*
X189008318Y-80549206D01*
X189155145Y-80520000D01*
X189304855Y-80520000D01*
X189451682Y-80549206D01*
G37*
G36*
X151377934Y-79192664D02*
G01*
X151532625Y-79256739D01*
X151601762Y-79302935D01*
X151671844Y-79349762D01*
X151790238Y-79468156D01*
X151828574Y-79525530D01*
X151883261Y-79607375D01*
X151947336Y-79762066D01*
X151980000Y-79926281D01*
X151980000Y-80093719D01*
X151947336Y-80257934D01*
X151883261Y-80412625D01*
X151883260Y-80412626D01*
X151790238Y-80551844D01*
X151671844Y-80670238D01*
X151651991Y-80683503D01*
X151532625Y-80763261D01*
X151377934Y-80827336D01*
X151213719Y-80860000D01*
X151046281Y-80860000D01*
X150882066Y-80827336D01*
X150727375Y-80763261D01*
X150608009Y-80683503D01*
X150588156Y-80670238D01*
X150469762Y-80551844D01*
X150376740Y-80412626D01*
X150376739Y-80412625D01*
X150312664Y-80257934D01*
X150280000Y-80093719D01*
X150280000Y-79926281D01*
X150312664Y-79762066D01*
X150376739Y-79607375D01*
X150431426Y-79525530D01*
X150469762Y-79468156D01*
X150588156Y-79349762D01*
X150658238Y-79302935D01*
X150727375Y-79256739D01*
X150882066Y-79192664D01*
X151046281Y-79160000D01*
X151213719Y-79160000D01*
X151377934Y-79192664D01*
G37*
G36*
X186911682Y-79279206D02*
G01*
X187035109Y-79330331D01*
X187049995Y-79336497D01*
X187174472Y-79419670D01*
X187280330Y-79525528D01*
X187363503Y-79650005D01*
X187363504Y-79650007D01*
X187420794Y-79788318D01*
X187450000Y-79935145D01*
X187450000Y-80084855D01*
X187420794Y-80231682D01*
X187420793Y-80231684D01*
X187363503Y-80369995D01*
X187280330Y-80494472D01*
X187174472Y-80600330D01*
X187049995Y-80683503D01*
X187049994Y-80683504D01*
X187049993Y-80683504D01*
X186911682Y-80740794D01*
X186764855Y-80770000D01*
X186615145Y-80770000D01*
X186468318Y-80740794D01*
X186330007Y-80683504D01*
X186330006Y-80683504D01*
X186330005Y-80683503D01*
X186205528Y-80600330D01*
X186099670Y-80494472D01*
X186016497Y-80369995D01*
X185959207Y-80231684D01*
X185959206Y-80231682D01*
X185930000Y-80084855D01*
X185930000Y-79935145D01*
X185959206Y-79788318D01*
X186016496Y-79650007D01*
X186016497Y-79650005D01*
X186099670Y-79525528D01*
X186205528Y-79419670D01*
X186330005Y-79336497D01*
X186344891Y-79330331D01*
X186468318Y-79279206D01*
X186615145Y-79250000D01*
X186764855Y-79250000D01*
X186911682Y-79279206D01*
G37*
G36*
X189451682Y-78009206D02*
G01*
X189575109Y-78060331D01*
X189589995Y-78066497D01*
X189714472Y-78149670D01*
X189820330Y-78255528D01*
X189841583Y-78287336D01*
X189903504Y-78380007D01*
X189960794Y-78518318D01*
X189990000Y-78665145D01*
X189990000Y-78814855D01*
X189960794Y-78961682D01*
X189960793Y-78961684D01*
X189903503Y-79099995D01*
X189820330Y-79224472D01*
X189714472Y-79330330D01*
X189589995Y-79413503D01*
X189589994Y-79413504D01*
X189589993Y-79413504D01*
X189451682Y-79470794D01*
X189304855Y-79500000D01*
X189155145Y-79500000D01*
X189008318Y-79470794D01*
X188870007Y-79413504D01*
X188870006Y-79413504D01*
X188870005Y-79413503D01*
X188745528Y-79330330D01*
X188639670Y-79224472D01*
X188556497Y-79099995D01*
X188499207Y-78961684D01*
X188499206Y-78961682D01*
X188470000Y-78814855D01*
X188470000Y-78665145D01*
X188499206Y-78518318D01*
X188556496Y-78380007D01*
X188618417Y-78287336D01*
X188639670Y-78255528D01*
X188745528Y-78149670D01*
X188870005Y-78066497D01*
X188884891Y-78060331D01*
X189008318Y-78009206D01*
X189155145Y-77980000D01*
X189304855Y-77980000D01*
X189451682Y-78009206D01*
G37*
G36*
X151377934Y-76652664D02*
G01*
X151532625Y-76716739D01*
X151601762Y-76762935D01*
X151671844Y-76809762D01*
X151790238Y-76928156D01*
X151828574Y-76985530D01*
X151883261Y-77067375D01*
X151947336Y-77222066D01*
X151980000Y-77386281D01*
X151980000Y-77553719D01*
X151947336Y-77717934D01*
X151883261Y-77872625D01*
X151883260Y-77872626D01*
X151790238Y-78011844D01*
X151671844Y-78130238D01*
X151651991Y-78143503D01*
X151532625Y-78223261D01*
X151377934Y-78287336D01*
X151213719Y-78320000D01*
X151046281Y-78320000D01*
X150882066Y-78287336D01*
X150727375Y-78223261D01*
X150608009Y-78143503D01*
X150588156Y-78130238D01*
X150469762Y-78011844D01*
X150376740Y-77872626D01*
X150376739Y-77872625D01*
X150312664Y-77717934D01*
X150280000Y-77553719D01*
X150280000Y-77386281D01*
X150312664Y-77222066D01*
X150376739Y-77067375D01*
X150431426Y-76985530D01*
X150469762Y-76928156D01*
X150588156Y-76809762D01*
X150658238Y-76762935D01*
X150727375Y-76716739D01*
X150882066Y-76652664D01*
X151046281Y-76620000D01*
X151213719Y-76620000D01*
X151377934Y-76652664D01*
G37*
G36*
X186911682Y-76739206D02*
G01*
X187035109Y-76790331D01*
X187049995Y-76796497D01*
X187174472Y-76879670D01*
X187280330Y-76985528D01*
X187363503Y-77110005D01*
X187363504Y-77110007D01*
X187420794Y-77248318D01*
X187450000Y-77395145D01*
X187450000Y-77544855D01*
X187420794Y-77691682D01*
X187420793Y-77691684D01*
X187363503Y-77829995D01*
X187280330Y-77954472D01*
X187174472Y-78060330D01*
X187049995Y-78143503D01*
X187049994Y-78143504D01*
X187049993Y-78143504D01*
X186911682Y-78200794D01*
X186764855Y-78230000D01*
X186615145Y-78230000D01*
X186468318Y-78200794D01*
X186330007Y-78143504D01*
X186330006Y-78143504D01*
X186330005Y-78143503D01*
X186205528Y-78060330D01*
X186099670Y-77954472D01*
X186016497Y-77829995D01*
X185959207Y-77691684D01*
X185959206Y-77691682D01*
X185930000Y-77544855D01*
X185930000Y-77395145D01*
X185959206Y-77248318D01*
X186016496Y-77110007D01*
X186016497Y-77110005D01*
X186099670Y-76985528D01*
X186205528Y-76879670D01*
X186330005Y-76796497D01*
X186344891Y-76790331D01*
X186468318Y-76739206D01*
X186615145Y-76710000D01*
X186764855Y-76710000D01*
X186911682Y-76739206D01*
G37*
G36*
X189451682Y-75469206D02*
G01*
X189589993Y-75526496D01*
X189589995Y-75526497D01*
X189714472Y-75609670D01*
X189820330Y-75715528D01*
X189841583Y-75747336D01*
X189903504Y-75840007D01*
X189960794Y-75978318D01*
X189990000Y-76125145D01*
X189990000Y-76274855D01*
X189960794Y-76421682D01*
X189960793Y-76421684D01*
X189903503Y-76559995D01*
X189820330Y-76684472D01*
X189714472Y-76790330D01*
X189589995Y-76873503D01*
X189589994Y-76873504D01*
X189589993Y-76873504D01*
X189451682Y-76930794D01*
X189304855Y-76960000D01*
X189155145Y-76960000D01*
X189008318Y-76930794D01*
X188870007Y-76873504D01*
X188870006Y-76873504D01*
X188870005Y-76873503D01*
X188745528Y-76790330D01*
X188639670Y-76684472D01*
X188556497Y-76559995D01*
X188499207Y-76421684D01*
X188499206Y-76421682D01*
X188470000Y-76274855D01*
X188470000Y-76125145D01*
X188499206Y-75978318D01*
X188556496Y-75840007D01*
X188618417Y-75747336D01*
X188639670Y-75715528D01*
X188745528Y-75609670D01*
X188870005Y-75526497D01*
X188870007Y-75526496D01*
X189008318Y-75469206D01*
X189155145Y-75440000D01*
X189304855Y-75440000D01*
X189451682Y-75469206D01*
G37*
G36*
X196053993Y-72737447D02*
G01*
X196053996Y-72737448D01*
X196053995Y-72737448D01*
X196349726Y-72859943D01*
X196615877Y-73037780D01*
X196842220Y-73264123D01*
X197020057Y-73530274D01*
X197020057Y-73530275D01*
X197142553Y-73826007D01*
X197205000Y-74139950D01*
X197205000Y-74460050D01*
X197142553Y-74773993D01*
X197142552Y-74773995D01*
X197020057Y-75069726D01*
X196947754Y-75177934D01*
X196844393Y-75332626D01*
X196842220Y-75335877D01*
X196615877Y-75562220D01*
X196349726Y-75740057D01*
X196253294Y-75780000D01*
X196053993Y-75862553D01*
X195740050Y-75925000D01*
X195419950Y-75925000D01*
X195106007Y-75862553D01*
X194906706Y-75780000D01*
X194810274Y-75740057D01*
X194544123Y-75562220D01*
X194317780Y-75335877D01*
X194315608Y-75332626D01*
X194212246Y-75177934D01*
X194139943Y-75069726D01*
X194017448Y-74773995D01*
X194017447Y-74773993D01*
X193955000Y-74460050D01*
X193955000Y-74139950D01*
X194017447Y-73826007D01*
X194139943Y-73530275D01*
X194139943Y-73530274D01*
X194317780Y-73264123D01*
X194544123Y-73037780D01*
X194810274Y-72859943D01*
X195106005Y-72737448D01*
X195106004Y-72737448D01*
X195106007Y-72737447D01*
X195419950Y-72675000D01*
X195740050Y-72675000D01*
X196053993Y-72737447D01*
G37*
G36*
X151377934Y-74112664D02*
G01*
X151532625Y-74176739D01*
X151532626Y-74176740D01*
X151671844Y-74269762D01*
X151790238Y-74388156D01*
X151790239Y-74388158D01*
X151883261Y-74527375D01*
X151947336Y-74682066D01*
X151980000Y-74846281D01*
X151980000Y-75013719D01*
X151947336Y-75177934D01*
X151883261Y-75332625D01*
X151881088Y-75335877D01*
X151790238Y-75471844D01*
X151671844Y-75590238D01*
X151642763Y-75609669D01*
X151532625Y-75683261D01*
X151377934Y-75747336D01*
X151213719Y-75780000D01*
X151046281Y-75780000D01*
X150882066Y-75747336D01*
X150727375Y-75683261D01*
X150617237Y-75609669D01*
X150588156Y-75590238D01*
X150469762Y-75471844D01*
X150378912Y-75335877D01*
X150376739Y-75332625D01*
X150312664Y-75177934D01*
X150280000Y-75013719D01*
X150280000Y-74846281D01*
X150312664Y-74682066D01*
X150376739Y-74527375D01*
X150469761Y-74388158D01*
X150469762Y-74388156D01*
X150588156Y-74269762D01*
X150727374Y-74176740D01*
X150727375Y-74176739D01*
X150882066Y-74112664D01*
X151046281Y-74080000D01*
X151213719Y-74080000D01*
X151377934Y-74112664D01*
G37*
G36*
X151377934Y-71572664D02*
G01*
X151532625Y-71636739D01*
X151532626Y-71636740D01*
X151671844Y-71729762D01*
X151790238Y-71848156D01*
X151790239Y-71848158D01*
X151883261Y-71987375D01*
X151947336Y-72142066D01*
X151980000Y-72306281D01*
X151980000Y-72473719D01*
X151947336Y-72637934D01*
X151883261Y-72792625D01*
X151883260Y-72792626D01*
X151790238Y-72931844D01*
X151671844Y-73050238D01*
X151601762Y-73097065D01*
X151532625Y-73143261D01*
X151377934Y-73207336D01*
X151213719Y-73240000D01*
X151046281Y-73240000D01*
X150882066Y-73207336D01*
X150727375Y-73143261D01*
X150658238Y-73097065D01*
X150588156Y-73050238D01*
X150469762Y-72931844D01*
X150376740Y-72792626D01*
X150376739Y-72792625D01*
X150312664Y-72637934D01*
X150280000Y-72473719D01*
X150280000Y-72306281D01*
X150312664Y-72142066D01*
X150376739Y-71987375D01*
X150469761Y-71848158D01*
X150469762Y-71848156D01*
X150588156Y-71729762D01*
X150727374Y-71636740D01*
X150727375Y-71636739D01*
X150882066Y-71572664D01*
X151046281Y-71540000D01*
X151213719Y-71540000D01*
X151377934Y-71572664D01*
G37*
G36*
X196053993Y-67657447D02*
G01*
X196053996Y-67657448D01*
X196053995Y-67657448D01*
X196349726Y-67779943D01*
X196615877Y-67957780D01*
X196842220Y-68184123D01*
X197020057Y-68450274D01*
X197020057Y-68450275D01*
X197142553Y-68746007D01*
X197205000Y-69059950D01*
X197205000Y-69380050D01*
X197142553Y-69693993D01*
X197142552Y-69693995D01*
X197020057Y-69989726D01*
X196947754Y-70097934D01*
X196844393Y-70252626D01*
X196842220Y-70255877D01*
X196615877Y-70482220D01*
X196349726Y-70660057D01*
X196253294Y-70700000D01*
X196053993Y-70782553D01*
X195740050Y-70845000D01*
X195419950Y-70845000D01*
X195106007Y-70782553D01*
X194906706Y-70700000D01*
X194810274Y-70660057D01*
X194544123Y-70482220D01*
X194317780Y-70255877D01*
X194315608Y-70252626D01*
X194212246Y-70097934D01*
X194139943Y-69989726D01*
X194017448Y-69693995D01*
X194017447Y-69693993D01*
X193955000Y-69380050D01*
X193955000Y-69059950D01*
X194017447Y-68746007D01*
X194139943Y-68450275D01*
X194139943Y-68450274D01*
X194317780Y-68184123D01*
X194544123Y-67957780D01*
X194810274Y-67779943D01*
X195106005Y-67657448D01*
X195106004Y-67657448D01*
X195106007Y-67657447D01*
X195419950Y-67595000D01*
X195740050Y-67595000D01*
X196053993Y-67657447D01*
G37*
G36*
X143090000Y-70700000D02*
G01*
X141390000Y-70700000D01*
X141390000Y-69000000D01*
X143090000Y-69000000D01*
X143090000Y-70700000D01*
G37*
G36*
X151377934Y-69032664D02*
G01*
X151532625Y-69096739D01*
X151532626Y-69096740D01*
X151671844Y-69189762D01*
X151790238Y-69308156D01*
X151790239Y-69308158D01*
X151883261Y-69447375D01*
X151947336Y-69602066D01*
X151980000Y-69766281D01*
X151980000Y-69933719D01*
X151947336Y-70097934D01*
X151883261Y-70252625D01*
X151881088Y-70255877D01*
X151790238Y-70391844D01*
X151671844Y-70510238D01*
X151601762Y-70557065D01*
X151532625Y-70603261D01*
X151377934Y-70667336D01*
X151213719Y-70700000D01*
X151046281Y-70700000D01*
X150882066Y-70667336D01*
X150727375Y-70603261D01*
X150658238Y-70557065D01*
X150588156Y-70510238D01*
X150469762Y-70391844D01*
X150378912Y-70255877D01*
X150376739Y-70252625D01*
X150312664Y-70097934D01*
X150280000Y-69933719D01*
X150280000Y-69766281D01*
X150312664Y-69602066D01*
X150376739Y-69447375D01*
X150469761Y-69308158D01*
X150469762Y-69308156D01*
X150588156Y-69189762D01*
X150727374Y-69096740D01*
X150727375Y-69096739D01*
X150882066Y-69032664D01*
X151046281Y-69000000D01*
X151213719Y-69000000D01*
X151377934Y-69032664D01*
G37*
G36*
X142487934Y-66492664D02*
G01*
X142642625Y-66556739D01*
X142642626Y-66556740D01*
X142781844Y-66649762D01*
X142900238Y-66768156D01*
X142921515Y-66800000D01*
X142993261Y-66907375D01*
X143057336Y-67062066D01*
X143090000Y-67226281D01*
X143090000Y-67393719D01*
X143057336Y-67557934D01*
X142993261Y-67712625D01*
X142993260Y-67712626D01*
X142900238Y-67851844D01*
X142781844Y-67970238D01*
X142711762Y-68017065D01*
X142642625Y-68063261D01*
X142487934Y-68127336D01*
X142323719Y-68160000D01*
X142156281Y-68160000D01*
X141992066Y-68127336D01*
X141837375Y-68063261D01*
X141768238Y-68017065D01*
X141698156Y-67970238D01*
X141579762Y-67851844D01*
X141486740Y-67712626D01*
X141486739Y-67712625D01*
X141422664Y-67557934D01*
X141390000Y-67393719D01*
X141390000Y-67226281D01*
X141422664Y-67062066D01*
X141486739Y-66907375D01*
X141558485Y-66800000D01*
X141579762Y-66768156D01*
X141698156Y-66649762D01*
X141837374Y-66556740D01*
X141837375Y-66556739D01*
X141992066Y-66492664D01*
X142156281Y-66460000D01*
X142323719Y-66460000D01*
X142487934Y-66492664D01*
G37*
G36*
X151377934Y-66492664D02*
G01*
X151532625Y-66556739D01*
X151532626Y-66556740D01*
X151671844Y-66649762D01*
X151790238Y-66768156D01*
X151811515Y-66800000D01*
X151883261Y-66907375D01*
X151947336Y-67062066D01*
X151980000Y-67226281D01*
X151980000Y-67393719D01*
X151947336Y-67557934D01*
X151883261Y-67712625D01*
X151883260Y-67712626D01*
X151790238Y-67851844D01*
X151671844Y-67970238D01*
X151601762Y-68017065D01*
X151532625Y-68063261D01*
X151377934Y-68127336D01*
X151213719Y-68160000D01*
X151046281Y-68160000D01*
X150882066Y-68127336D01*
X150727375Y-68063261D01*
X150658238Y-68017065D01*
X150588156Y-67970238D01*
X150469762Y-67851844D01*
X150376740Y-67712626D01*
X150376739Y-67712625D01*
X150312664Y-67557934D01*
X150280000Y-67393719D01*
X150280000Y-67226281D01*
X150312664Y-67062066D01*
X150376739Y-66907375D01*
X150448485Y-66800000D01*
X150469762Y-66768156D01*
X150588156Y-66649762D01*
X150727374Y-66556740D01*
X150727375Y-66556739D01*
X150882066Y-66492664D01*
X151046281Y-66460000D01*
X151213719Y-66460000D01*
X151377934Y-66492664D01*
G37*
G36*
X187450000Y-68070000D02*
G01*
X185930000Y-68070000D01*
X185930000Y-66550000D01*
X187450000Y-66550000D01*
X187450000Y-68070000D01*
G37*
G36*
X189451682Y-65309206D02*
G01*
X189575109Y-65360331D01*
X189589995Y-65366497D01*
X189714472Y-65449670D01*
X189820330Y-65555528D01*
X189841583Y-65587336D01*
X189903504Y-65680007D01*
X189960794Y-65818318D01*
X189990000Y-65965145D01*
X189990000Y-66114855D01*
X189960794Y-66261682D01*
X189960793Y-66261684D01*
X189903503Y-66399995D01*
X189820330Y-66524472D01*
X189714472Y-66630330D01*
X189589995Y-66713503D01*
X189589994Y-66713504D01*
X189589993Y-66713504D01*
X189451682Y-66770794D01*
X189304855Y-66800000D01*
X189155145Y-66800000D01*
X189008318Y-66770794D01*
X188870007Y-66713504D01*
X188870006Y-66713504D01*
X188870005Y-66713503D01*
X188745528Y-66630330D01*
X188639670Y-66524472D01*
X188556497Y-66399995D01*
X188499207Y-66261684D01*
X188499206Y-66261682D01*
X188470000Y-66114855D01*
X188470000Y-65965145D01*
X188499206Y-65818318D01*
X188556496Y-65680007D01*
X188618417Y-65587336D01*
X188639670Y-65555528D01*
X188745528Y-65449670D01*
X188870005Y-65366497D01*
X188884891Y-65360331D01*
X189008318Y-65309206D01*
X189155145Y-65280000D01*
X189304855Y-65280000D01*
X189451682Y-65309206D01*
G37*
G36*
X94830000Y-65620000D02*
G01*
X93130000Y-65620000D01*
X93130000Y-63920000D01*
X94830000Y-63920000D01*
X94830000Y-65620000D01*
G37*
G36*
X96767934Y-63952664D02*
G01*
X96922625Y-64016739D01*
X96991762Y-64062935D01*
X97061844Y-64109762D01*
X97180238Y-64228156D01*
X97218574Y-64285530D01*
X97273261Y-64367375D01*
X97337336Y-64522066D01*
X97370000Y-64686281D01*
X97370000Y-64853719D01*
X97337336Y-65017934D01*
X97273261Y-65172625D01*
X97273260Y-65172626D01*
X97180238Y-65311844D01*
X97061844Y-65430238D01*
X97041991Y-65443503D01*
X96922625Y-65523261D01*
X96767934Y-65587336D01*
X96603719Y-65620000D01*
X96436281Y-65620000D01*
X96272066Y-65587336D01*
X96117375Y-65523261D01*
X95998009Y-65443503D01*
X95978156Y-65430238D01*
X95859762Y-65311844D01*
X95766740Y-65172626D01*
X95766739Y-65172625D01*
X95702664Y-65017934D01*
X95670000Y-64853719D01*
X95670000Y-64686281D01*
X95702664Y-64522066D01*
X95766739Y-64367375D01*
X95821426Y-64285530D01*
X95859762Y-64228156D01*
X95978156Y-64109762D01*
X96048238Y-64062935D01*
X96117375Y-64016739D01*
X96272066Y-63952664D01*
X96436281Y-63920000D01*
X96603719Y-63920000D01*
X96767934Y-63952664D01*
G37*
G36*
X151377934Y-63952664D02*
G01*
X151532625Y-64016739D01*
X151601762Y-64062935D01*
X151671844Y-64109762D01*
X151790238Y-64228156D01*
X151828574Y-64285530D01*
X151883261Y-64367375D01*
X151947336Y-64522066D01*
X151980000Y-64686281D01*
X151980000Y-64853719D01*
X151947336Y-65017934D01*
X151883261Y-65172625D01*
X151883260Y-65172626D01*
X151790238Y-65311844D01*
X151671844Y-65430238D01*
X151651991Y-65443503D01*
X151532625Y-65523261D01*
X151377934Y-65587336D01*
X151213719Y-65620000D01*
X151046281Y-65620000D01*
X150882066Y-65587336D01*
X150727375Y-65523261D01*
X150608009Y-65443503D01*
X150588156Y-65430238D01*
X150469762Y-65311844D01*
X150376740Y-65172626D01*
X150376739Y-65172625D01*
X150312664Y-65017934D01*
X150280000Y-64853719D01*
X150280000Y-64686281D01*
X150312664Y-64522066D01*
X150376739Y-64367375D01*
X150431426Y-64285530D01*
X150469762Y-64228156D01*
X150588156Y-64109762D01*
X150658238Y-64062935D01*
X150727375Y-64016739D01*
X150882066Y-63952664D01*
X151046281Y-63920000D01*
X151213719Y-63920000D01*
X151377934Y-63952664D01*
G37*
G36*
X142487934Y-63952664D02*
G01*
X142642625Y-64016739D01*
X142711762Y-64062935D01*
X142781844Y-64109762D01*
X142900238Y-64228156D01*
X142938574Y-64285530D01*
X142993261Y-64367375D01*
X143057336Y-64522066D01*
X143090000Y-64686281D01*
X143090000Y-64853719D01*
X143057336Y-65017934D01*
X142993261Y-65172625D01*
X142993260Y-65172626D01*
X142900238Y-65311844D01*
X142781844Y-65430238D01*
X142761991Y-65443503D01*
X142642625Y-65523261D01*
X142487934Y-65587336D01*
X142323719Y-65620000D01*
X142156281Y-65620000D01*
X141992066Y-65587336D01*
X141837375Y-65523261D01*
X141718009Y-65443503D01*
X141698156Y-65430238D01*
X141579762Y-65311844D01*
X141486740Y-65172626D01*
X141486739Y-65172625D01*
X141422664Y-65017934D01*
X141390000Y-64853719D01*
X141390000Y-64686281D01*
X141422664Y-64522066D01*
X141486739Y-64367375D01*
X141541426Y-64285530D01*
X141579762Y-64228156D01*
X141698156Y-64109762D01*
X141768238Y-64062935D01*
X141837375Y-64016739D01*
X141992066Y-63952664D01*
X142156281Y-63920000D01*
X142323719Y-63920000D01*
X142487934Y-63952664D01*
G37*
G36*
X139947934Y-63952664D02*
G01*
X140102625Y-64016739D01*
X140171762Y-64062935D01*
X140241844Y-64109762D01*
X140360238Y-64228156D01*
X140398574Y-64285530D01*
X140453261Y-64367375D01*
X140517336Y-64522066D01*
X140550000Y-64686281D01*
X140550000Y-64853719D01*
X140517336Y-65017934D01*
X140453261Y-65172625D01*
X140453260Y-65172626D01*
X140360238Y-65311844D01*
X140241844Y-65430238D01*
X140221991Y-65443503D01*
X140102625Y-65523261D01*
X139947934Y-65587336D01*
X139783719Y-65620000D01*
X139616281Y-65620000D01*
X139452066Y-65587336D01*
X139297375Y-65523261D01*
X139178009Y-65443503D01*
X139158156Y-65430238D01*
X139039762Y-65311844D01*
X138946740Y-65172626D01*
X138946739Y-65172625D01*
X138882664Y-65017934D01*
X138850000Y-64853719D01*
X138850000Y-64686281D01*
X138882664Y-64522066D01*
X138946739Y-64367375D01*
X139001426Y-64285530D01*
X139039762Y-64228156D01*
X139158156Y-64109762D01*
X139228238Y-64062935D01*
X139297375Y-64016739D01*
X139452066Y-63952664D01*
X139616281Y-63920000D01*
X139783719Y-63920000D01*
X139947934Y-63952664D01*
G37*
G36*
X138010000Y-65620000D02*
G01*
X136310000Y-65620000D01*
X136310000Y-63920000D01*
X138010000Y-63920000D01*
X138010000Y-65620000D01*
G37*
G36*
X115817934Y-63952664D02*
G01*
X115972625Y-64016739D01*
X116041762Y-64062935D01*
X116111844Y-64109762D01*
X116230238Y-64228156D01*
X116268574Y-64285530D01*
X116323261Y-64367375D01*
X116387336Y-64522066D01*
X116420000Y-64686281D01*
X116420000Y-64853719D01*
X116387336Y-65017934D01*
X116323261Y-65172625D01*
X116323260Y-65172626D01*
X116230238Y-65311844D01*
X116111844Y-65430238D01*
X116091991Y-65443503D01*
X115972625Y-65523261D01*
X115817934Y-65587336D01*
X115653719Y-65620000D01*
X115486281Y-65620000D01*
X115322066Y-65587336D01*
X115167375Y-65523261D01*
X115048009Y-65443503D01*
X115028156Y-65430238D01*
X114909762Y-65311844D01*
X114816740Y-65172626D01*
X114816739Y-65172625D01*
X114752664Y-65017934D01*
X114720000Y-64853719D01*
X114720000Y-64686281D01*
X114752664Y-64522066D01*
X114816739Y-64367375D01*
X114871426Y-64285530D01*
X114909762Y-64228156D01*
X115028156Y-64109762D01*
X115098238Y-64062935D01*
X115167375Y-64016739D01*
X115322066Y-63952664D01*
X115486281Y-63920000D01*
X115653719Y-63920000D01*
X115817934Y-63952664D01*
G37*
G36*
X113277934Y-63952664D02*
G01*
X113432625Y-64016739D01*
X113501762Y-64062935D01*
X113571844Y-64109762D01*
X113690238Y-64228156D01*
X113728574Y-64285530D01*
X113783261Y-64367375D01*
X113847336Y-64522066D01*
X113880000Y-64686281D01*
X113880000Y-64853719D01*
X113847336Y-65017934D01*
X113783261Y-65172625D01*
X113783260Y-65172626D01*
X113690238Y-65311844D01*
X113571844Y-65430238D01*
X113551991Y-65443503D01*
X113432625Y-65523261D01*
X113277934Y-65587336D01*
X113113719Y-65620000D01*
X112946281Y-65620000D01*
X112782066Y-65587336D01*
X112627375Y-65523261D01*
X112508009Y-65443503D01*
X112488156Y-65430238D01*
X112369762Y-65311844D01*
X112276740Y-65172626D01*
X112276739Y-65172625D01*
X112212664Y-65017934D01*
X112180000Y-64853719D01*
X112180000Y-64686281D01*
X112212664Y-64522066D01*
X112276739Y-64367375D01*
X112331426Y-64285530D01*
X112369762Y-64228156D01*
X112488156Y-64109762D01*
X112558238Y-64062935D01*
X112627375Y-64016739D01*
X112782066Y-63952664D01*
X112946281Y-63920000D01*
X113113719Y-63920000D01*
X113277934Y-63952664D01*
G37*
G36*
X111340000Y-65620000D02*
G01*
X109640000Y-65620000D01*
X109640000Y-63920000D01*
X111340000Y-63920000D01*
X111340000Y-65620000D01*
G37*
G36*
X101847934Y-63952664D02*
G01*
X102002625Y-64016739D01*
X102071762Y-64062935D01*
X102141844Y-64109762D01*
X102260238Y-64228156D01*
X102298574Y-64285530D01*
X102353261Y-64367375D01*
X102417336Y-64522066D01*
X102450000Y-64686281D01*
X102450000Y-64853719D01*
X102417336Y-65017934D01*
X102353261Y-65172625D01*
X102353260Y-65172626D01*
X102260238Y-65311844D01*
X102141844Y-65430238D01*
X102121991Y-65443503D01*
X102002625Y-65523261D01*
X101847934Y-65587336D01*
X101683719Y-65620000D01*
X101516281Y-65620000D01*
X101352066Y-65587336D01*
X101197375Y-65523261D01*
X101078009Y-65443503D01*
X101058156Y-65430238D01*
X100939762Y-65311844D01*
X100846740Y-65172626D01*
X100846739Y-65172625D01*
X100782664Y-65017934D01*
X100750000Y-64853719D01*
X100750000Y-64686281D01*
X100782664Y-64522066D01*
X100846739Y-64367375D01*
X100901426Y-64285530D01*
X100939762Y-64228156D01*
X101058156Y-64109762D01*
X101128238Y-64062935D01*
X101197375Y-64016739D01*
X101352066Y-63952664D01*
X101516281Y-63920000D01*
X101683719Y-63920000D01*
X101847934Y-63952664D01*
G37*
G36*
X99307934Y-63952664D02*
G01*
X99462625Y-64016739D01*
X99531762Y-64062935D01*
X99601844Y-64109762D01*
X99720238Y-64228156D01*
X99758574Y-64285530D01*
X99813261Y-64367375D01*
X99877336Y-64522066D01*
X99910000Y-64686281D01*
X99910000Y-64853719D01*
X99877336Y-65017934D01*
X99813261Y-65172625D01*
X99813260Y-65172626D01*
X99720238Y-65311844D01*
X99601844Y-65430238D01*
X99581991Y-65443503D01*
X99462625Y-65523261D01*
X99307934Y-65587336D01*
X99143719Y-65620000D01*
X98976281Y-65620000D01*
X98812066Y-65587336D01*
X98657375Y-65523261D01*
X98538009Y-65443503D01*
X98518156Y-65430238D01*
X98399762Y-65311844D01*
X98306740Y-65172626D01*
X98306739Y-65172625D01*
X98242664Y-65017934D01*
X98210000Y-64853719D01*
X98210000Y-64686281D01*
X98242664Y-64522066D01*
X98306739Y-64367375D01*
X98361426Y-64285530D01*
X98399762Y-64228156D01*
X98518156Y-64109762D01*
X98588238Y-64062935D01*
X98657375Y-64016739D01*
X98812066Y-63952664D01*
X98976281Y-63920000D01*
X99143719Y-63920000D01*
X99307934Y-63952664D01*
G37*
G36*
X118357934Y-63952664D02*
G01*
X118512625Y-64016739D01*
X118581762Y-64062935D01*
X118651844Y-64109762D01*
X118770238Y-64228156D01*
X118808574Y-64285530D01*
X118863261Y-64367375D01*
X118927336Y-64522066D01*
X118960000Y-64686281D01*
X118960000Y-64853719D01*
X118927336Y-65017934D01*
X118863261Y-65172625D01*
X118863260Y-65172626D01*
X118770238Y-65311844D01*
X118651844Y-65430238D01*
X118631991Y-65443503D01*
X118512625Y-65523261D01*
X118357934Y-65587336D01*
X118193719Y-65620000D01*
X118026281Y-65620000D01*
X117862066Y-65587336D01*
X117707375Y-65523261D01*
X117588009Y-65443503D01*
X117568156Y-65430238D01*
X117449762Y-65311844D01*
X117356740Y-65172626D01*
X117356739Y-65172625D01*
X117292664Y-65017934D01*
X117260000Y-64853719D01*
X117260000Y-64686281D01*
X117292664Y-64522066D01*
X117356739Y-64367375D01*
X117411426Y-64285530D01*
X117449762Y-64228156D01*
X117568156Y-64109762D01*
X117638238Y-64062935D01*
X117707375Y-64016739D01*
X117862066Y-63952664D01*
X118026281Y-63920000D01*
X118193719Y-63920000D01*
X118357934Y-63952664D01*
G37*
G36*
X186911682Y-64039206D02*
G01*
X187035109Y-64090331D01*
X187049995Y-64096497D01*
X187174472Y-64179670D01*
X187280330Y-64285528D01*
X187363503Y-64410005D01*
X187363504Y-64410007D01*
X187420794Y-64548318D01*
X187450000Y-64695145D01*
X187450000Y-64844855D01*
X187420794Y-64991682D01*
X187420793Y-64991684D01*
X187363503Y-65129995D01*
X187280330Y-65254472D01*
X187174472Y-65360330D01*
X187049995Y-65443503D01*
X187049994Y-65443504D01*
X187049993Y-65443504D01*
X186911682Y-65500794D01*
X186764855Y-65530000D01*
X186615145Y-65530000D01*
X186468318Y-65500794D01*
X186330007Y-65443504D01*
X186330006Y-65443504D01*
X186330005Y-65443503D01*
X186205528Y-65360330D01*
X186099670Y-65254472D01*
X186016497Y-65129995D01*
X185959207Y-64991684D01*
X185959206Y-64991682D01*
X185930000Y-64844855D01*
X185930000Y-64695145D01*
X185959206Y-64548318D01*
X186016496Y-64410007D01*
X186016497Y-64410005D01*
X186099670Y-64285528D01*
X186205528Y-64179670D01*
X186330005Y-64096497D01*
X186344891Y-64090331D01*
X186468318Y-64039206D01*
X186615145Y-64010000D01*
X186764855Y-64010000D01*
X186911682Y-64039206D01*
G37*
G36*
X189451682Y-62769206D02*
G01*
X189575109Y-62820331D01*
X189589995Y-62826497D01*
X189714472Y-62909670D01*
X189820330Y-63015528D01*
X189841583Y-63047336D01*
X189903504Y-63140007D01*
X189960794Y-63278318D01*
X189990000Y-63425145D01*
X189990000Y-63574855D01*
X189960794Y-63721682D01*
X189960793Y-63721684D01*
X189903503Y-63859995D01*
X189820330Y-63984472D01*
X189714472Y-64090330D01*
X189589995Y-64173503D01*
X189589994Y-64173504D01*
X189589993Y-64173504D01*
X189451682Y-64230794D01*
X189304855Y-64260000D01*
X189155145Y-64260000D01*
X189008318Y-64230794D01*
X188870007Y-64173504D01*
X188870006Y-64173504D01*
X188870005Y-64173503D01*
X188745528Y-64090330D01*
X188639670Y-63984472D01*
X188556497Y-63859995D01*
X188499207Y-63721684D01*
X188499206Y-63721682D01*
X188470000Y-63574855D01*
X188470000Y-63425145D01*
X188499206Y-63278318D01*
X188556496Y-63140007D01*
X188618417Y-63047336D01*
X188639670Y-63015528D01*
X188745528Y-62909670D01*
X188870005Y-62826497D01*
X188884891Y-62820331D01*
X189008318Y-62769206D01*
X189155145Y-62740000D01*
X189304855Y-62740000D01*
X189451682Y-62769206D01*
G37*
G36*
X142487934Y-61412664D02*
G01*
X142642625Y-61476739D01*
X142711762Y-61522935D01*
X142781844Y-61569762D01*
X142900238Y-61688156D01*
X142938574Y-61745530D01*
X142993261Y-61827375D01*
X143057336Y-61982066D01*
X143090000Y-62146281D01*
X143090000Y-62313719D01*
X143057336Y-62477934D01*
X142993261Y-62632625D01*
X142993260Y-62632626D01*
X142900238Y-62771844D01*
X142781844Y-62890238D01*
X142761991Y-62903503D01*
X142642625Y-62983261D01*
X142487934Y-63047336D01*
X142323719Y-63080000D01*
X142156281Y-63080000D01*
X141992066Y-63047336D01*
X141837375Y-62983261D01*
X141718009Y-62903503D01*
X141698156Y-62890238D01*
X141579762Y-62771844D01*
X141486740Y-62632626D01*
X141486739Y-62632625D01*
X141422664Y-62477934D01*
X141390000Y-62313719D01*
X141390000Y-62146281D01*
X141422664Y-61982066D01*
X141486739Y-61827375D01*
X141541426Y-61745530D01*
X141579762Y-61688156D01*
X141698156Y-61569762D01*
X141768238Y-61522935D01*
X141837375Y-61476739D01*
X141992066Y-61412664D01*
X142156281Y-61380000D01*
X142323719Y-61380000D01*
X142487934Y-61412664D01*
G37*
G36*
X151377934Y-61412664D02*
G01*
X151532625Y-61476739D01*
X151601762Y-61522935D01*
X151671844Y-61569762D01*
X151790238Y-61688156D01*
X151828574Y-61745530D01*
X151883261Y-61827375D01*
X151947336Y-61982066D01*
X151980000Y-62146281D01*
X151980000Y-62313719D01*
X151947336Y-62477934D01*
X151883261Y-62632625D01*
X151883260Y-62632626D01*
X151790238Y-62771844D01*
X151671844Y-62890238D01*
X151651991Y-62903503D01*
X151532625Y-62983261D01*
X151377934Y-63047336D01*
X151213719Y-63080000D01*
X151046281Y-63080000D01*
X150882066Y-63047336D01*
X150727375Y-62983261D01*
X150608009Y-62903503D01*
X150588156Y-62890238D01*
X150469762Y-62771844D01*
X150376740Y-62632626D01*
X150376739Y-62632625D01*
X150312664Y-62477934D01*
X150280000Y-62313719D01*
X150280000Y-62146281D01*
X150312664Y-61982066D01*
X150376739Y-61827375D01*
X150431426Y-61745530D01*
X150469762Y-61688156D01*
X150588156Y-61569762D01*
X150658238Y-61522935D01*
X150727375Y-61476739D01*
X150882066Y-61412664D01*
X151046281Y-61380000D01*
X151213719Y-61380000D01*
X151377934Y-61412664D01*
G37*
G36*
X186911682Y-61499206D02*
G01*
X187035109Y-61550331D01*
X187049995Y-61556497D01*
X187174472Y-61639670D01*
X187280330Y-61745528D01*
X187363503Y-61870005D01*
X187363504Y-61870007D01*
X187420794Y-62008318D01*
X187450000Y-62155145D01*
X187450000Y-62304855D01*
X187420794Y-62451682D01*
X187420793Y-62451684D01*
X187363503Y-62589995D01*
X187280330Y-62714472D01*
X187174472Y-62820330D01*
X187049995Y-62903503D01*
X187049994Y-62903504D01*
X187049993Y-62903504D01*
X186911682Y-62960794D01*
X186764855Y-62990000D01*
X186615145Y-62990000D01*
X186468318Y-62960794D01*
X186330007Y-62903504D01*
X186330006Y-62903504D01*
X186330005Y-62903503D01*
X186205528Y-62820330D01*
X186099670Y-62714472D01*
X186016497Y-62589995D01*
X185959207Y-62451684D01*
X185959206Y-62451682D01*
X185930000Y-62304855D01*
X185930000Y-62155145D01*
X185959206Y-62008318D01*
X186016496Y-61870007D01*
X186016497Y-61870005D01*
X186099670Y-61745528D01*
X186205528Y-61639670D01*
X186330005Y-61556497D01*
X186344891Y-61550331D01*
X186468318Y-61499206D01*
X186615145Y-61470000D01*
X186764855Y-61470000D01*
X186911682Y-61499206D01*
G37*
G36*
X189451682Y-60229206D02*
G01*
X189589993Y-60286496D01*
X189589995Y-60286497D01*
X189714472Y-60369670D01*
X189820330Y-60475528D01*
X189841583Y-60507336D01*
X189903504Y-60600007D01*
X189960794Y-60738318D01*
X189990000Y-60885145D01*
X189990000Y-61034855D01*
X189960794Y-61181682D01*
X189960793Y-61181684D01*
X189903503Y-61319995D01*
X189820330Y-61444472D01*
X189714472Y-61550330D01*
X189589995Y-61633503D01*
X189589994Y-61633504D01*
X189589993Y-61633504D01*
X189451682Y-61690794D01*
X189304855Y-61720000D01*
X189155145Y-61720000D01*
X189008318Y-61690794D01*
X188870007Y-61633504D01*
X188870006Y-61633504D01*
X188870005Y-61633503D01*
X188745528Y-61550330D01*
X188639670Y-61444472D01*
X188556497Y-61319995D01*
X188499207Y-61181684D01*
X188499206Y-61181682D01*
X188470000Y-61034855D01*
X188470000Y-60885145D01*
X188499206Y-60738318D01*
X188556496Y-60600007D01*
X188618417Y-60507336D01*
X188639670Y-60475528D01*
X188745528Y-60369670D01*
X188870005Y-60286497D01*
X188870007Y-60286496D01*
X189008318Y-60229206D01*
X189155145Y-60200000D01*
X189304855Y-60200000D01*
X189451682Y-60229206D01*
G37*
G36*
X196053993Y-57497447D02*
G01*
X196053996Y-57497448D01*
X196053995Y-57497448D01*
X196349726Y-57619943D01*
X196615877Y-57797780D01*
X196842220Y-58024123D01*
X197020057Y-58290274D01*
X197039114Y-58336282D01*
X197142553Y-58586007D01*
X197205000Y-58899950D01*
X197205000Y-59220050D01*
X197142553Y-59533993D01*
X197142552Y-59533995D01*
X197020057Y-59829726D01*
X196947754Y-59937934D01*
X196844393Y-60092626D01*
X196842220Y-60095877D01*
X196615877Y-60322220D01*
X196349726Y-60500057D01*
X196253294Y-60540000D01*
X196053993Y-60622553D01*
X195740050Y-60685000D01*
X195419950Y-60685000D01*
X195106007Y-60622553D01*
X194906706Y-60540000D01*
X194810274Y-60500057D01*
X194544123Y-60322220D01*
X194317780Y-60095877D01*
X194315608Y-60092626D01*
X194212246Y-59937934D01*
X194139943Y-59829726D01*
X194017448Y-59533995D01*
X194017447Y-59533993D01*
X193955000Y-59220050D01*
X193955000Y-58899950D01*
X194017447Y-58586007D01*
X194120886Y-58336282D01*
X194139943Y-58290274D01*
X194317780Y-58024123D01*
X194544123Y-57797780D01*
X194810274Y-57619943D01*
X195106005Y-57497448D01*
X195106004Y-57497448D01*
X195106007Y-57497447D01*
X195419950Y-57435000D01*
X195740050Y-57435000D01*
X196053993Y-57497447D01*
G37*
G36*
X151377934Y-58872664D02*
G01*
X151532625Y-58936739D01*
X151532626Y-58936740D01*
X151671844Y-59029762D01*
X151790238Y-59148156D01*
X151837065Y-59218238D01*
X151883261Y-59287375D01*
X151947336Y-59442066D01*
X151980000Y-59606281D01*
X151980000Y-59773719D01*
X151947336Y-59937934D01*
X151883261Y-60092625D01*
X151881088Y-60095877D01*
X151790238Y-60231844D01*
X151671844Y-60350238D01*
X151642763Y-60369669D01*
X151532625Y-60443261D01*
X151377934Y-60507336D01*
X151213719Y-60540000D01*
X151046281Y-60540000D01*
X150882066Y-60507336D01*
X150727375Y-60443261D01*
X150617237Y-60369669D01*
X150588156Y-60350238D01*
X150469762Y-60231844D01*
X150378912Y-60095877D01*
X150376739Y-60092625D01*
X150312664Y-59937934D01*
X150280000Y-59773719D01*
X150280000Y-59606281D01*
X150312664Y-59442066D01*
X150376739Y-59287375D01*
X150422935Y-59218238D01*
X150469762Y-59148156D01*
X150588156Y-59029762D01*
X150727374Y-58936740D01*
X150727375Y-58936739D01*
X150882066Y-58872664D01*
X151046281Y-58840000D01*
X151213719Y-58840000D01*
X151377934Y-58872664D01*
G37*
G36*
X165950000Y-59270000D02*
G01*
X164250000Y-59270000D01*
X164250000Y-57570000D01*
X165950000Y-57570000D01*
X165950000Y-59270000D01*
G37*
G36*
X172967934Y-57602664D02*
G01*
X173122625Y-57666739D01*
X173122626Y-57666740D01*
X173261844Y-57759762D01*
X173380238Y-57878156D01*
X173380239Y-57878158D01*
X173473261Y-58017375D01*
X173537336Y-58172066D01*
X173570000Y-58336281D01*
X173570000Y-58503719D01*
X173537336Y-58667934D01*
X173473261Y-58822625D01*
X173473260Y-58822626D01*
X173380238Y-58961844D01*
X173261844Y-59080238D01*
X173191762Y-59127065D01*
X173122625Y-59173261D01*
X172967934Y-59237336D01*
X172803719Y-59270000D01*
X172636281Y-59270000D01*
X172472066Y-59237336D01*
X172317375Y-59173261D01*
X172248238Y-59127065D01*
X172178156Y-59080238D01*
X172059762Y-58961844D01*
X171966740Y-58822626D01*
X171966739Y-58822625D01*
X171902664Y-58667934D01*
X171870000Y-58503719D01*
X171870000Y-58336281D01*
X171902664Y-58172066D01*
X171966739Y-58017375D01*
X172059761Y-57878158D01*
X172059762Y-57878156D01*
X172178156Y-57759762D01*
X172317374Y-57666740D01*
X172317375Y-57666739D01*
X172472066Y-57602664D01*
X172636281Y-57570000D01*
X172803719Y-57570000D01*
X172967934Y-57602664D01*
G37*
G36*
X170427934Y-57602664D02*
G01*
X170582625Y-57666739D01*
X170582626Y-57666740D01*
X170721844Y-57759762D01*
X170840238Y-57878156D01*
X170840239Y-57878158D01*
X170933261Y-58017375D01*
X170997336Y-58172066D01*
X171030000Y-58336281D01*
X171030000Y-58503719D01*
X170997336Y-58667934D01*
X170933261Y-58822625D01*
X170933260Y-58822626D01*
X170840238Y-58961844D01*
X170721844Y-59080238D01*
X170651762Y-59127065D01*
X170582625Y-59173261D01*
X170427934Y-59237336D01*
X170263719Y-59270000D01*
X170096281Y-59270000D01*
X169932066Y-59237336D01*
X169777375Y-59173261D01*
X169708238Y-59127065D01*
X169638156Y-59080238D01*
X169519762Y-58961844D01*
X169426740Y-58822626D01*
X169426739Y-58822625D01*
X169362664Y-58667934D01*
X169330000Y-58503719D01*
X169330000Y-58336281D01*
X169362664Y-58172066D01*
X169426739Y-58017375D01*
X169519761Y-57878158D01*
X169519762Y-57878156D01*
X169638156Y-57759762D01*
X169777374Y-57666740D01*
X169777375Y-57666739D01*
X169932066Y-57602664D01*
X170096281Y-57570000D01*
X170263719Y-57570000D01*
X170427934Y-57602664D01*
G37*
G36*
X167887934Y-57602664D02*
G01*
X168042625Y-57666739D01*
X168042626Y-57666740D01*
X168181844Y-57759762D01*
X168300238Y-57878156D01*
X168300239Y-57878158D01*
X168393261Y-58017375D01*
X168457336Y-58172066D01*
X168490000Y-58336281D01*
X168490000Y-58503719D01*
X168457336Y-58667934D01*
X168393261Y-58822625D01*
X168393260Y-58822626D01*
X168300238Y-58961844D01*
X168181844Y-59080238D01*
X168111762Y-59127065D01*
X168042625Y-59173261D01*
X167887934Y-59237336D01*
X167723719Y-59270000D01*
X167556281Y-59270000D01*
X167392066Y-59237336D01*
X167237375Y-59173261D01*
X167168238Y-59127065D01*
X167098156Y-59080238D01*
X166979762Y-58961844D01*
X166886740Y-58822626D01*
X166886739Y-58822625D01*
X166822664Y-58667934D01*
X166790000Y-58503719D01*
X166790000Y-58336281D01*
X166822664Y-58172066D01*
X166886739Y-58017375D01*
X166979761Y-57878158D01*
X166979762Y-57878156D01*
X167098156Y-57759762D01*
X167237374Y-57666740D01*
X167237375Y-57666739D01*
X167392066Y-57602664D01*
X167556281Y-57570000D01*
X167723719Y-57570000D01*
X167887934Y-57602664D01*
G37*
G36*
X170427934Y-53792664D02*
G01*
X170582625Y-53856739D01*
X170582626Y-53856740D01*
X170721844Y-53949762D01*
X170840238Y-54068156D01*
X170840239Y-54068158D01*
X170933261Y-54207375D01*
X170997336Y-54362066D01*
X171030000Y-54526281D01*
X171030000Y-54693719D01*
X170997336Y-54857934D01*
X170933261Y-55012625D01*
X170933260Y-55012626D01*
X170840238Y-55151844D01*
X170721844Y-55270238D01*
X170651762Y-55317065D01*
X170582625Y-55363261D01*
X170427934Y-55427336D01*
X170263719Y-55460000D01*
X170096281Y-55460000D01*
X169932066Y-55427336D01*
X169777375Y-55363261D01*
X169708238Y-55317065D01*
X169638156Y-55270238D01*
X169519762Y-55151844D01*
X169426740Y-55012626D01*
X169426739Y-55012625D01*
X169362664Y-54857934D01*
X169330000Y-54693719D01*
X169330000Y-54526281D01*
X169362664Y-54362066D01*
X169426739Y-54207375D01*
X169519761Y-54068158D01*
X169519762Y-54068156D01*
X169638156Y-53949762D01*
X169777374Y-53856740D01*
X169777375Y-53856739D01*
X169932066Y-53792664D01*
X170096281Y-53760000D01*
X170263719Y-53760000D01*
X170427934Y-53792664D01*
G37*
G36*
X165950000Y-55460000D02*
G01*
X164250000Y-55460000D01*
X164250000Y-53760000D01*
X165950000Y-53760000D01*
X165950000Y-55460000D01*
G37*
G36*
X167887934Y-53792664D02*
G01*
X168042625Y-53856739D01*
X168042626Y-53856740D01*
X168181844Y-53949762D01*
X168300238Y-54068156D01*
X168300239Y-54068158D01*
X168393261Y-54207375D01*
X168457336Y-54362066D01*
X168490000Y-54526281D01*
X168490000Y-54693719D01*
X168457336Y-54857934D01*
X168393261Y-55012625D01*
X168393260Y-55012626D01*
X168300238Y-55151844D01*
X168181844Y-55270238D01*
X168111762Y-55317065D01*
X168042625Y-55363261D01*
X167887934Y-55427336D01*
X167723719Y-55460000D01*
X167556281Y-55460000D01*
X167392066Y-55427336D01*
X167237375Y-55363261D01*
X167168238Y-55317065D01*
X167098156Y-55270238D01*
X166979762Y-55151844D01*
X166886740Y-55012626D01*
X166886739Y-55012625D01*
X166822664Y-54857934D01*
X166790000Y-54693719D01*
X166790000Y-54526281D01*
X166822664Y-54362066D01*
X166886739Y-54207375D01*
X166979761Y-54068158D01*
X166979762Y-54068156D01*
X167098156Y-53949762D01*
X167237374Y-53856740D01*
X167237375Y-53856739D01*
X167392066Y-53792664D01*
X167556281Y-53760000D01*
X167723719Y-53760000D01*
X167887934Y-53792664D01*
G37*
G36*
X172967934Y-53792664D02*
G01*
X173122625Y-53856739D01*
X173122626Y-53856740D01*
X173261844Y-53949762D01*
X173380238Y-54068156D01*
X173380239Y-54068158D01*
X173473261Y-54207375D01*
X173537336Y-54362066D01*
X173570000Y-54526281D01*
X173570000Y-54693719D01*
X173537336Y-54857934D01*
X173473261Y-55012625D01*
X173473260Y-55012626D01*
X173380238Y-55151844D01*
X173261844Y-55270238D01*
X173191762Y-55317065D01*
X173122625Y-55363261D01*
X172967934Y-55427336D01*
X172803719Y-55460000D01*
X172636281Y-55460000D01*
X172472066Y-55427336D01*
X172317375Y-55363261D01*
X172248238Y-55317065D01*
X172178156Y-55270238D01*
X172059762Y-55151844D01*
X171966740Y-55012626D01*
X171966739Y-55012625D01*
X171902664Y-54857934D01*
X171870000Y-54693719D01*
X171870000Y-54526281D01*
X171902664Y-54362066D01*
X171966739Y-54207375D01*
X172059761Y-54068158D01*
X172059762Y-54068156D01*
X172178156Y-53949762D01*
X172317374Y-53856740D01*
X172317375Y-53856739D01*
X172472066Y-53792664D01*
X172636281Y-53760000D01*
X172803719Y-53760000D01*
X172967934Y-53792664D01*
G37*
M02*
