G04 #@! TF.GenerationSoftware,KiCad,Pcbnew,5.1.5+dfsg1-2build2*
G04 #@! TF.CreationDate,2020-09-05T16:32:43+02:00*
G04 #@! TF.ProjectId,onstep-ramps-shield,6f6e7374-6570-42d7-9261-6d70732d7368,1*
G04 #@! TF.SameCoordinates,Original*
G04 #@! TF.FileFunction,Paste,Top*
G04 #@! TF.FilePolarity,Positive*
%FSLAX46Y46*%
G04 Gerber Fmt 4.6, Leading zero omitted, Abs format (unit mm)*
G04 Created by KiCad (PCBNEW 5.1.5+dfsg1-2build2) date 2020-09-05 16:32:43*
%MOMM*%
%LPD*%
G04 APERTURE LIST*
%ADD10C,0.152400*%
G04 APERTURE END LIST*
D10*
G36*
X92970779Y-113776144D02*
G01*
X92993834Y-113779563D01*
X93016443Y-113785227D01*
X93038387Y-113793079D01*
X93059457Y-113803044D01*
X93079448Y-113815026D01*
X93098168Y-113828910D01*
X93115438Y-113844562D01*
X93131090Y-113861832D01*
X93144974Y-113880552D01*
X93156956Y-113900543D01*
X93166921Y-113921613D01*
X93174773Y-113943557D01*
X93180437Y-113966166D01*
X93183856Y-113989221D01*
X93185000Y-114012500D01*
X93185000Y-114587500D01*
X93183856Y-114610779D01*
X93180437Y-114633834D01*
X93174773Y-114656443D01*
X93166921Y-114678387D01*
X93156956Y-114699457D01*
X93144974Y-114719448D01*
X93131090Y-114738168D01*
X93115438Y-114755438D01*
X93098168Y-114771090D01*
X93079448Y-114784974D01*
X93059457Y-114796956D01*
X93038387Y-114806921D01*
X93016443Y-114814773D01*
X92993834Y-114820437D01*
X92970779Y-114823856D01*
X92947500Y-114825000D01*
X92472500Y-114825000D01*
X92449221Y-114823856D01*
X92426166Y-114820437D01*
X92403557Y-114814773D01*
X92381613Y-114806921D01*
X92360543Y-114796956D01*
X92340552Y-114784974D01*
X92321832Y-114771090D01*
X92304562Y-114755438D01*
X92288910Y-114738168D01*
X92275026Y-114719448D01*
X92263044Y-114699457D01*
X92253079Y-114678387D01*
X92245227Y-114656443D01*
X92239563Y-114633834D01*
X92236144Y-114610779D01*
X92235000Y-114587500D01*
X92235000Y-114012500D01*
X92236144Y-113989221D01*
X92239563Y-113966166D01*
X92245227Y-113943557D01*
X92253079Y-113921613D01*
X92263044Y-113900543D01*
X92275026Y-113880552D01*
X92288910Y-113861832D01*
X92304562Y-113844562D01*
X92321832Y-113828910D01*
X92340552Y-113815026D01*
X92360543Y-113803044D01*
X92381613Y-113793079D01*
X92403557Y-113785227D01*
X92426166Y-113779563D01*
X92449221Y-113776144D01*
X92472500Y-113775000D01*
X92947500Y-113775000D01*
X92970779Y-113776144D01*
G37*
G36*
X92970779Y-115526144D02*
G01*
X92993834Y-115529563D01*
X93016443Y-115535227D01*
X93038387Y-115543079D01*
X93059457Y-115553044D01*
X93079448Y-115565026D01*
X93098168Y-115578910D01*
X93115438Y-115594562D01*
X93131090Y-115611832D01*
X93144974Y-115630552D01*
X93156956Y-115650543D01*
X93166921Y-115671613D01*
X93174773Y-115693557D01*
X93180437Y-115716166D01*
X93183856Y-115739221D01*
X93185000Y-115762500D01*
X93185000Y-116337500D01*
X93183856Y-116360779D01*
X93180437Y-116383834D01*
X93174773Y-116406443D01*
X93166921Y-116428387D01*
X93156956Y-116449457D01*
X93144974Y-116469448D01*
X93131090Y-116488168D01*
X93115438Y-116505438D01*
X93098168Y-116521090D01*
X93079448Y-116534974D01*
X93059457Y-116546956D01*
X93038387Y-116556921D01*
X93016443Y-116564773D01*
X92993834Y-116570437D01*
X92970779Y-116573856D01*
X92947500Y-116575000D01*
X92472500Y-116575000D01*
X92449221Y-116573856D01*
X92426166Y-116570437D01*
X92403557Y-116564773D01*
X92381613Y-116556921D01*
X92360543Y-116546956D01*
X92340552Y-116534974D01*
X92321832Y-116521090D01*
X92304562Y-116505438D01*
X92288910Y-116488168D01*
X92275026Y-116469448D01*
X92263044Y-116449457D01*
X92253079Y-116428387D01*
X92245227Y-116406443D01*
X92239563Y-116383834D01*
X92236144Y-116360779D01*
X92235000Y-116337500D01*
X92235000Y-115762500D01*
X92236144Y-115739221D01*
X92239563Y-115716166D01*
X92245227Y-115693557D01*
X92253079Y-115671613D01*
X92263044Y-115650543D01*
X92275026Y-115630552D01*
X92288910Y-115611832D01*
X92304562Y-115594562D01*
X92321832Y-115578910D01*
X92340552Y-115565026D01*
X92360543Y-115553044D01*
X92381613Y-115543079D01*
X92403557Y-115535227D01*
X92426166Y-115529563D01*
X92449221Y-115526144D01*
X92472500Y-115525000D01*
X92947500Y-115525000D01*
X92970779Y-115526144D01*
G37*
G36*
X90430779Y-113776144D02*
G01*
X90453834Y-113779563D01*
X90476443Y-113785227D01*
X90498387Y-113793079D01*
X90519457Y-113803044D01*
X90539448Y-113815026D01*
X90558168Y-113828910D01*
X90575438Y-113844562D01*
X90591090Y-113861832D01*
X90604974Y-113880552D01*
X90616956Y-113900543D01*
X90626921Y-113921613D01*
X90634773Y-113943557D01*
X90640437Y-113966166D01*
X90643856Y-113989221D01*
X90645000Y-114012500D01*
X90645000Y-114587500D01*
X90643856Y-114610779D01*
X90640437Y-114633834D01*
X90634773Y-114656443D01*
X90626921Y-114678387D01*
X90616956Y-114699457D01*
X90604974Y-114719448D01*
X90591090Y-114738168D01*
X90575438Y-114755438D01*
X90558168Y-114771090D01*
X90539448Y-114784974D01*
X90519457Y-114796956D01*
X90498387Y-114806921D01*
X90476443Y-114814773D01*
X90453834Y-114820437D01*
X90430779Y-114823856D01*
X90407500Y-114825000D01*
X89932500Y-114825000D01*
X89909221Y-114823856D01*
X89886166Y-114820437D01*
X89863557Y-114814773D01*
X89841613Y-114806921D01*
X89820543Y-114796956D01*
X89800552Y-114784974D01*
X89781832Y-114771090D01*
X89764562Y-114755438D01*
X89748910Y-114738168D01*
X89735026Y-114719448D01*
X89723044Y-114699457D01*
X89713079Y-114678387D01*
X89705227Y-114656443D01*
X89699563Y-114633834D01*
X89696144Y-114610779D01*
X89695000Y-114587500D01*
X89695000Y-114012500D01*
X89696144Y-113989221D01*
X89699563Y-113966166D01*
X89705227Y-113943557D01*
X89713079Y-113921613D01*
X89723044Y-113900543D01*
X89735026Y-113880552D01*
X89748910Y-113861832D01*
X89764562Y-113844562D01*
X89781832Y-113828910D01*
X89800552Y-113815026D01*
X89820543Y-113803044D01*
X89841613Y-113793079D01*
X89863557Y-113785227D01*
X89886166Y-113779563D01*
X89909221Y-113776144D01*
X89932500Y-113775000D01*
X90407500Y-113775000D01*
X90430779Y-113776144D01*
G37*
G36*
X90430779Y-115526144D02*
G01*
X90453834Y-115529563D01*
X90476443Y-115535227D01*
X90498387Y-115543079D01*
X90519457Y-115553044D01*
X90539448Y-115565026D01*
X90558168Y-115578910D01*
X90575438Y-115594562D01*
X90591090Y-115611832D01*
X90604974Y-115630552D01*
X90616956Y-115650543D01*
X90626921Y-115671613D01*
X90634773Y-115693557D01*
X90640437Y-115716166D01*
X90643856Y-115739221D01*
X90645000Y-115762500D01*
X90645000Y-116337500D01*
X90643856Y-116360779D01*
X90640437Y-116383834D01*
X90634773Y-116406443D01*
X90626921Y-116428387D01*
X90616956Y-116449457D01*
X90604974Y-116469448D01*
X90591090Y-116488168D01*
X90575438Y-116505438D01*
X90558168Y-116521090D01*
X90539448Y-116534974D01*
X90519457Y-116546956D01*
X90498387Y-116556921D01*
X90476443Y-116564773D01*
X90453834Y-116570437D01*
X90430779Y-116573856D01*
X90407500Y-116575000D01*
X89932500Y-116575000D01*
X89909221Y-116573856D01*
X89886166Y-116570437D01*
X89863557Y-116564773D01*
X89841613Y-116556921D01*
X89820543Y-116546956D01*
X89800552Y-116534974D01*
X89781832Y-116521090D01*
X89764562Y-116505438D01*
X89748910Y-116488168D01*
X89735026Y-116469448D01*
X89723044Y-116449457D01*
X89713079Y-116428387D01*
X89705227Y-116406443D01*
X89699563Y-116383834D01*
X89696144Y-116360779D01*
X89695000Y-116337500D01*
X89695000Y-115762500D01*
X89696144Y-115739221D01*
X89699563Y-115716166D01*
X89705227Y-115693557D01*
X89713079Y-115671613D01*
X89723044Y-115650543D01*
X89735026Y-115630552D01*
X89748910Y-115611832D01*
X89764562Y-115594562D01*
X89781832Y-115578910D01*
X89800552Y-115565026D01*
X89820543Y-115553044D01*
X89841613Y-115543079D01*
X89863557Y-115535227D01*
X89886166Y-115529563D01*
X89909221Y-115526144D01*
X89932500Y-115525000D01*
X90407500Y-115525000D01*
X90430779Y-115526144D01*
G37*
G36*
X106940779Y-113776144D02*
G01*
X106963834Y-113779563D01*
X106986443Y-113785227D01*
X107008387Y-113793079D01*
X107029457Y-113803044D01*
X107049448Y-113815026D01*
X107068168Y-113828910D01*
X107085438Y-113844562D01*
X107101090Y-113861832D01*
X107114974Y-113880552D01*
X107126956Y-113900543D01*
X107136921Y-113921613D01*
X107144773Y-113943557D01*
X107150437Y-113966166D01*
X107153856Y-113989221D01*
X107155000Y-114012500D01*
X107155000Y-114587500D01*
X107153856Y-114610779D01*
X107150437Y-114633834D01*
X107144773Y-114656443D01*
X107136921Y-114678387D01*
X107126956Y-114699457D01*
X107114974Y-114719448D01*
X107101090Y-114738168D01*
X107085438Y-114755438D01*
X107068168Y-114771090D01*
X107049448Y-114784974D01*
X107029457Y-114796956D01*
X107008387Y-114806921D01*
X106986443Y-114814773D01*
X106963834Y-114820437D01*
X106940779Y-114823856D01*
X106917500Y-114825000D01*
X106442500Y-114825000D01*
X106419221Y-114823856D01*
X106396166Y-114820437D01*
X106373557Y-114814773D01*
X106351613Y-114806921D01*
X106330543Y-114796956D01*
X106310552Y-114784974D01*
X106291832Y-114771090D01*
X106274562Y-114755438D01*
X106258910Y-114738168D01*
X106245026Y-114719448D01*
X106233044Y-114699457D01*
X106223079Y-114678387D01*
X106215227Y-114656443D01*
X106209563Y-114633834D01*
X106206144Y-114610779D01*
X106205000Y-114587500D01*
X106205000Y-114012500D01*
X106206144Y-113989221D01*
X106209563Y-113966166D01*
X106215227Y-113943557D01*
X106223079Y-113921613D01*
X106233044Y-113900543D01*
X106245026Y-113880552D01*
X106258910Y-113861832D01*
X106274562Y-113844562D01*
X106291832Y-113828910D01*
X106310552Y-113815026D01*
X106330543Y-113803044D01*
X106351613Y-113793079D01*
X106373557Y-113785227D01*
X106396166Y-113779563D01*
X106419221Y-113776144D01*
X106442500Y-113775000D01*
X106917500Y-113775000D01*
X106940779Y-113776144D01*
G37*
G36*
X106940779Y-115526144D02*
G01*
X106963834Y-115529563D01*
X106986443Y-115535227D01*
X107008387Y-115543079D01*
X107029457Y-115553044D01*
X107049448Y-115565026D01*
X107068168Y-115578910D01*
X107085438Y-115594562D01*
X107101090Y-115611832D01*
X107114974Y-115630552D01*
X107126956Y-115650543D01*
X107136921Y-115671613D01*
X107144773Y-115693557D01*
X107150437Y-115716166D01*
X107153856Y-115739221D01*
X107155000Y-115762500D01*
X107155000Y-116337500D01*
X107153856Y-116360779D01*
X107150437Y-116383834D01*
X107144773Y-116406443D01*
X107136921Y-116428387D01*
X107126956Y-116449457D01*
X107114974Y-116469448D01*
X107101090Y-116488168D01*
X107085438Y-116505438D01*
X107068168Y-116521090D01*
X107049448Y-116534974D01*
X107029457Y-116546956D01*
X107008387Y-116556921D01*
X106986443Y-116564773D01*
X106963834Y-116570437D01*
X106940779Y-116573856D01*
X106917500Y-116575000D01*
X106442500Y-116575000D01*
X106419221Y-116573856D01*
X106396166Y-116570437D01*
X106373557Y-116564773D01*
X106351613Y-116556921D01*
X106330543Y-116546956D01*
X106310552Y-116534974D01*
X106291832Y-116521090D01*
X106274562Y-116505438D01*
X106258910Y-116488168D01*
X106245026Y-116469448D01*
X106233044Y-116449457D01*
X106223079Y-116428387D01*
X106215227Y-116406443D01*
X106209563Y-116383834D01*
X106206144Y-116360779D01*
X106205000Y-116337500D01*
X106205000Y-115762500D01*
X106206144Y-115739221D01*
X106209563Y-115716166D01*
X106215227Y-115693557D01*
X106223079Y-115671613D01*
X106233044Y-115650543D01*
X106245026Y-115630552D01*
X106258910Y-115611832D01*
X106274562Y-115594562D01*
X106291832Y-115578910D01*
X106310552Y-115565026D01*
X106330543Y-115553044D01*
X106351613Y-115543079D01*
X106373557Y-115535227D01*
X106396166Y-115529563D01*
X106419221Y-115526144D01*
X106442500Y-115525000D01*
X106917500Y-115525000D01*
X106940779Y-115526144D01*
G37*
G36*
X92970779Y-109486144D02*
G01*
X92993834Y-109489563D01*
X93016443Y-109495227D01*
X93038387Y-109503079D01*
X93059457Y-109513044D01*
X93079448Y-109525026D01*
X93098168Y-109538910D01*
X93115438Y-109554562D01*
X93131090Y-109571832D01*
X93144974Y-109590552D01*
X93156956Y-109610543D01*
X93166921Y-109631613D01*
X93174773Y-109653557D01*
X93180437Y-109676166D01*
X93183856Y-109699221D01*
X93185000Y-109722500D01*
X93185000Y-110297500D01*
X93183856Y-110320779D01*
X93180437Y-110343834D01*
X93174773Y-110366443D01*
X93166921Y-110388387D01*
X93156956Y-110409457D01*
X93144974Y-110429448D01*
X93131090Y-110448168D01*
X93115438Y-110465438D01*
X93098168Y-110481090D01*
X93079448Y-110494974D01*
X93059457Y-110506956D01*
X93038387Y-110516921D01*
X93016443Y-110524773D01*
X92993834Y-110530437D01*
X92970779Y-110533856D01*
X92947500Y-110535000D01*
X92472500Y-110535000D01*
X92449221Y-110533856D01*
X92426166Y-110530437D01*
X92403557Y-110524773D01*
X92381613Y-110516921D01*
X92360543Y-110506956D01*
X92340552Y-110494974D01*
X92321832Y-110481090D01*
X92304562Y-110465438D01*
X92288910Y-110448168D01*
X92275026Y-110429448D01*
X92263044Y-110409457D01*
X92253079Y-110388387D01*
X92245227Y-110366443D01*
X92239563Y-110343834D01*
X92236144Y-110320779D01*
X92235000Y-110297500D01*
X92235000Y-109722500D01*
X92236144Y-109699221D01*
X92239563Y-109676166D01*
X92245227Y-109653557D01*
X92253079Y-109631613D01*
X92263044Y-109610543D01*
X92275026Y-109590552D01*
X92288910Y-109571832D01*
X92304562Y-109554562D01*
X92321832Y-109538910D01*
X92340552Y-109525026D01*
X92360543Y-109513044D01*
X92381613Y-109503079D01*
X92403557Y-109495227D01*
X92426166Y-109489563D01*
X92449221Y-109486144D01*
X92472500Y-109485000D01*
X92947500Y-109485000D01*
X92970779Y-109486144D01*
G37*
G36*
X92970779Y-111236144D02*
G01*
X92993834Y-111239563D01*
X93016443Y-111245227D01*
X93038387Y-111253079D01*
X93059457Y-111263044D01*
X93079448Y-111275026D01*
X93098168Y-111288910D01*
X93115438Y-111304562D01*
X93131090Y-111321832D01*
X93144974Y-111340552D01*
X93156956Y-111360543D01*
X93166921Y-111381613D01*
X93174773Y-111403557D01*
X93180437Y-111426166D01*
X93183856Y-111449221D01*
X93185000Y-111472500D01*
X93185000Y-112047500D01*
X93183856Y-112070779D01*
X93180437Y-112093834D01*
X93174773Y-112116443D01*
X93166921Y-112138387D01*
X93156956Y-112159457D01*
X93144974Y-112179448D01*
X93131090Y-112198168D01*
X93115438Y-112215438D01*
X93098168Y-112231090D01*
X93079448Y-112244974D01*
X93059457Y-112256956D01*
X93038387Y-112266921D01*
X93016443Y-112274773D01*
X92993834Y-112280437D01*
X92970779Y-112283856D01*
X92947500Y-112285000D01*
X92472500Y-112285000D01*
X92449221Y-112283856D01*
X92426166Y-112280437D01*
X92403557Y-112274773D01*
X92381613Y-112266921D01*
X92360543Y-112256956D01*
X92340552Y-112244974D01*
X92321832Y-112231090D01*
X92304562Y-112215438D01*
X92288910Y-112198168D01*
X92275026Y-112179448D01*
X92263044Y-112159457D01*
X92253079Y-112138387D01*
X92245227Y-112116443D01*
X92239563Y-112093834D01*
X92236144Y-112070779D01*
X92235000Y-112047500D01*
X92235000Y-111472500D01*
X92236144Y-111449221D01*
X92239563Y-111426166D01*
X92245227Y-111403557D01*
X92253079Y-111381613D01*
X92263044Y-111360543D01*
X92275026Y-111340552D01*
X92288910Y-111321832D01*
X92304562Y-111304562D01*
X92321832Y-111288910D01*
X92340552Y-111275026D01*
X92360543Y-111263044D01*
X92381613Y-111253079D01*
X92403557Y-111245227D01*
X92426166Y-111239563D01*
X92449221Y-111236144D01*
X92472500Y-111235000D01*
X92947500Y-111235000D01*
X92970779Y-111236144D01*
G37*
G36*
X90430779Y-109486144D02*
G01*
X90453834Y-109489563D01*
X90476443Y-109495227D01*
X90498387Y-109503079D01*
X90519457Y-109513044D01*
X90539448Y-109525026D01*
X90558168Y-109538910D01*
X90575438Y-109554562D01*
X90591090Y-109571832D01*
X90604974Y-109590552D01*
X90616956Y-109610543D01*
X90626921Y-109631613D01*
X90634773Y-109653557D01*
X90640437Y-109676166D01*
X90643856Y-109699221D01*
X90645000Y-109722500D01*
X90645000Y-110297500D01*
X90643856Y-110320779D01*
X90640437Y-110343834D01*
X90634773Y-110366443D01*
X90626921Y-110388387D01*
X90616956Y-110409457D01*
X90604974Y-110429448D01*
X90591090Y-110448168D01*
X90575438Y-110465438D01*
X90558168Y-110481090D01*
X90539448Y-110494974D01*
X90519457Y-110506956D01*
X90498387Y-110516921D01*
X90476443Y-110524773D01*
X90453834Y-110530437D01*
X90430779Y-110533856D01*
X90407500Y-110535000D01*
X89932500Y-110535000D01*
X89909221Y-110533856D01*
X89886166Y-110530437D01*
X89863557Y-110524773D01*
X89841613Y-110516921D01*
X89820543Y-110506956D01*
X89800552Y-110494974D01*
X89781832Y-110481090D01*
X89764562Y-110465438D01*
X89748910Y-110448168D01*
X89735026Y-110429448D01*
X89723044Y-110409457D01*
X89713079Y-110388387D01*
X89705227Y-110366443D01*
X89699563Y-110343834D01*
X89696144Y-110320779D01*
X89695000Y-110297500D01*
X89695000Y-109722500D01*
X89696144Y-109699221D01*
X89699563Y-109676166D01*
X89705227Y-109653557D01*
X89713079Y-109631613D01*
X89723044Y-109610543D01*
X89735026Y-109590552D01*
X89748910Y-109571832D01*
X89764562Y-109554562D01*
X89781832Y-109538910D01*
X89800552Y-109525026D01*
X89820543Y-109513044D01*
X89841613Y-109503079D01*
X89863557Y-109495227D01*
X89886166Y-109489563D01*
X89909221Y-109486144D01*
X89932500Y-109485000D01*
X90407500Y-109485000D01*
X90430779Y-109486144D01*
G37*
G36*
X90430779Y-111236144D02*
G01*
X90453834Y-111239563D01*
X90476443Y-111245227D01*
X90498387Y-111253079D01*
X90519457Y-111263044D01*
X90539448Y-111275026D01*
X90558168Y-111288910D01*
X90575438Y-111304562D01*
X90591090Y-111321832D01*
X90604974Y-111340552D01*
X90616956Y-111360543D01*
X90626921Y-111381613D01*
X90634773Y-111403557D01*
X90640437Y-111426166D01*
X90643856Y-111449221D01*
X90645000Y-111472500D01*
X90645000Y-112047500D01*
X90643856Y-112070779D01*
X90640437Y-112093834D01*
X90634773Y-112116443D01*
X90626921Y-112138387D01*
X90616956Y-112159457D01*
X90604974Y-112179448D01*
X90591090Y-112198168D01*
X90575438Y-112215438D01*
X90558168Y-112231090D01*
X90539448Y-112244974D01*
X90519457Y-112256956D01*
X90498387Y-112266921D01*
X90476443Y-112274773D01*
X90453834Y-112280437D01*
X90430779Y-112283856D01*
X90407500Y-112285000D01*
X89932500Y-112285000D01*
X89909221Y-112283856D01*
X89886166Y-112280437D01*
X89863557Y-112274773D01*
X89841613Y-112266921D01*
X89820543Y-112256956D01*
X89800552Y-112244974D01*
X89781832Y-112231090D01*
X89764562Y-112215438D01*
X89748910Y-112198168D01*
X89735026Y-112179448D01*
X89723044Y-112159457D01*
X89713079Y-112138387D01*
X89705227Y-112116443D01*
X89699563Y-112093834D01*
X89696144Y-112070779D01*
X89695000Y-112047500D01*
X89695000Y-111472500D01*
X89696144Y-111449221D01*
X89699563Y-111426166D01*
X89705227Y-111403557D01*
X89713079Y-111381613D01*
X89723044Y-111360543D01*
X89735026Y-111340552D01*
X89748910Y-111321832D01*
X89764562Y-111304562D01*
X89781832Y-111288910D01*
X89800552Y-111275026D01*
X89820543Y-111263044D01*
X89841613Y-111253079D01*
X89863557Y-111245227D01*
X89886166Y-111239563D01*
X89909221Y-111236144D01*
X89932500Y-111235000D01*
X90407500Y-111235000D01*
X90430779Y-111236144D01*
G37*
M02*
